  0
SECTION
  2
HEADER
  9
$ACADVER
  1
AC1032
  9
$ACADMAINTVER
 90
        4
  9
$DWGCODEPAGE
  3
ANSI_1256
  9
$LASTSAVEDBY
  1
mohammad
  9
$REQUIREDVERSIONS
160
                 0
  9
$INSBASE
 10
0.0
 20
0.0
 30
0.0
  9
$EXTMIN
 10
-1232.64578247842
 20
-96.02083107326249
 30
0.0
  9
$EXTMAX
 10
676.4305115550929
 20
1124.62091490094
 30
0.0
  9
$LIMMIN
 10
0.0
 20
0.0
  9
$LIMMAX
 10
12.0
 20
9.0
  9
$ORTHOMODE
 70
     0
  9
$REGENMODE
 70
     1
  9
$FILLMODE
 70
     1
  9
$QTEXTMODE
 70
     0
  9
$MIRRTEXT
 70
     0
  9
$LTSCALE
 40
1.0
  9
$ATTMODE
 70
     1
  9
$TEXTSIZE
 40
0.2
  9
$TRACEWID
 40
0.05
  9
$TEXTSTYLE
  7
Standard
  9
$CLAYER
  8
0
  9
$CELTYPE
  6
Continuous
  9
$CECOLOR
 62
   256
  9
$CELTSCALE
 40
1.0
  9
$DISPSILH
 70
     0
  9
$DIMSCALE
 40
1.0
  9
$DIMASZ
 40
0.18
  9
$DIMEXO
 40
0.0625
  9
$DIMDLI
 40
0.38
  9
$DIMRND
 40
0.0
  9
$DIMDLE
 40
0.0
  9
$DIMEXE
 40
0.18
  9
$DIMTP
 40
0.0
  9
$DIMTM
 40
0.0
  9
$DIMTXT
 40
0.18
  9
$DIMCEN
 40
0.09
  9
$DIMTSZ
 40
0.0
  9
$DIMTOL
 70
     0
  9
$DIMLIM
 70
     0
  9
$DIMTIH
 70
     1
  9
$DIMTOH
 70
     1
  9
$DIMSE1
 70
     0
  9
$DIMSE2
 70
     0
  9
$DIMTAD
 70
     0
  9
$DIMZIN
 70
     0
  9
$DIMBLK
  1

  9
$DIMASO
 70
     1
  9
$DIMSHO
 70
     1
  9
$DIMPOST
  1

  9
$DIMAPOST
  1

  9
$DIMALT
 70
     0
  9
$DIMALTD
 70
     2
  9
$DIMALTF
 40
25.4
  9
$DIMLFAC
 40
1.0
  9
$DIMTOFL
 70
     0
  9
$DIMTVP
 40
0.0
  9
$DIMTIX
 70
     0
  9
$DIMSOXD
 70
     0
  9
$DIMSAH
 70
     0
  9
$DIMBLK1
  1

  9
$DIMBLK2
  1

  9
$DIMSTYLE
  2
Standard
  9
$DIMCLRD
 70
     0
  9
$DIMCLRE
 70
     0
  9
$DIMCLRT
 70
     0
  9
$DIMTFAC
 40
1.0
  9
$DIMGAP
 40
0.09
  9
$DIMJUST
 70
     0
  9
$DIMSD1
 70
     0
  9
$DIMSD2
 70
     0
  9
$DIMTOLJ
 70
     1
  9
$DIMTZIN
 70
     0
  9
$DIMALTZ
 70
     0
  9
$DIMALTTZ
 70
     0
  9
$DIMUPT
 70
     0
  9
$DIMDEC
 70
     4
  9
$DIMTDEC
 70
     4
  9
$DIMALTU
 70
     2
  9
$DIMALTTD
 70
     2
  9
$DIMTXSTY
  7
Standard
  9
$DIMAUNIT
 70
     0
  9
$DIMADEC
 70
     0
  9
$DIMALTRND
 40
0.0
  9
$DIMAZIN
 70
     0
  9
$DIMDSEP
 70
    46
  9
$DIMATFIT
 70
     3
  9
$DIMFRAC
 70
     0
  9
$DIMLDRBLK
  1

  9
$DIMLUNIT
 70
     2
  9
$DIMLWD
 70
    -2
  9
$DIMLWE
 70
    -2
  9
$DIMTMOVE
 70
     0
  9
$DIMFXL
 40
1.0
  9
$DIMFXLON
 70
     0
  9
$DIMJOGANG
 40
0.7853981633974483
  9
$DIMTFILL
 70
     0
  9
$DIMTFILLCLR
 70
     0
  9
$DIMARCSYM
 70
     0
  9
$DIMLTYPE
  6

  9
$DIMLTEX1
  6

  9
$DIMLTEX2
  6

  9
$DIMTXTDIRECTION
 70
     0
  9
$LUNITS
 70
     2
  9
$LUPREC
 70
     4
  9
$SKETCHINC
 40
0.1
  9
$FILLETRAD
 40
0.0
  9
$AUNITS
 70
     0
  9
$AUPREC
 70
     0
  9
$MENU
  1
.
  9
$ELEVATION
 40
0.0
  9
$PELEVATION
 40
0.0
  9
$THICKNESS
 40
0.0
  9
$LIMCHECK
 70
     0
  9
$CHAMFERA
 40
0.0
  9
$CHAMFERB
 40
0.0
  9
$CHAMFERC
 40
0.0
  9
$CHAMFERD
 40
0.0
  9
$SKPOLY
 70
     0
  9
$TDCREATE
 40
2458764.708680556
  9
$TDUCREATE
 40
2458764.562847222
  9
$TDUPDATE
 40
2458764.711851852
  9
$TDUUPDATE
 40
2458764.566018519
  9
$TDINDWG
 40
0.0031712963
  9
$TDUSRTIMER
 40
0.0031712963
  9
$USRTIMER
 70
     1
  9
$ANGBASE
 50
0.0
  9
$ANGDIR
 70
     0
  9
$PDMODE
 70
     0
  9
$PDSIZE
 40
0.0
  9
$PLINEWID
 40
0.0
  9
$SPLFRAME
 70
     0
  9
$SPLINETYPE
 70
     6
  9
$SPLINESEGS
 70
     8
  9
$HANDSEED
  5
757
  9
$SURFTAB1
 70
     6
  9
$SURFTAB2
 70
     6
  9
$SURFTYPE
 70
     6
  9
$SURFU
 70
     6
  9
$SURFV
 70
     6
  9
$UCSBASE
  2

  9
$UCSNAME
  2

  9
$UCSORG
 10
0.0
 20
0.0
 30
0.0
  9
$UCSXDIR
 10
1.0
 20
0.0
 30
0.0
  9
$UCSYDIR
 10
0.0
 20
1.0
 30
0.0
  9
$UCSORTHOREF
  2

  9
$UCSORTHOVIEW
 70
     0
  9
$UCSORGTOP
 10
0.0
 20
0.0
 30
0.0
  9
$UCSORGBOTTOM
 10
0.0
 20
0.0
 30
0.0
  9
$UCSORGLEFT
 10
0.0
 20
0.0
 30
0.0
  9
$UCSORGRIGHT
 10
0.0
 20
0.0
 30
0.0
  9
$UCSORGFRONT
 10
0.0
 20
0.0
 30
0.0
  9
$UCSORGBACK
 10
0.0
 20
0.0
 30
0.0
  9
$PUCSBASE
  2

  9
$PUCSNAME
  2

  9
$PUCSORG
 10
0.0
 20
0.0
 30
0.0
  9
$PUCSXDIR
 10
1.0
 20
0.0
 30
0.0
  9
$PUCSYDIR
 10
0.0
 20
1.0
 30
0.0
  9
$PUCSORTHOREF
  2

  9
$PUCSORTHOVIEW
 70
     0
  9
$PUCSORGTOP
 10
0.0
 20
0.0
 30
0.0
  9
$PUCSORGBOTTOM
 10
0.0
 20
0.0
 30
0.0
  9
$PUCSORGLEFT
 10
0.0
 20
0.0
 30
0.0
  9
$PUCSORGRIGHT
 10
0.0
 20
0.0
 30
0.0
  9
$PUCSORGFRONT
 10
0.0
 20
0.0
 30
0.0
  9
$PUCSORGBACK
 10
0.0
 20
0.0
 30
0.0
  9
$USERI1
 70
     0
  9
$USERI2
 70
     0
  9
$USERI3
 70
     0
  9
$USERI4
 70
     0
  9
$USERI5
 70
     0
  9
$USERR1
 40
0.0
  9
$USERR2
 40
0.0
  9
$USERR3
 40
0.0
  9
$USERR4
 40
0.0
  9
$USERR5
 40
0.0
  9
$WORLDVIEW
 70
     1
  9
$SHADEDGE
 70
     3
  9
$SHADEDIF
 70
    70
  9
$TILEMODE
 70
     1
  9
$MAXACTVP
 70
    64
  9
$PINSBASE
 10
0.0
 20
0.0
 30
0.0
  9
$PLIMCHECK
 70
     0
  9
$PEXTMIN
 10
1.000000000000000E+20
 20
1.000000000000000E+20
 30
1.000000000000000E+20
  9
$PEXTMAX
 10
-1.000000000000000E+20
 20
-1.000000000000000E+20
 30
-1.000000000000000E+20
  9
$PLIMMIN
 10
0.0
 20
0.0
  9
$PLIMMAX
 10
12.0
 20
9.0
  9
$UNITMODE
 70
     0
  9
$VISRETAIN
 70
     1
  9
$PLINEGEN
 70
     0
  9
$PSLTSCALE
 70
     1
  9
$TREEDEPTH
 70
  3020
  9
$CMLSTYLE
  2
Standard
  9
$CMLJUST
 70
     0
  9
$CMLSCALE
 40
1.0
  9
$PROXYGRAPHICS
 70
     1
  9
$MEASUREMENT
 70
     1
  9
$CELWEIGHT
370
    -1
  9
$ENDCAPS
280
     0
  9
$JOINSTYLE
280
     0
  9
$LWDISPLAY
290
     0
  9
$INSUNITS
 70
     4
  9
$HYPERLINKBASE
  1

  9
$STYLESHEET
  1

  9
$XEDIT
290
     1
  9
$CEPSNTYPE
380
     0
  9
$PSTYLEMODE
290
     1
  9
$FINGERPRINTGUID
  2
{89747331-7D22-C44F-8C9C-278C79FC7408}
  9
$VERSIONGUID
  2
{C9C64274-02D4-5347-8211-5B59FA841FE6}
  9
$EXTNAMES
290
     1
  9
$PSVPSCALE
 40
0.0
  9
$OLESTARTUP
290
     0
  9
$SORTENTS
280
   127
  9
$INDEXCTL
280
     0
  9
$HIDETEXT
280
     0
  9
$XCLIPFRAME
280
     2
  9
$HALOGAP
280
     0
  9
$OBSCOLOR
 70
   257
  9
$OBSLTYPE
280
     0
  9
$INTERSECTIONDISPLAY
280
     0
  9
$INTERSECTIONCOLOR
 70
   257
  9
$DIMASSOC
280
     1
  9
$PROJECTNAME
  1

  9
$CAMERADISPLAY
290
     0
  9
$LENSLENGTH
 40
50.0
  9
$CAMERAHEIGHT
 40
0.0
  9
$STEPSPERSEC
 40
2.0
  9
$STEPSIZE
 40
6.0
  9
$3DDWFPREC
 40
2.0
  9
$PSOLWIDTH
 40
0.25
  9
$PSOLHEIGHT
 40
4.0
  9
$LOFTANG1
 40
1.570796326794896
  9
$LOFTANG2
 40
1.570796326794896
  9
$LOFTMAG1
 40
0.0
  9
$LOFTMAG2
 40
0.0
  9
$LOFTPARAM
 70
     7
  9
$LOFTNORMALS
280
     1
  9
$LATITUDE
 40
37.795
  9
$LONGITUDE
 40
-122.394
  9
$NORTHDIRECTION
 40
0.0
  9
$TIMEZONE
 70
 -8000
  9
$LIGHTGLYPHDISPLAY
280
     1
  9
$TILEMODELIGHTSYNCH
280
     1
  9
$CMATERIAL
347
11
  9
$SOLIDHIST
280
     0
  9
$SHOWHIST
280
     1
  9
$DWFFRAME
280
     2
  9
$DGNFRAME
280
     0
  9
$REALWORLDSCALE
290
     1
  9
$INTERFERECOLOR
 62
     1
  9
$INTERFEREOBJVS
345
33
  9
$INTERFEREVPVS
346
30
  9
$CSHADOW
280
     0
  9
$SHADOWPLANELOCATION
 40
0.0
  0
ENDSEC
  0
SECTION
  2
CLASSES
  0
CLASS
  1
ACDBDICTIONARYWDFLT
  2
AcDbDictionaryWithDefault
  3
ObjectDBX Classes
 90
        0
 91
        1
280
     0
281
     0
  0
CLASS
  1
MATERIAL
  2
AcDbMaterial
  3
ObjectDBX Classes
 90
     1153
 91
        3
280
     0
281
     0
  0
CLASS
  1
VISUALSTYLE
  2
AcDbVisualStyle
  3
ObjectDBX Classes
 90
     4095
 91
       24
280
     0
281
     0
  0
CLASS
  1
SCALE
  2
AcDbScale
  3
ObjectDBX Classes
 90
     1153
 91
       17
280
     0
281
     0
  0
CLASS
  1
TABLESTYLE
  2
AcDbTableStyle
  3
ObjectDBX Classes
 90
     4095
 91
        1
280
     0
281
     0
  0
CLASS
  1
MLEADERSTYLE
  2
AcDbMLeaderStyle
  3
ACDB_MLEADERSTYLE_CLASS
 90
     4095
 91
        1
280
     0
281
     0
  0
CLASS
  1
ACDBSECTIONVIEWSTYLE
  2
AcDbSectionViewStyle
  3
ObjectDBX Classes
 90
     1025
 91
        2
280
     0
281
     0
  0
CLASS
  1
ACDBDETAILVIEWSTYLE
  2
AcDbDetailViewStyle
  3
ObjectDBX Classes
 90
     1025
 91
        2
280
     0
281
     0
  0
CLASS
  1
DICTIONARYVAR
  2
AcDbDictionaryVar
  3
ObjectDBX Classes
 90
        0
 91
        9
280
     0
281
     0
  0
CLASS
  1
CELLSTYLEMAP
  2
AcDbCellStyleMap
  3
ObjectDBX Classes
 90
     1152
 91
        1
280
     0
281
     0
  0
ENDSEC
  0
SECTION
  2
TABLES
  0
TABLE
  2
VPORT
  5
8
330
0
100
AcDbSymbolTable
 70
     1
  0
VPORT
  5
77
330
8
100
AcDbSymbolTableRecord
100
AcDbViewportTableRecord
  2
*Active
 70
     0
 10
0.0
 20
0.0
 11
1.0
 21
1.0
 12
2554.666577793006
 22
502.0753155912712
 13
0.0
 23
0.0
 14
1.0
 24
1.0
 15
0.0
 25
0.0
 16
0.0
 26
0.0
 36
1.0
 17
0.0
 27
0.0
 37
0.0
 40
2661.768632676735
 41
2.975663716814159
 42
50.0
 43
0.0
 44
0.0
 50
0.0
 51
0.0
 71
     0
 72
   100
 73
     1
 74
     1
 75
     0
 76
     0
 77
     0
 78
     0
281
     0
 65
     1
110
0.0
120
0.0
130
0.0
111
1.0
121
0.0
131
0.0
112
0.0
122
1.0
132
0.0
 79
     0
146
0.0
348
2F
 60
     3
 61
     5
292
     1
282
     1
141
0.0
142
0.0
 63
   250
421
  3355443
1001
ACAD_NAV_VCDISPLAY
1070
     3
  0
ENDTAB
  0
TABLE
  2
LTYPE
  5
5
330
0
100
AcDbSymbolTable
 70
     2
  0
LTYPE
  5
5A
330
5
100
AcDbSymbolTableRecord
100
AcDbLinetypeTableRecord
  2
ByBlock
 70
     0
  3

 72
    65
 73
     0
 40
0.0
  0
LTYPE
  5
5B
330
5
100
AcDbSymbolTableRecord
100
AcDbLinetypeTableRecord
  2
ByLayer
 70
     0
  3

 72
    65
 73
     0
 40
0.0
  0
LTYPE
  5
5C
330
5
100
AcDbSymbolTableRecord
100
AcDbLinetypeTableRecord
  2
Continuous
 70
     0
  3
Solid line
 72
    65
 73
     0
 40
0.0
  0
ENDTAB
  0
TABLE
  2
LAYER
  5
2
330
0
100
AcDbSymbolTable
 70
     4
  0
LAYER
  5
54
102
{ACAD_XDICTIONARY
360
741
102
}
330
2
100
AcDbSymbolTableRecord
100
AcDbLayerTableRecord
  2
0
 70
     0
 62
     7
  6
Continuous
370
    -3
390
F
347
21
348
0
  0
LAYER
  5
73
102
{ACAD_XDICTIONARY
360
743
102
}
330
2
100
AcDbSymbolTableRecord
100
AcDbLayerTableRecord
  2
OLETUSARVO
 70
     0
 62
    70
  6
Continuous
370
    -3
390
F
347
21
348
0
  0
LAYER
  5
74
102
{ACAD_XDICTIONARY
360
745
102
}
330
2
100
AcDbSymbolTableRecord
100
AcDbLayerTableRecord
  2
KERROS1
 70
     0
 62
     7
  6
Continuous
370
    -3
390
F
347
21
348
0
  0
LAYER
  5
75
102
{ACAD_XDICTIONARY
360
747
102
}
330
2
100
AcDbSymbolTableRecord
100
AcDbLayerTableRecord
  2
KERROS2
 70
     0
 62
     3
  6
Continuous
370
    -3
390
F
347
21
348
0
  0
ENDTAB
  0
TABLE
  2
STYLE
  5
3
330
0
100
AcDbSymbolTable
 70
     2
  0
STYLE
  5
55
330
3
100
AcDbSymbolTableRecord
100
AcDbTextStyleTableRecord
  2
Standard
 70
     0
 40
0.0
 41
1.0
 50
0.0
 71
     0
 42
0.2
  3
txt
  4

  0
STYLE
  5
59
330
3
100
AcDbSymbolTableRecord
100
AcDbTextStyleTableRecord
  2
Annotative
 70
     0
 40
0.0
 41
1.0
 50
0.0
 71
     0
 42
0.2
  3
txt
  4

1001
AcadAnnotative
1000
AnnotativeData
1002
{
1070
     1
1070
     1
1002
}
  0
ENDTAB
  0
TABLE
  2
VIEW
  5
6
330
0
100
AcDbSymbolTable
 70
     0
  0
ENDTAB
  0
TABLE
  2
UCS
  5
7
330
0
100
AcDbSymbolTable
 70
     0
  0
ENDTAB
  0
TABLE
  2
APPID
  5
9
330
0
100
AcDbSymbolTable
 70
     3
  0
APPID
  5
56
330
9
100
AcDbSymbolTableRecord
100
AcDbRegAppTableRecord
  2
ACAD
 70
     0
  0
APPID
  5
5D
330
9
100
AcDbSymbolTableRecord
100
AcDbRegAppTableRecord
  2
AcadAnnotative
 70
     0
  0
APPID
  5
753
330
9
100
AcDbSymbolTableRecord
100
AcDbRegAppTableRecord
  2
ACAD_NAV_VCDISPLAY
 70
     0
  0
ENDTAB
  0
TABLE
  2
DIMSTYLE
  5
A
330
0
100
AcDbSymbolTable
 70
     3
100
AcDbDimStyleTable
 71
     0
  0
DIMSTYLE
105
57
330
A
100
AcDbSymbolTableRecord
100
AcDbDimStyleTableRecord
  2
Standard
 70
     0
340
55
  0
DIMSTYLE
105
58
330
A
100
AcDbSymbolTableRecord
100
AcDbDimStyleTableRecord
  2
Annotative
 70
     0
340
55
1001
AcadAnnotative
1000
AnnotativeData
1002
{
1070
     1
1070
     1
1002
}
  0
ENDTAB
  0
TABLE
  2
BLOCK_RECORD
  5
1
330
0
100
AcDbSymbolTable
 70
     1
  0
BLOCK_RECORD
  5
6F
330
1
100
AcDbSymbolTableRecord
100
AcDbBlockTableRecord
  2
*Model_Space
340
72
 70
     0
280
     1
281
     0
  0
BLOCK_RECORD
  5
6B
330
1
100
AcDbSymbolTableRecord
100
AcDbBlockTableRecord
  2
*Paper_Space
340
6E
 70
     0
280
     1
281
     0
  0
ENDTAB
  0
ENDSEC
  0
SECTION
  2
BLOCKS
  0
BLOCK
  5
70
330
6F
100
AcDbEntity
  8
0
100
AcDbBlockBegin
  2
*Model_Space
 70
     0
 10
0.0
 20
0.0
 30
0.0
  3
*Model_Space
  1

  0
ENDBLK
  5
71
330
6F
100
AcDbEntity
  8
0
100
AcDbBlockEnd
  0
BLOCK
  5
6C
330
6B
100
AcDbEntity
 67
     1
  8
0
100
AcDbBlockBegin
  2
*Paper_Space
 70
     0
 10
0.0
 20
0.0
 30
0.0
  3
*Paper_Space
  1

  0
ENDBLK
  5
6D
330
6B
100
AcDbEntity
 67
     1
  8
0
100
AcDbBlockEnd
  0
ENDSEC
  0
SECTION
  2
ENTITIES
  0
LWPOLYLINE
  5
78
330
6F
100
AcDbEntity
  8
OLETUSARVO
100
AcDbPolyline
 90
        2
 70
     1
 43
0.0
 10
380.01178064614
 20
595.000026821923
 10
380.01178064614
 20
595.000026821923
  0
LWPOLYLINE
  5
7C
330
6F
100
AcDbEntity
  8
OLETUSARVO
100
AcDbPolyline
 90
        2
 70
     1
 43
0.0
 10
380.011814173841
 20
594.999731778974
 10
380.011814173841
 20
594.999731778974
  0
LWPOLYLINE
  5
80
330
6F
100
AcDbEntity
  8
OLETUSARVO
100
AcDbPolyline
 90
        2
 70
     1
 43
0.0
 10
380.01178064614
 20
595.000026821923
 10
380.01178064614
 20
595.000026821923
  0
LWPOLYLINE
  5
84
330
6F
100
AcDbEntity
  8
OLETUSARVO
100
AcDbPolyline
 90
        2
 70
     1
 43
0.0
 10
386.0
 20
595.0
 42
0.0000471474628
 10
386.0
 20
595.0
  0
LWPOLYLINE
  5
88
330
6F
100
AcDbEntity
  8
OLETUSARVO
100
AcDbPolyline
 90
        2
 70
     1
 43
0.0
 10
386.093133002106
 20
594.999999999997
 10
386.093133002106
 20
594.999999999997
  0
LWPOLYLINE
  5
8C
330
6F
100
AcDbEntity
  8
OLETUSARVO
100
AcDbPolyline
 90
        2
 70
     1
 43
0.0
 10
386.093166529513
 20
594.999704957175
 10
386.093166529513
 20
594.999704957175
  0
LWPOLYLINE
  5
90
330
6F
100
AcDbEntity
  8
OLETUSARVO
100
AcDbPolyline
 90
        2
 70
     1
 43
0.0
 10
386.093173235241
 20
594.951854348397
 42
0.000269765074
 10
386.093173235241
 20
594.951854348397
  0
LWPOLYLINE
  5
94
330
6F
100
AcDbEntity
  8
OLETUSARVO
100
AcDbPolyline
 90
        2
 70
     1
 43
0.0
 10
382.43764319471
 20
643.4292757242619
 42
0.0144223750075
 10
382.43764319471
 20
643.4292757242619
  0
LWPOLYLINE
  5
98
330
6F
100
AcDbEntity
  8
OLETUSARVO
100
AcDbPolyline
 90
        2
 70
     1
 43
0.0
 10
382.329930127234
 20
643.432747711118
 42
0.0153938358761
 10
382.329930127234
 20
643.432747711118
  0
CIRCLE
  5
9C
330
6F
100
AcDbEntity
  8
OLETUSARVO
100
AcDbCircle
 10
344.737147697182
 20
777.4296750250889
 30
0.0
 40
5.429272960154799
  0
CIRCLE
  5
9D
330
6F
100
AcDbEntity
  8
OLETUSARVO
100
AcDbCircle
 10
226.081245296202
 20
785.427196464704
 30
0.0
 40
6.0
  0
LWPOLYLINE
  5
BA
330
6F
100
AcDbEntity
  8
OLETUSARVO
100
AcDbPolyline
 90
       11
 70
     1
 43
0.0
 10
200.593465817043
 20
531.0676155063901
 10
201.261806517821
 20
519.0013523630519
 42
0.0229510942812
 10
203.279498164024
 20
492.4318952255569
 42
-0.0815707129148
 10
203.6618065178199
 20
323.401352363052
 10
191.314359531469
 20
286.498568020897
 42
0.3565753705729
 10
204.764080876321
 20
250.998701149025
 42
0.5077150954925001
 10
249.072139270451
 20
270.573394798499
 10
254.06180651782
 20
293.401352363052
 42
0.0640362868778
 10
252.697401836446
 20
448.135283739372
 42
0.0184013747431
 10
238.910562856076
 20
533.562022004765
 42
0.5527189526929001
 10
210.164080876321
 20
548.7571498812189
 42
0.2828316687159
  0
CIRCLE
  5
C7
330
6F
100
AcDbEntity
  8
OLETUSARVO
100
AcDbCircle
 10
266.901228573503
 20
307.009138239653
 30
0.0
 40
5.4287795300424
  0
CIRCLE
  5
C8
330
6F
100
AcDbEntity
  8
OLETUSARVO
100
AcDbCircle
 10
266.901228573503
 20
307.009138239653
 30
0.0
 40
5.429272960154799
  0
CIRCLE
  5
C9
330
6F
100
AcDbEntity
  8
OLETUSARVO
100
AcDbCircle
 10
219.764080876321
 20
532.129462128558
 30
0.0
 40
11.4877663459575
  0
LWPOLYLINE
  5
CA
330
6F
100
AcDbEntity
  8
OLETUSARVO
100
AcDbPolyline
 90
       41
 70
     1
 43
0.0
 10
225.820364072836
 20
454.5721669221869
 42
0.3801042607829
 10
221.109192705562
 20
449.372597481086
 42
-0.0247220307758
 10
222.821539072904
 20
402.607339376628
 42
0.0386233234258
 10
222.895576087894
 20
401.585063695176
 42
0.0428321898617
 10
223.139195767216
 20
400.589374069094
 42
0.0426396589592
 10
223.547875906372
 20
399.649045236832
 42
0.0421217423868
 10
224.107816540041
 20
398.789955150853
 42
0.0235294547106
 10
224.440293855244
 20
398.3995702854
 42
0.0230663280356
 10
224.80455787949
 20
398.038496747744
 42
0.0412936035588
 10
225.61704994846
 20
397.413820999787
 42
0.0426988846534
 10
226.522287440336
 20
396.936108847523
 42
0.042340155304
 10
227.494513102062
 20
396.615820906058
 42
0.058168743143
 10
228.899808229397
 20
396.451122544292
 10
228.899767996156
 20
396.451476595831
 42
0.0001889575105
 10
232.492699351923
 20
396.4514545602299
 42
0.0003272980053
 10
236.085631220788
 20
396.451444409524
 42
0.0000471474628
 10
236.197390823315
 20
396.45144440952
 10
236.197431056204
 20
396.451090358134
 10
236.197439103077
 20
396.3936696276001
 42
0.0529636994133
 10
237.466609441312
 20
396.5263424137181
 42
0.0402129877516
 10
238.456248003885
 20
396.825161954321
 42
0.043020795646
 10
239.38214923392
 20
397.284817475579
 42
0.0404573202268
 10
240.217260371413
 20
397.894558683808
 42
0.0229338258445
 10
240.5937124958
 20
398.249454591254
 42
0.0243827899315
 10
240.939010627605
 20
398.634880555138
 42
0.0197980434519
 10
241.250004205071
 20
399.048381999896
 42
0.0177960145108
 10
241.52519131195
 20
399.486664303793
 42
0.0430937665701
 10
241.961157563293
 20
400.4240963503309
 42
0.0390710413788
 10
242.232433499646
 20
401.421652793881
 42
0.0474722941812
 10
242.333700300612
 20
402.4502370313839
 42
0.0569211457848
 10
237.54961039891
 20
449.7364659546179
 42
0.151023800123
 10
235.279453535269
 20
453.310040288852
 42
0.0349479787743
 10
234.523788964985
 20
453.8041324671489
 42
0.0441116532122
 10
233.581730107917
 20
454.22687006369
 42
0.0413933868328
 10
232.581671163368
 20
454.4845230605149
 42
0.0211057070963
 10
232.068768631851
 20
454.5500196791
 42
0.0191970141268
 10
231.81080305444
 20
454.566575278638
 42
0.0144223750075
 10
231.681547373469
 20
454.5707416628649
 42
0.0153938358761
 10
231.552266170108
 20
454.572134735388
 42
-0.0000611967364
 10
228.686315121607
 20
454.57213473539
 42
0.0000801980707
 10
227.25333959735
 20
454.572166921898
 42
0.0000674086633
  0
CIRCLE
  5
F5
330
6F
100
AcDbEntity
  8
OLETUSARVO
100
AcDbCircle
 10
111.764081356321
 20
532.129462128558
 30
0.0
 40
3.082279252279999
  0
CIRCLE
  5
F6
330
6F
100
AcDbEntity
  8
OLETUSARVO
100
AcDbCircle
 10
219.764080876321
 20
532.129462128558
 30
0.0
 40
2.024172098014899
  0
CIRCLE
  5
F7
330
6F
100
AcDbEntity
  8
OLETUSARVO
100
AcDbCircle
 10
111.764081356321
 20
276.979463262558
 30
0.0
 40
2.3404130403177
  0
CIRCLE
  5
F8
330
6F
100
AcDbEntity
  8
OLETUSARVO
100
AcDbCircle
 10
111.764081356321
 20
276.979463262558
 30
0.0
 40
16.8
  0
CIRCLE
  5
F9
330
6F
100
AcDbEntity
  8
OLETUSARVO
100
AcDbCircle
 10
111.764081356321
 20
532.129462128558
 30
0.0
 40
2.502637130949899
  0
CIRCLE
  5
FA
330
6F
100
AcDbEntity
  8
OLETUSARVO
100
AcDbCircle
 10
111.764081356321
 20
276.979463262558
 30
0.0
 40
2.952217257670999
  0
LWPOLYLINE
  5
FB
330
6F
100
AcDbEntity
  8
OLETUSARVO
100
AcDbPolyline
 90
       14
 70
     1
 43
0.0
 10
124.421031757657
 20
520.930301573848
 42
0.1296468166274
 10
119.324080387902
 20
501.9569108605729
 10
119.324080389601
 20
501.6036396340489
 10
119.324081322721
 20
307.505288668746
 42
0.1224156407514
 10
124.715537711853
 20
287.434371533071
 42
-0.1714351930626
 10
128.408760045743
 20
276.979463262558
 42
-0.5773502691896
 10
103.44174201161
 20
262.564748679689
 42
-0.4686409059266
 10
99.0958367331018
 20
287.775800921245
 42
0.1069128398279
 10
104.204082001741
 20
307.505284726747
 10
104.204082001741
 20
501.603639634048
 10
104.204082001741
 20
501.8285099925779
 42
0.1437022296611
 10
98.20722988144872
 20
522.038309137928
 42
-0.4486966407411
 10
103.313939484848
 20
546.7655371811139
 42
-0.5773502691896
 10
128.664365099266
 20
532.129462128558
 42
-0.1830975120369
  0
CIRCLE
  5
10B
330
6F
100
AcDbEntity
  8
OLETUSARVO
100
AcDbCircle
 10
219.764080876321
 20
532.129462128558
 30
0.0
 40
1.8568705754208
  0
CIRCLE
  5
10C
330
6F
100
AcDbEntity
  8
OLETUSARVO
100
AcDbCircle
 10
148.245326172523
 20
570.1566585452679
 30
0.0
 40
1.5577379295493
  0
CIRCLE
  5
10D
330
6F
100
AcDbEntity
  8
OLETUSARVO
100
AcDbCircle
 10
219.764080876321
 20
532.129462128558
 30
0.0
 40
0.6782135475436999
  0
CIRCLE
  5
10E
330
6F
100
AcDbEntity
  8
OLETUSARVO
100
AcDbCircle
 10
281.813680493265
 20
584.1952582817749
 30
0.0
 40
1.119676289887199
  0
CIRCLE
  5
10F
330
6F
100
AcDbEntity
  8
OLETUSARVO
100
AcDbCircle
 10
281.813680493265
 20
584.1952582817749
 30
0.0
 40
3.1569429125747
  0
LWPOLYLINE
  5
110
330
6F
100
AcDbEntity
  8
OLETUSARVO
100
AcDbPolyline
 90
       10
 70
     1
 43
0.0
 10
271.55333621276
 20
592.112766333713
 42
0.5408866433733
 10
278.673431185773
 20
571.621458824418
 42
0.1607887447583
 10
286.776355552215
 20
572.223063213028
 42
-0.0985567151141
 10
315.725293397446
 20
577.985258309375
 10
524.652063129344
 20
577.9852487346349
 42
-0.0985567151141
 10
553.601004204082
 20
572.2230632130339
 42
1.497024973171299
 10
553.601004204082
 20
596.1674533505149
 42
-0.0985567151141
 10
524.652063129344
 20
590.405249709215
 10
315.725287410466
 20
590.405249709215
 42
-0.0985567151141
 10
286.776355552448
 20
596.1674533505149
 42
0.3387675716267
  0
LWPOLYLINE
  5
11C
330
6F
100
AcDbEntity
  8
OLETUSARVO
100
AcDbPolyline
 90
        8
 70
     1
 43
0.0
 10
204.661999752101
 20
548.1888464125029
 10
231.197234836327
 20
550.9778052598129
 42
0.149450649241
 10
239.917008531313
 20
554.679127012198
 10
260.284067126363
 20
571.7691271109099
 42
0.7399602255294
 10
257.257433408804
 20
578.8994099359119
 10
173.36602197723
 20
570.0820777241928
 42
0.7399608129364001
 10
171.888003455063
 20
562.478336333594
 10
195.3631996872779
 20
549.9963433945149
 42
0.1494505207698
  0
LWPOLYLINE
  5
126
330
6F
100
AcDbEntity
  8
OLETUSARVO
100
AcDbPolyline
 90
       22
 70
     1
 43
0.0
 10
155.684928199627
 20
581.4096434596009
 42
0.2842423976616
 10
141.50037717709
 20
581.8392528998159
 42
0.5773502691896
 10
141.50037717709
 20
558.47406419072
 42
0.1749663156642
 10
150.51764854749
 20
556.859519799353
 42
0.0295293437653
 10
152.068345181763
 20
557.2198168341369
 42
-0.1168412630896
 10
158.94439437937
 20
556.823005939328
 10
194.5193833167
 20
537.9074457775979
 42
-0.1667720533346
 10
203.95443485262
 20
527.8844643294779
 42
-0.0047358504884
 10
204.147205230128
 20
527.547546640268
 42
0.192789430786
 10
211.626502082686
 20
518.034762207386
 42
0.5544265216908002
 10
236.0
 20
531.0
 42
-0.1738109314858
 10
243.255811569114
 20
543.0298641586119
 10
274.120633070474
 20
568.928525862814
 42
-0.1424353064283
 10
282.293742061803
 20
572.5651619412279
 42
0.4021814896269001
 10
293.453680493265
 20
584.1952582817749
 42
0.5773502691896
 10
275.993680493265
 20
594.275793981826
 42
0.0027051680152
 10
275.900225706265
 20
594.186411932944
 42
0.012824608032
 10
275.378529557492
 20
593.8946619971479
 42
-0.0954558466769
 10
264.970273766751
 20
590.5695619267009
 10
163.395372027568
 20
579.893618982373
 42
-0.1233194158866
 10
155.684928199627
 20
581.4096434596009
 42
-0.016152530944
 10
154.75443485262
 20
581.8844643294779
  0
CIRCLE
  5
13E
330
6F
100
AcDbEntity
  8
OLETUSARVO
100
AcDbCircle
 10
496.5140796463209
 20
532.129462128558
 30
0.0
 40
0.6883260753543001
  0
LWPOLYLINE
  5
13F
330
6F
100
AcDbEntity
  8
OLETUSARVO
100
AcDbPolyline
 90
        4
 70
     1
 43
0.0
 10
148.964080876321
 20
143.779463214564
 10
214.964080876321
 20
143.779463214564
 10
214.964080876321
 20
160.579463214564
 10
148.964080876321
 20
160.579463214564
  0
LWPOLYLINE
  5
145
330
6F
100
AcDbEntity
  8
OLETUSARVO
100
AcDbPolyline
 90
        4
 70
     1
 43
0.0
 10
82.96408087632091
 20
143.779463214564
 10
148.964080876321
 20
143.779463214564
 10
148.964080876321
 20
160.579463214564
 10
82.96408087632091
 20
160.579463214564
  0
LWPOLYLINE
  5
14B
330
6F
100
AcDbEntity
  8
OLETUSARVO
100
AcDbPolyline
 90
        4
 70
     1
 43
0.0
 10
15.7640808763208
 20
164.179463214564
 10
256.964080876321
 20
164.179463214564
 10
256.964080876321
 20
182.179463214564
 10
15.7640808763208
 20
182.179463214564
  0
LWPOLYLINE
  5
151
330
6F
100
AcDbEntity
  8
OLETUSARVO
100
AcDbPolyline
 90
        4
 70
     1
 43
0.0
 10
18.1640808763207
 20
183.379463214564
 10
85.3640808763207
 20
183.379463214564
 10
85.3640808763207
 20
264.979463214564
 10
18.1640808763207
 20
264.979463214564
  0
LWPOLYLINE
  5
157
330
6F
100
AcDbEntity
  8
OLETUSARVO
100
AcDbPolyline
 90
        2
 70
     0
 43
0.0
 10
51.7640808763208
 20
224.179463214564
 10
51.7640808763208
 20
142.579463214564
  0
LWPOLYLINE
  5
15B
330
6F
100
AcDbEntity
  8
OLETUSARVO
100
AcDbPolyline
 90
        4
 70
     1
 43
0.0
 10
37.36408087632071
 20
143.779463214564
 10
66.16408087632071
 20
143.779463214564
 10
66.16408087632071
 20
170.179463214564
 10
37.36408087632071
 20
170.179463214564
  0
CIRCLE
  5
161
330
6F
100
AcDbEntity
  8
OLETUSARVO
100
AcDbCircle
 10
148.245326172523
 20
570.1566585452679
 30
0.0
 40
3.0
  0
LWPOLYLINE
  5
162
330
6F
100
AcDbEntity
  8
OLETUSARVO
100
AcDbPolyline
 90
       29
 70
     0
 43
0.0
 10
143.107052129345
 20
530.6259922289589
 10
149.488248857802
 20
546.1732418960401
 42
-0.0543300582879
 10
157.313374558244
 20
560.5644482434549
 42
0.2062210617565
 10
161.445326172523
 20
570.1566585452679
 42
0.5773502691896
 10
141.645326172523
 20
581.588193875222
 42
0.3275596107151
 10
135.360558013938
 20
567.289124848949
 42
-0.0677634085169
 10
133.957264884064
 20
557.187131904551
 10
132.949160688061
 20
553.5914747031939
 10
126.752191126288
 20
531.488423927595
 42
0.0684438317498
 10
123.945326676883
 20
511.079605091792
 10
123.945326676883
 20
374.083688142084
 42
0.0684438122234
 10
126.84392707475
 20
353.700614049605
 10
131.57112515159
 20
336.839875031172
 10
132.816922049986
 20
332.411848374944
 10
133.513606475449
 20
329.951475926072
 42
-0.0086522213238
 10
133.921176523328
 20
328.512123932344
 42
-0.0353288484412
 10
135.061475404575
 20
322.518535868576
 10
135.045356791779
 20
315.035091130669
 42
0.2685264114016
 10
141.645326172523
 20
303.575124349314
 42
0.5773502691896
 10
161.445326172523
 20
315.006659679268
 42
0.1566011489113
 10
158.978096727447
 20
322.690905654986
 10
154.709814435728
 20
328.652517847703
 10
154.577037082129
 20
328.837971160308
 42
-0.0485914351613
 10
149.488204638998
 20
338.990175166855
 10
143.107052129345
 20
354.537325995037
 42
-0.0976770209718
 10
137.445325812283
 20
383.242680869098
 10
137.445325812283
 20
501.920644552019
 42
-0.0976767678152
 10
143.018913956799
 20
530.6621675307219
 10
147.953985321978
 20
542.686080066199
  0
LWPOLYLINE
  5
181
330
6F
100
AcDbEntity
  8
OLETUSARVO
100
AcDbPolyline
 90
       16
 70
     1
 43
0.0
 10
128.370331824776
 20
510.559728614224
 10
128.370331930102
 20
374.603574058853
 42
0.0684438550117
 10
131.153249729327
 20
354.368888706464
 10
137.455742934871
 20
331.889464742195
 42
0.4640952321838
 10
141.061125823351
 20
330.242849452885
 42
-0.0546523037005
 10
144.532844987824
 20
331.437475146798
 42
0.4640950184856
 10
146.361586251854
 20
334.953987059094
 10
138.730351311892
 20
353.54686555076
 42
-0.0976770209718
 10
133.020320570942
 20
382.497136663451
 10
133.020320570942
 20
502.6661944336219
 42
-0.0976769783613
 10
138.730351023151
 20
531.6164640359581
 10
146.361586342619
 20
550.2093344765099
 42
0.4640952321838
 10
144.532844987824
 20
553.7258430777381
 42
-0.0546523037005
 10
141.061125823414
 20
554.920468771492
 42
0.4640952321838
 10
137.455743176876
 20
553.2738640713019
 10
131.153248468027
 20
530.794426281125
 42
0.0684438178996
  0
CIRCLE
  5
193
330
6F
100
AcDbEntity
  8
OLETUSARVO
100
AcDbCircle
 10
148.245326172523
 20
315.006659679268
 30
0.0
 40
2.13299999052
  0
CIRCLE
  5
194
330
6F
100
AcDbEntity
  8
OLETUSARVO
100
AcDbCircle
 10
558.563679263265
 20
584.1952582817749
 30
0.0
 40
0.372839402413
  0
CIRCLE
  5
195
330
6F
100
AcDbEntity
  8
OLETUSARVO
100
AcDbCircle
 10
-82.0
 20
919.0
 30
0.0
 40
4.0
  0
CIRCLE
  5
196
330
6F
100
AcDbEntity
  8
OLETUSARVO
100
AcDbCircle
 10
-35.0
 20
937.8
 30
0.0
 40
4.0
  0
CIRCLE
  5
197
330
6F
100
AcDbEntity
  8
OLETUSARVO
100
AcDbCircle
 10
10.6000000000001
 20
918.5999999999999
 30
0.0
 40
4.0
  0
CIRCLE
  5
198
330
6F
100
AcDbEntity
  8
OLETUSARVO
100
AcDbCircle
 10
165.058966547484
 20
615.567688290374
 30
0.0
 40
6.0
  0
CIRCLE
  5
199
330
6F
100
AcDbEntity
  8
OLETUSARVO
100
AcDbCircle
 10
98.0
 20
661.0
 30
0.0
 40
6.0
  0
CIRCLE
  5
19A
330
6F
100
AcDbEntity
  8
OLETUSARVO
100
AcDbCircle
 10
30.7551630908564
 20
615.843252433836
 30
0.0
 40
6.0
  0
LWPOLYLINE
  5
19B
330
6F
100
AcDbEntity
  8
OLETUSARVO
100
AcDbPolyline
 90
        8
 70
     1
 43
0.0
 10
111.304650526775
 20
643.422657987561
 10
84.62330883054908
 20
643.477409391763
 42
0.149450649241
 10
75.5587459556982
 20
640.7264212248819
 10
53.4864102788424
 20
625.904235928631
 42
0.7399602255294
 10
55.73594266405539
 20
618.4920129913019
 10
140.0892727728949
 20
618.318926705126
 42
0.7399608129364001
 10
142.369196034285
 20
625.7218566527299
 10
120.357874228139
 20
640.6344921749459
 42
0.1494505207698
  0
LWPOLYLINE
  5
1A5
330
6F
100
AcDbEntity
  8
OLETUSARVO
100
AcDbPolyline
 90
       22
 70
     1
 43
0.0
 10
156.462513535886
 20
605.1716148285669
 42
0.2842423976616
 10
170.520505277939
 20
603.2328213474499
 42
0.5773502691896
 10
173.01050530713
 20
626.4649530461619
 42
0.1749663156642
 10
164.216644362256
 20
629.0312628952169
 42
0.0295293437653
 10
162.636382010471
 20
628.838273505989
 42
-0.1168412630896
 10
155.841777294775
 20
629.9655969784581
 10
122.485184608065
 20
652.56462302951
 42
-0.1667720533346
 10
114.171999630765
 20
663.5360090006629
 42
-0.0047358504884
 10
114.016231929198
 20
663.891551362267
 42
0.192789430786
 10
107.593293178507
 20
674.147223299301
 42
0.5544265216908002
 10
81.97690447703831
 20
663.853272568918
 42
-0.1738109314858
 10
73.4804042119445
 20
652.665157604975
 10
40.0313584496034
 20
630.2032070670459
 42
-0.1424353064283
 10
31.51724067838939
 20
627.458278811359
 42
0.4021814896269001
 10
19.1814490353074
 20
617.0837132193489
 42
0.5773502691896
 10
35.4677495659774
 20
605.1998916528369
 42
0.0027051680152
 10
35.5701974962554
 20
605.2788053364249
 42
0.012824608032
 10
36.1200141976564
 20
605.513297322517
 42
-0.0954558466769
 10
46.82335033033139
 20
607.7102667612999
 10
148.957539034848
 20
607.5006987639719
 42
-0.1233194158866
 10
156.462513535886
 20
605.1716148285669
 42
-0.016152530944
 10
157.33710694307
 20
604.600336350585
  0
CIRCLE
  5
1BD
330
6F
100
AcDbEntity
  8
OLETUSARVO
100
AcDbCircle
 10
147.172803535297
 20
873.8812452962019
 30
0.0
 40
3.0
  0
CIRCLE
  5
1BE
330
6F
100
AcDbEntity
  8
OLETUSARVO
100
AcDbCircle
 10
-107.977195330704
 20
873.8812452962019
 30
0.0
 40
3.0
  0
LWPOLYLINE
  5
1BF
330
6F
100
AcDbEntity
  8
OLETUSARVO
100
AcDbPolyline
 90
       28
 70
     1
 43
0.0
 10
-68.48270431615699
 20
868.6548330804789
 10
-83.99377868147601
 20
875.124167981481
 42
-0.0543300582879
 10
-98.384985028891
 20
882.9492936819232
 42
0.2062210617565
 10
-107.977195330704
 20
887.0812452962018
 42
0.5773502691896
 10
-119.408730660658
 20
867.281245296202
 42
0.3275596107151
 10
-105.109661634385
 20
860.9964771376169
 42
-0.0677634085169
 10
-95.00766868998699
 20
859.5931840077438
 10
-91.41201148863002
 20
858.5850798117402
 10
-69.30896071303
 20
852.3881102499681
 42
0.0684438317498
 10
-48.900141877228
 20
849.581245800562
 10
88.09577507248008
 20
849.581245800562
 42
0.0684438122234
 10
108.478849164959
 20
852.4798461984289
 10
125.339588183392
 20
857.2070442752689
 10
129.76761483962
 20
858.4528411736659
 10
132.227987288492
 20
859.1495255991279
 42
-0.0086522213238
 10
133.66733928222
 20
859.5570956470069
 42
-0.0353288484412
 10
139.660927345988
 20
860.697394528255
 10
147.144372083895
 20
860.681275915458
 42
0.2685264114016
 10
158.60433886525
 20
867.281245296202
 42
0.5773502691896
 10
147.172803535297
 20
887.0812452962018
 42
0.1566011489113
 10
139.488557559578
 20
884.6140158511259
 10
133.526945366861
 20
880.3457335594069
 10
133.341492054256
 20
880.2129562058079
 42
-0.0485914351613
 10
123.189288047709
 20
875.124123762677
 10
107.642137219527
 20
868.7429712530239
 42
-0.0976770209718
 10
78.9367823454663
 20
863.0812449359622
 10
-39.74118133745501
 20
863.0812449359622
 42
-0.0976767678152
 10
-68.48270431615699
 20
868.6548330804789
  0
LWPOLYLINE
  5
1DD
330
6F
100
AcDbEntity
  8
OLETUSARVO
100
AcDbPolyline
 90
       16
 70
     1
 43
0.0
 10
-48.38026539966
 20
854.0062509484551
 10
87.5758891557111
 20
854.006251053782
 42
0.0684438550117
 10
107.8105745081
 20
856.7891688530069
 10
130.289998472369
 20
863.09166205855
 42
0.4640952321838
 10
131.936613761679
 20
866.69704494703
 42
-0.0546523037005
 10
130.741988067766
 20
870.1687641115041
 42
0.4640950184856
 10
127.22547615547
 20
871.997505375533
 10
108.632597663804
 20
864.3662704355719
 42
-0.0976770209718
 10
79.6823265511134
 20
858.6562396946209
 10
-40.486731219058
 20
858.6562396946209
 42
-0.0976769783613
 10
-69.43700082139399
 20
864.3662701468299
 10
-88.02987126194599
 20
871.997505466299
 42
0.4640952321838
 10
-91.546379863174
 20
870.1687641115041
 42
-0.0546523037005
 10
-92.741005556928
 20
866.6970449470939
 42
0.4640952321838
 10
-91.09440085673901
 20
863.091662300555
 10
-68.614963066561
 20
856.7891675917058
 42
0.0684438178996
  0
CIRCLE
  5
1EF
330
6F
100
AcDbEntity
  8
OLETUSARVO
100
AcDbCircle
 10
124.55500220092
 20
765.1596447937009
 30
0.0
 40
5.0
  0
CIRCLE
  5
1F0
330
6F
100
AcDbEntity
  8
OLETUSARVO
100
AcDbCircle
 10
72.4892060477032
 20
827.209244410646
 30
0.0
 40
3.0
  0
LWPOLYLINE
  5
1F1
330
6F
100
AcDbEntity
  8
OLETUSARVO
100
AcDbPolyline
 90
       62
 70
     1
 43
0.0
 10
94.5055912665725
 20
818.229136468836
 42
-0.0024156881762
 10
94.93109912452249
 20
818.06517547849
 42
-0.0037773568146
 10
95.3033007907779
 20
817.921408005338
 42
-0.0043114491307
 10
95.62880048830491
 20
817.795169919557
 42
-0.0044655575738
 10
95.91341948819581
 20
817.684232356102
 42
-0.0064482706396
 10
97.89679393971759
 20
816.8853175718359
 10
98.31755382855542
 20
816.7073911319189
 10
99.05119743635442
 20
816.3896213151499
 10
99.5994864665513
 20
816.146831218653
 42
-0.0019751779504
 10
101.237592541278
 20
815.4030645037758
 42
-0.0054813371423
 10
101.653162970421
 20
815.211840380776
 42
-0.0043336549232
 10
102.016596068272
 20
815.044150870678
 10
104.55804926976
 20
813.864871284753
 10
105.535489454975
 20
813.411666502456
 42
0.0026452067818
 10
105.902456728673
 20
813.242582966097
 42
0.0037019648663
 10
106.223845908358
 20
813.095274857279
 42
0.0040910534395
 10
106.505331985148
 20
812.9669817161429
 42
0.0041748494424
 10
106.751870624994
 20
812.8552603332639
 42
0.005914277746
 10
107.183976845051
 20
812.661116886861
 42
0.0051767764809
 10
107.508628238415
 20
812.516840990734
 42
0.0060759546342
 10
107.996658979416
 20
812.30289666338
 42
0.0048988774054
 10
108.48612289694
 20
812.0923281007209
 42
0.0056562184847
 10
110.475069260872
 20
811.2762435777931
 10
111.47507695247
 20
810.881968045223
 10
112.47672996359
 20
810.491589815796
 42
-0.3846091075129
 10
127.299851293263
 20
782.5258131662359
 42
0.3946449415016
 10
129.1251607114979
 20
779.2225486785519
 42
-0.1276687771813
 10
135.387935514386
 20
775.22439368797
 42
0.4831884793575
 10
139.704352393773
 20
775.5620861148758
 10
153.116932720918
 20
795.4860211446169
 42
0.1492191200104
 10
153.587917893005
 20
797.029074526799
 10
153.58792051144
 20
825.7799335013318
 42
0.6001742900404001
 10
149.284297695225
 20
828.0737821440938
 42
-0.1848173593949
 10
128.504003130036
 20
823.2983488248018
 42
0.0014502891263
 10
127.749678961507
 20
823.395750650517
 42
0.0022677581541
 10
127.089579824656
 20
823.4806566862578
 42
0.0025882718094
 10
126.511936849724
 20
823.5544762308
 42
0.00268065082
 10
126.006423263874
 20
823.6185560987749
 42
0.0026416581237
 10
125.564042656078
 20
823.674130309865
 42
0.0036019494066
 10
124.78972107324
 20
823.770014021681
 42
0.0030112713127
 10
124.208824490208
 20
823.8405567349399
 42
0.0032438676745
 10
123.337179113386
 20
823.9437213828139
 42
0.0016437149294
 10
122.465109574922
 20
824.0431463478559
 10
121.708521985326
 20
824.1259709737308
 10
120.38372983354
 20
824.264020688909
 10
119.389648418882
 20
824.362714641381
 42
0.0012087736316
 10
116.405709758636
 20
824.642040702874
 42
0.0032887750271
 10
115.647340263057
 20
824.7107019303591
 42
0.0025994035965
 10
114.98374099522
 20
824.7703639501189
 10
110.338038009788
 20
825.181969375173
 10
108.550674649336
 20
825.3406587026081
 42
-0.001588686493
 10
107.880488916209
 20
825.401135209197
 42
-0.0022225246489
 10
107.294142011601
 20
825.454754084537
 42
-0.0039380325059
 10
103.192794158411
 20
825.8608150161521
 10
102.301754478009
 20
825.959071926047
 10
101.522435718282
 20
826.0480962272559
 10
100.1593108137
 20
826.209627989572
 10
99.137428940074
 20
826.334607553677
 10
97.6050715485376
 20
826.5263252701679
 10
96.07302334125421
 20
826.7207506034688
 42
0.3541185725307001
 10
92.84862983299721
 20
824.783339473088
 10
92.23519999199792
 20
823.097986403577
 42
0.4142135623731
  0
CIRCLE
  5
231
330
6F
100
AcDbEntity
  8
OLETUSARVO
100
AcDbCircle
 10
-121.150400383056
 20
963.415795067211
 30
0.0
 40
3.0
  0
CIRCLE
  5
232
330
6F
100
AcDbEntity
  8
OLETUSARVO
100
AcDbCircle
 10
155.599598386944
 20
963.415795067211
 30
0.0
 40
6.0
  0
CIRCLE
  5
233
330
6F
100
AcDbEntity
  8
OLETUSARVO
100
AcDbCircle
 10
155.599598386944
 20
963.415795067211
 30
0.0
 40
5.0
  0
LWPOLYLINE
  5
234
330
6F
100
AcDbEntity
  8
OLETUSARVO
100
AcDbPolyline
 90
       13
 70
     1
 43
0.0
 10
121.688040492759
 20
957.205785520068
 42
-0.0614926172578
 10
140.07378379971
 20
954.936019795188
 10
149.321955155387
 20
950.456196483255
 42
0.5534286650744999
 10
169.999598386944
 20
963.415795067211
 42
0.554665912881
 10
149.272927218028
 20
976.351529755291
 10
140.256011816389
 20
971.941493520034
 42
-0.0621166339967
 10
121.687982253023
 20
969.625786494651
 10
-87.238793465854
 20
969.625786494651
 42
-0.0985567151141
 10
-116.187725323873
 20
975.3879901359509
 42
0.3387675716267
 10
-131.410744663561
 20
971.333303119149
 42
0.5408866433733
 10
-124.290649690548
 20
950.8419956098538
 42
0.1607887447583
 10
-116.187725324105
 20
951.443599998463
 42
-0.0985567151141
 10
-87.238787478874
 20
957.2057950948108
  0
CIRCLE
  5
243
330
6F
100
AcDbEntity
  8
OLETUSARVO
100
AcDbCircle
 10
124.55500220092
 20
765.1596447937009
 30
0.0
 40
6.0
  0
CIRCLE
  5
244
330
6F
100
AcDbEntity
  8
OLETUSARVO
100
AcDbCircle
 10
-41.0
 20
896.5499989139939
 30
0.0
 40
7.0
  0
CIRCLE
  5
245
330
6F
100
AcDbEntity
  8
OLETUSARVO
100
AcDbCircle
 10
255.0
 20
909.0
 30
0.0
 40
4.0
  0
CIRCLE
  5
246
330
6F
100
AcDbEntity
  8
OLETUSARVO
100
AcDbCircle
 10
347.6
 20
908.6
 30
0.0
 40
4.0
  0
CIRCLE
  5
247
330
6F
100
AcDbEntity
  8
OLETUSARVO
100
AcDbCircle
 10
302.0
 20
927.8
 30
0.0
 40
4.0
  0
CIRCLE
  5
248
330
6F
100
AcDbEntity
  8
OLETUSARVO
100
AcDbCircle
 10
-41.0
 20
896.5499989139939
 30
0.0
 40
11.0
  0
CIRCLE
  5
249
330
6F
100
AcDbEntity
  8
OLETUSARVO
100
AcDbCircle
 10
-15.8
 20
938.6000000000001
 30
0.0
 40
1.8
  0
CIRCLE
  5
24A
330
6F
100
AcDbEntity
  8
OLETUSARVO
100
AcDbCircle
 10
-73.4
 20
912.1999999999999
 30
0.0
 40
1.8
  0
CIRCLE
  5
24B
330
6F
100
AcDbEntity
  8
OLETUSARVO
100
AcDbCircle
 10
1.0
 20
917.0
 30
0.0
 40
1.8
  0
CIRCLE
  5
24C
330
6F
100
AcDbEntity
  8
OLETUSARVO
100
AcDbCircle
 10
-81.79999999999999
 20
930.2000000000001
 30
0.0
 40
1.8
  0
LWPOLYLINE
  5
24D
330
6F
100
AcDbEntity
  8
OLETUSARVO
100
AcDbPolyline
 90
       15
 70
     1
 43
0.0
 10
-86.21765354625201
 20
896.6930539660589
 10
-83.19420205789901
 20
896.69305396606
 10
-75.405622829075
 20
896.6930539660621
 42
-0.2547865748168
 10
-62.137275410149
 20
889.1331467142141
 42
0.1836949132569
 10
-52.135760263202
 20
876.8622963572211
 42
0.4581842154881
 10
-20.283031274979
 20
887.9751696555599
 42
0.1320338871738
 10
-19.0
 20
899.6
 42
-0.3682351504012999
 10
1.0
 20
911.5999999999999
 10
1.0
 20
911.5999999999999
 10
10.0
 20
910.5999999999999
 42
0.5344384724471
 10
18.0
 20
920.6000000000001
 42
0.2513322416933
 10
-14.5999999999999
 20
948.2000000000001
 42
0.0094106782327
 10
-31.005622829075
 20
948.2930539660619
 10
-47.755970728111
 20
949.1286597483439
 42
0.1876027540925
 10
-95.0
 20
930.2000000000001
 42
0.5258586389535001
  0
CIRCLE
  5
25E
330
6F
100
AcDbEntity
  8
OLETUSARVO
100
AcDbCircle
 10
128.0
 20
920.0
 30
0.0
 40
4.0
  0
CIRCLE
  5
25F
330
6F
100
AcDbEntity
  8
OLETUSARVO
100
AcDbCircle
 10
81.0
 20
938.7999999999999
 30
0.0
 40
4.0
  0
CIRCLE
  5
260
330
6F
100
AcDbEntity
  8
OLETUSARVO
100
AcDbCircle
 10
35.3999999999999
 20
919.5999999999999
 30
0.0
 40
4.0
  0
CIRCLE
  5
261
330
6F
100
AcDbEntity
  8
OLETUSARVO
100
AcDbCircle
 10
87.0
 20
897.5499989139938
 30
0.0
 40
7.0
  0
CIRCLE
  5
262
330
6F
100
AcDbEntity
  8
OLETUSARVO
100
AcDbCircle
 10
87.0
 20
897.5499989139938
 30
0.0
 40
11.0
  0
CIRCLE
  5
263
330
6F
100
AcDbEntity
  8
OLETUSARVO
100
AcDbCircle
 10
61.79999999999999
 20
939.6
 30
0.0
 40
1.8
  0
CIRCLE
  5
264
330
6F
100
AcDbEntity
  8
OLETUSARVO
100
AcDbCircle
 10
119.4
 20
913.2000000000001
 30
0.0
 40
1.8
  0
CIRCLE
  5
265
330
6F
100
AcDbEntity
  8
OLETUSARVO
100
AcDbCircle
 10
45.0
 20
918.0
 30
0.0
 40
1.8
  0
CIRCLE
  5
266
330
6F
100
AcDbEntity
  8
OLETUSARVO
100
AcDbCircle
 10
127.8
 20
931.2000000000001
 30
0.0
 40
1.8
  0
LWPOLYLINE
  5
267
330
6F
100
AcDbEntity
  8
OLETUSARVO
100
AcDbPolyline
 90
       15
 70
     1
 43
0.0
 10
132.217653546252
 20
897.6930539660589
 10
129.194202057899
 20
897.69305396606
 10
121.405622829075
 20
897.6930539660608
 42
0.2547865748168
 10
108.137275410149
 20
890.133146714214
 42
-0.1836949132569
 10
98.1357602632017
 20
877.862296357221
 42
-0.4581842154881
 10
66.28303127497929
 20
888.975169655559
 42
-0.1320338871738
 10
65.0
 20
900.6
 42
0.3682351504012999
 10
45.0
 20
912.6000000000001
 10
45.0
 20
912.6000000000001
 10
36.0
 20
911.5999999999999
 42
-0.5344384724471
 10
28.0
 20
921.6000000000001
 42
-0.2513322416933
 10
60.59999999999989
 20
949.2
 42
-0.0094106782327
 10
77.00562282907549
 20
949.2930539660608
 10
93.7559707281107
 20
950.1286597483439
 42
-0.1876027540925
 10
141.0
 20
931.2000000000001
 42
-0.5258586389535001
  0
CIRCLE
  5
278
330
6F
100
AcDbEntity
  8
OLETUSARVO
100
AcDbCircle
 10
-84.228869564685
 20
767.379089090381
 30
0.0
 40
5.0
  0
CIRCLE
  5
279
330
6F
100
AcDbEntity
  8
OLETUSARVO
100
AcDbCircle
 10
-30.855771320594
 20
828.307837030233
 30
0.0
 40
3.0
  0
LWPOLYLINE
  5
27A
330
6F
100
AcDbEntity
  8
OLETUSARVO
100
AcDbPolyline
 90
       62
 70
     1
 43
0.0
 10
-53.058082906892
 20
819.7977890293609
 42
0.0024156881762
 10
-53.486980136805
 20
819.6429106586791
 42
0.0037773568146
 10
-53.862153941768
 20
819.5070880435901
 42
0.0043114491307
 10
-54.190263687136
 20
819.387798050773
 42
0.0044655575738
 10
-54.477176710342
 20
819.282936069106
 42
0.0064482706396
 10
-56.47708651133299
 20
818.526364965133
 10
-56.901533726601
 20
818.3574233671519
 10
-57.641766784819
 20
818.055321365778
 10
-58.195093212138
 20
817.824241820119
 42
0.0019751779504
 10
-59.848640307701
 20
817.11546650948
 42
0.0054813371423
 10
-60.268181921938
 20
816.9331199144529
 42
0.0043336549232
 10
-60.63509768152099
 20
816.773194263664
 10
-63.201046019574
 20
815.648208111048
 10
-64.18789967644499
 20
815.215884447239
 42
-0.0026452067818
 10
-64.55837844781901
 20
815.0546402157319
 42
-0.0037019648663
 10
-64.88282651680499
 20
814.914197578782
 42
-0.0040910534395
 10
-65.166976274712
 20
814.791917340926
 42
-0.0041748494424
 10
-65.41583420604
 20
814.685462193821
 42
-0.005914277746
 10
-65.851969934194
 20
814.5005484576619
 42
-0.0051767764809
 10
-66.179615020013
 20
814.3632066972431
 42
-0.0060759546342
 10
-66.67208356389799
 20
814.1596854141949
 42
-0.0048988774054
 10
-67.16591319746299
 20
813.9595695998519
 42
-0.0056562184847
 10
-69.171758650905
 20
813.1859510865849
 10
-70.179921979507
 20
812.8130231019831
 10
-71.18964740583701
 20
812.444026516472
 42
0.3846091075129
 10
-86.60392341255599
 20
784.7996837904089
 42
-0.3946449415016
 10
-88.499042079837
 20
781.5359687316439
 42
0.1276687771813
 10
-94.84539552090501
 20
777.6718531068929
 42
-0.4831884793575
 10
-99.153658202169
 20
778.101228841037
 10
-112.139658827875
 20
798.305789857071
 42
-0.1492191200104
 10
-112.577734896903
 20
799.858506872607
 10
-111.966543562383
 20
828.602868701078
 42
-0.6001742900404001
 10
-107.61513000316
 20
830.80471133323
 42
0.1848173593949
 10
-86.94104895086399
 20
825.5886037570679
 42
-0.0014502891263
 10
-86.18482465091299
 20
825.669947933526
 42
-0.0022677581541
 10
-85.52306972846
 20
825.7408022064169
 42
-0.0025882718094
 10
-84.94398801403599
 20
825.8023253700519
 42
-0.00268065082
 10
-84.437226437506
 20
825.8556444052251
 42
-0.0026416581237
 10
-83.99376438773598
 20
825.901801804482
 42
-0.0036019494066
 10
-83.21757946504801
 20
825.981203099378
 42
-0.0030112713127
 10
-82.635314537596
 20
826.039381006109
 42
-0.0032438676745
 10
-81.76167303421999
 20
826.1239926547521
 42
-0.0016437149294
 10
-80.887686964299
 20
826.2048564487178
 10
-80.12950964104399
 20
826.271578603084
 10
-78.80208216941399
 20
826.3814343123421
 10
-77.80612733596599
 20
826.4589734957029
 42
-0.0012087736316
 10
-74.816925001746
 20
826.6748030160059
 42
-0.0032887750271
 10
-74.057267264747
 20
826.7273270924029
 42
-0.0025994035965
 10
-73.392549646763
 20
826.7728686472459
 10
-68.739146485232
 20
827.08562137871
 10
-66.94881357534899
 20
827.206278565467
 42
0.001588686493
 10
-66.277493665911
 20
827.2524944061229
 42
0.0022225246489
 10
-65.69013942033001
 20
827.293636434944
 42
0.0039380325059
 10
-61.581086242526
 20
827.6124179824389
 10
-60.688159148443
 20
827.6917107125369
 10
-59.907123997448
 20
827.7641479155239
 10
-58.54087324751799
 20
827.896665476797
 10
-57.516565450508
 20
827.9998933416161
 10
-55.980478755653
 20
828.158992443128
 10
-54.44464361589099
 20
828.3208051222999
 42
-0.3541185725307001
 10
-51.2621648032
 20
826.3152867376939
 10
-50.684701302616
 20
824.6172740627621
 42
-0.4142135623731
  0
LWPOLYLINE
  5
2BA
330
6F
100
AcDbEntity
  8
OLETUSARVO
100
AcDbPolyline
 90
       23
 70
     0
 43
0.0
 10
-75.4179301476
 20
783.5845932744411
 42
-0.2590192699228
 10
-75.358165716825
 20
796.692093344231
 42
-0.1593216800126
 10
-69.18111545798701
 20
802.3703643097279
 42
-0.0248933072485
 10
-67.932351053511
 20
802.865642117849
 10
-33.459603925527
 20
814.5508367885961
 10
-27.550630908888
 20
816.1583049039039
 42
0.1924044889452
 10
-20.087879907942
 20
821.7819195809269
 42
0.5773502691896
 10
-30.588106732821
 20
840.896063263434
 42
0.0640558406198
 10
-33.782785952616
 20
840.553965780729
 10
-36.768914730264
 20
839.8402368372909
 10
-87.912587111224
 20
833.758119722162
 42
-0.3031547099051
 10
-109.436070118044
 20
844.8824792011329
 10
-115.399064459966
 20
855.902073859875
 10
-126.196623844933
 20
856.1316633372321
 10
-127.395591115573
 20
799.7444087712939
 10
-124.996133474469
 20
799.6933888874369
 42
-0.2610237291187
 10
-122.266049332394
 20
797.884963908005
 10
-97.28893250510202
 20
758.985027712191
 10
-95.385244782791
 20
756.9488140874329
 42
0.4969940050421
 10
-71.16764863545299
 20
759.4632914374479
 42
0.2679489273881
 10
-70.842969967724
 20
774.732526152355
 10
-75.4179301476
 20
783.5845932744411
 42
-0.4624752306971
 10
-67.93233422122099
 20
802.865647842119
  0
CIRCLE
  5
2D3
330
6F
100
AcDbEntity
  8
OLETUSARVO
100
AcDbCircle
 10
-84.228869564685
 20
767.379089090381
 30
0.0
 40
6.0
  0
LWPOLYLINE
  5
2D4
330
6F
100
AcDbEntity
  8
OLETUSARVO
100
AcDbPolyline
 90
       23
 70
     1
 43
0.0
 10
316.1163080941451
 20
793.162029287327
 10
316.116613866111
 20
793.1638478250359
 10
316.11631198979
 20
793.1620286408819
 10
346.827040596514
 20
788.065875096797
 42
-0.4274551490676
 10
355.562416066471
 20
775.255056368847
 10
350.773869976115
 20
752.726708700862
 10
351.651527928029
 20
752.2199926460679
 42
-0.4142134637133001
 10
355.165373421217
 20
739.1061515702189
 10
344.599803462158
 20
720.806047590204
 42
-0.0660161266162
 10
340.796333135525
 20
705.821608952489
 10
331.210315877122
 20
664.3000211095279
 10
331.2
 20
634.6
 10
199.2
 20
634.6
 10
199.2
 20
667.0
 10
199.2
 20
718.5999999999999
 42
-0.2863440654878
 10
208.8
 20
731.7999999999999
 42
0.5616834408278001
 10
215.87779595255
 20
769.9004022303349
 42
-0.0256750229647
 10
214.340081409551
 20
771.028002449352
 42
-0.2962627107592
 10
208.15224698777
 20
790.2998484491161
 42
-0.1121298166098
 10
212.015865103765
 20
797.5662572911079
 42
-0.0839913198073
 10
216.791577410523
 20
801.517373228142
 42
-0.2335589875587
 10
233.216746050659
 20
802.5816812045039
 42
-0.0222906650067
 10
315.846733698229
 20
793.206762596352
  0
LWPOLYLINE
  5
2ED
330
6F
100
AcDbEntity
  8
OLETUSARVO
100
AcDbPolyline
 90
       11
 70
     1
 43
0.0
 10
356.0
 20
910.0
 42
-0.4544340214312001
 10
346.0
 20
901.0
 10
299.292730891081
 20
907.6497052406461
 42
0.1389589247646
 10
286.4
 20
906.2000000000001
 10
266.0
 20
894.0
 42
-0.0374143731196
 10
262.0
 20
892.0
 42
-0.9175761276051
 10
245.0
 20
925.0
 42
-0.1464493716353
 10
289.244029271889
 20
939.528659748344
 10
318.969701576081
 20
938.5693357108509
 10
350.37584943958
 20
936.372032873947
 42
-0.2443762966745
 10
355.0
 20
931.0
  0
CIRCLE
  5
2FA
330
6F
100
AcDbEntity
  8
OLETUSARVO
100
AcDbCircle
 10
473.0
 20
908.0
 30
0.0
 40
4.0
  0
CIRCLE
  5
2FB
330
6F
100
AcDbEntity
  8
OLETUSARVO
100
AcDbCircle
 10
380.4
 20
907.6
 30
0.0
 40
4.0
  0
CIRCLE
  5
2FC
330
6F
100
AcDbEntity
  8
OLETUSARVO
100
AcDbCircle
 10
426.0
 20
926.7999999999998
 30
0.0
 40
4.0
  0
LWPOLYLINE
  5
2FD
330
6F
100
AcDbEntity
  8
OLETUSARVO
100
AcDbPolyline
 90
       11
 70
     1
 43
0.0
 10
372.0
 20
909.0
 42
0.4544340214312001
 10
382.0
 20
900.0
 10
428.7072691089189
 20
906.6497052406461
 42
-0.1389589247646
 10
441.6
 20
905.2000000000001
 10
462.0
 20
893.0
 42
0.0374143731196
 10
466.0
 20
891.0
 42
0.9175761276051
 10
483.0
 20
924.0
 42
0.1464493716353
 10
438.7559707281109
 20
938.5286597483441
 10
409.030298423919
 20
937.5693357108509
 10
377.62415056042
 20
935.372032873947
 42
0.2443762966745
 10
373.0
 20
930.0
  0
LWPOLYLINE
  5
30A
330
6F
100
AcDbEntity
  8
OLETUSARVO
100
AcDbPolyline
 90
        2
 70
     0
 43
0.0
 10
-186.8
 20
443.5999999999999
 10
-318.8
 20
443.5999999999999
  0
LWPOLYLINE
  5
30E
330
6F
100
AcDbEntity
  8
OLETUSARVO
100
AcDbPolyline
 90
        4
 70
     1
 43
0.0
 10
-214.4
 20
393.2
 10
-94.40000000000001
 20
393.2
 10
-94.40000000000001
 20
404.36
 10
-214.4
 20
404.36
  0
LWPOLYLINE
  5
314
330
6F
100
AcDbEntity
  8
OLETUSARVO
100
AcDbPolyline
 90
        4
 70
     1
 43
0.0
 10
-214.4
 20
483.1999999999999
 10
-94.40000000000001
 20
483.1999999999999
 10
-94.40000000000001
 20
494.3599999999999
 10
-214.4
 20
494.3599999999999
  0
CIRCLE
  5
31A
330
6F
100
AcDbEntity
  8
OLETUSARVO
100
AcDbCircle
 10
-186.8
 20
443.5999999999999
 30
0.0
 40
8.4
  0
LWPOLYLINE
  5
31B
330
6F
100
AcDbEntity
  8
OLETUSARVO
100
AcDbPolyline
 90
        2
 70
     0
 43
0.0
 10
-279.949100366683
 20
388.944304039948
 42
-0.017408959491
 10
-278.0
 20
386.0
  0
LWPOLYLINE
  5
31F
330
6F
100
AcDbEntity
  8
OLETUSARVO
100
AcDbPolyline
 90
        7
 70
     1
 43
0.0
 10
-312.2
 20
475.3999999999999
 42
0.1316524975874
 10
-314.0
 20
474.9176914536239
 42
0.5773502691896
 10
-314.0
 20
468.682308546376
 42
0.1316524975874
 10
-312.2
 20
468.2
 10
-305.0
 20
468.2
 42
0.4142135623731
 10
-301.4
 20
471.7999999999999
 42
0.4142135623731
 10
-305.0
 20
475.3999999999999
  0
LWPOLYLINE
  5
328
330
6F
100
AcDbEntity
  8
OLETUSARVO
100
AcDbPolyline
 90
        7
 70
     1
 43
0.0
 10
-255.8
 20
475.3999999999999
 42
0.1316524975874
 10
-257.6
 20
474.9176914536239
 42
0.5773502691896
 10
-257.6
 20
468.682308546376
 42
0.1316524975874
 10
-255.8
 20
468.2
 10
-248.6
 20
468.2
 42
0.4142135623731
 10
-245.0
 20
471.7999999999999
 42
0.4142135623731
 10
-248.6
 20
475.3999999999999
  0
LWPOLYLINE
  5
331
330
6F
100
AcDbEntity
  8
OLETUSARVO
100
AcDbPolyline
 90
        7
 70
     1
 43
0.0
 10
-312.2
 20
411.8
 42
-0.1316524975874
 10
-314.0
 20
412.282308546376
 42
-0.5773502691896
 10
-314.0
 20
418.5176914536239
 42
-0.1316524975874
 10
-312.2
 20
419.0
 10
-305.0
 20
419.0
 42
-0.4142135623731
 10
-301.4
 20
415.3999999999999
 42
-0.4142135623731
 10
-305.0
 20
411.8
  0
LWPOLYLINE
  5
33A
330
6F
100
AcDbEntity
  8
OLETUSARVO
100
AcDbPolyline
 90
        7
 70
     1
 43
0.0
 10
-255.8
 20
411.8
 42
-0.1316524975874
 10
-257.6
 20
412.282308546376
 42
-0.5773502691896
 10
-257.6
 20
418.5176914536239
 42
-0.1316524975874
 10
-255.8
 20
419.0
 10
-248.6
 20
419.0
 42
-0.4142135623731
 10
-245.0
 20
415.3999999999999
 42
-0.4142135623731
 10
-248.6
 20
411.8
  0
LWPOLYLINE
  5
343
330
6F
100
AcDbEntity
  8
OLETUSARVO
100
AcDbPolyline
 90
        7
 70
     1
 43
0.0
 10
-283.999999932565
 20
448.3999999999999
 42
0.1316525011605
 10
-286.4
 20
447.756921938166
 42
0.5773502691896
 10
-286.4
 20
439.443078061834
 42
0.1316524975874
 10
-284.0
 20
438.7999999999999
 10
-276.8
 20
438.7999999999999
 42
0.4142135623731
 10
-272.0
 20
443.5999999999999
 42
0.4142135623731
 10
-276.8
 20
448.3999999999999
  0
CIRCLE
  5
34C
330
6F
100
AcDbEntity
  8
OLETUSARVO
100
AcDbCircle
 10
-186.8
 20
443.5999999999999
 30
0.0
 40
39.0
  0
CIRCLE
  5
34D
330
6F
100
AcDbEntity
  8
OLETUSARVO
100
AcDbCircle
 10
-202.4
 20
488.7199999999999
 30
0.0
 40
2.399999999999999
  0
CIRCLE
  5
34E
330
6F
100
AcDbEntity
  8
OLETUSARVO
100
AcDbCircle
 10
-154.4
 20
488.7199999999999
 30
0.0
 40
2.399999999999999
  0
CIRCLE
  5
34F
330
6F
100
AcDbEntity
  8
OLETUSARVO
100
AcDbCircle
 10
-106.4
 20
488.7199999999999
 30
0.0
 40
2.399999999999999
  0
CIRCLE
  5
350
330
6F
100
AcDbEntity
  8
OLETUSARVO
100
AcDbCircle
 10
-202.4
 20
398.7200000000001
 30
0.0
 40
2.399999999999999
  0
CIRCLE
  5
351
330
6F
100
AcDbEntity
  8
OLETUSARVO
100
AcDbCircle
 10
-154.4
 20
398.7200000000001
 30
0.0
 40
2.399999999999999
  0
CIRCLE
  5
352
330
6F
100
AcDbEntity
  8
OLETUSARVO
100
AcDbCircle
 10
-106.4
 20
398.7200000000001
 30
0.0
 40
2.399999999999999
  0
CIRCLE
  5
353
330
6F
100
AcDbEntity
  8
OLETUSARVO
100
AcDbCircle
 10
-226.4
 20
473.6
 30
0.0
 40
2.399999999999999
  0
CIRCLE
  5
354
330
6F
100
AcDbEntity
  8
OLETUSARVO
100
AcDbCircle
 10
-147.2
 20
473.6
 30
0.0
 40
2.399999999999999
  0
CIRCLE
  5
355
330
6F
100
AcDbEntity
  8
OLETUSARVO
100
AcDbCircle
 10
-147.2
 20
413.6
 30
0.0
 40
2.399999999999999
  0
CIRCLE
  5
356
330
6F
100
AcDbEntity
  8
OLETUSARVO
100
AcDbCircle
 10
-226.4
 20
413.6
 30
0.0
 40
2.399999999999999
  0
LWPOLYLINE
  5
357
330
6F
100
AcDbEntity
  8
OLETUSARVO
100
AcDbPolyline
 90
       10
 70
     1
 43
0.0
 10
-87.00252345833598
 20
484.8851507919739
 42
0.4532289685324001
 10
-240.8
 20
537.1307436087191
 42
0.1298662723944
 10
-279.949100366683
 20
498.255695960052
 42
-0.19542640969
 10
-312.2
 20
477.8
 42
0.4142135623731
 10
-318.2
 20
471.7999999999999
 10
-318.2
 20
415.3999999999999
 42
0.4142135623731
 10
-312.2
 20
409.3999999999999
 42
-0.19542640969
 10
-279.949100366683
 20
388.944304039948
 42
0.1298662723944
 10
-240.8
 20
350.069256391281
 42
0.4585732829088001
 10
-86.28750003422501
 20
404.087503867384
  0
CIRCLE
  5
363
330
6F
100
AcDbEntity
  8
OLETUSARVO
100
AcDbCircle
 10
-64.39999951999999
 20
565.5499989139939
 30
0.0
 40
9.0
  0
CIRCLE
  5
364
330
6F
100
AcDbEntity
  8
OLETUSARVO
100
AcDbCircle
 10
-64.39999951999999
 20
310.400000047994
 30
0.0
 40
2.3404130403177
  0
CIRCLE
  5
365
330
6F
100
AcDbEntity
  8
OLETUSARVO
100
AcDbCircle
 10
-64.39999951999999
 20
565.5499989139939
 30
0.0
 40
2.502637130949899
  0
CIRCLE
  5
366
330
6F
100
AcDbEntity
  8
OLETUSARVO
100
AcDbCircle
 10
-64.39999951999999
 20
310.400000047994
 30
0.0
 40
9.0
  0
LWPOLYLINE
  5
367
330
6F
100
AcDbEntity
  8
OLETUSARVO
100
AcDbPolyline
 90
        3
 70
     0
 43
0.0
 10
-56.839999735678
 20
378.8
 10
-56.8399995536
 20
340.925825454182
 42
0.0523397528877
 10
-55.733015048046
 20
332.0
  0
LWPOLYLINE
  5
36C
330
6F
100
AcDbEntity
  8
OLETUSARVO
100
AcDbPolyline
 90
        6
 70
     0
 43
0.0
 10
-55.733015048046
 20
332.0
 42
0.069629755787
 10
-51.44854316446799
 20
320.854908318507
 42
-0.1714351930626
 10
-47.755320830577
 20
310.400000047994
 42
-0.5773502691896
 10
-72.722338864711
 20
295.985285465125
 42
-0.4686409059266
 10
-77.068244143219
 20
321.196337706681
 42
0.0597977521573
 10
-73.162338648974
 20
332.0
  0
LWPOLYLINE
  5
374
330
6F
100
AcDbEntity
  8
OLETUSARVO
100
AcDbPolyline
 90
        3
 70
     0
 43
0.0
 10
-73.162338648974
 20
332.0
 42
0.0468157874362
 10
-71.95999887458
 20
340.925821512183
 10
-71.95999887458
 20
378.8
  0
LWPOLYLINE
  5
379
330
6F
100
AcDbEntity
  8
OLETUSARVO
100
AcDbPolyline
 90
        2
 70
     0
 43
0.0
 10
-71.95999887458
 20
378.8
 10
-71.95999887458
 20
535.024176419484
  0
LWPOLYLINE
  5
37D
330
6F
100
AcDbEntity
  8
OLETUSARVO
100
AcDbPolyline
 90
        6
 70
     0
 43
0.0
 10
-71.95999887458
 20
535.2490467780139
 42
0.1437022296611
 10
-77.956850994872
 20
555.458845923364
 42
-0.4486966407411
 10
-72.850141391473
 20
580.1860739665499
 42
-0.5773502691896
 10
-47.49971577705401
 20
565.5499989139939
 42
-0.1830975120369
 10
-51.743049118664
 20
554.350838359284
 42
0.1296468166274
 10
-56.840000488418
 20
535.3774476460089
  0
LWPOLYLINE
  5
385
330
6F
100
AcDbEntity
  8
OLETUSARVO
100
AcDbPolyline
 90
        2
 70
     0
 43
0.0
 10
-56.84000048672
 20
535.024176419485
 10
-56.839999735678
 20
378.8
  0
LWPOLYLINE
  5
389
330
6F
100
AcDbEntity
  8
OLETUSARVO
100
AcDbPolyline
 90
        7
 70
     1
 43
0.0
 10
-283.99999973026
 20
462.8
 42
0.1316525011605
 10
-293.6
 20
460.227687752661
 42
0.5773502691896
 10
-293.6
 20
426.972312247339
 42
0.1316524975874
 10
-284.0
 20
424.3999999999999
 10
-276.8
 20
424.3999999999999
 42
0.4142135623731
 10
-257.6
 20
443.5999999999999
 42
0.4142135623731
 10
-276.8
 20
462.8
  0
CIRCLE
  5
392
330
6F
100
AcDbEntity
  8
OLETUSARVO
100
AcDbCircle
 10
226.081245296202
 20
785.427196464704
 30
0.0
 40
3.5
  0
LWPOLYLINE
  5
393
330
6F
100
AcDbEntity
  8
OLETUSARVO
100
AcDbPolyline
 90
       19
 70
     1
 43
0.0
 10
109.016549679638
 20
800.984614501996
 10
74.8
 20
813.4
 10
68.92653432529001
 20
815.1327194871381
 42
-0.1924044889452
 10
61.5850181814581
 20
820.9137086107739
 42
-0.5773502691896
 10
72.4892060477032
 20
839.8003160103868
 42
-0.0640558406198
 10
75.67589091894301
 20
839.3903824347059
 10
78.6461722293795
 20
838.6133348053609
 10
129.648991637622
 20
831.4453653841599
 42
0.3031547099051
 10
151.404095509491
 20
842.1096586137409
 10
157.6
 20
853.0
 10
168.4
 20
853.0
 10
168.4
 20
796.6
 10
166.0
 20
796.6
 42
0.2610237291187
 10
163.232088796678
 20
794.850020600246
 10
137.433670442201
 20
756.4898457902939
 10
135.487126511278
 20
754.494561450981
 42
-0.4969940050421
 10
111.328456601887
 20
757.523295131651
 42
-0.2679489273881
 10
111.328449048369
 20
772.795981372655
 10
116.09055513079
 20
781.548792272081
 42
0.4624752306971
  0
CIRCLE
  5
3A8
330
6F
100
AcDbEntity
  8
KERROS2
100
AcDbCircle
 10
269.948472071971
 20
788.3061487697379
 30
0.0
 40
3.0
  0
CIRCLE
  5
3A9
330
6F
100
AcDbEntity
  8
KERROS2
100
AcDbCircle
 10
302.451527928029
 20
667.003092913679
 30
0.0
 40
3.0
  0
CIRCLE
  5
3AA
330
6F
100
AcDbEntity
  8
KERROS2
100
AcDbCircle
 10
346.851527928029
 20
743.9061487697379
 30
0.0
 40
3.0
  0
CIRCLE
  5
3AB
330
6F
100
AcDbEntity
  8
KERROS2
100
AcDbCircle
 10
225.548472071971
 20
711.4030929136791
 30
0.0
 40
3.0
  0
CIRCLE
  5
3AC
330
6F
100
AcDbEntity
  8
KERROS2
100
AcDbCircle
 10
297.6
 20
747.4000000479938
 30
0.0
 40
6.5
  0
CIRCLE
  5
3AD
330
6F
100
AcDbEntity
  8
KERROS2
100
AcDbCircle
 10
297.6
 20
747.4000000479938
 30
0.0
 40
18.05
  0
CIRCLE
  5
3AE
330
6F
100
AcDbEntity
  8
KERROS2
100
AcDbCircle
 10
266.901228573503
 20
307.009138239653
 30
0.0
 40
5.4287795300424
  0
CIRCLE
  5
3AF
330
6F
100
AcDbEntity
  8
KERROS2
100
AcDbCircle
 10
266.901228573503
 20
307.009138239653
 30
0.0
 40
5.429272960154799
  0
CIRCLE
  5
3B0
330
6F
100
AcDbEntity
  8
KERROS2
100
AcDbCircle
 10
219.764080876321
 20
276.979463262558
 30
0.0
 40
1.1148874914986
  0
LINE
  5
3B1
330
6F
100
AcDbEntity
  8
KERROS2
100
AcDbLine
 10
238.280388970466
 20
322.741492501891
 30
0.0
 11
238.280694742432
 21
322.7433110396
 31
0.0
  0
CIRCLE
  5
3B2
330
6F
100
AcDbEntity
  8
KERROS2
100
AcDbCircle
 10
148.245326172522
 20
315.006659679268
 30
0.0
 40
7.2
  0
LWPOLYLINE
  5
3B3
330
6F
100
AcDbEntity
  8
KERROS2
100
AcDbPolyline
 90
        2
 70
     0
 43
0.0
 10
272.937950852436
 20
282.306171915426
 10
277.726496420942
 20
304.834517128296
  0
LWPOLYLINE
  5
3B7
330
6F
100
AcDbEntity
  8
KERROS2
100
AcDbPolyline
 90
        2
 70
     1
 43
0.0
 10
277.726496420942
 20
304.834517128296
 10
277.726496420942
 20
304.834517128296
  0
LWPOLYLINE
  5
3BB
330
6F
100
AcDbEntity
  8
KERROS2
100
AcDbPolyline
 90
        2
 70
     0
 43
0.0
 10
277.726496942792
 20
304.834519583411
 42
0.4274551490676
 10
268.991126020384
 20
317.645337556739
  0
LWPOLYLINE
  5
3BF
330
6F
100
AcDbEntity
  8
KERROS2
100
AcDbPolyline
 90
        2
 70
     1
 43
0.0
 10
268.991126020384
 20
317.645337556739
 10
268.991121472834
 20
317.645338311361
  0
LWPOLYLINE
  5
3C3
330
6F
100
AcDbEntity
  8
KERROS2
100
AcDbPolyline
 90
        2
 70
     0
 43
0.0
 10
268.991121472834
 20
317.645338311361
 10
238.280392866111
 20
322.741491855446
  0
LWPOLYLINE
  5
3C7
330
6F
100
AcDbEntity
  8
KERROS2
100
AcDbPolyline
 90
       14
 70
     0
 43
0.0
 10
238.01081457455
 20
322.786225810916
 42
0.0222906650067
 10
155.380826926979
 20
332.161144419068
 42
0.2335589875587
 10
138.955658286843
 20
331.096836442706
 42
0.0839913198073
 10
134.179945980086
 20
327.145720505672
 42
0.1121298166098
 10
130.316327864091
 20
319.87931166368
 42
0.2962627107592
 10
136.504162285871
 20
300.607465663916
 42
0.0256750229647
 10
138.04187682887
 20
299.479865444899
 42
-0.5616834408278001
 10
130.964080876321
 20
261.379463214564
 42
0.2863440654878
 10
121.364080876321
 20
248.179463214564
 10
121.364080876321
 20
196.579463214564
 10
121.364080876321
 20
164.179463214564
 10
253.364080876321
 20
164.179463214564
 10
253.374396753442
 20
193.879484324092
 10
262.960414011846
 20
235.401072167053
  0
CIRCLE
  5
3D7
330
6F
100
AcDbEntity
  8
KERROS2
100
AcDbCircle
 10
192.112552948292
 20
317.885611984302
 30
0.0
 40
4.2
  0
CIRCLE
  5
3D8
330
6F
100
AcDbEntity
  8
KERROS2
100
AcDbCircle
 10
224.61560880435
 20
196.582556128243
 30
0.0
 40
4.2
  0
CIRCLE
  5
3D9
330
6F
100
AcDbEntity
  8
KERROS2
100
AcDbCircle
 10
269.01560880435
 20
273.485611984302
 30
0.0
 40
4.2
  0
CIRCLE
  5
3DA
330
6F
100
AcDbEntity
  8
KERROS2
100
AcDbCircle
 10
147.712552948292
 20
240.982556128243
 30
0.0
 40
4.2
  0
CIRCLE
  5
3DB
330
6F
100
AcDbEntity
  8
KERROS2
100
AcDbCircle
 10
219.764080876321
 20
276.979463262558
 30
0.0
 40
7.2
  0
CIRCLE
  5
3DC
330
6F
100
AcDbEntity
  8
KERROS2
100
AcDbCircle
 10
219.764080876321
 20
276.979463262558
 30
0.0
 40
21.6
  0
LWPOLYLINE
  5
3DD
330
6F
100
AcDbEntity
  8
KERROS2
100
AcDbPolyline
 90
        3
 70
     0
 43
0.0
 10
262.960414011846
 20
235.401072167053
 42
0.0660161266162
 10
266.763884338479
 20
250.385510804768
 10
277.329452680681
 20
268.685611984302
  0
LWPOLYLINE
  5
3E2
330
6F
100
AcDbEntity
  8
KERROS2
100
AcDbPolyline
 90
        2
 70
     1
 43
0.0
 10
277.329452680681
 20
268.685611984302
 10
277.329452680681
 20
268.685611984302
  0
LWPOLYLINE
  5
3E6
330
6F
100
AcDbEntity
  8
KERROS2
100
AcDbPolyline
 90
        3
 70
     0
 43
0.0
 10
277.329454297538
 20
268.685614784783
 42
0.4142134637133001
 10
273.81560880435
 20
281.799455860632
 10
272.937950852436
 20
282.306171915427
  0
LWPOLYLINE
  5
3EB
330
6F
100
AcDbEntity
  8
KERROS2
100
AcDbPolyline
 90
       17
 70
     1
 43
0.0
 10
255.515507624816
 20
292.365024202834
 42
0.2062842492518
 10
215.212654127825
 20
315.633887518432
 10
196.912552948291
 20
326.199455860633
 42
0.4142135623731
 10
183.7987090719609
 20
322.685611984302
 10
173.23314072976
 20
304.385510804769
 42
0.2062842492518
 10
149.964277414162
 20
264.082657307777
 10
139.398709071961
 20
245.782556128244
 42
0.4142135623731
 10
142.912552948292
 20
232.668712251913
 10
161.212654127825
 20
222.103143909712
 42
0.2062842492518
 10
201.515507624816
 20
198.834280594114
 10
219.81560880435
 20
188.268712251913
 42
0.4142135623731
 10
232.9294526806799
 20
191.782556128244
 10
243.495021022881
 20
210.082657307777
 42
0.1020676108895
 10
259.286374618845
 20
227.834084056273
 42
0.1020676108895
 10
266.763884338479
 20
250.385510804769
 10
277.32945268068
 20
268.685611984302
 42
0.4142135623731
 10
273.81560880435
 20
281.799455860633
  0
CIRCLE
  5
40E
330
6F
100
AcDbEntity
  8
KERROS2
100
AcDbCircle
 10
193.00000048
 20
939.5499989139938
 30
0.0
 40
4.0
  0
CIRCLE
  5
40F
330
6F
100
AcDbEntity
  8
KERROS2
100
AcDbCircle
 10
577.74999877
 20
939.5499989139938
 30
0.0
 40
3.0
  0
CIRCLE
  5
410
330
6F
100
AcDbEntity
  8
KERROS2
100
AcDbCircle
 10
260.0
 20
962.0
 30
0.0
 40
4.0
  0
CIRCLE
  5
411
330
6F
100
AcDbEntity
  8
KERROS2
100
AcDbCircle
 10
352.6
 20
961.5999999999999
 30
0.0
 40
4.0
  0
CIRCLE
  5
412
330
6F
100
AcDbEntity
  8
KERROS2
100
AcDbCircle
 10
307.0
 20
980.7999999999999
 30
0.0
 40
4.0
  0
LWPOLYLINE
  5
413
330
6F
100
AcDbEntity
  8
KERROS2
100
AcDbPolyline
 90
        4
 70
     1
 43
0.0
 10
488.0
 20
962.0
 42
0.0101329300641
 10
440.0
 20
970.0
 42
0.6655170847759
 10
438.2785092027689
 20
955.5396042090119
 42
-0.0093474362667
 10
487.400707985036
 20
951.048090769432
 42
0.5502867347833
  0
LWPOLYLINE
  5
419
330
6F
100
AcDbEntity
  8
KERROS2
100
AcDbPolyline
 90
        4
 70
     1
 43
0.0
 10
550.0853480477619
 20
942.6073946196471
 42
0.4694972023681001
 10
551.0
 20
948.0
 42
0.0096477311901
 10
506.0
 20
958.0
 42
0.6900633457973
 10
504.8420544248459
 20
949.006380671649
 42
-0.0086587768826
  0
CIRCLE
  5
41F
330
6F
100
AcDbEntity
  8
KERROS2
100
AcDbCircle
 10
576.3124059236949
 20
981.022226568661
 30
0.0
 40
4.0
  0
CIRCLE
  5
420
330
6F
100
AcDbEntity
  8
KERROS2
100
AcDbCircle
 10
192.226342551664
 20
1003.61552441408
 30
0.0
 40
3.0
  0
LWPOLYLINE
  5
421
330
6F
100
AcDbEntity
  8
KERROS2
100
AcDbPolyline
 90
        4
 70
     1
 43
0.0
 10
283.139775772825
 20
1020.75648377807
 42
-0.0101329300641
 10
331.526721860837
 20
1025.9240217098
 42
-0.6655170847759
 10
332.396098328304
 20
1011.3874897453
 42
0.0093474362667
 10
283.094915379164
 20
1009.788281817
 42
-0.5502867347833
  0
LWPOLYLINE
  5
427
330
6F
100
AcDbEntity
  8
KERROS2
100
AcDbPolyline
 90
        4
 70
     1
 43
0.0
 10
220.022790868253
 20
1005.04311996869
 42
-0.4694972023681001
 10
219.42638195548
 20
1010.48012993656
 42
-0.0096477311901
 10
264.935948967869
 20
1017.8203826805
 42
-0.6900633457973
 10
265.563772849455
 20
1008.77428607743
 42
0.0086587768826
  0
LWPOLYLINE
  5
42D
330
6F
100
AcDbEntity
  8
KERROS2
100
AcDbPolyline
 90
        4
 70
     1
 43
0.0
 10
564.1538461538459
 20
1019.23076923077
 10
586.1538461538459
 20
1019.23076923077
 10
586.1538461538459
 20
1069.23076923077
 10
564.1538461538459
 20
1069.23076923077
  0
LWPOLYLINE
  5
433
330
6F
100
AcDbEntity
  8
KERROS2
100
AcDbPolyline
 90
        9
 70
     1
 43
0.0
 10
570.153846153846
 20
1066.23076923077
 42
0.1316524975874
 10
569.1538461538459
 20
1065.96282003834
 42
0.3769705238792
 10
568.307692307692
 20
1063.46153846154
 10
573.30769219979
 20
1051.4615387205
 42
0.1645634847358
 10
574.153846153846
 20
1050.4987184232
 42
0.4524638742388
 10
577.0
 20
1051.46153846154
 10
582.0
 20
1063.46153846154
 42
0.0990195135928
 10
582.1538461538459
 20
1064.23076923077
 42
0.4142135623731
 10
580.1538461538459
 20
1066.23076923077
  0
LWPOLYLINE
  5
43E
330
6F
100
AcDbEntity
  8
KERROS2
100
AcDbPolyline
 90
        9
 70
     1
 43
0.0
 10
570.153846153846
 20
1022.23076923077
 42
-0.1316524975874
 10
569.1538461538459
 20
1022.4987184232
 42
-0.3769705238792
 10
568.307692307692
 20
1025.0
 10
573.30769219979
 20
1036.99999974103
 42
-0.1645634847358
 10
574.153846153846
 20
1037.96282003834
 42
-0.4524638742388
 10
577.0
 20
1037.0
 10
582.0
 20
1025.0
 42
-0.0990195135928
 10
582.1538461538459
 20
1024.23076923077
 42
-0.4142135623731
 10
580.1538461538459
 20
1022.23076923077
  0
LWPOLYLINE
  5
449
330
6F
100
AcDbEntity
  8
KERROS2
100
AcDbPolyline
 90
        8
 70
     1
 43
0.0
 10
583.153846153846
 20
1049.23076923077
 10
583.153846153846
 20
1039.23076923077
 42
-0.5773502691896
 10
580.1538461538459
 20
1037.4987184232
 42
-0.1682335185555
 10
579.296892772076
 20
1038.48798787806
 10
577.296892772073
 20
1043.48798787806
 42
-0.1925824035673
 10
577.296892772073
 20
1044.97355058348
 10
579.296892772076
 20
1049.97355058348
 42
-0.1682335185555
 10
580.1538461538459
 20
1050.96282003834
 42
-0.5773502691896
  0
LWPOLYLINE
  5
453
330
6F
100
AcDbEntity
  8
KERROS2
100
AcDbPolyline
 90
        8
 70
     1
 43
0.0
 10
567.1538461538459
 20
1049.23076923077
 10
567.1538461538459
 20
1039.23076923077
 42
0.5773502691896
 10
570.153846153846
 20
1037.4987184232
 42
0.1682335185555
 10
571.010799535617
 20
1038.48798787806
 10
573.0107995356201
 20
1043.48798787806
 42
0.1925824035673
 10
573.0107995356201
 20
1044.97355058348
 10
571.010799535617
 20
1049.97355058348
 42
0.1682335185555
 10
570.153846153846
 20
1050.96282003834
 42
0.5773502691896
  0
LWPOLYLINE
  5
465
330
6F
100
AcDbEntity
  8
KERROS2
100
AcDbPolyline
 90
        4
 70
     1
 43
0.0
 10
162.0
 20
799.0
 10
166.0
 20
799.0
 10
166.0
 20
850.0
 10
162.0
 20
850.0
  0
CIRCLE
  5
46B
330
6F
100
AcDbEntity
  8
KERROS2
100
AcDbCircle
 10
111.764081356321
 20
532.129462128558
 30
0.0
 40
4.0
  0
CIRCLE
  5
46C
330
6F
100
AcDbEntity
  8
KERROS2
100
AcDbCircle
 10
178.764080876321
 20
554.5794632145639
 30
0.0
 40
4.0
  0
CIRCLE
  5
46D
330
6F
100
AcDbEntity
  8
KERROS2
100
AcDbCircle
 10
225.764080876321
 20
573.379463214564
 30
0.0
 40
4.0
  0
CIRCLE
  5
46E
330
6F
100
AcDbEntity
  8
KERROS2
100
AcDbCircle
 10
271.364080876321
 20
554.1794632145639
 30
0.0
 40
4.0
  0
CIRCLE
  5
46F
330
6F
100
AcDbEntity
  8
KERROS2
100
AcDbCircle
 10
219.764080876321
 20
532.129462128558
 30
0.0
 40
7.0
  0
CIRCLE
  5
470
330
6F
100
AcDbEntity
  8
KERROS2
100
AcDbCircle
 10
219.764080876321
 20
532.129462128558
 30
0.0
 40
11.0
  0
CIRCLE
  5
471
330
6F
100
AcDbEntity
  8
KERROS2
100
AcDbCircle
 10
244.964080876321
 20
574.1794632145639
 30
0.0
 40
2.1
  0
CIRCLE
  5
472
330
6F
100
AcDbEntity
  8
KERROS2
100
AcDbCircle
 10
187.364080876321
 20
547.779463214564
 30
0.0
 40
2.1
  0
CIRCLE
  5
473
330
6F
100
AcDbEntity
  8
KERROS2
100
AcDbCircle
 10
261.764080876321
 20
552.5794632145639
 30
0.0
 40
2.1
  0
CIRCLE
  5
474
330
6F
100
AcDbEntity
  8
KERROS2
100
AcDbCircle
 10
178.964080876321
 20
565.7794632145639
 30
0.0
 40
2.1
  0
LWPOLYLINE
  5
475
330
6F
100
AcDbEntity
  8
KERROS2
100
AcDbPolyline
 90
       15
 70
     1
 43
0.0
 10
174.546427330069
 20
532.272517180623
 10
177.569878818422
 20
532.272517180624
 10
185.358458047245
 20
532.2725171806249
 42
-0.2547865748168
 10
198.626805466172
 20
524.7126099287779
 42
0.1836949132569
 10
208.628320613119
 20
512.4417595717849
 42
0.4581842154881
 10
240.481049601341
 20
523.554632870123
 42
0.1320338871738
 10
241.764080876321
 20
535.1794632145639
 42
-0.3682351504012999
 10
261.764080876321
 20
547.1794632145639
 10
261.764080876321
 20
547.1794632145639
 10
270.764080876321
 20
546.1794632145639
 42
0.5344384724471
 10
278.764080876321
 20
556.1794632145639
 42
0.2513322416933
 10
246.164080876321
 20
583.7794632145639
 42
0.0094106782327
 10
229.758458047245
 20
583.872517180625
 10
213.00811014821
 20
584.7081229629079
 42
0.1876027540925
 10
165.764080876321
 20
565.7794632145639
 42
0.5258586389535001
  0
CIRCLE
  5
486
330
6F
100
AcDbEntity
  8
KERROS2
100
AcDbCircle
 10
496.5140796463209
 20
532.129462128558
 30
0.0
 40
5.0
  0
CIRCLE
  5
487
330
6F
100
AcDbEntity
  8
KERROS2
100
AcDbCircle
 10
558.563679263265
 20
584.1952582817749
 30
0.0
 40
3.0
  0
LWPOLYLINE
  5
488
330
6F
100
AcDbEntity
  8
KERROS2
100
AcDbPolyline
 90
       62
 70
     1
 43
0.0
 10
549.5835713214559
 20
562.1788730629049
 42
-0.0024156881762
 10
549.4196103311098
 20
561.753365204956
 42
-0.0037773568146
 10
549.2758428579569
 20
561.3811635387
 42
-0.0043114491307
 10
549.149604772177
 20
561.0556638411729
 42
-0.0044655575738
 10
549.0386672087209
 20
560.7710448412819
 42
-0.0064482706396
 10
548.2397524244549
 20
558.78767038976
 10
548.061825984538
 20
558.366910500923
 10
547.744056167769
 20
557.633266893124
 10
547.5012660712719
 20
557.0849778629269
 42
-0.0019751779504
 10
546.757499356395
 20
555.4468717882
 42
-0.0054813371423
 10
546.5662752333949
 20
555.031301359057
 42
-0.0043336549232
 10
546.398585723298
 20
554.667868261206
 10
545.2193061373719
 20
552.126415059718
 10
544.7661013550749
 20
551.1489748745029
 42
0.0026452067818
 10
544.5970178187159
 20
550.7820076008049
 42
0.0037019648663
 10
544.449709709899
 20
550.4606184211199
 42
0.0040910534395
 10
544.3214165687619
 20
550.1791323443309
 42
0.0041748494424
 10
544.209695185884
 20
549.932593704484
 42
0.005914277746
 10
544.0155517394799
 20
549.500487484427
 42
0.0051767764809
 10
543.871275843354
 20
549.175836091063
 42
0.0060759546342
 10
543.6573315159989
 20
548.687805350062
 42
0.0048988774054
 10
543.446762953341
 20
548.1983414325379
 42
0.0056562184847
 10
542.6306784304119
 20
546.2093950686059
 10
542.236402897843
 20
545.2093873770079
 10
541.846024668416
 20
544.2077343658879
 42
-0.3846091075129
 10
513.880248018855
 20
529.3846130362149
 42
0.3946449415016
 10
510.5769835311719
 20
527.5593036179799
 42
-0.1276687771813
 10
506.57882854059
 20
521.2965288150919
 42
0.4831884793575
 10
506.916520967495
 20
516.9801119357051
 10
526.840455997237
 20
503.5675316085599
 42
0.1492191200104
 10
528.383509379419
 20
503.096546436473
 10
557.134368353951
 20
503.096543818038
 42
0.6001742900404001
 10
559.428216996714
 20
507.400166634253
 42
-0.1848173593949
 10
554.652783677421
 20
528.1804611994419
 42
0.0014502891263
 10
554.7501855031359
 20
528.934785367971
 42
0.0022677581541
 10
554.835091538877
 20
529.594884504822
 42
0.0025882718094
 10
554.9089110834199
 20
530.172527479754
 42
0.00268065082
 10
554.9729909513949
 20
530.678041065604
 42
0.0026416581237
 10
555.0285651624849
 20
531.1204216733999
 42
0.0036019494066
 10
555.124448874301
 20
531.894743256238
 42
0.0030112713127
 10
555.194991587559
 20
532.4756398392699
 42
0.0032438676745
 10
555.298156235433
 20
533.347285216092
 42
0.0016437149294
 10
555.3975812004749
 20
534.2193547545559
 10
555.480405826351
 20
534.975942344152
 10
555.6184555415289
 20
536.300734495938
 10
555.717149494
 20
537.2948159105959
 42
0.0012087736316
 10
555.996475555493
 20
540.2787545708419
 42
0.0032887750271
 10
556.0651367829789
 20
541.037124066421
 42
0.0025994035965
 10
556.124798802739
 20
541.7007233342579
 10
556.5364042277919
 20
546.34642631969
 10
556.6950935552279
 20
548.1337896801419
 42
-0.001588686493
 10
556.755570061816
 20
548.803975413269
 42
-0.0022225246489
 10
556.8091889371569
 20
549.390322317877
 42
-0.0039380325059
 10
557.215249868771
 20
553.4916701710669
 10
557.313506778667
 20
554.3827098514689
 10
557.4025310798759
 20
555.1620286111959
 10
557.5640628421909
 20
556.525153515778
 10
557.689042406296
 20
557.5470353894039
 10
557.880760122788
 20
559.0793927809399
 10
558.0751854560889
 20
560.6114409882239
 42
0.3541185725307001
 10
556.137774325707
 20
563.8358344964809
 10
554.452421256196
 20
564.44926433748
 42
0.4142135623731
  0
LWPOLYLINE
  5
4C8
330
6F
100
AcDbEntity
  8
KERROS2
100
AcDbPolyline
 90
       23
 70
     0
 43
0.0
 10
512.9032271247009
 20
540.5939091986879
 42
0.2590192699228
 10
526.009035613261
 20
540.3750171523849
 42
0.1593216800126
 10
531.817336881262
 20
546.429961201502
 42
0.0248933072485
 10
532.3390493546149
 20
547.6679146498399
 10
544.7544348526199
 20
581.8844643294779
 10
546.487154339757
 20
587.757930004188
 42
-0.1924044889452
 10
552.268143463394
 20
595.0994461480199
 42
-0.5773502691896
 10
571.154750863006
 20
584.1952582817749
 42
-0.0640558406198
 10
570.744817287326
 20
581.0085734105349
 10
569.9677696579811
 20
578.038292100098
 10
562.79980023678
 20
527.0354726918561
 42
0.3031547099051
 10
573.4640934663609
 20
505.280368819987
 10
584.3544348526189
 20
499.084464329478
 10
584.3544348526189
 20
488.284464329478
 10
527.9544348526189
 20
488.284464329478
 10
527.9544348526189
 20
490.6844643294779
 42
0.2610237291187
 10
526.204455452865
 20
493.4523755327999
 10
487.844280642914
 20
519.250793887277
 10
485.8489963035999
 20
521.1973378182
 42
-0.4969940050421
 10
488.8777299842709
 20
545.3560077275909
 42
-0.2679489273881
 10
504.1504162252749
 20
545.3560152811089
 10
512.9032271247009
 20
540.5939091986879
 42
0.4624752306971
 10
532.3390554354169
 20
547.6679313566389
  0
CIRCLE
  5
4E1
330
6F
100
AcDbEntity
  8
KERROS2
100
AcDbCircle
 10
496.5140796463209
 20
532.129462128558
 30
0.0
 40
6.0
  0
LWPOLYLINE
  5
4E2
330
6F
100
AcDbEntity
  8
KERROS2
100
AcDbPolyline
 90
        4
 70
     1
 43
0.0
 10
530.3544348526189
 20
490.6844643294779
 10
581.3544348526189
 20
490.6844643294779
 10
581.3544348526189
 20
494.6844643294779
 10
530.3544348526189
 20
494.6844643294779
  0
LWPOLYLINE
  5
4E8
330
6F
100
AcDbEntity
  8
KERROS2
100
AcDbPolyline
 90
       11
 70
     1
 43
0.0
 10
141.922521116186
 20
1049.94678498471
 10
129.891062689326
 20
1048.81303295744
 42
0.0229510942812
 10
103.419327885256
 20
1045.77093029261
 42
-0.0815707129148
 10
-65.470399490092
 20
1038.86219906676
 10
-102.822430765744
 20
1049.77552573038
 42
0.3565753705729
 10
-137.776495163406
 20
1034.96509243966
 42
0.5077150954925001
 10
-116.505550095233
 20
991.4459062566091
 10
-93.501952347621
 20
987.3414067165249
 42
0.0640362868778
 10
61.0639038703057
 20
994.679472601048
 42
0.0184013747431
 10
145.894589993221
 20
1011.75457821273
 42
0.5527189526929001
 10
159.968409908849
 20
1041.06634599252
 42
0.2828316687159
  0
LWPOLYLINE
  5
4F5
330
6F
100
AcDbEntity
  8
KERROS2
100
AcDbPolyline
 90
       41
 70
     1
 43
0.0
 10
66.4581945969376
 20
1021.7850117326
 42
0.3801042607829
 10
61.0805921510087
 20
1026.291900899
 42
-0.0247220307758
 10
14.4163271103487
 20
1022.77510351027
 42
0.0386233234258
 10
13.3976725465031
 20
1022.6616489906
 42
0.0428321898617
 10
12.4121322384472
 20
1022.37976482851
 42
0.0426396589592
 10
11.4882848519781
 20
1021.93508092343
 42
0.0421217423868
 10
10.6514561887461
 20
1021.34238616434
 42
0.0235294547106
 10
10.2742002626742
 20
1020.99508301931
 42
0.0230663280356
 10
9.9274611729811
 20
1020.61714865645
 42
0.0412936035588
 10
9.334623701017099
 20
1019.78114214687
 42
0.0426988846534
 10
8.892221368975699
 20
1018.85813402463
 42
0.042340155304
 10
8.6097124366258
 20
1017.87426624596
 42
0.058168743143
 10
8.4993989900199
 20
1016.46365967828
 10
8.499751224017
 20
1016.46371355236
 42
0.0001889575105
 10
8.6384616098983
 20
1012.87346075394
 42
0.0003272980053
 10
8.7771838916233
 20
1009.28320790171
 42
0.0000471474628
 10
8.781499219943698
 20
1009.17153164327
 10
8.781146986085298
 20
1009.17147776954
 10
8.723769387446999
 20
1009.16925256523
 42
0.0529636994133
 10
8.9053491944594
 20
1007.9061515442
 42
0.0402129877516
 10
9.242158405578001
 20
1006.92878919702
 42
0.043020795646
 10
9.7372225909914
 20
1006.02132694529
 42
0.0404573202268
 10
10.378754896708
 20
1005.21038227782
 42
0.0229338258445
 10
10.7479219361421
 20
1004.84791434258
 42
0.0243827899315
 10
11.1463933278826
 20
1004.51775601173
 42
0.0197980434519
 10
11.5715946754881
 20
1004.22296071999
 42
0.0177960145108
 10
12.0201758212811
 20
1003.96490204964
 42
0.0430937665701
 10
12.9737425716921
 20
1003.56545760207
 42
0.0390710413788
 10
13.9810297611741
 20
1003.33290221164
 42
0.0474722941812
 10
15.0127571118328
 20
1003.2714272369
 42
0.0569211457848
 10
62.0789964697042
 20
1009.87779346015
 42
0.151023800123
 10
65.5622491824665
 20
1012.28424234738
 42
0.0349479787743
 10
66.0267947239463
 20
1013.05842156651
 42
0.0441116532122
 10
66.4128417287486
 20
1014.01610088433
 42
0.0413933868328
 10
66.6316877108229
 20
1015.02536269154
 42
0.0211057070963
 10
66.677330987703
 20
1015.54041172334
 42
0.0191970141268
 10
66.68391352050619
 20
1015.79882417905
 42
0.0144223750075
 10
66.68308590035239
 20
1015.92814434324
 42
0.0153938358761
 10
66.67948605119001
 20
1016.05738292602
 42
-0.0000611967364
 10
66.5688242426736
 20
1018.92119670777
 42
0.0000801980707
 10
66.5135255009191
 20
1020.35310484145
 42
0.0000674086633
  0
CIRCLE
  5
520
330
6F
100
AcDbEntity
  8
KERROS2
100
AcDbCircle
 10
143.723803076757
 20
1030.83146695705
 30
0.0
 40
4.0
  0
CIRCLE
  5
521
330
6F
100
AcDbEntity
  8
KERROS2
100
AcDbCircle
 10
34.2359186436793
 20
673.9794632625579
 30
0.0
 40
2.3404130403177
  0
CIRCLE
  5
522
330
6F
100
AcDbEntity
  8
KERROS2
100
AcDbCircle
 10
379.462852302818
 20
777.8296750250889
 30
0.0
 40
5.429272960154799
  0
CIRCLE
  5
523
330
6F
100
AcDbEntity
  8
KERROS2
100
AcDbCircle
 10
426.6
 20
747.8000000479938
 30
0.0
 40
18.05
  0
CIRCLE
  5
524
330
6F
100
AcDbEntity
  8
KERROS2
100
AcDbCircle
 10
454.251527928029
 20
788.706148769738
 30
0.0
 40
3.0
  0
CIRCLE
  5
525
330
6F
100
AcDbEntity
  8
KERROS2
100
AcDbCircle
 10
421.7484720719709
 20
667.4030929136789
 30
0.0
 40
3.0
  0
CIRCLE
  5
526
330
6F
100
AcDbEntity
  8
KERROS2
100
AcDbCircle
 10
377.348472071971
 20
744.306148769738
 30
0.0
 40
3.0
  0
CIRCLE
  5
527
330
6F
100
AcDbEntity
  8
KERROS2
100
AcDbCircle
 10
498.651527928029
 20
711.803092913679
 30
0.0
 40
3.0
  0
CIRCLE
  5
528
330
6F
100
AcDbEntity
  8
KERROS2
100
AcDbCircle
 10
426.6
 20
747.8000000479938
 30
0.0
 40
6.5
  0
CIRCLE
  5
529
330
6F
100
AcDbEntity
  8
KERROS2
100
AcDbCircle
 10
-73.764080876321
 20
673.9794632625579
 30
0.0
 40
11.0
  0
LWPOLYLINE
  5
52A
330
6F
100
AcDbEntity
  8
KERROS2
100
AcDbPolyline
 90
        7
 70
     1
 43
0.0
 10
-68.82304848381401
 20
641.3713836837859
 10
36.7528553113498
 20
657.3690740494499
 42
0.3708224270799
 10
51.0359186436792
 20
673.9794632625579
 42
0.3708224270799
 10
36.7528553113495
 20
690.5898524756659
 10
-68.82304848381401
 20
706.5875428413299
 42
0.1701085381257
 10
-90.25423441501899
 20
702.541247016195
 42
0.5773502691896
 10
-90.25423441501899
 20
645.4176795089209
 42
0.1701085494919
  0
LWPOLYLINE
  5
533
330
6F
100
AcDbEntity
  8
KERROS2
100
AcDbPolyline
 90
       23
 70
     1
 43
0.0
 10
408.0836919058549
 20
793.5620292873269
 10
408.083386133889
 20
793.563847825036
 10
408.0836880102089
 20
793.562028640882
 10
377.3729594034861
 20
788.465875096797
 42
0.4274551490676
 10
368.637583933529
 20
775.6550563688469
 10
373.426130023885
 20
753.1267087008619
 10
372.548472071971
 20
752.6199926460679
 42
0.4142134637133001
 10
369.0346265787831
 20
739.506151570219
 10
379.600196537841
 20
721.2060475902039
 42
0.0660161266162
 10
383.403666864475
 20
706.2216089524889
 10
392.989684122879
 20
664.7000211095279
 10
393.0
 20
635.0
 10
525.0
 20
635.0
 10
525.0
 20
667.3999999999999
 10
525.0
 20
719.0
 42
0.2863440654878
 10
525.0
 20
719.0
 42
-0.5616834408278001
 10
525.0
 20
719.0
 42
0.0256750229647
 10
525.0
 20
719.0
 42
0.2962627107592
 10
525.0
 20
719.0
 42
0.1121298166098
 10
525.0
 20
719.0
 42
0.0839913198073
 10
468.364080876321
 20
797.8205367854359
 42
0.2335589875587
 10
462.3640808763211
 20
800.8205367854358
 42
0.0222906650067
 10
408.353266301771
 20
793.6067625963519
  0
LWPOLYLINE
  5
54C
330
6F
100
AcDbEntity
  8
KERROS2
100
AcDbPolyline
 90
       11
 70
     1
 43
0.0
 10
141.922521116186
 20
1060.05321501529
 10
129.891062689326
 20
1061.18696704256
 42
-0.0229510942812
 10
103.419327885257
 20
1064.22906970739
 42
0.0815707129148
 10
-65.470399490091
 20
1071.13780093324
 10
-102.822430765744
 20
1060.22447426962
 42
-0.3565753705729
 10
-137.776495163406
 20
1075.03490756034
 42
-0.5077150954925001
 10
-116.505550095233
 20
1118.55409374339
 10
-93.501952347621
 20
1122.65859328348
 42
-0.0640362868778
 10
61.0639038703059
 20
1115.32052739895
 42
-0.0184013747431
 10
145.894589993222
 20
1098.24542178728
 42
-0.5527189526929001
 10
159.968409908849
 20
1068.93365400748
 42
-0.2828316687159
  0
LWPOLYLINE
  5
559
330
6F
100
AcDbEntity
  8
KERROS2
100
AcDbPolyline
 90
       41
 70
     1
 43
0.0
 10
66.4581945969378
 20
1088.2149882674
 42
-0.3801042607829
 10
61.0805921510089
 20
1083.708099101
 42
0.0247220307758
 10
14.4163271103489
 20
1087.22489648973
 42
-0.0386233234258
 10
13.3976725465034
 20
1087.3383510094
 42
-0.0428321898617
 10
12.4121322384474
 20
1087.62023517149
 42
-0.0426396589592
 10
11.4882848519783
 20
1088.06491907657
 42
-0.0421217423868
 10
10.6514561887464
 20
1088.65761383566
 42
-0.0235294547106
 10
10.2742002626744
 20
1089.00491698069
 42
-0.0230663280356
 10
9.927461172981299
 20
1089.38285134355
 42
-0.0412936035588
 10
9.334623701017301
 20
1090.21885785313
 42
-0.0426988846534
 10
8.892221368975899
 20
1091.14186597537
 42
-0.042340155304
 10
8.609712436626098
 20
1092.12573375405
 42
-0.058168743143
 10
8.4993989900202
 20
1093.53634032172
 10
8.499751224017201
 20
1093.53628644764
 42
-0.0001889575105
 10
8.6384616098985
 20
1097.12653924606
 42
-0.0003272980053
 10
8.777183891623501
 20
1100.71679209829
 42
-0.0000471474628
 10
8.781499219944
 20
1100.82846835673
 10
8.7811469860856
 20
1100.82852223046
 10
8.7237693874472
 20
1100.83074743477
 42
-0.0529636994133
 10
8.905349194459599
 20
1102.0938484558
 42
-0.0402129877516
 10
9.242158405578301
 20
1103.07121080298
 42
-0.043020795646
 10
9.737222590991699
 20
1103.97867305471
 42
-0.0404573202268
 10
10.37875489670819
 20
1104.78961772218
 42
-0.0229338258445
 10
10.7479219361423
 20
1105.15208565742
 42
-0.0243827899315
 10
11.1463933278828
 20
1105.48224398827
 42
-0.0197980434519
 10
11.5715946754883
 20
1105.77703928001
 42
-0.0177960145108
 10
12.0201758212813
 20
1106.03509795036
 42
-0.0430937665701
 10
12.9737425716924
 20
1106.43454239793
 42
-0.0390710413788
 10
13.9810297611743
 20
1106.66709778836
 42
-0.0474722941812
 10
15.012757111833
 20
1106.7285727631
 42
-0.0569211457848
 10
62.0789964697044
 20
1100.12220653985
 42
-0.151023800123
 10
65.56224918246678
 20
1097.71575765262
 42
-0.0349479787743
 10
66.02679472394651
 20
1096.94157843349
 42
-0.0441116532122
 10
66.4128417287488
 20
1095.98389911567
 42
-0.0413933868328
 10
66.6316877108231
 20
1094.97463730846
 42
-0.0211057070963
 10
66.6773309877033
 20
1094.45958827666
 42
-0.0191970141268
 10
66.68391352050639
 20
1094.20117582095
 42
-0.0144223750075
 10
66.68308590035261
 20
1094.07185565676
 42
-0.0153938358761
 10
66.67948605119021
 20
1093.94261707398
 42
0.0000611967364
 10
66.56882424267379
 20
1091.07880329223
 42
-0.0000801980707
 10
66.5135255009193
 20
1089.64689515855
 42
-0.0000674086633
  0
CIRCLE
  5
584
330
6F
100
AcDbEntity
  8
KERROS2
100
AcDbCircle
 10
143.723803076757
 20
1079.16853304295
 30
0.0
 40
4.0
  0
LWPOLYLINE
  5
585
330
6F
100
AcDbEntity
  8
KERROS2
100
AcDbPolyline
 90
        8
 70
     1
 43
0.0
 10
224.01281310432
 20
689.1887336796608
 42
0.2686105048863
 10
218.0
 20
689.196152422707
 42
0.2679491924311
 10
215.0
 20
684.0
 10
215.0
 20
666.0
 42
0.4142135623731
 10
221.0
 20
660.0
 10
252.0
 20
660.0
 42
0.4142135623731
 10
258.0
 20
666.0
 42
0.2672880985707
 10
255.01281310432
 20
671.188733679661
  0
LWPOLYLINE
  5
58F
330
6F
100
AcDbEntity
  8
KERROS2
100
AcDbPolyline
 90
        8
 70
     1
 43
0.0
 10
499.98718689568
 20
689.1887336796608
 42
-0.2686105048863
 10
506.0
 20
689.196152422707
 42
-0.2679491924311
 10
509.0
 20
684.0
 10
509.0
 20
666.0
 42
-0.4142135623731
 10
503.0
 20
660.0
 10
472.0
 20
660.0
 42
-0.4142135623731
 10
466.0
 20
666.0
 42
-0.2672880985707
 10
468.9871868956799
 20
671.188733679661
  0
CIRCLE
  5
599
330
6F
100
AcDbEntity
  8
KERROS2
100
AcDbCircle
 10
193.00000048
 20
939.5499989139938
 30
0.0
 40
4.0
  0
CIRCLE
  5
59A
330
6F
100
AcDbEntity
  8
KERROS2
100
AcDbCircle
 10
577.74999877
 20
939.5499989139938
 30
0.0
 40
3.0
  0
LWPOLYLINE
  5
59B
330
6F
100
AcDbEntity
  8
KERROS2
100
AcDbPolyline
 90
       20
 70
     1
 43
0.0
 10
565.471279739325
 20
930.0904503536379
 42
0.0325926885566
 10
394.0
 20
948.0
 10
305.8
 20
960.3999999999999
 42
0.1381747203792
 10
291.4
 20
959.2
 10
258.805797942107
 20
940.0930539660629
 10
223.394377170924
 20
940.093053966062
 42
0.222542531294
 10
209.208530586986
 20
931.7216177421981
 42
-0.0388892010996
 10
207.800769307995
 20
929.306110877693
 42
-0.3904476448835
 10
184.00000048
 20
923.961541645874
 42
-0.5773502691896
 10
184.00000048
 20
955.1384561821139
 42
-0.1111513762125
 10
191.33353485595
 20
957.4739703980601
 10
191.546988823545
 20
957.491257429667
 10
213.858810186276
 20
959.2982285787901
 42
0.1428810626951
 10
238.994377170924
 20
968.8930539660619
 42
-0.1876027540925
 10
294.244029271889
 20
992.528659748344
 42
-0.0606218830371
 10
570.694050631742
 20
953.3508538103481
 42
-0.1607999748586
 10
580.2977237923139
 20
954.8391812731219
 42
-0.3666378841052
 10
593.24999877
 20
939.5499989139938
 42
-0.5773502691896
 10
569.99999877
 20
926.1266051553349
 42
-0.0701016303013
 10
566.5927420727959
 20
928.790555480772
  0
CIRCLE
  5
5B1
330
6F
100
AcDbEntity
  8
KERROS2
100
AcDbCircle
 10
510.746332856724
 20
1007.36786277313
 30
0.0
 40
4.0
  0
CIRCLE
  5
5B2
330
6F
100
AcDbEntity
  8
KERROS2
100
AcDbCircle
 10
418.282637091939
 20
1012.40621225657
 30
0.0
 40
4.0
  0
CIRCLE
  5
5B3
330
6F
100
AcDbEntity
  8
KERROS2
100
AcDbCircle
 10
464.931411330187
 20
1028.89535602054
 30
0.0
 40
4.0
  0
CIRCLE
  5
5B4
330
6F
100
AcDbEntity
  8
KERROS2
100
AcDbCircle
 10
111.764081356321
 20
532.129462128558
 30
0.0
 40
4.0
  0
CIRCLE
  5
5B5
330
6F
100
AcDbEntity
  8
KERROS2
100
AcDbCircle
 10
496.5140796463209
 20
532.129462128558
 30
0.0
 40
3.0
  0
CIRCLE
  5
5B6
330
6F
100
AcDbEntity
  8
KERROS2
100
AcDbCircle
 10
178.764080876321
 20
554.5794632145639
 30
0.0
 40
4.0
  0
CIRCLE
  5
5B7
330
6F
100
AcDbEntity
  8
KERROS2
100
AcDbCircle
 10
271.364080876321
 20
554.1794632145639
 30
0.0
 40
4.0
  0
CIRCLE
  5
5B8
330
6F
100
AcDbEntity
  8
KERROS2
100
AcDbCircle
 10
225.764080876321
 20
573.379463214564
 30
0.0
 40
4.0
  0
LWPOLYLINE
  5
5B9
330
6F
100
AcDbEntity
  8
KERROS2
100
AcDbPolyline
 90
        4
 70
     1
 43
0.0
 10
406.764080876321
 20
554.5794632145639
 42
0.0101329300641
 10
358.7640808763211
 20
562.5794632145639
 42
0.6655170847759
 10
357.04259007909
 20
548.119067423576
 42
-0.0093474362667
 10
406.1647888613569
 20
543.627553983996
 42
0.5502867347833
  0
LWPOLYLINE
  5
5BF
330
6F
100
AcDbEntity
  8
KERROS2
100
AcDbPolyline
 90
        4
 70
     1
 43
0.0
 10
468.849428924082
 20
535.1868578342109
 42
0.4694972023681001
 10
469.7640808763209
 20
540.5794632145639
 42
0.0096477311901
 10
424.764080876321
 20
550.5794632145639
 42
0.6900633457973
 10
423.6061353011669
 20
541.5858438862129
 42
-0.0086587768826
  0
CIRCLE
  5
5C5
330
6F
100
AcDbEntity
  8
KERROS2
100
AcDbCircle
 10
111.764081356321
 20
532.129462128558
 30
0.0
 40
4.0
  0
CIRCLE
  5
5C6
330
6F
100
AcDbEntity
  8
KERROS2
100
AcDbCircle
 10
496.5140796463209
 20
532.129462128558
 30
0.0
 40
3.0
  0
LWPOLYLINE
  5
5C7
330
6F
100
AcDbEntity
  8
KERROS2
100
AcDbPolyline
 90
       20
 70
     1
 43
0.0
 10
484.2353606156459
 20
522.669913568202
 42
0.0325926885566
 10
312.764080876321
 20
540.5794632145639
 10
224.564080876321
 20
552.979463214564
 42
0.1381747203792
 10
210.164080876321
 20
551.779463214564
 10
177.569878818428
 20
532.672517180627
 10
142.158458047245
 20
532.6725171806259
 42
0.222542531294
 10
127.972611463306
 20
524.301080956762
 42
-0.0388892010996
 10
126.564850184316
 20
521.8855740922569
 42
-0.3904476448835
 10
102.764081356321
 20
516.5410048604379
 42
-0.5773502691896
 10
102.764081356321
 20
547.7179193966779
 42
-0.1111513762125
 10
110.097615732271
 20
550.0534336126239
 10
110.311069699866
 20
550.070720644231
 10
132.622891062597
 20
551.877691793354
 42
0.1428810626951
 10
157.758458047245
 20
561.472517180626
 42
-0.1876027540925
 10
213.00811014821
 20
585.108122962908
 42
-0.0606218830371
 10
489.4581315080619
 20
545.930317024912
 42
-0.1607999748586
 10
499.061804668635
 20
547.418644487686
 42
-0.3666378841052
 10
512.0140796463211
 20
532.129462128558
 42
-0.5773502691896
 10
488.764079646321
 20
518.7060683698989
 42
-0.0701016303013
 10
485.356822949117
 20
521.3700186953359
  0
CIRCLE
  5
5DD
330
6F
100
AcDbEntity
  8
KERROS2
100
AcDbCircle
 10
-111.0
 20
1112.04107347488
 30
0.0
 40
2.5
  0
CIRCLE
  5
5DE
330
6F
100
AcDbEntity
  8
KERROS2
100
AcDbCircle
 10
-111.0
 20
1066.04107347488
 30
0.0
 40
2.5
  0
CIRCLE
  5
5DF
330
6F
100
AcDbEntity
  8
KERROS2
100
AcDbCircle
 10
-134.0
 20
1089.04107347488
 30
0.0
 40
2.5
  0
CIRCLE
  5
5E0
330
6F
100
AcDbEntity
  8
KERROS2
100
AcDbCircle
 10
-88.0
 20
1089.04107347488
 30
0.0
 40
2.5
  0
CIRCLE
  5
5E1
330
6F
100
AcDbEntity
  8
KERROS2
100
AcDbCircle
 10
-111.235919123679
 20
1089.02053673744
 30
0.0
 40
11.0
  0
CIRCLE
  5
5E2
330
6F
100
AcDbEntity
  8
KERROS2
100
AcDbCircle
 10
-111.235919123679
 20
1020.97946326256
 30
0.0
 40
11.0
  0
CIRCLE
  5
5E3
330
6F
100
AcDbEntity
  8
KERROS2
100
AcDbCircle
 10
-111.0
 20
1044.0
 30
0.0
 40
2.5
  0
CIRCLE
  5
5E4
330
6F
100
AcDbEntity
  8
KERROS2
100
AcDbCircle
 10
-111.0
 20
998.0
 30
0.0
 40
2.5
  0
CIRCLE
  5
5E5
330
6F
100
AcDbEntity
  8
KERROS2
100
AcDbCircle
 10
-134.0
 20
1021.0
 30
0.0
 40
2.5
  0
CIRCLE
  5
5E6
330
6F
100
AcDbEntity
  8
KERROS2
100
AcDbCircle
 10
-88.0
 20
1021.0
 30
0.0
 40
2.5
  0
CIRCLE
  5
5E7
330
6F
100
AcDbEntity
  8
KERROS2
100
AcDbCircle
 10
-111.235919123679
 20
1020.97946326256
 30
0.0
 40
11.0
  0
CIRCLE
  5
5E8
330
6F
100
AcDbEntity
  8
KERROS2
100
AcDbCircle
 10
-153.844975263998
 20
1032.74255256035
 30
0.0
 40
2.5
  0
CIRCLE
  5
5E9
330
6F
100
AcDbEntity
  8
KERROS2
100
AcDbCircle
 10
-198.238973768321
 20
1044.79132414911
 30
0.0
 40
2.5
  0
CIRCLE
  5
5EA
330
6F
100
AcDbEntity
  8
KERROS2
100
AcDbCircle
 10
-170.01758872178
 20
1060.96393760689
 30
0.0
 40
2.5
  0
CIRCLE
  5
5EB
330
6F
100
AcDbEntity
  8
KERROS2
100
AcDbCircle
 10
-182.066360310539
 20
1016.56993910257
 30
0.0
 40
2.5
  0
CIRCLE
  5
5EC
330
6F
100
AcDbEntity
  8
KERROS2
100
AcDbCircle
 10
-176.0
 20
1039.0
 30
0.0
 40
11.0
  0
LWPOLYLINE
  5
5ED
330
6F
100
AcDbEntity
  8
KERROS2
100
AcDbPolyline
 90
        8
 70
     1
 43
0.0
 10
-205.433350649404
 20
1014.62245805551
 42
0.0034596880172
 10
-205.391577234005
 20
1014.22524974982
 42
0.8463284229534998
 10
-148.547456436769
 20
1011.1311694216
 42
0.0171333410027
 10
-148.181406153357
 20
1013.07437055337
 10
-146.117276837331
 20
1036.34993275872
 42
0.5077150954925001
 10
-182.545579613774
 20
1068.2772161846
 42
0.3565753705729
 10
-205.99444681775
 20
1038.42279977722
 10
-205.391577234005
 20
1014.22524974982
  0
CIRCLE
  5
5F7
330
6F
100
AcDbEntity
  8
KERROS2
100
AcDbCircle
 10
-166.276196923243
 20
1099.16853304295
 30
0.0
 40
4.0
  0
LWPOLYLINE
  5
5F8
330
6F
100
AcDbEntity
  8
KERROS2
100
AcDbPolyline
 90
        6
 70
     1
 43
0.0
 10
-175.868355147196
 20
1121.00326281594
 42
0.818869159413
 10
-183.1191088443899
 20
1081.40927914036
 42
0.0025984758998
 10
-180.108937310674
 20
1081.18696704256
 10
-168.077478883814
 20
1080.05321501529
 42
0.2828316312325
 10
-150.031590091151
 20
1088.93365400748
 42
0.5527189526929001
 10
-164.105410006778
 20
1118.24542178728
 42
0.0025684107195
  0
LWPOLYLINE
  5
600
330
6F
100
AcDbEntity
  8
KERROS2
100
AcDbPolyline
 90
       20
 70
     1
 43
0.0
 10
202.732529713946
 20
992.2194710923731
 42
0.0277115972526
 10
203.928389277191
 20
993.451268296012
 42
-0.0325926885566
 10
376.155458543954
 20
1001.26077249018
 10
464.931411330187
 20
1008.46009238143
 42
-0.1381747203792
 10
479.236095877565
 20
1006.41656601752
 10
510.652054001617
 20
985.4285939934689
 10
546.002367875206
 20
983.349163765609
 42
-0.222542531294
 10
559.67214732004
 20
974.159151922155
 42
0.0388892010996
 10
560.935635881284
 20
971.6651467323641
 42
0.3904476448835
 10
584.381489552381
 20
964.9321709629999
 42
0.5773502691896
 10
586.212261012158
 20
996.0552857791959
 42
0.1111513762125
 10
579.0285276969059
 20
998.8174097357671
 10
578.816457200652
 20
998.8472013849788
 10
556.6492467148639
 20
1001.96124964006
 42
-0.1428810626951
 10
532.120481885878
 20
1013.01552925549
 42
0.1876027540925
 10
478.354100628234
 20
1039.8547200859
 42
0.0606218830371
 10
200.080528860712
 20
1016.97822464355
 42
0.1607999748586
 10
190.580825654104
 20
1019.02793091468
 42
0.3666378841052
 10
176.753089767452
 20
1004.52571575432
 42
0.5773502691896
 10
199.174720120811
 20
989.760198753645
 42
0.0701016303013
  0
CIRCLE
  5
616
330
6F
100
AcDbEntity
  8
KERROS2
100
AcDbCircle
 10
-315.462852302818
 20
310.829675025089
 30
0.0
 40
5.429272960154799
  0
CIRCLE
  5
617
330
6F
100
AcDbEntity
  8
KERROS2
100
AcDbCircle
 10
-434.1187547037979
 20
318.827196464704
 30
0.0
 40
6.0
  0
LWPOLYLINE
  5
618
330
6F
100
AcDbEntity
  8
KERROS2
100
AcDbPolyline
 90
       23
 70
     1
 43
0.0
 10
-344.083691905855
 20
326.562029287327
 10
-344.083386133889
 20
326.563847825036
 10
-344.08368801021
 20
326.562028640882
 10
-313.372959403486
 20
321.465875096797
 42
-0.4274551490676
 10
-304.637583933529
 20
308.655056368847
 10
-309.426130023885
 20
286.126708700862
 10
-308.548472071971
 20
285.619992646068
 42
-0.4142134637133001
 10
-305.034626578783
 20
272.506151570219
 10
-315.600196537842
 20
254.206047590204
 42
-0.0660161266162
 10
-319.403666864475
 20
239.221608952489
 10
-328.989684122878
 20
197.700021109528
 10
-329.0
 20
168.0
 10
-461.0
 20
168.0
 10
-461.0
 20
200.4
 10
-461.0
 20
252.0
 42
-0.2863440654878
 10
-451.4
 20
265.2
 42
0.5616834408278001
 10
-444.32220404745
 20
303.300402230335
 42
-0.0256750229647
 10
-445.859918590449
 20
304.428002449352
 42
-0.2962627107592
 10
-452.0477530122299
 20
323.699848449116
 42
-0.1121298166098
 10
-448.1841348962349
 20
330.966257291108
 42
-0.0839913198073
 10
-443.408422589477
 20
334.917373228142
 42
-0.2335589875587
 10
-426.983253949341
 20
335.981681204504
 42
-0.0222906650067
 10
-344.353266301771
 20
326.606762596352
  0
CIRCLE
  5
631
330
6F
100
AcDbEntity
  8
KERROS2
100
AcDbCircle
 10
-434.1187547037979
 20
318.827196464704
 30
0.0
 40
3.5
  0
CIRCLE
  5
632
330
6F
100
AcDbEntity
  8
KERROS2
100
AcDbCircle
 10
-390.251527928029
 20
321.706148769738
 30
0.0
 40
3.0
  0
CIRCLE
  5
633
330
6F
100
AcDbEntity
  8
KERROS2
100
AcDbCircle
 10
-357.748472071971
 20
200.403092913679
 30
0.0
 40
3.0
  0
CIRCLE
  5
634
330
6F
100
AcDbEntity
  8
KERROS2
100
AcDbCircle
 10
-313.348472071971
 20
277.306148769738
 30
0.0
 40
3.0
  0
CIRCLE
  5
635
330
6F
100
AcDbEntity
  8
KERROS2
100
AcDbCircle
 10
-434.6515279280289
 20
244.803092913679
 30
0.0
 40
3.0
  0
CIRCLE
  5
636
330
6F
100
AcDbEntity
  8
KERROS2
100
AcDbCircle
 10
-362.6
 20
280.800000047994
 30
0.0
 40
6.5
  0
CIRCLE
  5
637
330
6F
100
AcDbEntity
  8
KERROS2
100
AcDbCircle
 10
-362.6
 20
280.800000047994
 30
0.0
 40
18.05
  0
LWPOLYLINE
  5
638
330
6F
100
AcDbEntity
  8
KERROS2
100
AcDbPolyline
 90
        8
 70
     1
 43
0.0
 10
-436.1871868956799
 20
222.588733679661
 42
0.2686105048863
 10
-442.1999999999999
 20
222.596152422707
 42
0.2679491924311
 10
-445.1999999999999
 20
217.4
 10
-445.1999999999999
 20
199.4
 42
0.4142135623731
 10
-439.2
 20
193.4
 10
-408.1999999999999
 20
193.4
 42
0.4142135623731
 10
-402.2
 20
199.4
 42
0.2672880985707
 10
-405.18718689568
 20
204.588733679661
  0
CIRCLE
  5
642
330
6F
100
AcDbEntity
  8
KERROS2
100
AcDbCircle
 10
-315.462852302818
 20
310.829675025089
 30
0.0
 40
5.429272960154799
  0
CIRCLE
  5
643
330
6F
100
AcDbEntity
  8
KERROS2
100
AcDbCircle
 10
-434.1187547037979
 20
318.827196464704
 30
0.0
 40
6.0
  0
LWPOLYLINE
  5
644
330
6F
100
AcDbEntity
  8
KERROS2
100
AcDbPolyline
 90
       23
 70
     1
 43
0.0
 10
-344.083691905855
 20
326.562029287327
 10
-344.083386133889
 20
326.563847825036
 10
-344.08368801021
 20
326.562028640882
 10
-313.372959403486
 20
321.465875096797
 42
-0.4274551490676
 10
-304.637583933529
 20
308.655056368847
 10
-309.426130023885
 20
286.126708700862
 10
-308.548472071971
 20
285.619992646068
 42
-0.4142134637133001
 10
-305.034626578783
 20
272.506151570219
 10
-315.600196537842
 20
254.206047590204
 42
-0.0660161266162
 10
-319.403666864475
 20
239.221608952489
 10
-328.989684122878
 20
197.700021109528
 10
-329.0
 20
168.0
 10
-461.0
 20
168.0
 10
-461.0
 20
200.4
 10
-461.0
 20
252.0
 42
-0.2863440654878
 10
-451.4
 20
265.2
 42
0.5616834408278001
 10
-444.32220404745
 20
303.300402230335
 42
-0.0256750229647
 10
-445.859918590449
 20
304.428002449352
 42
-0.2962627107592
 10
-452.0477530122299
 20
323.699848449116
 42
-0.1121298166098
 10
-448.1841348962349
 20
330.966257291108
 42
-0.0839913198073
 10
-443.408422589477
 20
334.917373228142
 42
-0.2335589875587
 10
-426.983253949341
 20
335.981681204504
 42
-0.0222906650067
 10
-344.353266301771
 20
326.606762596352
  0
CIRCLE
  5
65D
330
6F
100
AcDbEntity
  8
KERROS2
100
AcDbCircle
 10
-434.1187547037979
 20
318.827196464704
 30
0.0
 40
3.5
  0
CIRCLE
  5
65E
330
6F
100
AcDbEntity
  8
KERROS2
100
AcDbCircle
 10
-390.251527928029
 20
321.706148769738
 30
0.0
 40
3.0
  0
CIRCLE
  5
65F
330
6F
100
AcDbEntity
  8
KERROS2
100
AcDbCircle
 10
-357.748472071971
 20
200.403092913679
 30
0.0
 40
3.0
  0
CIRCLE
  5
660
330
6F
100
AcDbEntity
  8
KERROS2
100
AcDbCircle
 10
-313.348472071971
 20
277.306148769738
 30
0.0
 40
3.0
  0
CIRCLE
  5
661
330
6F
100
AcDbEntity
  8
KERROS2
100
AcDbCircle
 10
-434.6515279280289
 20
244.803092913679
 30
0.0
 40
3.0
  0
CIRCLE
  5
662
330
6F
100
AcDbEntity
  8
KERROS2
100
AcDbCircle
 10
-362.6
 20
280.800000047994
 30
0.0
 40
6.5
  0
CIRCLE
  5
663
330
6F
100
AcDbEntity
  8
KERROS2
100
AcDbCircle
 10
-362.6
 20
280.800000047994
 30
0.0
 40
18.05
  0
LWPOLYLINE
  5
664
330
6F
100
AcDbEntity
  8
KERROS2
100
AcDbPolyline
 90
        8
 70
     1
 43
0.0
 10
-436.1871868956799
 20
222.588733679661
 42
0.2686105048863
 10
-442.1999999999999
 20
222.596152422707
 42
0.2679491924311
 10
-445.1999999999999
 20
217.4
 10
-445.1999999999999
 20
199.4
 42
0.4142135623731
 10
-439.2
 20
193.4
 10
-408.1999999999999
 20
193.4
 42
0.4142135623731
 10
-402.2
 20
199.4
 42
0.2672880985707
 10
-405.18718689568
 20
204.588733679661
  0
LWPOLYLINE
  5
66E
330
6F
100
AcDbEntity
  8
KERROS2
100
AcDbPolyline
 90
        5
 70
     1
 43
0.0
 10
75.6192910256875
 20
5.655635771120599
 10
75.6192910256875
 20
-5.6556357711222
 10
47.35776364778209
 20
-7.421507800844
 42
-0.5569582465795
 10
41.3768990700507
 20
3.7178320512913
 42
-0.2514791785971
 10
47.3577636478059
 20
7.421507800844
  0
CIRCLE
  5
675
330
6F
100
AcDbEntity
  8
KERROS2
100
AcDbCircle
 10
-73.764080876321
 20
673.9794632625579
 30
0.0
 40
27.5
  0
CIRCLE
  5
676
330
6F
100
AcDbEntity
  8
KERROS2
100
AcDbCircle
 10
339.0
 20
242.0
 30
0.0
 40
44.5
  0
CIRCLE
  5
677
330
6F
100
AcDbEntity
  8
KERROS2
100
AcDbCircle
 10
339.0
 20
242.0
 30
0.0
 40
37.0
  0
CIRCLE
  5
678
330
6F
100
AcDbEntity
  8
KERROS2
100
AcDbCircle
 10
339.0
 20
242.0
 30
0.0
 40
24.0
  0
CIRCLE
  5
679
330
6F
100
AcDbEntity
  8
KERROS2
100
AcDbCircle
 10
302.0
 20
279.0
 30
0.0
 40
3.5
  0
CIRCLE
  5
67A
330
6F
100
AcDbEntity
  8
KERROS2
100
AcDbCircle
 10
376.0
 20
205.0
 30
0.0
 40
3.5
  0
CIRCLE
  5
67B
330
6F
100
AcDbEntity
  8
KERROS2
100
AcDbCircle
 10
376.0
 20
279.0
 30
0.0
 40
3.5
  0
CIRCLE
  5
67C
330
6F
100
AcDbEntity
  8
KERROS2
100
AcDbCircle
 10
302.0
 20
205.0
 30
0.0
 40
3.5
  0
CIRCLE
  5
67D
330
6F
100
AcDbEntity
  8
KERROS2
100
AcDbCircle
 10
339.0
 20
242.0
 30
0.0
 40
19.1
  0
CIRCLE
  5
67E
330
6F
100
AcDbEntity
  8
KERROS2
100
AcDbCircle
 10
315.4
 20
265.6
 30
0.0
 40
2.5
  0
CIRCLE
  5
67F
330
6F
100
AcDbEntity
  8
KERROS2
100
AcDbCircle
 10
362.6
 20
218.4
 30
0.0
 40
2.5
  0
CIRCLE
  5
680
330
6F
100
AcDbEntity
  8
KERROS2
100
AcDbCircle
 10
362.6
 20
265.6
 30
0.0
 40
2.5
  0
CIRCLE
  5
681
330
6F
100
AcDbEntity
  8
KERROS2
100
AcDbCircle
 10
315.4
 20
218.4
 30
0.0
 40
2.5
  0
LWPOLYLINE
  5
682
330
6F
100
AcDbEntity
  8
KERROS2
100
AcDbPolyline
 90
       17
 70
     1
 43
0.0
 10
358.390719429665
 20
287.0
 42
0.2062842492518
 10
319.609280570335
 20
287.0
 10
302.0
 20
287.0
 42
0.4142135623731
 10
294.0
 20
279.0
 10
294.0
 20
261.390719429665
 42
0.2062842492518
 10
294.0
 20
222.609280570335
 10
294.0
 20
205.0
 42
0.4142135623731
 10
302.0
 20
197.0
 10
319.609280570335
 20
197.0
 42
0.2062842492518
 10
358.390719429665
 20
197.0
 10
376.0
 20
197.0
 42
0.4142135623731
 10
384.0
 20
205.0
 10
384.0
 20
222.609280570335
 42
0.1020676108895
 10
388.0
 20
242.0
 42
0.1020676108895
 10
384.0
 20
261.390719429665
 10
384.0
 20
279.0
 42
0.4142135623731
 10
376.0
 20
287.0
  0
LWPOLYLINE
  5
695
330
6F
100
AcDbEntity
  8
KERROS2
100
AcDbPolyline
 90
        4
 70
     1
 43
0.0
 10
-46.0
 20
-39.0
 10
86.0
 20
-39.0
 10
86.0
 20
-30.0
 10
-46.0
 20
-30.0
  0
LWPOLYLINE
  5
69B
330
6F
100
AcDbEntity
  8
KERROS2
100
AcDbPolyline
 90
        4
 70
     1
 43
0.0
 10
-46.0
 20
30.0
 10
86.0
 20
30.0
 10
86.0
 20
39.0
 10
-46.0
 20
39.0
  0
CIRCLE
  5
6A1
330
6F
100
AcDbEntity
  8
KERROS2
100
AcDbCircle
 10
0.0
 20
0.0
 30
0.0
 40
21.7
  0
LWPOLYLINE
  5
6A2
330
6F
100
AcDbEntity
  8
KERROS2
100
AcDbPolyline
 90
        7
 70
     1
 43
0.0
 10
-141.6
 20
21.1
 10
-133.6
 20
21.1
 42
0.4142135623731
 10
-131.1
 20
23.6
 42
0.4142135623731
 10
-133.6
 20
26.1
 10
-141.6
 20
26.1
 42
0.1316524975874
 10
-142.85
 20
25.76506350946111
 42
0.5773502691896
 10
-142.85
 20
21.4349364905389
 42
0.1316524975874
  0
LWPOLYLINE
  5
6AB
330
6F
100
AcDbEntity
  8
KERROS2
100
AcDbPolyline
 90
        7
 70
     1
 43
0.0
 10
-133.6
 20
-21.1
 10
-141.6
 20
-21.1
 42
0.1316524975874
 10
-142.85
 20
-21.4349364905389
 42
0.5773502691896
 10
-142.85
 20
-25.76506350946111
 42
0.1316525356976
 10
-141.6
 20
-26.1
 10
-133.599999625391
 20
-26.1
 42
0.4142135184849
 10
-131.1
 20
-23.6
 42
0.4142135623731
  0
LWPOLYLINE
  5
6B4
330
6F
100
AcDbEntity
  8
KERROS2
100
AcDbPolyline
 90
        7
 70
     1
 43
0.0
 10
-110.0
 20
19.1
 10
-118.0
 20
19.1
 42
0.1316525020772
 10
-127.55
 20
16.5410852122828
 42
0.5773502691896
 10
-127.55
 20
-16.5410852122828
 42
0.1316525046864
 10
-118.0
 20
-19.1
 10
-109.999999369204
 20
-19.1
 42
0.4142135527000001
 10
-90.90000000000001
 20
0.0
 42
0.4142135572026
  0
LWPOLYLINE
  5
6BD
330
6F
100
AcDbEntity
  8
KERROS2
100
AcDbPolyline
 90
        7
 70
     1
 43
0.0
 10
-86.4
 20
26.1
 10
-94.40000000000001
 20
26.1
 42
0.1316524975874
 10
-95.65000000000001
 20
25.76506350946111
 42
0.5773502691896
 10
-95.65000000000001
 20
21.4349364905389
 42
0.1316524975874
 10
-94.40000000000001
 20
21.1
 10
-86.4
 20
21.1
 42
0.4142135623731
 10
-83.9
 20
23.6
 42
0.4142135623731
  0
LWPOLYLINE
  5
6C6
330
6F
100
AcDbEntity
  8
KERROS2
100
AcDbPolyline
 90
        7
 70
     1
 43
0.0
 10
-86.4
 20
-21.1
 10
-94.40000000000001
 20
-21.1
 42
0.1316524975874
 10
-95.65000000000001
 20
-21.4349364905389
 42
0.5773502691896
 10
-95.65000000000001
 20
-25.76506350946111
 42
0.1316524975874
 10
-94.40000000000001
 20
-26.1
 10
-86.39999999999991
 20
-26.1
 42
0.4142135623731
 10
-83.9
 20
-23.6
 42
0.4142135623731
  0
LWPOLYLINE
  5
6CF
330
6F
100
AcDbEntity
  8
KERROS2
100
AcDbPolyline
 90
       22
 70
     1
 43
0.0
 10
-134.097248883262
 20
34.0882192744095
 10
-137.564506580875
 20
34.0999400101714
 42
0.1325123237712
 10
-142.85
 20
32.6932667397366
 42
0.2679491924311
 10
-148.1
 20
23.6
 10
-148.1
 20
-23.6
 42
0.2679491924311
 10
-142.85
 20
-32.6932667397366
 42
0.1325123509939
 10
-137.564505948769
 20
-34.0999400080347
 10
-134.097249105892
 20
-34.08821927516211
 10
-133.564505948769
 20
-34.0999400080347
 10
-107.999954291967
 20
-34.0135214660705
 10
-104.0
 20
-34.0
 42
-0.2145831876214
 10
-85.21723862085549
 20
-44.24954510315529
 42
0.1430296015732
 10
-48.0104155366313
 20
-83.1564790019394
 42
0.126358239659
 10
-2.0
 20
-96.0
 42
0.3277352905839001
 10
91.0
 20
-30.6431068920891
 10
91.0
 20
30.6431068920891
 42
0.3277352905839001
 10
-2.0
 20
96.0
 42
0.126358239659
 10
-48.0104155366312
 20
83.15647900193949
 42
0.1430296015732
 10
-85.21723862085542
 20
44.24954510315529
 42
-0.2145831876214
 10
-104.0
 20
34.0
 10
-107.837947683092
 20
34.0129738180963
 10
-133.564506580875
 20
34.0999400101714
  0
CIRCLE
  5
6E7
330
6F
100
AcDbEntity
  8
KERROS2
100
AcDbCircle
 10
76.0
 20
-34.5
 30
0.0
 40
2.0
  0
CIRCLE
  5
6E8
330
6F
100
AcDbEntity
  8
KERROS2
100
AcDbCircle
 10
-36.0
 20
-34.5
 30
0.0
 40
2.0
  0
CIRCLE
  5
6E9
330
6F
100
AcDbEntity
  8
KERROS2
100
AcDbCircle
 10
20.0
 20
-34.5
 30
0.0
 40
2.0
  0
CIRCLE
  5
6EA
330
6F
100
AcDbEntity
  8
KERROS2
100
AcDbCircle
 10
76.0
 20
34.5
 30
0.0
 40
2.0
  0
CIRCLE
  5
6EB
330
6F
100
AcDbEntity
  8
KERROS2
100
AcDbCircle
 10
-36.0
 20
34.5
 30
0.0
 40
2.0
  0
CIRCLE
  5
6EC
330
6F
100
AcDbEntity
  8
KERROS2
100
AcDbCircle
 10
20.0
 20
34.5
 30
0.0
 40
2.0
  0
CIRCLE
  5
6ED
330
6F
100
AcDbEntity
  8
KERROS2
100
AcDbCircle
 10
0.0
 20
0.0
 30
0.0
 40
6.0
  0
CIRCLE
  5
6EE
330
6F
100
AcDbEntity
  8
KERROS2
100
AcDbCircle
 10
0.0
 20
0.0
 30
0.0
 40
31.1
  0
LWPOLYLINE
  5
6EF
330
6F
100
AcDbEntity
  8
KERROS2
100
AcDbPolyline
 90
       70
 70
     1
 43
0.0
 10
79.06928063839841
 20
6.670160934455499
 10
78.62832038766741
 20
7.717000968689599
 10
76.6006081323081
 20
7.8489365949074
 10
76.02771225535929
 20
6.868064373782199
 10
74.0
 20
7.0
 10
73.559039749269
 20
8.046840034234099
 10
71.53132749390969
 20
8.178775660451901
 10
70.95843161696101
 20
7.197903439326699
 10
68.9307193616016
 20
7.3298390655445
 10
68.48975911087059
 20
8.376679099778598
 10
66.46204685551129
 20
8.5086147259964
 10
65.8891509785626
 20
7.527742504871199
 10
63.8614387232032
 20
7.659678131088999
 10
63.42047847247229
 20
8.7065181653231
 10
61.39276621711289
 20
8.838453791540899
 10
60.8198703401642
 20
7.857581570415701
 10
58.79215808480479
 20
7.989517196633499
 10
58.35119783407389
 20
9.036357230867599
 10
56.3234855787145
 20
9.1682928570854
 10
55.7505897017658
 20
8.1874206359601
 10
53.7228774464064
 20
8.319356262177899
 10
53.28191719567549
 20
9.366196296412098
 10
51.25420494031611
 20
9.4981319226299
 10
51.0782552623733
 20
9.1968831995124
 10
50.68130906336739
 20
8.517259701504599
 10
48.653596808008
 20
8.6491953277224
 10
48.2126365572771
 20
9.6960353619565
 42
0.1372332775106
 10
43.1508166655146
 20
8.3990319105449
 42
0.5773502691896
 10
43.1508166655146
 20
-8.3990319105449
 42
0.1372332775106
 10
48.2126365572771
 20
-9.6960353619565
 10
48.653596808008
 20
-8.6491953277224
 10
50.68130906336739
 20
-8.517259701504599
 10
51.0782552623733
 20
-9.1968831995124
 10
51.25420494031611
 20
-9.4981319226299
 10
53.28191719567549
 20
-9.366196296412098
 10
53.7228774464064
 20
-8.319356262177899
 10
55.7505897017658
 20
-8.1874206359601
 10
56.3234855787145
 20
-9.1682928570854
 10
58.35119783407389
 20
-9.036357230867599
 10
58.79215808480479
 20
-7.989517196633499
 10
60.8198703401642
 20
-7.857581570415701
 10
61.39276621711289
 20
-8.838453791540899
 10
63.42047847247229
 20
-8.7065181653231
 10
63.8614387232032
 20
-7.659678131088999
 10
65.8891509785626
 20
-7.527742504871199
 10
66.46204685551129
 20
-8.5086147259964
 10
68.48975911087059
 20
-8.376679099778598
 10
68.9307193616016
 20
-7.3298390655445
 10
70.95843161696101
 20
-7.197903439326699
 10
71.53132749390969
 20
-8.178775660451901
 10
73.559039749269
 20
-8.046840034234099
 10
74.0
 20
-7.0
 10
76.02771225535929
 20
-6.868064373782199
 10
76.6006081323081
 20
-7.8489365949074
 10
78.62832038766741
 20
-7.717000968689599
 10
79.0692806383983
 20
-6.670160934455499
 10
81.0582089675937
 20
-7.086319679797099
 10
81.0198380289775
 20
-7.1022048121904
 10
80.85661082072279
 20
-8.2263386469651
 10
82.52464318975871
 20
-9.3868092479925
 10
83.5218865825313
 20
-8.8429107137314
 10
84.42367738645391
 20
-9.881431907773301
 42
-0.5391434765815
 10
-42.5
 20
-73.6121593216773
 42
-0.5773502691896
 10
-42.5
 20
73.6121593216773
 42
-0.5391434765815
 10
84.42367738645391
 20
9.881431907773301
 10
83.5218865825313
 20
8.8429107137314
 10
82.52464318975871
 20
9.3868092479925
 10
80.85661082072279
 20
8.2263386469651
 10
81.0198380289775
 20
7.1022048121904
 10
81.0582089675937
 20
7.086319679797099
  0
ENDSEC
  0
SECTION
  2
OBJECTS
  0
DICTIONARY
  5
C
330
0
100
AcDbDictionary
281
     1
  3
ACAD_CIP_PREVIOUS_PRODUCT_INFO
350
73A
  3
ACAD_COLOR
350
62
  3
ACAD_DETAILVIEWSTYLE
350
69
  3
ACAD_GROUP
350
D
  3
ACAD_LAYOUT
350
61
  3
ACAD_MATERIAL
350
10
  3
ACAD_MLEADERSTYLE
350
65
  3
ACAD_MLINESTYLE
350
5E
  3
ACAD_PLOTSETTINGS
350
60
  3
ACAD_PLOTSTYLENAME
350
E
  3
ACAD_SCALELIST
350
42
  3
ACAD_SECTIONVIEWSTYLE
350
67
  3
ACAD_TABLESTYLE
350
63
  3
ACAD_VISUALSTYLE
350
29
  3
ACDB_RECOMPOSE_DATA
350
756
  3
AcDbVariableDictionary
350
749
  0
DICTIONARY
  5
741
330
54
100
AcDbDictionary
280
     1
281
     1
  3
ADSK_XREC_LAYER_RECONCILED
360
742
  0
DICTIONARY
  5
743
330
73
100
AcDbDictionary
280
     1
281
     1
  3
ADSK_XREC_LAYER_RECONCILED
360
744
  0
DICTIONARY
  5
745
330
74
100
AcDbDictionary
280
     1
281
     1
  3
ADSK_XREC_LAYER_RECONCILED
360
746
  0
DICTIONARY
  5
747
330
75
100
AcDbDictionary
280
     1
281
     1
  3
ADSK_XREC_LAYER_RECONCILED
360
748
  0
XRECORD
  5
73A
102
{ACAD_REACTORS
330
C
102
}
330
C
100
AcDbXrecord
280
     1
300
ACD
300
2018
300

  0
DICTIONARY
  5
62
102
{ACAD_REACTORS
330
C
102
}
330
C
100
AcDbDictionary
281
     1
  0
DICTIONARY
  5
69
102
{ACAD_REACTORS
330
C
102
}
330
C
100
AcDbDictionary
281
     1
  3
Imperial24
350
6A
  3
Metric50
350
738
  0
DICTIONARY
  5
D
102
{ACAD_REACTORS
330
C
102
}
330
C
100
AcDbDictionary
281
     1
  0
DICTIONARY
  5
61
102
{ACAD_REACTORS
330
C
102
}
330
C
100
AcDbDictionary
281
     1
  3
Layout1
350
6E
  3
Model
350
72
  0
DICTIONARY
  5
10
102
{ACAD_REACTORS
330
C
102
}
330
C
100
AcDbDictionary
281
     1
  3
ByBlock
350
19
  3
ByLayer
350
11
  3
Global
350
21
  0
DICTIONARY
  5
65
102
{ACAD_REACTORS
330
C
102
}
330
C
100
AcDbDictionary
281
     1
  3
Standard
350
66
  0
DICTIONARY
  5
5E
102
{ACAD_REACTORS
330
C
102
}
330
C
100
AcDbDictionary
281
     1
  3
Standard
350
5F
  0
DICTIONARY
  5
60
102
{ACAD_REACTORS
330
C
102
}
330
C
100
AcDbDictionary
281
     1
  0
ACDBDICTIONARYWDFLT
  5
E
102
{ACAD_REACTORS
330
C
102
}
330
C
100
AcDbDictionary
281
     1
  3
Normal
350
F
100
AcDbDictionaryWithDefault
340
F
  0
DICTIONARY
  5
42
102
{ACAD_REACTORS
330
C
102
}
330
C
100
AcDbDictionary
281
     1
  3
A0
350
43
  3
A1
350
44
  3
A2
350
45
  3
A3
350
46
  3
A4
350
47
  3
A5
350
48
  3
A6
350
49
  3
A7
350
4A
  3
A8
350
4B
  3
A9
350
4C
  3
B0
350
4D
  3
B1
350
4E
  3
B2
350
4F
  3
B3
350
50
  3
B4
350
51
  3
B5
350
52
  3
B6
350
53
  0
DICTIONARY
  5
67
102
{ACAD_REACTORS
330
C
102
}
330
C
100
AcDbDictionary
281
     1
  3
Imperial24
350
68
  3
Metric50
350
737
  0
DICTIONARY
  5
63
102
{ACAD_REACTORS
330
C
102
}
330
C
100
AcDbDictionary
281
     1
  3
Standard
350
64
  0
DICTIONARY
  5
29
102
{ACAD_REACTORS
330
C
102
}
330
C
100
AcDbDictionary
281
     1
  3
2dWireframe
350
2F
  3
Basic
350
2E
  3
Brighten
350
35
  3
ColorChange
350
39
  3
Conceptual
350
32
  3
Dim
350
34
  3
EdgeColorOff
350
41
  3
Facepattern
350
38
  3
Flat
350
2A
  3
FlatWithEdges
350
2B
  3
Gouraud
350
2C
  3
GouraudWithEdges
350
2D
  3
Hidden
350
31
  3
JitterOff
350
3F
  3
Linepattern
350
37
  3
OverhangOff
350
40
  3
Realistic
350
33
  3
Shaded
350
3E
  3
Shaded with edges
350
3D
  3
Shades of Gray
350
3A
  3
Sketchy
350
3B
  3
Thicken
350
36
  3
Wireframe
350
30
  3
X-Ray
350
3C
  0
XRECORD
  5
756
102
{ACAD_REACTORS
330
C
102
}
330
C
100
AcDbXrecord
280
     1
 90
        1
330
64
  0
DICTIONARY
  5
749
102
{ACAD_REACTORS
330
C
102
}
330
C
100
AcDbDictionary
281
     1
  3
CANNOSCALE
350
74F
  3
CMLEADERSTYLE
350
74B
  3
CTABLESTYLE
350
74A
  3
CVIEWDETAILSTYLE
350
74C
  3
CVIEWSECTIONSTYLE
350
74D
  3
LAYEREVAL
350
751
  3
LAYERNOTIFY
350
752
  3
LIGHTINGUNITS
350
750
  3
MSLTSCALE
350
74E
  0
XRECORD
  5
742
102
{ACAD_REACTORS
330
741
102
}
330
741
100
AcDbXrecord
280
     1
290
     1
  0
XRECORD
  5
744
102
{ACAD_REACTORS
330
743
102
}
330
743
100
AcDbXrecord
280
     1
290
     1
  0
XRECORD
  5
746
102
{ACAD_REACTORS
330
745
102
}
330
745
100
AcDbXrecord
280
     1
290
     1
  0
XRECORD
  5
748
102
{ACAD_REACTORS
330
747
102
}
330
747
100
AcDbXrecord
280
     1
290
     1
  0
ACDBDETAILVIEWSTYLE
  5
6A
102
{ACAD_REACTORS
330
69
102
}
330
69
100
AcDbModelDocViewStyle
 70
     0
  3
Imperial24
290
     0
300
Imperial24
 90
        0
100
AcDbDetailViewStyle
 70
     0
 71
     0
 90
        3
 71
     1
340
55
 62
   256
 40
0.24
340
0
 62
   256
 40
0.24
300

 40
0.36
280
     3
 71
     2
340
5C
 90
       25
 62
   256
 71
     3
340
55
 62
   256
 40
0.24
 90
        1
 40
0.75
 90
        1
300
%<\AcVar ViewType \f "%tc1">% %<\AcVar ViewDetailId>%\PSCALE %<\AcVar ViewScale \f "%sn">%
 71
     4
340
5C
 90
       25
 62
   256
340
5C
 90
       25
 62
   256
280
     0
  0
ACDBDETAILVIEWSTYLE
  5
738
102
{ACAD_REACTORS
330
69
102
}
330
69
100
AcDbModelDocViewStyle
 70
     0
  3
Metric50
290
     0
300
Metric50
 90
        0
100
AcDbDetailViewStyle
 70
     0
 71
     0
 90
        3
 71
     1
340
55
 62
   256
 40
5.0
340
0
 62
   256
 40
5.0
300

 40
0.0
280
     1
 71
     2
340
5C
 90
       25
 62
   256
 71
     3
340
55
 62
   256
 40
5.0
 90
        0
 40
15.0
 90
        1
300
%<\AcVar ViewDetailId>% (%<\AcVar ViewScale \f "%sn">%)
 71
     4
340
5C
 90
       25
 62
   256
340
5C
 90
       25
 62
   256
280
     0
  0
LAYOUT
  5
6E
102
{ACAD_REACTORS
330
61
102
}
330
61
100
AcDbPlotSettings
  1

  2
hp LaserJet 1010 HB (Copy 1)
  4

  6

 40
0.0
 41
0.0
 42
0.0
 43
0.0
 44
0.0
 45
0.0
 46
0.0
 47
0.0
 48
0.0
 49
0.0
140
0.0
141
0.0
142
1.0
143
1.0
 70
   688
 72
     0
 73
     0
 74
     5
  7

 75
    16
147
1.0
 76
     0
 77
     2
 78
   300
148
0.0
149
0.0
100
AcDbLayout
  1
Layout1
 70
     1
 71
     1
 10
0.0
 20
0.0
 11
12.0
 21
9.0
 12
0.0
 22
0.0
 32
0.0
 14
1.000000000000000E+20
 24
1.000000000000000E+20
 34
1.000000000000000E+20
 15
-1.000000000000000E+20
 25
-1.000000000000000E+20
 35
-1.000000000000000E+20
146
0.0
 13
0.0
 23
0.0
 33
0.0
 16
1.0
 26
0.0
 36
0.0
 17
0.0
 27
1.0
 37
0.0
 76
     0
330
6B
  0
LAYOUT
  5
72
102
{ACAD_REACTORS
330
61
102
}
330
61
100
AcDbPlotSettings
  1

  2
hp LaserJet 1010 HB (Copy 1)
  4

  6

 40
0.0
 41
0.0
 42
0.0
 43
0.0
 44
0.0
 45
0.0
 46
0.0
 47
0.0
 48
0.0
 49
0.0
140
0.0
141
0.0
142
1.0
143
1.0
 70
  1712
 72
     0
 73
     0
 74
     0
  7

 75
     0
147
1.0
 76
     0
 77
     2
 78
   300
148
0.0
149
0.0
100
AcDbLayout
  1
Model
 70
     1
 71
     0
 10
0.0
 20
0.0
 11
12.0
 21
9.0
 12
0.0
 22
0.0
 32
0.0
 14
0.0
 24
0.0
 34
0.0
 15
0.0
 25
0.0
 35
0.0
146
0.0
 13
0.0
 23
0.0
 33
0.0
 16
1.0
 26
0.0
 36
0.0
 17
0.0
 27
1.0
 37
0.0
 76
     0
330
6F
331
77
  0
MATERIAL
  5
19
102
{ACAD_XDICTIONARY
360
1A
102
}
102
{ACAD_REACTORS
330
10
102
}
330
10
100
AcDbMaterial
  1
ByBlock
 72
     0
 43
0.0208333333333333
 43
0.0
 43
0.0
 43
0.0
 43
0.0
 43
0.0208333333333333
 43
0.0
 43
0.0
 43
0.0
 43
0.0
 43
1.0
 43
0.0
 43
0.0
 43
0.0
 43
0.0
 43
1.0
 77
     0
 47
0.0208333333333333
 47
0.0
 47
0.0
 47
0.0
 47
0.0
 47
0.0208333333333333
 47
0.0
 47
0.0
 47
0.0
 47
0.0
 47
1.0
 47
0.0
 47
0.0
 47
0.0
 47
0.0
 47
1.0
171
     0
 49
0.0208333333333333
 49
0.0
 49
0.0
 49
0.0
 49
0.0
 49
0.0208333333333333
 49
0.0
 49
0.0
 49
0.0
 49
0.0
 49
1.0
 49
0.0
 49
0.0
 49
0.0
 49
0.0
 49
1.0
175
     0
142
0.0208333333333333
142
0.0
142
0.0
142
0.0
142
0.0
142
0.0208333333333333
142
0.0
142
0.0
142
0.0
142
0.0
142
1.0
142
0.0
142
0.0
142
0.0
142
0.0
142
1.0
179
     0
144
0.0208333333333333
144
0.0
144
0.0
144
0.0
144
0.0
144
0.0208333333333333
144
0.0
144
0.0
144
0.0
144
0.0
144
1.0
144
0.0
144
0.0
144
0.0
144
0.0
144
1.0
147
0.0208333333333333
147
0.0
147
0.0
147
0.0
147
0.0
147
0.0208333333333333
147
0.0
147
0.0
147
0.0
147
0.0
147
1.0
147
0.0
147
0.0
147
0.0
147
0.0
147
1.0
  0
MATERIAL
  5
11
102
{ACAD_XDICTIONARY
360
12
102
}
102
{ACAD_REACTORS
330
10
102
}
330
10
100
AcDbMaterial
  1
ByLayer
 72
     0
 43
0.0208333333333333
 43
0.0
 43
0.0
 43
0.0
 43
0.0
 43
0.0208333333333333
 43
0.0
 43
0.0
 43
0.0
 43
0.0
 43
1.0
 43
0.0
 43
0.0
 43
0.0
 43
0.0
 43
1.0
 77
     0
 47
0.0208333333333333
 47
0.0
 47
0.0
 47
0.0
 47
0.0
 47
0.0208333333333333
 47
0.0
 47
0.0
 47
0.0
 47
0.0
 47
1.0
 47
0.0
 47
0.0
 47
0.0
 47
0.0
 47
1.0
171
     0
 49
0.0208333333333333
 49
0.0
 49
0.0
 49
0.0
 49
0.0
 49
0.0208333333333333
 49
0.0
 49
0.0
 49
0.0
 49
0.0
 49
1.0
 49
0.0
 49
0.0
 49
0.0
 49
0.0
 49
1.0
175
     0
142
0.0208333333333333
142
0.0
142
0.0
142
0.0
142
0.0
142
0.0208333333333333
142
0.0
142
0.0
142
0.0
142
0.0
142
1.0
142
0.0
142
0.0
142
0.0
142
0.0
142
1.0
179
     0
144
0.0208333333333333
144
0.0
144
0.0
144
0.0
144
0.0
144
0.0208333333333333
144
0.0
144
0.0
144
0.0
144
0.0
144
1.0
144
0.0
144
0.0
144
0.0
144
0.0
144
1.0
147
0.0208333333333333
147
0.0
147
0.0
147
0.0
147
0.0
147
0.0208333333333333
147
0.0
147
0.0
147
0.0
147
0.0
147
1.0
147
0.0
147
0.0
147
0.0
147
0.0
147
1.0
  0
MATERIAL
  5
21
102
{ACAD_XDICTIONARY
360
22
102
}
102
{ACAD_REACTORS
330
10
102
}
330
10
100
AcDbMaterial
  1
Global
 72
     0
 43
0.0208333333333333
 43
0.0
 43
0.0
 43
0.0
 43
0.0
 43
0.0208333333333333
 43
0.0
 43
0.0
 43
0.0
 43
0.0
 43
1.0
 43
0.0
 43
0.0
 43
0.0
 43
0.0
 43
1.0
 77
     0
 47
0.0208333333333333
 47
0.0
 47
0.0
 47
0.0
 47
0.0
 47
0.0208333333333333
 47
0.0
 47
0.0
 47
0.0
 47
0.0
 47
1.0
 47
0.0
 47
0.0
 47
0.0
 47
0.0
 47
1.0
171
     0
 49
0.0208333333333333
 49
0.0
 49
0.0
 49
0.0
 49
0.0
 49
0.0208333333333333
 49
0.0
 49
0.0
 49
0.0
 49
0.0
 49
1.0
 49
0.0
 49
0.0
 49
0.0
 49
0.0
 49
1.0
175
     0
142
0.0208333333333333
142
0.0
142
0.0
142
0.0
142
0.0
142
0.0208333333333333
142
0.0
142
0.0
142
0.0
142
0.0
142
1.0
142
0.0
142
0.0
142
0.0
142
0.0
142
1.0
179
     0
144
0.0208333333333333
144
0.0
144
0.0
144
0.0
144
0.0
144
0.0208333333333333
144
0.0
144
0.0
144
0.0
144
0.0
144
1.0
144
0.0
144
0.0
144
0.0
144
0.0
144
1.0
147
0.0208333333333333
147
0.0
147
0.0
147
0.0
147
0.0
147
0.0208333333333333
147
0.0
147
0.0
147
0.0
147
0.0
147
1.0
147
0.0
147
0.0
147
0.0
147
0.0
147
1.0
  0
MLEADERSTYLE
  5
66
102
{ACAD_REACTORS
330
65
102
}
330
65
100
AcDbMLeaderStyle
179
     2
170
     2
171
     1
172
     0
 90
        2
 40
0.0
 41
0.0
173
     1
 91
-1056964608
340
5A
 92
       -2
290
     1
 42
0.09
291
     1
 43
0.36
  3
Standard
 44
0.18
300

342
55
174
     1
178
     6
175
     1
176
     0
 93
-1056964608
 45
0.18
292
     0
297
     0
 46
0.18
 94
-1056964608
 47
1.0
 49
1.0
140
1.0
293
     1
141
0.0
294
     1
177
     0
142
1.0
295
     0
296
     0
143
0.125
271
     0
272
     9
273
     9
298
     0
  0
MLINESTYLE
  5
5F
102
{ACAD_REACTORS
330
5E
102
}
330
5E
100
AcDbMlineStyle
  2
STANDARD
 70
     0
  3

 62
   256
 51
90.0
 52
90.0
 71
     2
 49
0.5
 62
   256
  6
BYLAYER
 49
-0.5
 62
   256
  6
BYLAYER
  0
ACDBPLACEHOLDER
  5
F
102
{ACAD_REACTORS
330
E
102
}
330
E
  0
SCALE
  5
43
102
{ACAD_REACTORS
330
42
102
}
330
42
100
AcDbScale
 70
     0
300
1:1
140
1.0
141
1.0
290
     1
  0
SCALE
  5
44
102
{ACAD_REACTORS
330
42
102
}
330
42
100
AcDbScale
 70
     0
300
1/128" = 1'-0"
140
0.0078125
141
12.0
290
     0
  0
SCALE
  5
45
102
{ACAD_REACTORS
330
42
102
}
330
42
100
AcDbScale
 70
     0
300
1/64" = 1'-0"
140
0.015625
141
12.0
290
     0
  0
SCALE
  5
46
102
{ACAD_REACTORS
330
42
102
}
330
42
100
AcDbScale
 70
     0
300
1/32" = 1'-0"
140
0.03125
141
12.0
290
     0
  0
SCALE
  5
47
102
{ACAD_REACTORS
330
42
102
}
330
42
100
AcDbScale
 70
     0
300
1/16" = 1'-0"
140
0.0625
141
12.0
290
     0
  0
SCALE
  5
48
102
{ACAD_REACTORS
330
42
102
}
330
42
100
AcDbScale
 70
     0
300
3/32" = 1'-0"
140
0.09375
141
12.0
290
     0
  0
SCALE
  5
49
102
{ACAD_REACTORS
330
42
102
}
330
42
100
AcDbScale
 70
     0
300
1/8" = 1'-0"
140
0.125
141
12.0
290
     0
  0
SCALE
  5
4A
102
{ACAD_REACTORS
330
42
102
}
330
42
100
AcDbScale
 70
     0
300
3/16" = 1'-0"
140
0.1875
141
12.0
290
     0
  0
SCALE
  5
4B
102
{ACAD_REACTORS
330
42
102
}
330
42
100
AcDbScale
 70
     0
300
1/4" = 1'-0"
140
0.25
141
12.0
290
     0
  0
SCALE
  5
4C
102
{ACAD_REACTORS
330
42
102
}
330
42
100
AcDbScale
 70
     0
300
3/8" = 1'-0"
140
0.375
141
12.0
290
     0
  0
SCALE
  5
4D
102
{ACAD_REACTORS
330
42
102
}
330
42
100
AcDbScale
 70
     0
300
1/2" = 1'-0"
140
0.5
141
12.0
290
     0
  0
SCALE
  5
4E
102
{ACAD_REACTORS
330
42
102
}
330
42
100
AcDbScale
 70
     0
300
3/4" = 1'-0"
140
0.75
141
12.0
290
     0
  0
SCALE
  5
4F
102
{ACAD_REACTORS
330
42
102
}
330
42
100
AcDbScale
 70
     0
300
1" = 1'-0"
140
1.0
141
12.0
290
     0
  0
SCALE
  5
50
102
{ACAD_REACTORS
330
42
102
}
330
42
100
AcDbScale
 70
     0
300
1-1/2" = 1'-0"
140
1.5
141
12.0
290
     0
  0
SCALE
  5
51
102
{ACAD_REACTORS
330
42
102
}
330
42
100
AcDbScale
 70
     0
300
3" = 1'-0"
140
3.0
141
12.0
290
     0
  0
SCALE
  5
52
102
{ACAD_REACTORS
330
42
102
}
330
42
100
AcDbScale
 70
     0
300
6" = 1'-0"
140
6.0
141
12.0
290
     0
  0
SCALE
  5
53
102
{ACAD_REACTORS
330
42
102
}
330
42
100
AcDbScale
 70
     0
300
1'-0" = 1'-0"
140
12.0
141
12.0
290
     0
  0
ACDBSECTIONVIEWSTYLE
  5
68
102
{ACAD_REACTORS
330
67
102
}
330
67
100
AcDbModelDocViewStyle
 70
     0
  3
Imperial24
290
     0
300
Imperial24
 90
        0
100
AcDbSectionViewStyle
 70
     0
 71
     0
 90
       78
 71
     1
340
55
 62
   256
 40
0.24
340
0
340
0
 62
   256
 40
0.24
300
I, O, Q, S, X, Z
 40
0.48
 90
        3
 40
0.18
 90
        1
 71
     2
340
5C
 90
       25
 62
   256
340
5C
 90
       50
 62
   256
 40
0.24
 40
0.0
 40
0.24
 71
     3
340
55
 62
   256
 40
0.24
 90
        1
 40
0.75
 90
        1
300
%<\AcVar ViewType \f "%tc1">% %<\AcVar ViewSectionStartId>%-%<\AcVar ViewSectionEndId>%\PSCALE %<\AcVar ViewScale \f "%sn">%
 71
     4
 62
   256
 62
   257
300
ANSI31
 40
1.0
 90
        0
290
     0
290
     0
 90
        6
 40
0.0
 40
1.570796326794896
 40
0.2617993877991494
 40
1.308996938995747
 40
-0.2617993877991494
 40
1.832595714594046
  0
ACDBSECTIONVIEWSTYLE
  5
737
102
{ACAD_REACTORS
330
67
102
}
330
67
100
AcDbModelDocViewStyle
 70
     0
  3
Metric50
290
     0
300
Metric50
 90
        0
100
AcDbSectionViewStyle
 70
     0
 71
     0
 90
      102
 71
     1
340
55
 62
   256
 40
5.0
340
0
340
0
 62
   256
 40
5.0
300
I, O, Q, S, X, Z
 40
10.0
 90
        0
 40
2.5
 90
        0
 71
     2
340
5C
 90
       25
 62
   256
340
5C
 90
       50
 62
   256
 40
5.0
 40
2.5
 40
5.0
 71
     3
340
55
 62
   256
 40
5.0
 90
        0
 40
15.0
 90
        1
300
%<\AcVar ViewSectionStartId>%-%<\AcVar ViewSectionEndId>% (%<\AcVar ViewScale \f "%sn">%)
 71
     4
 62
   256
 62
   257
300
ANSI31
 40
1.0
 90
        0
290
     0
290
     0
 90
        6
 40
0.0
 40
1.570796326794896
 40
0.2617993877991494
 40
1.308996938995747
 40
-0.2617993877991494
 40
1.832595714594046
  0
TABLESTYLE
  5
64
102
{ACAD_XDICTIONARY
360
754
102
}
102
{ACAD_REACTORS
330
63
102
}
330
63
100
AcDbTableStyle
280
     0
  3
Standard
 70
     0
 71
     0
 40
0.06
 41
0.06
280
     0
281
     0
  7
Standard
140
0.18
170
     2
 62
     0
 63
     7
283
     0
 90
      512
 91
        0
  1

274
    -2
284
     1
 64
     0
275
    -2
285
     1
 65
     0
276
    -2
286
     1
 66
     0
277
    -2
287
     1
 67
     0
278
    -2
288
     1
 68
     0
279
    -2
289
     1
 69
     0
  7
Standard
140
0.25
170
     5
 62
     0
 63
     7
283
     0
 90
      512
 91
        0
  1

274
    -2
284
     1
 64
     0
275
    -2
285
     1
 65
     0
276
    -2
286
     1
 66
     0
277
    -2
287
     1
 67
     0
278
    -2
288
     1
 68
     0
279
    -2
289
     1
 69
     0
  7
Standard
140
0.18
170
     5
 62
     0
 63
     7
283
     0
 90
      512
 91
        0
  1

274
    -2
284
     1
 64
     0
275
    -2
285
     1
 65
     0
276
    -2
286
     1
 66
     0
277
    -2
287
     1
 67
     0
278
    -2
288
     1
 68
     0
279
    -2
289
     1
 69
     0
  0
VISUALSTYLE
  5
2F
102
{ACAD_REACTORS
330
29
102
}
330
29
100
AcDbVisualStyle
  2
2dWireframe
 70
     4
177
     3
291
     0
 70
    58
 90
        0
176
     1
 90
        2
176
     1
 90
        0
176
     1
 90
        0
176
     1
 40
0.6
176
     1
 40
30.0
176
     1
 62
     7
420
 16777215
176
     1
 90
        1
176
     1
 90
        4
176
     1
 62
     7
176
     1
 62
   257
176
     1
 90
        1
176
     1
 90
        1
176
     1
 40
1.0
176
     1
 90
        0
176
     1
 62
   257
176
     1
 40
1.0
176
     1
 90
        1
176
     1
 90
        6
176
     1
 90
        2
176
     1
 62
     7
176
     1
 90
        5
176
     1
 90
        0
176
     1
 90
        0
176
     1
290
     0
176
     1
 90
        1
176
     1
 40
0.0
176
     1
 90
        0
176
     1
290
     1
176
     1
290
     1
176
     1
290
     0
176
     1
290
     0
176
     1
290
     0
176
     1
290
     0
176
     1
290
     0
176
     1
290
     0
176
     1
290
     0
176
     1
 90
       50
176
     1
 40
0.0
176
     1
 40
1.0
176
     1
 90
        0
176
     1
 62
    18
420
        0
176
     1
 90
       50
176
     1
 90
        3
176
     1
 62
     5
420
      255
176
     1
290
     0
176
     1
 90
       50
176
     1
 90
       50
176
     1
 90
       50
176
     1
290
     0
176
     1
 90
       50
176
     1
 62
   256
176
     0
 40
1.0
176
     0
 90
        2
176
     1
  1
strokes_ogs.tif
176
     1
290
     0
176
     1
 40
1.0
176
     1
 40
1.0
176
     1
  0
VISUALSTYLE
  5
2E
102
{ACAD_REACTORS
330
29
102
}
330
29
100
AcDbVisualStyle
  2
Basic
 70
     7
177
     3
291
     1
 70
    58
 90
        1
176
     1
 90
        0
176
     1
 90
        1
176
     1
 90
        0
176
     1
 40
0.6
176
     1
 40
30.0
176
     1
 62
     7
420
 16777215
176
     1
 90
        0
176
     1
 90
        4
176
     1
 62
     7
176
     1
 62
   257
176
     1
 90
        1
176
     1
 90
        1
176
     1
 40
1.0
176
     1
 90
        8
176
     1
 62
     7
176
     1
 40
1.0
176
     1
 90
        1
176
     1
 90
        6
176
     1
 90
        2
176
     1
 62
     7
176
     1
 90
        5
176
     1
 90
        0
176
     1
 90
        0
176
     1
290
     0
176
     1
 90
        1
176
     1
 40
0.0
176
     1
 90
        0
176
     1
290
     0
176
     1
290
     1
176
     1
290
     1
176
     1
290
     0
176
     1
290
     0
176
     1
290
     0
176
     1
290
     0
176
     1
290
     0
176
     1
290
     0
176
     1
 90
       50
176
     1
 40
0.0
176
     1
 40
1.0
176
     1
 90
        0
176
     1
 62
    18
420
        0
176
     1
 90
       50
176
     1
 90
        3
176
     1
 62
     5
420
      255
176
     1
290
     0
176
     1
 90
       50
176
     1
 90
       50
176
     1
 90
       50
176
     1
290
     0
176
     1
 90
       50
176
     1
 62
   256
176
     0
 40
1.0
176
     0
 90
        2
176
     1
  1
strokes_ogs.tif
176
     1
290
     0
176
     1
 40
1.0
176
     1
 40
1.0
176
     1
  0
VISUALSTYLE
  5
35
102
{ACAD_REACTORS
330
29
102
}
330
29
100
AcDbVisualStyle
  2
Brighten
 70
    12
177
     3
291
     1
 70
    58
 90
        2
176
     1
 90
        2
176
     1
 90
        0
176
     1
 90
        0
176
     1
 40
0.6
176
     1
 40
30.0
176
     1
 62
     7
420
 16777215
176
     1
 90
        1
176
     1
 90
        4
176
     1
 62
     7
176
     1
 62
   257
176
     1
 90
        1
176
     1
 90
        1
176
     1
 40
1.0
176
     1
 90
        8
176
     1
 62
     7
176
     1
 40
1.0
176
     1
 90
        1
176
     1
 90
        6
176
     1
 90
        2
176
     1
 62
     7
176
     1
 90
        5
176
     1
 90
        0
176
     1
 90
        0
176
     1
290
     0
176
     1
 90
        1
176
     1
 40
50.0
176
     1
 90
        0
176
     1
290
     0
176
     1
290
     1
176
     1
290
     1
176
     1
290
     0
176
     1
290
     0
176
     1
290
     0
176
     1
290
     0
176
     1
290
     0
176
     1
290
     0
176
     1
 90
       50
176
     1
 40
0.0
176
     1
 40
1.0
176
     1
 90
        0
176
     1
 62
    18
420
        0
176
     1
 90
       50
176
     1
 90
        3
176
     1
 62
     5
420
      255
176
     1
290
     0
176
     1
 90
       50
176
     1
 90
       50
176
     1
 90
       50
176
     1
290
     0
176
     1
 90
       50
176
     1
 62
   256
176
     0
 40
1.0
176
     0
 90
        2
176
     1
  1
strokes_ogs.tif
176
     1
290
     0
176
     1
 40
1.0
176
     1
 40
1.0
176
     1
  0
VISUALSTYLE
  5
39
102
{ACAD_REACTORS
330
29
102
}
330
29
100
AcDbVisualStyle
  2
ColorChange
 70
    16
177
     3
291
     1
 70
    58
 90
        2
176
     1
 90
        2
176
     1
 90
        3
176
     1
 90
        0
176
     1
 40
0.6
176
     1
 40
30.0
176
     1
 62
     8
420
  8421504
176
     1
 90
        1
176
     1
 90
        4
176
     1
 62
     7
176
     1
 62
   257
176
     1
 90
        1
176
     1
 90
        1
176
     1
 40
1.0
176
     1
 90
        8
176
     1
 62
     8
420
  8421504
176
     1
 40
1.0
176
     1
 90
        1
176
     1
 90
        6
176
     1
 90
        2
176
     1
 62
     7
176
     1
 90
        5
176
     1
 90
        0
176
     1
 90
        0
176
     1
290
     0
176
     1
 90
        1
176
     1
 40
0.0
176
     1
 90
        0
176
     1
290
     0
176
     1
290
     1
176
     1
290
     1
176
     1
290
     0
176
     1
290
     0
176
     1
290
     0
176
     1
290
     0
176
     1
290
     0
176
     1
290
     0
176
     1
 90
       50
176
     1
 40
0.0
176
     1
 40
1.0
176
     1
 90
        0
176
     1
 62
    18
420
        0
176
     1
 90
       50
176
     1
 90
        3
176
     1
 62
     5
420
      255
176
     1
290
     0
176
     1
 90
       50
176
     1
 90
       50
176
     1
 90
       50
176
     1
290
     0
176
     1
 90
       50
176
     1
 62
   256
176
     0
 40
1.0
176
     0
 90
        2
176
     1
  1
strokes_ogs.tif
176
     1
290
     0
176
     1
 40
1.0
176
     1
 40
1.0
176
     1
  0
VISUALSTYLE
  5
32
102
{ACAD_REACTORS
330
29
102
}
330
29
100
AcDbVisualStyle
  2
Conceptual
 70
     9
177
     3
291
     0
 70
    58
 90
        3
176
     1
 90
        2
176
     1
 90
        0
176
     1
 90
        0
176
     1
 40
0.6
176
     1
 40
30.0
176
     1
 62
     7
420
 16777215
176
     1
 90
        2
176
     1
 90
        2
176
     1
 62
     7
176
     1
 62
   257
176
     1
 90
        1
176
     1
 90
        1
176
     1
 40
179.0
176
     1
 90
        8
176
     1
 62
     7
176
     1
 40
1.0
176
     1
 90
        1
176
     1
 90
        6
176
     1
 90
        2
176
     1
 62
     7
176
     1
 90
        3
176
     1
 90
        0
176
     1
 90
        0
176
     1
290
     0
176
     1
 90
        1
176
     1
 40
0.0
176
     1
 90
        0
176
     1
290
     0
176
     1
290
     1
176
     1
290
     1
176
     1
290
     0
176
     1
290
     0
176
     1
290
     0
176
     1
290
     0
176
     1
290
     0
176
     1
290
     0
176
     1
 90
       50
176
     1
 40
0.0
176
     1
 40
1.0
176
     1
 90
        0
176
     1
 62
    18
420
        0
176
     1
 90
       50
176
     1
 90
        3
176
     1
 62
     5
420
      255
176
     1
290
     0
176
     1
 90
       50
176
     1
 90
       50
176
     1
 90
       50
176
     1
290
     0
176
     1
 90
       50
176
     1
 62
   256
176
     0
 40
1.0
176
     0
 90
        2
176
     1
  1
strokes_ogs.tif
176
     1
290
     0
176
     1
 40
1.0
176
     1
 40
1.0
176
     1
  0
VISUALSTYLE
  5
34
102
{ACAD_REACTORS
330
29
102
}
330
29
100
AcDbVisualStyle
  2
Dim
 70
    11
177
     3
291
     1
 70
    58
 90
        2
176
     1
 90
        2
176
     1
 90
        0
176
     1
 90
        0
176
     1
 40
0.6
176
     1
 40
30.0
176
     1
 62
     7
420
 16777215
176
     1
 90
        1
176
     1
 90
        4
176
     1
 62
     7
176
     1
 62
   257
176
     1
 90
        1
176
     1
 90
        1
176
     1
 40
1.0
176
     1
 90
        8
176
     1
 62
     7
176
     1
 40
1.0
176
     1
 90
        1
176
     1
 90
        6
176
     1
 90
        2
176
     1
 62
     7
176
     1
 90
        5
176
     1
 90
        0
176
     1
 90
        0
176
     1
290
     0
176
     1
 90
        1
176
     1
 40
-50.0
176
     1
 90
        0
176
     1
290
     0
176
     1
290
     1
176
     1
290
     1
176
     1
290
     0
176
     1
290
     0
176
     1
290
     0
176
     1
290
     0
176
     1
290
     0
176
     1
290
     0
176
     1
 90
       50
176
     1
 40
0.0
176
     1
 40
1.0
176
     1
 90
        0
176
     1
 62
    18
420
        0
176
     1
 90
       50
176
     1
 90
        3
176
     1
 62
     5
420
      255
176
     1
290
     0
176
     1
 90
       50
176
     1
 90
       50
176
     1
 90
       50
176
     1
290
     0
176
     1
 90
       50
176
     1
 62
   256
176
     0
 40
1.0
176
     0
 90
        2
176
     1
  1
strokes_ogs.tif
176
     1
290
     0
176
     1
 40
1.0
176
     1
 40
1.0
176
     1
  0
VISUALSTYLE
  5
41
102
{ACAD_REACTORS
330
29
102
}
330
29
100
AcDbVisualStyle
  2
EdgeColorOff
 70
    22
177
     3
291
     1
 70
    58
 90
        2
176
     0
 90
        2
176
     0
 90
        0
176
     0
 90
        0
176
     0
 40
0.6
176
     0
 40
30.0
176
     0
 62
     7
420
 16777215
176
     0
 90
        1
176
     0
 90
        4
176
     0
 62
     7
176
     0
 62
   257
176
     0
 90
        1
176
     0
 90
        1
176
     0
 40
1.0
176
     0
 90
        8
176
     2
 62
     7
176
     0
 40
1.0
176
     0
 90
        1
176
     0
 90
        6
176
     0
 90
        2
176
     0
 62
     7
176
     0
 90
        5
176
     0
 90
        0
176
     0
 90
        0
176
     0
290
     0
176
     0
 90
        1
176
     0
 40
0.0
176
     0
 90
        0
176
     0
290
     0
176
     1
290
     1
176
     1
290
     1
176
     1
290
     0
176
     1
290
     0
176
     1
290
     0
176
     1
290
     0
176
     1
290
     0
176
     1
290
     0
176
     1
 90
       50
176
     0
 40
0.0
176
     0
 40
1.0
176
     0
 90
        0
176
     0
 62
    18
420
        0
176
     0
 90
       50
176
     0
 90
        3
176
     0
 62
     5
420
      255
176
     0
290
     0
176
     1
 90
       50
176
     0
 90
       50
176
     0
 90
       50
176
     0
290
     0
176
     1
 90
       50
176
     0
 62
   256
176
     0
 40
1.0
176
     0
 90
        2
176
     0
  1
strokes_ogs.tif
176
     0
290
     0
176
     1
 40
1.0
176
     0
 40
1.0
176
     0
  0
VISUALSTYLE
  5
38
102
{ACAD_REACTORS
330
29
102
}
330
29
100
AcDbVisualStyle
  2
Facepattern
 70
    15
177
     3
291
     1
 70
    58
 90
        2
176
     1
 90
        2
176
     1
 90
        0
176
     1
 90
        0
176
     1
 40
0.6
176
     1
 40
30.0
176
     1
 62
     7
420
 16777215
176
     1
 90
        1
176
     1
 90
        4
176
     1
 62
     7
176
     1
 62
   257
176
     1
 90
        1
176
     1
 90
        1
176
     1
 40
1.0
176
     1
 90
        8
176
     1
 62
     7
176
     1
 40
1.0
176
     1
 90
        1
176
     1
 90
        6
176
     1
 90
        2
176
     1
 62
     7
176
     1
 90
        5
176
     1
 90
        0
176
     1
 90
        0
176
     1
290
     0
176
     1
 90
        1
176
     1
 40
0.0
176
     1
 90
        0
176
     1
290
     0
176
     1
290
     1
176
     1
290
     1
176
     1
290
     0
176
     1
290
     0
176
     1
290
     0
176
     1
290
     0
176
     1
290
     0
176
     1
290
     0
176
     1
 90
       50
176
     1
 40
0.0
176
     1
 40
1.0
176
     1
 90
        0
176
     1
 62
    18
420
        0
176
     1
 90
       50
176
     1
 90
        3
176
     1
 62
     5
420
      255
176
     1
290
     0
176
     1
 90
       50
176
     1
 90
       50
176
     1
 90
       50
176
     1
290
     0
176
     1
 90
       50
176
     1
 62
   256
176
     0
 40
1.0
176
     0
 90
        2
176
     1
  1
strokes_ogs.tif
176
     1
290
     0
176
     1
 40
1.0
176
     1
 40
1.0
176
     1
  0
VISUALSTYLE
  5
2A
102
{ACAD_REACTORS
330
29
102
}
330
29
100
AcDbVisualStyle
  2
Flat
 70
     0
177
     3
291
     1
 70
    58
 90
        2
176
     1
 90
        1
176
     1
 90
        1
176
     1
 90
        2
176
     1
 40
0.6
176
     1
 40
30.0
176
     1
 62
     7
420
 16777215
176
     1
 90
        0
176
     1
 90
        0
176
     1
 62
     7
176
     1
 62
   257
176
     1
 90
        1
176
     1
 90
        1
176
     1
 40
1.0
176
     1
 90
        8
176
     1
 62
     7
176
     1
 40
1.0
176
     1
 90
        1
176
     1
 90
        6
176
     1
 90
        2
176
     1
 62
     7
176
     1
 90
        5
176
     1
 90
        0
176
     1
 90
        0
176
     1
290
     0
176
     1
 90
       13
176
     1
 40
0.0
176
     1
 90
        0
176
     1
290
     0
176
     1
290
     1
176
     1
290
     1
176
     1
290
     0
176
     1
290
     0
176
     1
290
     0
176
     1
290
     0
176
     1
290
     0
176
     1
290
     0
176
     1
 90
       50
176
     1
 40
0.0
176
     1
 40
1.0
176
     1
 90
        0
176
     1
 62
    18
420
        0
176
     1
 90
       50
176
     1
 90
        3
176
     1
 62
     5
420
      255
176
     1
290
     0
176
     1
 90
       50
176
     1
 90
       50
176
     1
 90
       50
176
     1
290
     0
176
     1
 90
       50
176
     1
 62
   256
176
     0
 40
1.0
176
     0
 90
        2
176
     1
  1
strokes_ogs.tif
176
     1
290
     0
176
     1
 40
1.0
176
     1
 40
1.0
176
     1
  0
VISUALSTYLE
  5
2B
102
{ACAD_REACTORS
330
29
102
}
330
29
100
AcDbVisualStyle
  2
FlatWithEdges
 70
     1
177
     3
291
     1
 70
    58
 90
        2
176
     1
 90
        1
176
     1
 90
        1
176
     1
 90
        2
176
     1
 40
0.6
176
     1
 40
30.0
176
     1
 62
     7
420
 16777215
176
     1
 90
        1
176
     1
 90
        0
176
     1
 62
     7
176
     1
 62
   257
176
     1
 90
        1
176
     1
 90
        1
176
     1
 40
1.0
176
     1
 90
        0
176
     1
 62
   257
176
     1
 40
1.0
176
     1
 90
        1
176
     1
 90
        6
176
     1
 90
        2
176
     1
 62
     7
176
     1
 90
        5
176
     1
 90
        0
176
     1
 90
        0
176
     1
290
     0
176
     1
 90
       13
176
     1
 40
0.0
176
     1
 90
        0
176
     1
290
     0
176
     1
290
     1
176
     1
290
     1
176
     1
290
     0
176
     1
290
     0
176
     1
290
     0
176
     1
290
     0
176
     1
290
     0
176
     1
290
     0
176
     1
 90
       50
176
     1
 40
0.0
176
     1
 40
1.0
176
     1
 90
        0
176
     1
 62
    18
420
        0
176
     1
 90
       50
176
     1
 90
        3
176
     1
 62
     5
420
      255
176
     1
290
     0
176
     1
 90
       50
176
     1
 90
       50
176
     1
 90
       50
176
     1
290
     0
176
     1
 90
       50
176
     1
 62
   256
176
     0
 40
1.0
176
     0
 90
        2
176
     1
  1
strokes_ogs.tif
176
     1
290
     0
176
     1
 40
1.0
176
     1
 40
1.0
176
     1
  0
VISUALSTYLE
  5
2C
102
{ACAD_REACTORS
330
29
102
}
330
29
100
AcDbVisualStyle
  2
Gouraud
 70
     2
177
     3
291
     1
 70
    58
 90
        2
176
     1
 90
        2
176
     1
 90
        1
176
     1
 90
        2
176
     1
 40
0.6
176
     1
 40
30.0
176
     1
 62
     7
420
 16777215
176
     1
 90
        0
176
     1
 90
        0
176
     1
 62
     7
176
     1
 62
   257
176
     1
 90
        1
176
     1
 90
        1
176
     1
 40
1.0
176
     1
 90
        0
176
     1
 62
     7
176
     1
 40
1.0
176
     1
 90
        1
176
     1
 90
        6
176
     1
 90
        2
176
     1
 62
     7
176
     1
 90
        5
176
     1
 90
        0
176
     1
 90
        0
176
     1
290
     0
176
     1
 90
       13
176
     1
 40
0.0
176
     1
 90
        0
176
     1
290
     0
176
     1
290
     1
176
     1
290
     1
176
     1
290
     0
176
     1
290
     0
176
     1
290
     0
176
     1
290
     0
176
     1
290
     0
176
     1
290
     0
176
     1
 90
       50
176
     1
 40
0.0
176
     1
 40
1.0
176
     1
 90
        0
176
     1
 62
    18
420
        0
176
     1
 90
       50
176
     1
 90
        3
176
     1
 62
     5
420
      255
176
     1
290
     0
176
     1
 90
       50
176
     1
 90
       50
176
     1
 90
       50
176
     1
290
     0
176
     1
 90
       50
176
     1
 62
   256
176
     0
 40
1.0
176
     0
 90
        2
176
     1
  1
strokes_ogs.tif
176
     1
290
     0
176
     1
 40
1.0
176
     1
 40
1.0
176
     1
  0
VISUALSTYLE
  5
2D
102
{ACAD_REACTORS
330
29
102
}
330
29
100
AcDbVisualStyle
  2
GouraudWithEdges
 70
     3
177
     3
291
     1
 70
    58
 90
        2
176
     1
 90
        2
176
     1
 90
        1
176
     1
 90
        2
176
     1
 40
0.6
176
     1
 40
30.0
176
     1
 62
     7
420
 16777215
176
     1
 90
        1
176
     1
 90
        0
176
     1
 62
     7
176
     1
 62
   257
176
     1
 90
        1
176
     1
 90
        1
176
     1
 40
1.0
176
     1
 90
        0
176
     1
 62
   257
176
     1
 40
1.0
176
     1
 90
        1
176
     1
 90
        6
176
     1
 90
        2
176
     1
 62
     7
176
     1
 90
        5
176
     1
 90
        0
176
     1
 90
        0
176
     1
290
     0
176
     1
 90
       13
176
     1
 40
0.0
176
     1
 90
        0
176
     1
290
     0
176
     1
290
     1
176
     1
290
     1
176
     1
290
     0
176
     1
290
     0
176
     1
290
     0
176
     1
290
     0
176
     1
290
     0
176
     1
290
     0
176
     1
 90
       50
176
     1
 40
0.0
176
     1
 40
1.0
176
     1
 90
        0
176
     1
 62
    18
420
        0
176
     1
 90
       50
176
     1
 90
        3
176
     1
 62
     5
420
      255
176
     1
290
     0
176
     1
 90
       50
176
     1
 90
       50
176
     1
 90
       50
176
     1
290
     0
176
     1
 90
       50
176
     1
 62
   256
176
     0
 40
1.0
176
     0
 90
        2
176
     1
  1
strokes_ogs.tif
176
     1
290
     0
176
     1
 40
1.0
176
     1
 40
1.0
176
     1
  0
VISUALSTYLE
  5
31
102
{ACAD_REACTORS
330
29
102
}
330
29
100
AcDbVisualStyle
  2
Hidden
 70
     6
177
     3
291
     0
 70
    58
 90
        1
176
     1
 90
        2
176
     1
 90
        2
176
     1
 90
        0
176
     1
 40
0.6
176
     1
 40
30.0
176
     1
 62
     7
420
 16777215
176
     1
 90
        2
176
     1
 90
        2
176
     1
 62
     7
176
     1
 62
   257
176
     1
 90
        2
176
     1
 90
        1
176
     1
 40
40.0
176
     1
 90
        0
176
     1
 62
   257
176
     1
 40
1.0
176
     1
 90
        1
176
     1
 90
        6
176
     1
 90
        2
176
     1
 62
     7
176
     1
 90
        3
176
     1
 90
        0
176
     1
 90
        0
176
     1
290
     0
176
     1
 90
        1
176
     1
 40
0.0
176
     1
 90
        0
176
     1
290
     0
176
     1
290
     1
176
     1
290
     1
176
     1
290
     0
176
     1
290
     0
176
     1
290
     0
176
     1
290
     0
176
     1
290
     0
176
     1
290
     0
176
     1
 90
       50
176
     1
 40
0.0
176
     1
 40
1.0
176
     1
 90
        0
176
     1
 62
    18
420
        0
176
     1
 90
       50
176
     1
 90
        3
176
     1
 62
     5
420
      255
176
     1
290
     0
176
     1
 90
       50
176
     1
 90
       50
176
     1
 90
       50
176
     1
290
     0
176
     1
 90
       50
176
     1
 62
   256
176
     0
 40
1.0
176
     0
 90
        2
176
     1
  1
strokes_ogs.tif
176
     1
290
     0
176
     1
 40
1.0
176
     1
 40
1.0
176
     1
  0
VISUALSTYLE
  5
3F
102
{ACAD_REACTORS
330
29
102
}
330
29
100
AcDbVisualStyle
  2
JitterOff
 70
    20
177
     3
291
     1
 70
    58
 90
        2
176
     0
 90
        2
176
     0
 90
        0
176
     0
 90
        0
176
     0
 40
0.6
176
     0
 40
30.0
176
     0
 62
     7
420
 16777215
176
     0
 90
        1
176
     0
 90
        4
176
     0
 62
     7
176
     0
 62
   257
176
     0
 90
        1
176
     0
 90
        1
176
     0
 40
1.0
176
     0
 90
       10
176
     2
 62
     7
176
     0
 40
1.0
176
     0
 90
        1
176
     0
 90
        6
176
     0
 90
        2
176
     0
 62
     7
176
     0
 90
        5
176
     0
 90
        0
176
     0
 90
        0
176
     0
290
     0
176
     0
 90
        1
176
     0
 40
0.0
176
     0
 90
        0
176
     0
290
     0
176
     1
290
     1
176
     1
290
     1
176
     1
290
     0
176
     1
290
     0
176
     1
290
     0
176
     1
290
     0
176
     1
290
     0
176
     1
290
     0
176
     1
 90
       50
176
     0
 40
0.0
176
     0
 40
1.0
176
     0
 90
        0
176
     0
 62
    18
420
        0
176
     0
 90
       50
176
     0
 90
        3
176
     0
 62
     5
420
      255
176
     0
290
     0
176
     1
 90
       50
176
     0
 90
       50
176
     0
 90
       50
176
     0
290
     0
176
     1
 90
       50
176
     0
 62
   256
176
     0
 40
1.0
176
     0
 90
        2
176
     0
  1
strokes_ogs.tif
176
     0
290
     0
176
     1
 40
1.0
176
     0
 40
1.0
176
     0
  0
VISUALSTYLE
  5
37
102
{ACAD_REACTORS
330
29
102
}
330
29
100
AcDbVisualStyle
  2
Linepattern
 70
    14
177
     3
291
     1
 70
    58
 90
        2
176
     1
 90
        2
176
     1
 90
        0
176
     1
 90
        0
176
     1
 40
0.6
176
     1
 40
30.0
176
     1
 62
     7
420
 16777215
176
     1
 90
        1
176
     1
 90
        4
176
     1
 62
     7
176
     1
 62
   257
176
     1
 90
        7
176
     1
 90
        7
176
     1
 40
1.0
176
     1
 90
        8
176
     1
 62
     7
176
     1
 40
1.0
176
     1
 90
        1
176
     1
 90
        6
176
     1
 90
        2
176
     1
 62
     7
176
     1
 90
        5
176
     1
 90
        0
176
     1
 90
        0
176
     1
290
     0
176
     1
 90
        1
176
     1
 40
0.0
176
     1
 90
        0
176
     1
290
     0
176
     1
290
     1
176
     1
290
     1
176
     1
290
     0
176
     1
290
     0
176
     1
290
     0
176
     1
290
     0
176
     1
290
     0
176
     1
290
     0
176
     1
 90
       50
176
     1
 40
0.0
176
     1
 40
1.0
176
     1
 90
        0
176
     1
 62
    18
420
        0
176
     1
 90
       50
176
     1
 90
        3
176
     1
 62
     5
420
      255
176
     1
290
     0
176
     1
 90
       50
176
     1
 90
       50
176
     1
 90
       50
176
     1
290
     0
176
     1
 90
       50
176
     1
 62
   256
176
     0
 40
1.0
176
     0
 90
        2
176
     1
  1
strokes_ogs.tif
176
     1
290
     0
176
     1
 40
1.0
176
     1
 40
1.0
176
     1
  0
VISUALSTYLE
  5
40
102
{ACAD_REACTORS
330
29
102
}
330
29
100
AcDbVisualStyle
  2
OverhangOff
 70
    21
177
     3
291
     1
 70
    58
 90
        2
176
     0
 90
        2
176
     0
 90
        0
176
     0
 90
        0
176
     0
 40
0.6
176
     0
 40
30.0
176
     0
 62
     7
420
 16777215
176
     0
 90
        1
176
     0
 90
        4
176
     0
 62
     7
176
     0
 62
   257
176
     0
 90
        1
176
     0
 90
        1
176
     0
 40
1.0
176
     0
 90
        9
176
     2
 62
     7
176
     0
 40
1.0
176
     0
 90
        1
176
     0
 90
        6
176
     0
 90
        2
176
     0
 62
     7
176
     0
 90
        5
176
     0
 90
        0
176
     0
 90
        0
176
     0
290
     0
176
     0
 90
        1
176
     0
 40
0.0
176
     0
 90
        0
176
     0
290
     0
176
     1
290
     1
176
     1
290
     1
176
     1
290
     0
176
     1
290
     0
176
     1
290
     0
176
     1
290
     0
176
     1
290
     0
176
     1
290
     0
176
     1
 90
       50
176
     0
 40
0.0
176
     0
 40
1.0
176
     0
 90
        0
176
     0
 62
    18
420
        0
176
     0
 90
       50
176
     0
 90
        3
176
     0
 62
     5
420
      255
176
     0
290
     0
176
     1
 90
       50
176
     0
 90
       50
176
     0
 90
       50
176
     0
290
     0
176
     1
 90
       50
176
     0
 62
   256
176
     0
 40
1.0
176
     0
 90
        2
176
     0
  1
strokes_ogs.tif
176
     0
290
     0
176
     1
 40
1.0
176
     0
 40
1.0
176
     0
  0
VISUALSTYLE
  5
33
102
{ACAD_REACTORS
330
29
102
}
330
29
100
AcDbVisualStyle
  2
Realistic
 70
     8
177
     3
291
     0
 70
    58
 90
        2
176
     1
 90
        3
176
     1
 90
        0
176
     1
 90
        2
176
     1
 40
0.6
176
     1
 40
30.0
176
     1
 62
     7
420
 16777215
176
     1
 90
        0
176
     1
 90
        0
176
     1
 62
     7
176
     1
 62
   257
176
     1
 90
        1
176
     1
 90
        1
176
     1
 40
1.0
176
     1
 90
        8
176
     1
 62
   257
176
     1
 40
1.0
176
     1
 90
        1
176
     1
 90
        6
176
     1
 90
        2
176
     1
 62
     7
176
     1
 90
        3
176
     1
 90
        0
176
     1
 90
        0
176
     1
290
     0
176
     1
 90
       13
176
     1
 40
0.0
176
     1
 90
        0
176
     1
290
     0
176
     1
290
     1
176
     1
290
     1
176
     1
290
     0
176
     1
290
     0
176
     1
290
     0
176
     1
290
     0
176
     1
290
     0
176
     1
290
     0
176
     1
 90
       50
176
     1
 40
0.0
176
     1
 40
1.0
176
     1
 90
        0
176
     1
 62
    18
420
        0
176
     1
 90
       50
176
     1
 90
        3
176
     1
 62
     5
420
      255
176
     1
290
     0
176
     1
 90
       50
176
     1
 90
       50
176
     1
 90
       50
176
     1
290
     0
176
     1
 90
       50
176
     1
 62
   256
176
     0
 40
1.0
176
     0
 90
        2
176
     1
  1
strokes_ogs.tif
176
     1
290
     0
176
     1
 40
1.0
176
     1
 40
1.0
176
     1
  0
VISUALSTYLE
  5
3E
102
{ACAD_REACTORS
330
29
102
}
330
29
100
AcDbVisualStyle
  2
Shaded
 70
    27
177
     3
291
     0
 70
    58
 90
        2
176
     1
 90
        2
176
     1
 90
        1
176
     1
 90
        2
176
     1
 40
0.6
176
     1
 40
30.0
176
     1
 62
     7
420
 16777215
176
     1
 90
        0
176
     1
 90
        4
176
     1
 62
     7
176
     1
 62
   257
176
     1
 90
        1
176
     1
 90
        1
176
     1
 40
1.0
176
     1
 90
        8
176
     1
 62
   257
176
     1
 40
1.0
176
     1
 90
        1
176
     1
 90
        6
176
     1
 90
        2
176
     1
 62
     8
420
  7895160
176
     1
 90
        3
176
     1
 90
        0
176
     1
 90
        0
176
     1
290
     0
176
     1
 90
        5
176
     1
 40
0.0
176
     1
 90
        0
176
     1
290
     0
176
     1
290
     1
176
     1
290
     1
176
     1
290
     0
176
     1
290
     0
176
     1
290
     0
176
     1
290
     0
176
     1
290
     0
176
     1
290
     0
176
     1
 90
       50
176
     1
 40
0.0
176
     1
 40
1.0
176
     1
 90
        0
176
     1
 62
    18
420
        0
176
     1
 90
       50
176
     1
 90
        3
176
     1
 62
     5
420
      255
176
     1
290
     0
176
     1
 90
       50
176
     1
 90
       50
176
     1
 90
       50
176
     1
290
     0
176
     1
 90
       50
176
     1
 62
   256
176
     0
 40
1.0
176
     0
 90
        2
176
     1
  1
strokes_ogs.tif
176
     1
290
     0
176
     1
 40
1.0
176
     1
 40
1.0
176
     1
  0
VISUALSTYLE
  5
3D
102
{ACAD_REACTORS
330
29
102
}
330
29
100
AcDbVisualStyle
  2
Shaded with edges
 70
    26
177
     3
291
     0
 70
    58
 90
        2
176
     1
 90
        2
176
     1
 90
        1
176
     1
 90
        2
176
     1
 40
0.6
176
     1
 40
30.0
176
     1
 62
     7
420
 16777215
176
     1
 90
        1
176
     1
 90
        2
176
     1
 62
     7
176
     1
 62
   257
176
     1
 90
        2
176
     1
 90
        1
176
     1
 40
1.0
176
     1
 90
        8
176
     1
 62
   257
176
     1
 40
1.0
176
     1
 90
        1
176
     1
 90
        6
176
     1
 90
        2
176
     1
 62
     7
176
     1
 90
        3
176
     1
 90
        0
176
     1
 90
        0
176
     1
290
     0
176
     1
 90
        5
176
     1
 40
0.0
176
     1
 90
        0
176
     1
290
     0
176
     1
290
     1
176
     1
290
     1
176
     1
290
     0
176
     1
290
     0
176
     1
290
     0
176
     1
290
     0
176
     1
290
     0
176
     1
290
     0
176
     1
 90
       50
176
     1
 40
0.0
176
     1
 40
1.0
176
     1
 90
        0
176
     1
 62
    18
420
        0
176
     1
 90
       50
176
     1
 90
        3
176
     1
 62
     5
420
      255
176
     1
290
     0
176
     1
 90
       50
176
     1
 90
       50
176
     1
 90
       50
176
     1
290
     0
176
     1
 90
       50
176
     1
 62
   256
176
     0
 40
1.0
176
     0
 90
        2
176
     1
  1
strokes_ogs.tif
176
     1
290
     0
176
     1
 40
1.0
176
     1
 40
1.0
176
     1
  0
VISUALSTYLE
  5
3A
102
{ACAD_REACTORS
330
29
102
}
330
29
100
AcDbVisualStyle
  2
Shades of Gray
 70
    23
177
     3
291
     0
 70
    58
 90
        2
176
     1
 90
        2
176
     1
 90
        3
176
     1
 90
        0
176
     1
 40
0.6
176
     1
 40
30.0
176
     1
 62
     7
420
 16777215
176
     1
 90
        2
176
     1
 90
        2
176
     1
 62
     7
176
     1
 62
     7
176
     1
 90
        1
176
     1
 90
        1
176
     1
 40
40.0
176
     1
 90
        8
176
     1
 62
     7
176
     1
 40
1.0
176
     1
 90
        1
176
     1
 90
        6
176
     1
 90
        2
176
     1
 62
     7
176
     1
 90
        3
176
     1
 90
        0
176
     1
 90
        0
176
     1
290
     0
176
     1
 90
        1
176
     1
 40
0.0
176
     1
 90
        0
176
     1
290
     0
176
     1
290
     1
176
     1
290
     1
176
     1
290
     0
176
     1
290
     0
176
     1
290
     0
176
     1
290
     0
176
     1
290
     0
176
     1
290
     0
176
     1
 90
       50
176
     1
 40
0.0
176
     1
 40
1.0
176
     1
 90
        0
176
     1
 62
    18
420
        0
176
     1
 90
       50
176
     1
 90
        3
176
     1
 62
     5
420
      255
176
     1
290
     0
176
     1
 90
       50
176
     1
 90
       50
176
     1
 90
       50
176
     1
290
     0
176
     1
 90
       50
176
     1
 62
   256
176
     0
 40
1.0
176
     0
 90
        2
176
     1
  1
strokes_ogs.tif
176
     1
290
     0
176
     1
 40
1.0
176
     1
 40
1.0
176
     1
  0
VISUALSTYLE
  5
3B
102
{ACAD_REACTORS
330
29
102
}
330
29
100
AcDbVisualStyle
  2
Sketchy
 70
    24
177
     3
291
     0
 70
    58
 90
        1
176
     1
 90
        2
176
     1
 90
        2
176
     1
 90
        0
176
     1
 40
0.6
176
     1
 40
30.0
176
     1
 62
     7
420
 16777215
176
     1
 90
        2
176
     1
 90
        2
176
     1
 62
     7
176
     1
 62
     7
176
     1
 90
        1
176
     1
 90
        1
176
     1
 40
40.0
176
     1
 90
       11
176
     1
 62
     7
176
     1
 40
1.0
176
     1
 90
        1
176
     1
 90
        6
176
     1
 90
        2
176
     1
 62
     7
176
     1
 90
        6
176
     1
 90
        0
176
     1
 90
        0
176
     1
290
     0
176
     1
 90
        1
176
     1
 40
0.0
176
     1
 90
        0
176
     1
290
     0
176
     1
290
     1
176
     1
290
     1
176
     1
290
     0
176
     1
290
     0
176
     1
290
     0
176
     1
290
     0
176
     1
290
     0
176
     1
290
     0
176
     1
 90
       50
176
     1
 40
0.0
176
     1
 40
1.0
176
     1
 90
        0
176
     1
 62
    18
420
        0
176
     1
 90
       50
176
     1
 90
        3
176
     1
 62
     5
420
      255
176
     1
290
     0
176
     1
 90
       50
176
     1
 90
       50
176
     1
 90
       50
176
     1
290
     0
176
     1
 90
       50
176
     1
 62
   256
176
     0
 40
1.0
176
     0
 90
        2
176
     1
  1
strokes_ogs.tif
176
     1
290
     0
176
     1
 40
1.0
176
     1
 40
1.0
176
     1
  0
VISUALSTYLE
  5
36
102
{ACAD_REACTORS
330
29
102
}
330
29
100
AcDbVisualStyle
  2
Thicken
 70
    13
177
     3
291
     1
 70
    58
 90
        2
176
     1
 90
        2
176
     1
 90
        0
176
     1
 90
        0
176
     1
 40
0.6
176
     1
 40
30.0
176
     1
 62
     7
420
 16777215
176
     1
 90
        1
176
     1
 90
        4
176
     1
 62
     7
176
     1
 62
   257
176
     1
 90
        1
176
     1
 90
        1
176
     1
 40
1.0
176
     1
 90
       12
176
     1
 62
     7
176
     1
 40
1.0
176
     1
 90
        1
176
     1
 90
        6
176
     1
 90
        2
176
     1
 62
     7
176
     1
 90
        5
176
     1
 90
        0
176
     1
 90
        0
176
     1
290
     0
176
     1
 90
        1
176
     1
 40
0.0
176
     1
 90
        0
176
     1
290
     0
176
     1
290
     1
176
     1
290
     1
176
     1
290
     0
176
     1
290
     0
176
     1
290
     0
176
     1
290
     0
176
     1
290
     0
176
     1
290
     0
176
     1
 90
       50
176
     1
 40
0.0
176
     1
 40
1.0
176
     1
 90
        0
176
     1
 62
    18
420
        0
176
     1
 90
       50
176
     1
 90
        3
176
     1
 62
     5
420
      255
176
     1
290
     0
176
     1
 90
       50
176
     1
 90
       50
176
     1
 90
       50
176
     1
290
     0
176
     1
 90
       50
176
     1
 62
   256
176
     0
 40
1.0
176
     0
 90
        2
176
     1
  1
strokes_ogs.tif
176
     1
290
     0
176
     1
 40
1.0
176
     1
 40
1.0
176
     1
  0
VISUALSTYLE
  5
30
102
{ACAD_REACTORS
330
29
102
}
330
29
100
AcDbVisualStyle
  2
Wireframe
 70
     5
177
     3
291
     0
 70
    58
 90
        0
176
     1
 90
        2
176
     1
 90
        0
176
     1
 90
        0
176
     1
 40
0.6
176
     1
 40
30.0
176
     1
 62
     7
420
 16777215
176
     1
 90
        1
176
     1
 90
        4
176
     1
 62
     7
176
     1
 62
   257
176
     1
 90
        1
176
     1
 90
        1
176
     1
 40
1.0
176
     1
 90
        0
176
     1
 62
   257
176
     1
 40
1.0
176
     1
 90
        1
176
     1
 90
        6
176
     1
 90
        2
176
     1
 62
     7
176
     1
 90
        3
176
     1
 90
        0
176
     1
 90
        0
176
     1
290
     0
176
     1
 90
        1
176
     1
 40
0.0
176
     1
 90
        0
176
     1
290
     0
176
     1
290
     1
176
     1
290
     1
176
     1
290
     0
176
     1
290
     0
176
     1
290
     0
176
     1
290
     0
176
     1
290
     0
176
     1
290
     0
176
     1
 90
       50
176
     1
 40
0.0
176
     1
 40
1.0
176
     1
 90
        0
176
     1
 62
    18
420
        0
176
     1
 90
       50
176
     1
 90
        3
176
     1
 62
     5
420
      255
176
     1
290
     0
176
     1
 90
       50
176
     1
 90
       50
176
     1
 90
       50
176
     1
290
     0
176
     1
 90
       50
176
     1
 62
   256
176
     0
 40
1.0
176
     0
 90
        2
176
     1
  1
strokes_ogs.tif
176
     1
290
     0
176
     1
 40
1.0
176
     1
 40
1.0
176
     1
  0
VISUALSTYLE
  5
3C
102
{ACAD_REACTORS
330
29
102
}
330
29
100
AcDbVisualStyle
  2
X-Ray
 70
    25
177
     3
291
     0
 70
    58
 90
        2
176
     1
 90
        2
176
     1
 90
        1
176
     1
 90
        1
176
     1
 40
0.5
176
     1
 40
30.0
176
     1
 62
     7
420
 16777215
176
     1
 90
        1
176
     1
 90
        0
176
     1
 62
     7
176
     1
 62
   257
176
     1
 90
        1
176
     1
 90
        1
176
     1
 40
1.0
176
     1
 90
        8
176
     1
 62
     7
176
     1
 40
1.0
176
     1
 90
        1
176
     1
 90
        6
176
     1
 90
        2
176
     1
 62
     7
176
     1
 90
        3
176
     1
 90
        0
176
     1
 90
        0
176
     1
290
     0
176
     1
 90
       13
176
     1
 40
0.0
176
     1
 90
        0
176
     1
290
     0
176
     1
290
     1
176
     1
290
     1
176
     1
290
     0
176
     1
290
     0
176
     1
290
     0
176
     1
290
     0
176
     1
290
     0
176
     1
290
     0
176
     1
 90
       50
176
     1
 40
0.0
176
     1
 40
1.0
176
     1
 90
        0
176
     1
 62
    18
420
        0
176
     1
 90
       50
176
     1
 90
        3
176
     1
 62
     5
420
      255
176
     1
290
     0
176
     1
 90
       50
176
     1
 90
       50
176
     1
 90
       50
176
     1
290
     0
176
     1
 90
       50
176
     1
 62
   256
176
     0
 40
1.0
176
     0
 90
        2
176
     1
  1
strokes_ogs.tif
176
     1
290
     0
176
     1
 40
1.0
176
     1
 40
1.0
176
     1
  0
DICTIONARYVAR
  5
74F
102
{ACAD_REACTORS
330
749
102
}
330
749
100
DictionaryVariables
280
     0
  1
1:1
  0
DICTIONARYVAR
  5
74B
102
{ACAD_REACTORS
330
749
102
}
330
749
100
DictionaryVariables
280
     0
  1
STANDARD
  0
DICTIONARYVAR
  5
74A
102
{ACAD_REACTORS
330
749
102
}
330
749
100
DictionaryVariables
280
     0
  1
STANDARD
  0
DICTIONARYVAR
  5
74C
102
{ACAD_REACTORS
330
749
102
}
330
749
100
DictionaryVariables
280
     0
  1
Imperial24
  0
DICTIONARYVAR
  5
74D
102
{ACAD_REACTORS
330
749
102
}
330
749
100
DictionaryVariables
280
     0
  1
Imperial24
  0
DICTIONARYVAR
  5
751
102
{ACAD_REACTORS
330
749
102
}
330
749
100
DictionaryVariables
280
     0
  1
1
  0
DICTIONARYVAR
  5
752
102
{ACAD_REACTORS
330
749
102
}
330
749
100
DictionaryVariables
280
     0
  1
15
  0
DICTIONARYVAR
  5
750
102
{ACAD_REACTORS
330
749
102
}
330
749
100
DictionaryVariables
280
     0
  1
0
  0
DICTIONARYVAR
  5
74E
102
{ACAD_REACTORS
330
749
102
}
330
749
100
DictionaryVariables
280
     0
  1
0
  0
DICTIONARY
  5
1A
330
19
100
AcDbDictionary
280
     1
281
     1
  3
BUMPTILE
360
1C
  3
DIFFUSETILE
360
1B
  3
OPACITYTILE
360
1F
  3
REFLECTIONTILE
360
1E
  3
REFRACTIONTILE
360
20
  3
SPECULARTILE
360
1D
  0
DICTIONARY
  5
12
330
11
100
AcDbDictionary
280
     1
281
     1
  3
BUMPTILE
360
14
  3
DIFFUSETILE
360
13
  3
OPACITYTILE
360
17
  3
REFLECTIONTILE
360
16
  3
REFRACTIONTILE
360
18
  3
SPECULARTILE
360
15
  0
DICTIONARY
  5
22
330
21
100
AcDbDictionary
280
     1
281
     1
  3
BUMPTILE
360
24
  3
DIFFUSETILE
360
23
  3
OPACITYTILE
360
27
  3
REFLECTIONTILE
360
26
  3
REFRACTIONTILE
360
28
  3
SPECULARTILE
360
25
  0
DICTIONARY
  5
754
330
64
100
AcDbDictionary
280
     1
281
     1
  3
ACAD_ROUNDTRIP_2008_TABLESTYLE_CELLSTYLEMAP
360
755
  0
XRECORD
  5
1C
102
{ACAD_REACTORS
330
1A
102
}
330
1A
100
AcDbXrecord
280
     1
270
     1
271
     1
  0
XRECORD
  5
1B
102
{ACAD_REACTORS
330
1A
102
}
330
1A
100
AcDbXrecord
280
     1
270
     1
271
     1
  0
XRECORD
  5
1F
102
{ACAD_REACTORS
330
1A
102
}
330
1A
100
AcDbXrecord
280
     1
270
     1
271
     1
  0
XRECORD
  5
1E
102
{ACAD_REACTORS
330
1A
102
}
330
1A
100
AcDbXrecord
280
     1
270
     1
271
     1
  0
XRECORD
  5
20
102
{ACAD_REACTORS
330
1A
102
}
330
1A
100
AcDbXrecord
280
     1
270
     1
271
     1
  0
XRECORD
  5
1D
102
{ACAD_REACTORS
330
1A
102
}
330
1A
100
AcDbXrecord
280
     1
270
     1
271
     1
  0
XRECORD
  5
14
102
{ACAD_REACTORS
330
12
102
}
330
12
100
AcDbXrecord
280
     1
270
     1
271
     1
  0
XRECORD
  5
13
102
{ACAD_REACTORS
330
12
102
}
330
12
100
AcDbXrecord
280
     1
270
     1
271
     1
  0
XRECORD
  5
17
102
{ACAD_REACTORS
330
12
102
}
330
12
100
AcDbXrecord
280
     1
270
     1
271
     1
  0
XRECORD
  5
16
102
{ACAD_REACTORS
330
12
102
}
330
12
100
AcDbXrecord
280
     1
270
     1
271
     1
  0
XRECORD
  5
18
102
{ACAD_REACTORS
330
12
102
}
330
12
100
AcDbXrecord
280
     1
270
     1
271
     1
  0
XRECORD
  5
15
102
{ACAD_REACTORS
330
12
102
}
330
12
100
AcDbXrecord
280
     1
270
     1
271
     1
  0
XRECORD
  5
24
102
{ACAD_REACTORS
330
22
102
}
330
22
100
AcDbXrecord
280
     1
270
     1
271
     1
  0
XRECORD
  5
23
102
{ACAD_REACTORS
330
22
102
}
330
22
100
AcDbXrecord
280
     1
270
     1
271
     1
  0
XRECORD
  5
27
102
{ACAD_REACTORS
330
22
102
}
330
22
100
AcDbXrecord
280
     1
270
     1
271
     1
  0
XRECORD
  5
26
102
{ACAD_REACTORS
330
22
102
}
330
22
100
AcDbXrecord
280
     1
270
     1
271
     1
  0
XRECORD
  5
28
102
{ACAD_REACTORS
330
22
102
}
330
22
100
AcDbXrecord
280
     1
270
     1
271
     1
  0
XRECORD
  5
25
102
{ACAD_REACTORS
330
22
102
}
330
22
100
AcDbXrecord
280
     1
270
     1
271
     1
  0
CELLSTYLEMAP
  5
755
102
{ACAD_REACTORS
330
754
102
}
330
754
100
AcDbCellStyleMap
 90
        3
300
CELLSTYLE
  1
TABLEFORMAT_BEGIN
 90
        5
170
     1
 91
        0
 92
    32768
 62
   257
 93
        1
300
CONTENTFORMAT
  1
CONTENTFORMAT_BEGIN
 90
        0
 91
        0
 92
      512
 93
        0
300

 40
0.0
140
1.0
 94
        5
 62
     0
340
55
144
0.25
309
CONTENTFORMAT_END
171
     0
 94
        0
309
TABLEFORMAT_END
  1
CELLSTYLE_BEGIN
 90
        1
 91
        1
300
_TITLE
309
CELLSTYLE_END
300
CELLSTYLE
  1
TABLEFORMAT_BEGIN
 90
        5
170
     1
 91
        0
 92
        0
 62
   257
 93
        1
300
CONTENTFORMAT
  1
CONTENTFORMAT_BEGIN
 90
        0
 91
        0
 92
      512
 93
        0
300

 40
0.0
140
1.0
 94
        5
 62
     0
340
55
144
0.18
309
CONTENTFORMAT_END
171
     0
 94
        0
309
TABLEFORMAT_END
  1
CELLSTYLE_BEGIN
 90
        2
 91
        1
300
_HEADER
309
CELLSTYLE_END
300
CELLSTYLE
  1
TABLEFORMAT_BEGIN
 90
        5
170
     1
 91
        0
 92
        0
 62
   257
 93
        1
300
CONTENTFORMAT
  1
CONTENTFORMAT_BEGIN
 90
        0
 91
        0
 92
      512
 93
        0
300

 40
0.0
140
1.0
 94
        2
 62
     0
340
55
144
0.18
309
CONTENTFORMAT_END
171
     0
 94
        0
309
TABLEFORMAT_END
  1
CELLSTYLE_BEGIN
 90
        3
 91
        2
300
_DATA
309
CELLSTYLE_END
  0
ENDSEC
  0
EOF
