  0
SECTION
  2
HEADER
  9
$ACADVER
  1
AC1009
  9
$EXTMAX
 10
594.310363769531
 20
1124.60681152344
 30
0.0
  9
$EXTMIN
 10
-461.0
 20
-96.002799987793
 30
0.0
  9
$INSUNITS
 70
     4
  9
$LUNITS
 70
     2
  9
$LUPREC
 70
     4
  9
$MEASUREMENT
 70
     1
  0
ENDSEC
  0
SECTION
  2
TABLES
  0
TABLE
  2
LAYER
 70
     1
  0
LAYER
  2
0
 70
     0
 62
     7
  6
Continuous
  0
LAYER
  2
Oletusarvo
 70
     0
 62
    70
  6
Continuous
  0
LAYER
  2
Kerros1
 70
     0
 62
     7
  6
Continuous
  0
LAYER
  2
Kerros2
 70
     0
 62
     3
  6
Continuous
  0
ENDTAB
  0
TABLE
  2
APPID
 70
     1
  0
APPID
  2
ACAD
 70
     0
  0
ENDTAB
  0
ENDSEC
  0
SECTION
  2
ENTITIES
  0
POLYLINE
  8
Oletusarvo
 66
     1
 10
0.0
 20
0.0
 30
0.0
 70
     1
  0
VERTEX
  8
Oletusarvo
 10
380.01178064614
 20
595.000026821923
 42
0.0
  0
SEQEND
  0
POLYLINE
  8
Oletusarvo
 66
     1
 10
0.0
 20
0.0
 30
0.0
 70
     1
  0
VERTEX
  8
Oletusarvo
 10
380.011814173841
 20
594.999731778974
 42
0.0
  0
SEQEND
  0
POLYLINE
  8
Oletusarvo
 66
     1
 10
0.0
 20
0.0
 30
0.0
 70
     1
  0
VERTEX
  8
Oletusarvo
 10
380.01178064614
 20
595.000026821923
 42
0.0
  0
SEQEND
  0
POLYLINE
  8
Oletusarvo
 66
     1
 10
0.0
 20
0.0
 30
0.0
 70
     1
  0
VERTEX
  8
Oletusarvo
 10
386.0
 20
595.0
 42
0.0000471474628
  0
SEQEND
  0
POLYLINE
  8
Oletusarvo
 66
     1
 10
0.0
 20
0.0
 30
0.0
 70
     1
  0
VERTEX
  8
Oletusarvo
 10
386.093133002106
 20
594.999999999997
 42
0.0
  0
SEQEND
  0
POLYLINE
  8
Oletusarvo
 66
     1
 10
0.0
 20
0.0
 30
0.0
 70
     1
  0
VERTEX
  8
Oletusarvo
 10
386.093166529513
 20
594.999704957175
 42
0.0
  0
SEQEND
  0
POLYLINE
  8
Oletusarvo
 66
     1
 10
0.0
 20
0.0
 30
0.0
 70
     1
  0
VERTEX
  8
Oletusarvo
 10
386.093173235241
 20
594.951854348397
 42
0.000269765074
  0
SEQEND
  0
POLYLINE
  8
Oletusarvo
 66
     1
 10
0.0
 20
0.0
 30
0.0
 70
     1
  0
VERTEX
  8
Oletusarvo
 10
382.43764319471
 20
643.429275724262
 42
0.0144223750075
  0
SEQEND
  0
POLYLINE
  8
Oletusarvo
 66
     1
 10
0.0
 20
0.0
 30
0.0
 70
     1
  0
VERTEX
  8
Oletusarvo
 10
382.329930127234
 20
643.432747711118
 42
0.0153938358761
  0
SEQEND
  0
CIRCLE
  8
Oletusarvo
 10
344.737147697182
 20
777.429675025089
 30
0.0
 40
5.4292729601548
  0
CIRCLE
  8
Oletusarvo
 10
226.081245296202
 20
785.427196464704
 30
0.0
 40
6.0
  0
POLYLINE
  8
Oletusarvo
 66
     1
 10
0.0
 20
0.0
 30
0.0
 70
     1
  0
VERTEX
  8
Oletusarvo
 10
314.5
 20
438.265981284232
 42
0.0
  0
SEQEND
  0
POLYLINE
  8
Oletusarvo
 66
     1
 10
0.0
 20
0.0
 30
0.0
 70
     1
  0
VERTEX
  8
Oletusarvo
 10
95.70000093785
 20
76.186813682903
 42
0.0
  0
SEQEND
  0
POLYLINE
  8
Oletusarvo
 66
     1
 10
0.0
 20
0.0
 30
0.0
 70
     1
  0
VERTEX
  8
Oletusarvo
 10
108.299999592985
 20
76.481206371674
 42
0.0
  0
SEQEND
  0
POLYLINE
  8
Oletusarvo
 66
     1
 10
0.0
 20
0.0
 30
0.0
 70
     1
  0
VERTEX
  8
Oletusarvo
 10
676.430259991492
 20
245.135023867402
 42
0.0
  0
SEQEND
  0
POLYLINE
  8
Oletusarvo
 66
     1
 10
0.0
 20
0.0
 30
0.0
 70
     1
  0
VERTEX
  8
Oletusarvo
 10
676.430256745121
 20
245.135024406106
 42
0.0
  0
SEQEND
  0
POLYLINE
  8
Oletusarvo
 66
     1
 10
0.0
 20
0.0
 30
0.0
 70
     1
  0
VERTEX
  8
Oletusarvo
 10
676.430511555093
 20
245.136539854197
 42
0.0
  0
SEQEND
  0
POLYLINE
  8
Oletusarvo
 66
     1
 10
0.0
 20
0.0
 30
0.0
 70
     1
  0
VERTEX
  8
Oletusarvo
 10
676.430256745121
 20
245.135024406106
 42
0.0000732082443
  0
SEQEND
  0
POLYLINE
  8
Oletusarvo
 66
     1
 10
0.0
 20
0.0
 30
0.0
 70
     1
  0
VERTEX
  8
Oletusarvo
 10
200.593465817043
 20
531.06761550639
 42
0.0
  0
VERTEX
  8
Oletusarvo
 10
201.261806517821
 20
519.001352363052
 42
0.0229510942812
  0
VERTEX
  8
Oletusarvo
 10
203.279498164024
 20
492.431895225557
 42
-0.0815707129148
  0
VERTEX
  8
Oletusarvo
 10
203.66180651782
 20
323.401352363052
 42
0.0
  0
VERTEX
  8
Oletusarvo
 10
191.314359531469
 20
286.498568020897
 42
0.3565753705729
  0
VERTEX
  8
Oletusarvo
 10
204.764080876321
 20
250.998701149025
 42
0.5077150954925
  0
VERTEX
  8
Oletusarvo
 10
249.072139270451
 20
270.573394798499
 42
0.0
  0
VERTEX
  8
Oletusarvo
 10
254.06180651782
 20
293.401352363052
 42
0.0640362868778
  0
VERTEX
  8
Oletusarvo
 10
252.697401836446
 20
448.135283739372
 42
0.0184013747431
  0
VERTEX
  8
Oletusarvo
 10
238.910562856076
 20
533.562022004765
 42
0.5527189526929
  0
VERTEX
  8
Oletusarvo
 10
210.164080876321
 20
548.757149881219
 42
0.2828316687159
  0
SEQEND
  0
CIRCLE
  8
Oletusarvo
 10
266.901228573503
 20
307.009138239653
 30
0.0
 40
5.4287795300424
  0
CIRCLE
  8
Oletusarvo
 10
266.901228573503
 20
307.009138239653
 30
0.0
 40
5.4292729601548
  0
CIRCLE
  8
Oletusarvo
 10
219.764080876321
 20
532.129462128558
 30
0.0
 40
11.4877663459575
  0
POLYLINE
  8
Oletusarvo
 66
     1
 10
0.0
 20
0.0
 30
0.0
 70
     1
  0
VERTEX
  8
Oletusarvo
 10
225.820364072836
 20
454.572166922187
 42
0.3801042607829
  0
VERTEX
  8
Oletusarvo
 10
221.109192705562
 20
449.372597481086
 42
-0.0247220307758
  0
VERTEX
  8
Oletusarvo
 10
222.821539072904
 20
402.607339376628
 42
0.0386233234258
  0
VERTEX
  8
Oletusarvo
 10
222.895576087894
 20
401.585063695176
 42
0.0428321898617
  0
VERTEX
  8
Oletusarvo
 10
223.139195767216
 20
400.589374069094
 42
0.0426396589592
  0
VERTEX
  8
Oletusarvo
 10
223.547875906372
 20
399.649045236832
 42
0.0421217423868
  0
VERTEX
  8
Oletusarvo
 10
224.107816540041
 20
398.789955150853
 42
0.0235294547106
  0
VERTEX
  8
Oletusarvo
 10
224.440293855244
 20
398.3995702854
 42
0.0230663280356
  0
VERTEX
  8
Oletusarvo
 10
224.80455787949
 20
398.038496747744
 42
0.0412936035588
  0
VERTEX
  8
Oletusarvo
 10
225.61704994846
 20
397.413820999787
 42
0.0426988846534
  0
VERTEX
  8
Oletusarvo
 10
226.522287440336
 20
396.936108847523
 42
0.042340155304
  0
VERTEX
  8
Oletusarvo
 10
227.494513102062
 20
396.615820906058
 42
0.058168743143
  0
VERTEX
  8
Oletusarvo
 10
228.899808229397
 20
396.451122544292
 42
0.0
  0
VERTEX
  8
Oletusarvo
 10
228.899767996156
 20
396.451476595831
 42
0.0001889575105
  0
VERTEX
  8
Oletusarvo
 10
232.492699351923
 20
396.45145456023
 42
0.0003272980053
  0
VERTEX
  8
Oletusarvo
 10
236.085631220788
 20
396.451444409524
 42
0.0000471474628
  0
VERTEX
  8
Oletusarvo
 10
236.197390823315
 20
396.45144440952
 42
0.0
  0
VERTEX
  8
Oletusarvo
 10
236.197431056204
 20
396.451090358134
 42
0.0
  0
VERTEX
  8
Oletusarvo
 10
236.197439103077
 20
396.3936696276
 42
0.0529636994133
  0
VERTEX
  8
Oletusarvo
 10
237.466609441312
 20
396.526342413718
 42
0.0402129877516
  0
VERTEX
  8
Oletusarvo
 10
238.456248003885
 20
396.825161954321
 42
0.043020795646
  0
VERTEX
  8
Oletusarvo
 10
239.38214923392
 20
397.284817475579
 42
0.0404573202268
  0
VERTEX
  8
Oletusarvo
 10
240.217260371413
 20
397.894558683808
 42
0.0229338258445
  0
VERTEX
  8
Oletusarvo
 10
240.5937124958
 20
398.249454591254
 42
0.0243827899315
  0
VERTEX
  8
Oletusarvo
 10
240.939010627605
 20
398.634880555138
 42
0.0197980434519
  0
VERTEX
  8
Oletusarvo
 10
241.250004205071
 20
399.048381999896
 42
0.0177960145108
  0
VERTEX
  8
Oletusarvo
 10
241.52519131195
 20
399.486664303793
 42
0.0430937665701
  0
VERTEX
  8
Oletusarvo
 10
241.961157563293
 20
400.424096350331
 42
0.0390710413788
  0
VERTEX
  8
Oletusarvo
 10
242.232433499646
 20
401.421652793881
 42
0.0474722941812
  0
VERTEX
  8
Oletusarvo
 10
242.333700300612
 20
402.450237031384
 42
0.0569211457848
  0
VERTEX
  8
Oletusarvo
 10
237.54961039891
 20
449.736465954618
 42
0.151023800123
  0
VERTEX
  8
Oletusarvo
 10
235.279453535269
 20
453.310040288852
 42
0.0349479787743
  0
VERTEX
  8
Oletusarvo
 10
234.523788964985
 20
453.804132467149
 42
0.0441116532122
  0
VERTEX
  8
Oletusarvo
 10
233.581730107917
 20
454.22687006369
 42
0.0413933868328
  0
VERTEX
  8
Oletusarvo
 10
232.581671163368
 20
454.484523060515
 42
0.0211057070963
  0
VERTEX
  8
Oletusarvo
 10
232.068768631851
 20
454.5500196791
 42
0.0191970141268
  0
VERTEX
  8
Oletusarvo
 10
231.81080305444
 20
454.566575278638
 42
0.0144223750075
  0
VERTEX
  8
Oletusarvo
 10
231.681547373469
 20
454.570741662865
 42
0.0153938358761
  0
VERTEX
  8
Oletusarvo
 10
231.552266170108
 20
454.572134735388
 42
-0.0000611967364
  0
VERTEX
  8
Oletusarvo
 10
228.686315121607
 20
454.57213473539
 42
0.0000801980707
  0
VERTEX
  8
Oletusarvo
 10
227.25333959735
 20
454.572166921898
 42
0.0000674086633
  0
SEQEND
  0
CIRCLE
  8
Oletusarvo
 10
111.764081356321
 20
532.129462128558
 30
0.0
 40
3.08227925228
  0
CIRCLE
  8
Oletusarvo
 10
219.764080876321
 20
532.129462128558
 30
0.0
 40
2.0241720980149
  0
CIRCLE
  8
Oletusarvo
 10
111.764081356321
 20
276.979463262558
 30
0.0
 40
2.3404130403177
  0
CIRCLE
  8
Oletusarvo
 10
111.764081356321
 20
276.979463262558
 30
0.0
 40
16.8
  0
CIRCLE
  8
Oletusarvo
 10
111.764081356321
 20
532.129462128558
 30
0.0
 40
2.5026371309499
  0
CIRCLE
  8
Oletusarvo
 10
111.764081356321
 20
276.979463262558
 30
0.0
 40
2.952217257671
  0
POLYLINE
  8
Oletusarvo
 66
     1
 10
0.0
 20
0.0
 30
0.0
 70
     1
  0
VERTEX
  8
Oletusarvo
 10
124.421031757657
 20
520.930301573848
 42
0.1296468166274
  0
VERTEX
  8
Oletusarvo
 10
119.324080387902
 20
501.956910860573
 42
0.0
  0
VERTEX
  8
Oletusarvo
 10
119.324080389601
 20
501.603639634049
 42
0.0
  0
VERTEX
  8
Oletusarvo
 10
119.324081322721
 20
307.505288668746
 42
0.1224156407514
  0
VERTEX
  8
Oletusarvo
 10
124.715537711853
 20
287.434371533071
 42
-0.1714351930626
  0
VERTEX
  8
Oletusarvo
 10
128.408760045743
 20
276.979463262558
 42
-0.5773502691896
  0
VERTEX
  8
Oletusarvo
 10
103.44174201161
 20
262.564748679689
 42
-0.4686409059266
  0
VERTEX
  8
Oletusarvo
 10
99.0958367331018
 20
287.775800921245
 42
0.1069128398279
  0
VERTEX
  8
Oletusarvo
 10
104.204082001741
 20
307.505284726747
 42
0.0
  0
VERTEX
  8
Oletusarvo
 10
104.204082001741
 20
501.603639634048
 42
0.0
  0
VERTEX
  8
Oletusarvo
 10
104.204082001741
 20
501.828509992578
 42
0.1437022296611
  0
VERTEX
  8
Oletusarvo
 10
98.2072298814487
 20
522.038309137928
 42
-0.4486966407411
  0
VERTEX
  8
Oletusarvo
 10
103.313939484848
 20
546.765537181114
 42
-0.5773502691896
  0
VERTEX
  8
Oletusarvo
 10
128.664365099266
 20
532.129462128558
 42
-0.1830975120369
  0
SEQEND
  0
CIRCLE
  8
Oletusarvo
 10
219.764080876321
 20
532.129462128558
 30
0.0
 40
1.8568705754208
  0
CIRCLE
  8
Oletusarvo
 10
148.245326172523
 20
570.156658545268
 30
0.0
 40
1.5577379295493
  0
CIRCLE
  8
Oletusarvo
 10
219.764080876321
 20
532.129462128558
 30
0.0
 40
0.6782135475437
  0
CIRCLE
  8
Oletusarvo
 10
281.813680493265
 20
584.195258281775
 30
0.0
 40
1.1196762898872
  0
CIRCLE
  8
Oletusarvo
 10
281.813680493265
 20
584.195258281775
 30
0.0
 40
3.1569429125747
  0
POLYLINE
  8
Oletusarvo
 66
     1
 10
0.0
 20
0.0
 30
0.0
 70
     1
  0
VERTEX
  8
Oletusarvo
 10
271.55333621276
 20
592.112766333713
 42
0.5408866433733
  0
VERTEX
  8
Oletusarvo
 10
278.673431185773
 20
571.621458824418
 42
0.1607887447583
  0
VERTEX
  8
Oletusarvo
 10
286.776355552215
 20
572.223063213028
 42
-0.0985567151141
  0
VERTEX
  8
Oletusarvo
 10
315.725293397446
 20
577.985258309375
 42
0.0
  0
VERTEX
  8
Oletusarvo
 10
524.652063129344
 20
577.985248734635
 42
-0.0985567151141
  0
VERTEX
  8
Oletusarvo
 10
553.601004204082
 20
572.223063213034
 42
1.4970249731713
  0
VERTEX
  8
Oletusarvo
 10
553.601004204082
 20
596.167453350515
 42
-0.0985567151141
  0
VERTEX
  8
Oletusarvo
 10
524.652063129344
 20
590.405249709215
 42
0.0
  0
VERTEX
  8
Oletusarvo
 10
315.725287410466
 20
590.405249709215
 42
-0.0985567151141
  0
VERTEX
  8
Oletusarvo
 10
286.776355552448
 20
596.167453350515
 42
0.3387675716267
  0
SEQEND
  0
POLYLINE
  8
Oletusarvo
 66
     1
 10
0.0
 20
0.0
 30
0.0
 70
     1
  0
VERTEX
  8
Oletusarvo
 10
204.661999752101
 20
548.188846412503
 42
0.0
  0
VERTEX
  8
Oletusarvo
 10
231.197234836327
 20
550.977805259813
 42
0.149450649241
  0
VERTEX
  8
Oletusarvo
 10
239.917008531313
 20
554.679127012198
 42
0.0
  0
VERTEX
  8
Oletusarvo
 10
260.284067126363
 20
571.76912711091
 42
0.7399602255294
  0
VERTEX
  8
Oletusarvo
 10
257.257433408804
 20
578.899409935912
 42
0.0
  0
VERTEX
  8
Oletusarvo
 10
173.36602197723
 20
570.082077724193
 42
0.7399608129364
  0
VERTEX
  8
Oletusarvo
 10
171.888003455063
 20
562.478336333594
 42
0.0
  0
VERTEX
  8
Oletusarvo
 10
195.363199687278
 20
549.996343394515
 42
0.1494505207698
  0
SEQEND
  0
POLYLINE
  8
Oletusarvo
 66
     1
 10
0.0
 20
0.0
 30
0.0
 70
     1
  0
VERTEX
  8
Oletusarvo
 10
155.684928199627
 20
581.409643459601
 42
0.2842423976616
  0
VERTEX
  8
Oletusarvo
 10
141.50037717709
 20
581.839252899816
 42
0.5773502691896
  0
VERTEX
  8
Oletusarvo
 10
141.50037717709
 20
558.47406419072
 42
0.1749663156642
  0
VERTEX
  8
Oletusarvo
 10
150.51764854749
 20
556.859519799353
 42
0.0295293437653
  0
VERTEX
  8
Oletusarvo
 10
152.068345181763
 20
557.219816834137
 42
-0.1168412630896
  0
VERTEX
  8
Oletusarvo
 10
158.94439437937
 20
556.823005939328
 42
0.0
  0
VERTEX
  8
Oletusarvo
 10
194.5193833167
 20
537.907445777598
 42
-0.1667720533346
  0
VERTEX
  8
Oletusarvo
 10
203.95443485262
 20
527.884464329478
 42
-0.0047358504884
  0
VERTEX
  8
Oletusarvo
 10
204.147205230128
 20
527.547546640268
 42
0.192789430786
  0
VERTEX
  8
Oletusarvo
 10
211.626502082686
 20
518.034762207386
 42
0.5544265216908
  0
VERTEX
  8
Oletusarvo
 10
236.0
 20
531.0
 42
-0.1738109314858
  0
VERTEX
  8
Oletusarvo
 10
243.255811569114
 20
543.029864158612
 42
0.0
  0
VERTEX
  8
Oletusarvo
 10
274.120633070474
 20
568.928525862814
 42
-0.1424353064283
  0
VERTEX
  8
Oletusarvo
 10
282.293742061803
 20
572.565161941228
 42
0.4021814896269
  0
VERTEX
  8
Oletusarvo
 10
293.453680493265
 20
584.195258281775
 42
0.5773502691896
  0
VERTEX
  8
Oletusarvo
 10
275.993680493265
 20
594.275793981826
 42
0.0027051680152
  0
VERTEX
  8
Oletusarvo
 10
275.900225706265
 20
594.186411932944
 42
0.012824608032
  0
VERTEX
  8
Oletusarvo
 10
275.378529557492
 20
593.894661997148
 42
-0.0954558466769
  0
VERTEX
  8
Oletusarvo
 10
264.970273766751
 20
590.569561926701
 42
0.0
  0
VERTEX
  8
Oletusarvo
 10
163.395372027568
 20
579.893618982373
 42
-0.1233194158866
  0
VERTEX
  8
Oletusarvo
 10
155.684928199627
 20
581.409643459601
 42
-0.016152530944
  0
VERTEX
  8
Oletusarvo
 10
154.75443485262
 20
581.884464329478
 42
0.0
  0
SEQEND
  0
CIRCLE
  8
Oletusarvo
 10
496.514079646321
 20
532.129462128558
 30
0.0
 40
0.6883260753543
  0
POLYLINE
  8
Oletusarvo
 66
     1
 10
0.0
 20
0.0
 30
0.0
 70
     1
  0
VERTEX
  8
Oletusarvo
 10
148.964080876321
 20
143.779463214564
 42
0.0
  0
VERTEX
  8
Oletusarvo
 10
214.964080876321
 20
143.779463214564
 42
0.0
  0
VERTEX
  8
Oletusarvo
 10
214.964080876321
 20
160.579463214564
 42
0.0
  0
VERTEX
  8
Oletusarvo
 10
148.964080876321
 20
160.579463214564
 42
0.0
  0
SEQEND
  0
POLYLINE
  8
Oletusarvo
 66
     1
 10
0.0
 20
0.0
 30
0.0
 70
     1
  0
VERTEX
  8
Oletusarvo
 10
82.9640808763209
 20
143.779463214564
 42
0.0
  0
VERTEX
  8
Oletusarvo
 10
148.964080876321
 20
143.779463214564
 42
0.0
  0
VERTEX
  8
Oletusarvo
 10
148.964080876321
 20
160.579463214564
 42
0.0
  0
VERTEX
  8
Oletusarvo
 10
82.9640808763209
 20
160.579463214564
 42
0.0
  0
SEQEND
  0
POLYLINE
  8
Oletusarvo
 66
     1
 10
0.0
 20
0.0
 30
0.0
 70
     1
  0
VERTEX
  8
Oletusarvo
 10
15.7640808763208
 20
164.179463214564
 42
0.0
  0
VERTEX
  8
Oletusarvo
 10
256.964080876321
 20
164.179463214564
 42
0.0
  0
VERTEX
  8
Oletusarvo
 10
256.964080876321
 20
182.179463214564
 42
0.0
  0
VERTEX
  8
Oletusarvo
 10
15.7640808763208
 20
182.179463214564
 42
0.0
  0
SEQEND
  0
POLYLINE
  8
Oletusarvo
 66
     1
 10
0.0
 20
0.0
 30
0.0
 70
     1
  0
VERTEX
  8
Oletusarvo
 10
18.1640808763207
 20
183.379463214564
 42
0.0
  0
VERTEX
  8
Oletusarvo
 10
85.3640808763207
 20
183.379463214564
 42
0.0
  0
VERTEX
  8
Oletusarvo
 10
85.3640808763207
 20
264.979463214564
 42
0.0
  0
VERTEX
  8
Oletusarvo
 10
18.1640808763207
 20
264.979463214564
 42
0.0
  0
SEQEND
  0
POLYLINE
  8
Oletusarvo
 66
     1
 10
0.0
 20
0.0
 30
0.0
 70
     0
  0
VERTEX
  8
Oletusarvo
 10
51.7640808763208
 20
224.179463214564
 42
0.0
  0
VERTEX
  8
Oletusarvo
 10
51.7640808763208
 20
142.579463214564
 42
0.0
  0
SEQEND
  0
POLYLINE
  8
Oletusarvo
 66
     1
 10
0.0
 20
0.0
 30
0.0
 70
     1
  0
VERTEX
  8
Oletusarvo
 10
37.3640808763207
 20
143.779463214564
 42
0.0
  0
VERTEX
  8
Oletusarvo
 10
66.1640808763207
 20
143.779463214564
 42
0.0
  0
VERTEX
  8
Oletusarvo
 10
66.1640808763207
 20
170.179463214564
 42
0.0
  0
VERTEX
  8
Oletusarvo
 10
37.3640808763207
 20
170.179463214564
 42
0.0
  0
SEQEND
  0
CIRCLE
  8
Oletusarvo
 10
148.245326172523
 20
570.156658545268
 30
0.0
 40
3.0
  0
POLYLINE
  8
Oletusarvo
 66
     1
 10
0.0
 20
0.0
 30
0.0
 70
     0
  0
VERTEX
  8
Oletusarvo
 10
143.107052129345
 20
530.625992228959
 42
0.0
  0
VERTEX
  8
Oletusarvo
 10
149.488248857802
 20
546.17324189604
 42
-0.0543300582879
  0
VERTEX
  8
Oletusarvo
 10
157.313374558244
 20
560.564448243455
 42
0.2062210617565
  0
VERTEX
  8
Oletusarvo
 10
161.445326172523
 20
570.156658545268
 42
0.5773502691896
  0
VERTEX
  8
Oletusarvo
 10
141.645326172523
 20
581.588193875222
 42
0.3275596107151
  0
VERTEX
  8
Oletusarvo
 10
135.360558013938
 20
567.289124848949
 42
-0.0677634085169
  0
VERTEX
  8
Oletusarvo
 10
133.957264884064
 20
557.187131904551
 42
0.0
  0
VERTEX
  8
Oletusarvo
 10
132.949160688061
 20
553.591474703194
 42
0.0
  0
VERTEX
  8
Oletusarvo
 10
126.752191126288
 20
531.488423927595
 42
0.0684438317498
  0
VERTEX
  8
Oletusarvo
 10
123.945326676883
 20
511.079605091792
 42
0.0
  0
VERTEX
  8
Oletusarvo
 10
123.945326676883
 20
374.083688142084
 42
0.0684438122234
  0
VERTEX
  8
Oletusarvo
 10
126.84392707475
 20
353.700614049605
 42
0.0
  0
VERTEX
  8
Oletusarvo
 10
131.57112515159
 20
336.839875031172
 42
0.0
  0
VERTEX
  8
Oletusarvo
 10
132.816922049986
 20
332.411848374944
 42
0.0
  0
VERTEX
  8
Oletusarvo
 10
133.513606475449
 20
329.951475926072
 42
-0.0086522213238
  0
VERTEX
  8
Oletusarvo
 10
133.921176523328
 20
328.512123932344
 42
-0.0353288484412
  0
VERTEX
  8
Oletusarvo
 10
135.061475404575
 20
322.518535868576
 42
0.0
  0
VERTEX
  8
Oletusarvo
 10
135.045356791779
 20
315.035091130669
 42
0.2685264114016
  0
VERTEX
  8
Oletusarvo
 10
141.645326172523
 20
303.575124349314
 42
0.5773502691896
  0
VERTEX
  8
Oletusarvo
 10
161.445326172523
 20
315.006659679268
 42
0.1566011489113
  0
VERTEX
  8
Oletusarvo
 10
158.978096727447
 20
322.690905654986
 42
0.0
  0
VERTEX
  8
Oletusarvo
 10
154.709814435728
 20
328.652517847703
 42
0.0
  0
VERTEX
  8
Oletusarvo
 10
154.577037082129
 20
328.837971160308
 42
-0.0485914351613
  0
VERTEX
  8
Oletusarvo
 10
149.488204638998
 20
338.990175166855
 42
0.0
  0
VERTEX
  8
Oletusarvo
 10
143.107052129345
 20
354.537325995037
 42
-0.0976770209718
  0
VERTEX
  8
Oletusarvo
 10
137.445325812283
 20
383.242680869098
 42
0.0
  0
VERTEX
  8
Oletusarvo
 10
137.445325812283
 20
501.920644552019
 42
-0.0976767678152
  0
VERTEX
  8
Oletusarvo
 10
143.018913956799
 20
530.662167530722
 42
0.0
  0
VERTEX
  8
Oletusarvo
 10
147.953985321978
 20
542.686080066199
 42
0.0
  0
SEQEND
  0
POLYLINE
  8
Oletusarvo
 66
     1
 10
0.0
 20
0.0
 30
0.0
 70
     1
  0
VERTEX
  8
Oletusarvo
 10
128.370331824776
 20
510.559728614224
 42
0.0
  0
VERTEX
  8
Oletusarvo
 10
128.370331930102
 20
374.603574058853
 42
0.0684438550117
  0
VERTEX
  8
Oletusarvo
 10
131.153249729327
 20
354.368888706464
 42
0.0
  0
VERTEX
  8
Oletusarvo
 10
137.455742934871
 20
331.889464742195
 42
0.4640952321838
  0
VERTEX
  8
Oletusarvo
 10
141.061125823351
 20
330.242849452885
 42
-0.0546523037005
  0
VERTEX
  8
Oletusarvo
 10
144.532844987824
 20
331.437475146798
 42
0.4640950184856
  0
VERTEX
  8
Oletusarvo
 10
146.361586251854
 20
334.953987059094
 42
0.0
  0
VERTEX
  8
Oletusarvo
 10
138.730351311892
 20
353.54686555076
 42
-0.0976770209718
  0
VERTEX
  8
Oletusarvo
 10
133.020320570942
 20
382.497136663451
 42
0.0
  0
VERTEX
  8
Oletusarvo
 10
133.020320570942
 20
502.666194433622
 42
-0.0976769783613
  0
VERTEX
  8
Oletusarvo
 10
138.730351023151
 20
531.616464035958
 42
0.0
  0
VERTEX
  8
Oletusarvo
 10
146.361586342619
 20
550.20933447651
 42
0.4640952321838
  0
VERTEX
  8
Oletusarvo
 10
144.532844987824
 20
553.725843077738
 42
-0.0546523037005
  0
VERTEX
  8
Oletusarvo
 10
141.061125823414
 20
554.920468771492
 42
0.4640952321838
  0
VERTEX
  8
Oletusarvo
 10
137.455743176876
 20
553.273864071302
 42
0.0
  0
VERTEX
  8
Oletusarvo
 10
131.153248468027
 20
530.794426281125
 42
0.0684438178996
  0
SEQEND
  0
CIRCLE
  8
Oletusarvo
 10
148.245326172523
 20
315.006659679268
 30
0.0
 40
2.13299999052
  0
CIRCLE
  8
Oletusarvo
 10
558.563679263265
 20
584.195258281775
 30
0.0
 40
0.372839402413
  0
CIRCLE
  8
Oletusarvo
 10
-82.0
 20
919.0
 30
0.0
 40
4.0
  0
CIRCLE
  8
Oletusarvo
 10
-35.0
 20
937.8
 30
0.0
 40
4.0
  0
CIRCLE
  8
Oletusarvo
 10
10.6000000000001
 20
918.6
 30
0.0
 40
4.0
  0
CIRCLE
  8
Oletusarvo
 10
165.058966547484
 20
615.567688290374
 30
0.0
 40
6.0
  0
CIRCLE
  8
Oletusarvo
 10
98.0
 20
661.0
 30
0.0
 40
6.0
  0
CIRCLE
  8
Oletusarvo
 10
30.7551630908564
 20
615.843252433836
 30
0.0
 40
6.0
  0
POLYLINE
  8
Oletusarvo
 66
     1
 10
0.0
 20
0.0
 30
0.0
 70
     1
  0
VERTEX
  8
Oletusarvo
 10
111.304650526775
 20
643.422657987561
 42
0.0
  0
VERTEX
  8
Oletusarvo
 10
84.6233088305491
 20
643.477409391763
 42
0.149450649241
  0
VERTEX
  8
Oletusarvo
 10
75.5587459556982
 20
640.726421224882
 42
0.0
  0
VERTEX
  8
Oletusarvo
 10
53.4864102788424
 20
625.904235928631
 42
0.7399602255294
  0
VERTEX
  8
Oletusarvo
 10
55.7359426640554
 20
618.492012991302
 42
0.0
  0
VERTEX
  8
Oletusarvo
 10
140.089272772895
 20
618.318926705126
 42
0.7399608129364
  0
VERTEX
  8
Oletusarvo
 10
142.369196034285
 20
625.72185665273
 42
0.0
  0
VERTEX
  8
Oletusarvo
 10
120.357874228139
 20
640.634492174946
 42
0.1494505207698
  0
SEQEND
  0
POLYLINE
  8
Oletusarvo
 66
     1
 10
0.0
 20
0.0
 30
0.0
 70
     1
  0
VERTEX
  8
Oletusarvo
 10
156.462513535886
 20
605.171614828567
 42
0.2842423976616
  0
VERTEX
  8
Oletusarvo
 10
170.520505277939
 20
603.23282134745
 42
0.5773502691896
  0
VERTEX
  8
Oletusarvo
 10
173.01050530713
 20
626.464953046162
 42
0.1749663156642
  0
VERTEX
  8
Oletusarvo
 10
164.216644362256
 20
629.031262895217
 42
0.0295293437653
  0
VERTEX
  8
Oletusarvo
 10
162.636382010471
 20
628.838273505989
 42
-0.1168412630896
  0
VERTEX
  8
Oletusarvo
 10
155.841777294775
 20
629.965596978458
 42
0.0
  0
VERTEX
  8
Oletusarvo
 10
122.485184608065
 20
652.56462302951
 42
-0.1667720533346
  0
VERTEX
  8
Oletusarvo
 10
114.171999630765
 20
663.536009000663
 42
-0.0047358504884
  0
VERTEX
  8
Oletusarvo
 10
114.016231929198
 20
663.891551362267
 42
0.192789430786
  0
VERTEX
  8
Oletusarvo
 10
107.593293178507
 20
674.147223299301
 42
0.5544265216908
  0
VERTEX
  8
Oletusarvo
 10
81.9769044770383
 20
663.853272568918
 42
-0.1738109314858
  0
VERTEX
  8
Oletusarvo
 10
73.4804042119445
 20
652.665157604975
 42
0.0
  0
VERTEX
  8
Oletusarvo
 10
40.0313584496034
 20
630.203207067046
 42
-0.1424353064283
  0
VERTEX
  8
Oletusarvo
 10
31.5172406783894
 20
627.458278811359
 42
0.4021814896269
  0
VERTEX
  8
Oletusarvo
 10
19.1814490353074
 20
617.083713219349
 42
0.5773502691896
  0
VERTEX
  8
Oletusarvo
 10
35.4677495659774
 20
605.199891652837
 42
0.0027051680152
  0
VERTEX
  8
Oletusarvo
 10
35.5701974962554
 20
605.278805336425
 42
0.012824608032
  0
VERTEX
  8
Oletusarvo
 10
36.1200141976564
 20
605.513297322517
 42
-0.0954558466769
  0
VERTEX
  8
Oletusarvo
 10
46.8233503303314
 20
607.7102667613
 42
0.0
  0
VERTEX
  8
Oletusarvo
 10
148.957539034848
 20
607.500698763972
 42
-0.1233194158866
  0
VERTEX
  8
Oletusarvo
 10
156.462513535886
 20
605.171614828567
 42
-0.016152530944
  0
VERTEX
  8
Oletusarvo
 10
157.33710694307
 20
604.600336350585
 42
0.0
  0
SEQEND
  0
CIRCLE
  8
Oletusarvo
 10
147.172803535297
 20
873.881245296202
 30
0.0
 40
3.0
  0
CIRCLE
  8
Oletusarvo
 10
-107.977195330704
 20
873.881245296202
 30
0.0
 40
3.0
  0
POLYLINE
  8
Oletusarvo
 66
     1
 10
0.0
 20
0.0
 30
0.0
 70
     1
  0
VERTEX
  8
Oletusarvo
 10
-68.482704316157
 20
868.654833080479
 42
0.0
  0
VERTEX
  8
Oletusarvo
 10
-83.993778681476
 20
875.124167981481
 42
-0.0543300582879
  0
VERTEX
  8
Oletusarvo
 10
-98.384985028891
 20
882.949293681923
 42
0.2062210617565
  0
VERTEX
  8
Oletusarvo
 10
-107.977195330704
 20
887.081245296202
 42
0.5773502691896
  0
VERTEX
  8
Oletusarvo
 10
-119.408730660658
 20
867.281245296202
 42
0.3275596107151
  0
VERTEX
  8
Oletusarvo
 10
-105.109661634385
 20
860.996477137617
 42
-0.0677634085169
  0
VERTEX
  8
Oletusarvo
 10
-95.007668689987
 20
859.593184007744
 42
0.0
  0
VERTEX
  8
Oletusarvo
 10
-91.41201148863
 20
858.58507981174
 42
0.0
  0
VERTEX
  8
Oletusarvo
 10
-69.30896071303
 20
852.388110249968
 42
0.0684438317498
  0
VERTEX
  8
Oletusarvo
 10
-48.900141877228
 20
849.581245800562
 42
0.0
  0
VERTEX
  8
Oletusarvo
 10
88.0957750724801
 20
849.581245800562
 42
0.0684438122234
  0
VERTEX
  8
Oletusarvo
 10
108.478849164959
 20
852.479846198429
 42
0.0
  0
VERTEX
  8
Oletusarvo
 10
125.339588183392
 20
857.207044275269
 42
0.0
  0
VERTEX
  8
Oletusarvo
 10
129.76761483962
 20
858.452841173666
 42
0.0
  0
VERTEX
  8
Oletusarvo
 10
132.227987288492
 20
859.149525599128
 42
-0.0086522213238
  0
VERTEX
  8
Oletusarvo
 10
133.66733928222
 20
859.557095647007
 42
-0.0353288484412
  0
VERTEX
  8
Oletusarvo
 10
139.660927345988
 20
860.697394528255
 42
0.0
  0
VERTEX
  8
Oletusarvo
 10
147.144372083895
 20
860.681275915458
 42
0.2685264114016
  0
VERTEX
  8
Oletusarvo
 10
158.60433886525
 20
867.281245296202
 42
0.5773502691896
  0
VERTEX
  8
Oletusarvo
 10
147.172803535297
 20
887.081245296202
 42
0.1566011489113
  0
VERTEX
  8
Oletusarvo
 10
139.488557559578
 20
884.614015851126
 42
0.0
  0
VERTEX
  8
Oletusarvo
 10
133.526945366861
 20
880.345733559407
 42
0.0
  0
VERTEX
  8
Oletusarvo
 10
133.341492054256
 20
880.212956205808
 42
-0.0485914351613
  0
VERTEX
  8
Oletusarvo
 10
123.189288047709
 20
875.124123762677
 42
0.0
  0
VERTEX
  8
Oletusarvo
 10
107.642137219527
 20
868.742971253024
 42
-0.0976770209718
  0
VERTEX
  8
Oletusarvo
 10
78.9367823454663
 20
863.081244935962
 42
0.0
  0
VERTEX
  8
Oletusarvo
 10
-39.741181337455
 20
863.081244935962
 42
-0.0976767678152
  0
VERTEX
  8
Oletusarvo
 10
-68.482704316157
 20
868.654833080479
 42
0.0
  0
SEQEND
  0
POLYLINE
  8
Oletusarvo
 66
     1
 10
0.0
 20
0.0
 30
0.0
 70
     1
  0
VERTEX
  8
Oletusarvo
 10
-48.38026539966
 20
854.006250948455
 42
0.0
  0
VERTEX
  8
Oletusarvo
 10
87.5758891557111
 20
854.006251053782
 42
0.0684438550117
  0
VERTEX
  8
Oletusarvo
 10
107.8105745081
 20
856.789168853007
 42
0.0
  0
VERTEX
  8
Oletusarvo
 10
130.289998472369
 20
863.09166205855
 42
0.4640952321838
  0
VERTEX
  8
Oletusarvo
 10
131.936613761679
 20
866.69704494703
 42
-0.0546523037005
  0
VERTEX
  8
Oletusarvo
 10
130.741988067766
 20
870.168764111504
 42
0.4640950184856
  0
VERTEX
  8
Oletusarvo
 10
127.22547615547
 20
871.997505375533
 42
0.0
  0
VERTEX
  8
Oletusarvo
 10
108.632597663804
 20
864.366270435572
 42
-0.0976770209718
  0
VERTEX
  8
Oletusarvo
 10
79.6823265511134
 20
858.656239694621
 42
0.0
  0
VERTEX
  8
Oletusarvo
 10
-40.486731219058
 20
858.656239694621
 42
-0.0976769783613
  0
VERTEX
  8
Oletusarvo
 10
-69.437000821394
 20
864.36627014683
 42
0.0
  0
VERTEX
  8
Oletusarvo
 10
-88.029871261946
 20
871.997505466299
 42
0.4640952321838
  0
VERTEX
  8
Oletusarvo
 10
-91.546379863174
 20
870.168764111504
 42
-0.0546523037005
  0
VERTEX
  8
Oletusarvo
 10
-92.741005556928
 20
866.697044947094
 42
0.4640952321838
  0
VERTEX
  8
Oletusarvo
 10
-91.094400856739
 20
863.091662300555
 42
0.0
  0
VERTEX
  8
Oletusarvo
 10
-68.614963066561
 20
856.789167591706
 42
0.0684438178996
  0
SEQEND
  0
CIRCLE
  8
Oletusarvo
 10
124.55500220092
 20
765.159644793701
 30
0.0
 40
5.0
  0
CIRCLE
  8
Oletusarvo
 10
72.4892060477032
 20
827.209244410646
 30
0.0
 40
3.0
  0
POLYLINE
  8
Oletusarvo
 66
     1
 10
0.0
 20
0.0
 30
0.0
 70
     1
  0
VERTEX
  8
Oletusarvo
 10
94.5055912665725
 20
818.229136468836
 42
-0.0024156881762
  0
VERTEX
  8
Oletusarvo
 10
94.9310991245225
 20
818.06517547849
 42
-0.0037773568146
  0
VERTEX
  8
Oletusarvo
 10
95.3033007907779
 20
817.921408005338
 42
-0.0043114491307
  0
VERTEX
  8
Oletusarvo
 10
95.6288004883049
 20
817.795169919557
 42
-0.0044655575738
  0
VERTEX
  8
Oletusarvo
 10
95.9134194881958
 20
817.684232356102
 42
-0.0064482706396
  0
VERTEX
  8
Oletusarvo
 10
97.8967939397176
 20
816.885317571836
 42
0.0
  0
VERTEX
  8
Oletusarvo
 10
98.3175538285554
 20
816.707391131919
 42
0.0
  0
VERTEX
  8
Oletusarvo
 10
99.0511974363544
 20
816.38962131515
 42
0.0
  0
VERTEX
  8
Oletusarvo
 10
99.5994864665513
 20
816.146831218653
 42
-0.0019751779504
  0
VERTEX
  8
Oletusarvo
 10
101.237592541278
 20
815.403064503776
 42
-0.0054813371423
  0
VERTEX
  8
Oletusarvo
 10
101.653162970421
 20
815.211840380776
 42
-0.0043336549232
  0
VERTEX
  8
Oletusarvo
 10
102.016596068272
 20
815.044150870678
 42
0.0
  0
VERTEX
  8
Oletusarvo
 10
104.55804926976
 20
813.864871284753
 42
0.0
  0
VERTEX
  8
Oletusarvo
 10
105.535489454975
 20
813.411666502456
 42
0.0026452067818
  0
VERTEX
  8
Oletusarvo
 10
105.902456728673
 20
813.242582966097
 42
0.0037019648663
  0
VERTEX
  8
Oletusarvo
 10
106.223845908358
 20
813.095274857279
 42
0.0040910534395
  0
VERTEX
  8
Oletusarvo
 10
106.505331985148
 20
812.966981716143
 42
0.0041748494424
  0
VERTEX
  8
Oletusarvo
 10
106.751870624994
 20
812.855260333264
 42
0.005914277746
  0
VERTEX
  8
Oletusarvo
 10
107.183976845051
 20
812.661116886861
 42
0.0051767764809
  0
VERTEX
  8
Oletusarvo
 10
107.508628238415
 20
812.516840990734
 42
0.0060759546342
  0
VERTEX
  8
Oletusarvo
 10
107.996658979416
 20
812.30289666338
 42
0.0048988774054
  0
VERTEX
  8
Oletusarvo
 10
108.48612289694
 20
812.092328100721
 42
0.0056562184847
  0
VERTEX
  8
Oletusarvo
 10
110.475069260872
 20
811.276243577793
 42
0.0
  0
VERTEX
  8
Oletusarvo
 10
111.47507695247
 20
810.881968045223
 42
0.0
  0
VERTEX
  8
Oletusarvo
 10
112.47672996359
 20
810.491589815796
 42
-0.3846091075129
  0
VERTEX
  8
Oletusarvo
 10
127.299851293263
 20
782.525813166236
 42
0.3946449415016
  0
VERTEX
  8
Oletusarvo
 10
129.125160711498
 20
779.222548678552
 42
-0.1276687771813
  0
VERTEX
  8
Oletusarvo
 10
135.387935514386
 20
775.22439368797
 42
0.4831884793575
  0
VERTEX
  8
Oletusarvo
 10
139.704352393773
 20
775.562086114876
 42
0.0
  0
VERTEX
  8
Oletusarvo
 10
153.116932720918
 20
795.486021144617
 42
0.1492191200104
  0
VERTEX
  8
Oletusarvo
 10
153.587917893005
 20
797.029074526799
 42
0.0
  0
VERTEX
  8
Oletusarvo
 10
153.58792051144
 20
825.779933501332
 42
0.6001742900404
  0
VERTEX
  8
Oletusarvo
 10
149.284297695225
 20
828.073782144094
 42
-0.1848173593949
  0
VERTEX
  8
Oletusarvo
 10
128.504003130036
 20
823.298348824802
 42
0.0014502891263
  0
VERTEX
  8
Oletusarvo
 10
127.749678961507
 20
823.395750650517
 42
0.0022677581541
  0
VERTEX
  8
Oletusarvo
 10
127.089579824656
 20
823.480656686258
 42
0.0025882718094
  0
VERTEX
  8
Oletusarvo
 10
126.511936849724
 20
823.5544762308
 42
0.00268065082
  0
VERTEX
  8
Oletusarvo
 10
126.006423263874
 20
823.618556098775
 42
0.0026416581237
  0
VERTEX
  8
Oletusarvo
 10
125.564042656078
 20
823.674130309865
 42
0.0036019494066
  0
VERTEX
  8
Oletusarvo
 10
124.78972107324
 20
823.770014021681
 42
0.0030112713127
  0
VERTEX
  8
Oletusarvo
 10
124.208824490208
 20
823.84055673494
 42
0.0032438676745
  0
VERTEX
  8
Oletusarvo
 10
123.337179113386
 20
823.943721382814
 42
0.0016437149294
  0
VERTEX
  8
Oletusarvo
 10
122.465109574922
 20
824.043146347856
 42
0.0
  0
VERTEX
  8
Oletusarvo
 10
121.708521985326
 20
824.125970973731
 42
0.0
  0
VERTEX
  8
Oletusarvo
 10
120.38372983354
 20
824.264020688909
 42
0.0
  0
VERTEX
  8
Oletusarvo
 10
119.389648418882
 20
824.362714641381
 42
0.0012087736316
  0
VERTEX
  8
Oletusarvo
 10
116.405709758636
 20
824.642040702874
 42
0.0032887750271
  0
VERTEX
  8
Oletusarvo
 10
115.647340263057
 20
824.710701930359
 42
0.0025994035965
  0
VERTEX
  8
Oletusarvo
 10
114.98374099522
 20
824.770363950119
 42
0.0
  0
VERTEX
  8
Oletusarvo
 10
110.338038009788
 20
825.181969375173
 42
0.0
  0
VERTEX
  8
Oletusarvo
 10
108.550674649336
 20
825.340658702608
 42
-0.001588686493
  0
VERTEX
  8
Oletusarvo
 10
107.880488916209
 20
825.401135209197
 42
-0.0022225246489
  0
VERTEX
  8
Oletusarvo
 10
107.294142011601
 20
825.454754084537
 42
-0.0039380325059
  0
VERTEX
  8
Oletusarvo
 10
103.192794158411
 20
825.860815016152
 42
0.0
  0
VERTEX
  8
Oletusarvo
 10
102.301754478009
 20
825.959071926047
 42
0.0
  0
VERTEX
  8
Oletusarvo
 10
101.522435718282
 20
826.048096227256
 42
0.0
  0
VERTEX
  8
Oletusarvo
 10
100.1593108137
 20
826.209627989572
 42
0.0
  0
VERTEX
  8
Oletusarvo
 10
99.137428940074
 20
826.334607553677
 42
0.0
  0
VERTEX
  8
Oletusarvo
 10
97.6050715485376
 20
826.526325270168
 42
0.0
  0
VERTEX
  8
Oletusarvo
 10
96.0730233412542
 20
826.720750603469
 42
0.3541185725307
  0
VERTEX
  8
Oletusarvo
 10
92.8486298329972
 20
824.783339473088
 42
0.0
  0
VERTEX
  8
Oletusarvo
 10
92.2351999919979
 20
823.097986403577
 42
0.4142135623731
  0
SEQEND
  0
CIRCLE
  8
Oletusarvo
 10
-121.150400383056
 20
963.415795067211
 30
0.0
 40
3.0
  0
CIRCLE
  8
Oletusarvo
 10
155.599598386944
 20
963.415795067211
 30
0.0
 40
6.0
  0
CIRCLE
  8
Oletusarvo
 10
155.599598386944
 20
963.415795067211
 30
0.0
 40
5.0
  0
POLYLINE
  8
Oletusarvo
 66
     1
 10
0.0
 20
0.0
 30
0.0
 70
     1
  0
VERTEX
  8
Oletusarvo
 10
121.688040492759
 20
957.205785520068
 42
-0.0614926172578
  0
VERTEX
  8
Oletusarvo
 10
140.07378379971
 20
954.936019795188
 42
0.0
  0
VERTEX
  8
Oletusarvo
 10
149.321955155387
 20
950.456196483255
 42
0.5534286650745
  0
VERTEX
  8
Oletusarvo
 10
169.999598386944
 20
963.415795067211
 42
0.554665912881
  0
VERTEX
  8
Oletusarvo
 10
149.272927218028
 20
976.351529755291
 42
0.0
  0
VERTEX
  8
Oletusarvo
 10
140.256011816389
 20
971.941493520034
 42
-0.0621166339967
  0
VERTEX
  8
Oletusarvo
 10
121.687982253023
 20
969.625786494651
 42
0.0
  0
VERTEX
  8
Oletusarvo
 10
-87.238793465854
 20
969.625786494651
 42
-0.0985567151141
  0
VERTEX
  8
Oletusarvo
 10
-116.187725323873
 20
975.387990135951
 42
0.3387675716267
  0
VERTEX
  8
Oletusarvo
 10
-131.410744663561
 20
971.333303119149
 42
0.5408866433733
  0
VERTEX
  8
Oletusarvo
 10
-124.290649690548
 20
950.841995609854
 42
0.1607887447583
  0
VERTEX
  8
Oletusarvo
 10
-116.187725324105
 20
951.443599998463
 42
-0.0985567151141
  0
VERTEX
  8
Oletusarvo
 10
-87.238787478874
 20
957.205795094811
 42
0.0
  0
SEQEND
  0
CIRCLE
  8
Oletusarvo
 10
124.55500220092
 20
765.159644793701
 30
0.0
 40
6.0
  0
CIRCLE
  8
Oletusarvo
 10
-41.0
 20
896.549998913994
 30
0.0
 40
7.0
  0
CIRCLE
  8
Oletusarvo
 10
255.0
 20
909.0
 30
0.0
 40
4.0
  0
CIRCLE
  8
Oletusarvo
 10
347.6
 20
908.6
 30
0.0
 40
4.0
  0
CIRCLE
  8
Oletusarvo
 10
302.0
 20
927.8
 30
0.0
 40
4.0
  0
CIRCLE
  8
Oletusarvo
 10
-41.0
 20
896.549998913994
 30
0.0
 40
11.0
  0
CIRCLE
  8
Oletusarvo
 10
-15.8
 20
938.6
 30
0.0
 40
1.8
  0
CIRCLE
  8
Oletusarvo
 10
-73.4
 20
912.2
 30
0.0
 40
1.8
  0
CIRCLE
  8
Oletusarvo
 10
1.0
 20
917.0
 30
0.0
 40
1.8
  0
CIRCLE
  8
Oletusarvo
 10
-81.8
 20
930.2
 30
0.0
 40
1.8
  0
POLYLINE
  8
Oletusarvo
 66
     1
 10
0.0
 20
0.0
 30
0.0
 70
     1
  0
VERTEX
  8
Oletusarvo
 10
-86.217653546252
 20
896.693053966059
 42
0.0
  0
VERTEX
  8
Oletusarvo
 10
-83.194202057899
 20
896.69305396606
 42
0.0
  0
VERTEX
  8
Oletusarvo
 10
-75.405622829075
 20
896.693053966062
 42
-0.2547865748168
  0
VERTEX
  8
Oletusarvo
 10
-62.137275410149
 20
889.133146714214
 42
0.1836949132569
  0
VERTEX
  8
Oletusarvo
 10
-52.135760263202
 20
876.862296357221
 42
0.4581842154881
  0
VERTEX
  8
Oletusarvo
 10
-20.283031274979
 20
887.97516965556
 42
0.1320338871738
  0
VERTEX
  8
Oletusarvo
 10
-19.0
 20
899.6
 42
-0.3682351504013
  0
VERTEX
  8
Oletusarvo
 10
1.0
 20
911.6
 42
0.0
  0
VERTEX
  8
Oletusarvo
 10
1.0
 20
911.6
 42
0.0
  0
VERTEX
  8
Oletusarvo
 10
10.0
 20
910.6
 42
0.5344384724471
  0
VERTEX
  8
Oletusarvo
 10
18.0
 20
920.6
 42
0.2513322416933
  0
VERTEX
  8
Oletusarvo
 10
-14.5999999999999
 20
948.2
 42
0.0094106782327
  0
VERTEX
  8
Oletusarvo
 10
-31.005622829075
 20
948.293053966062
 42
0.0
  0
VERTEX
  8
Oletusarvo
 10
-47.755970728111
 20
949.128659748344
 42
0.1876027540925
  0
VERTEX
  8
Oletusarvo
 10
-95.0
 20
930.2
 42
0.5258586389535
  0
SEQEND
  0
CIRCLE
  8
Oletusarvo
 10
128.0
 20
920.0
 30
0.0
 40
4.0
  0
CIRCLE
  8
Oletusarvo
 10
81.0
 20
938.8
 30
0.0
 40
4.0
  0
CIRCLE
  8
Oletusarvo
 10
35.3999999999999
 20
919.6
 30
0.0
 40
4.0
  0
CIRCLE
  8
Oletusarvo
 10
87.0
 20
897.549998913994
 30
0.0
 40
7.0
  0
CIRCLE
  8
Oletusarvo
 10
87.0
 20
897.549998913994
 30
0.0
 40
11.0
  0
CIRCLE
  8
Oletusarvo
 10
61.8
 20
939.6
 30
0.0
 40
1.8
  0
CIRCLE
  8
Oletusarvo
 10
119.4
 20
913.2
 30
0.0
 40
1.8
  0
CIRCLE
  8
Oletusarvo
 10
45.0
 20
918.0
 30
0.0
 40
1.8
  0
CIRCLE
  8
Oletusarvo
 10
127.8
 20
931.2
 30
0.0
 40
1.8
  0
POLYLINE
  8
Oletusarvo
 66
     1
 10
0.0
 20
0.0
 30
0.0
 70
     1
  0
VERTEX
  8
Oletusarvo
 10
132.217653546252
 20
897.693053966059
 42
0.0
  0
VERTEX
  8
Oletusarvo
 10
129.194202057899
 20
897.69305396606
 42
0.0
  0
VERTEX
  8
Oletusarvo
 10
121.405622829075
 20
897.693053966061
 42
0.2547865748168
  0
VERTEX
  8
Oletusarvo
 10
108.137275410149
 20
890.133146714214
 42
-0.1836949132569
  0
VERTEX
  8
Oletusarvo
 10
98.1357602632017
 20
877.862296357221
 42
-0.4581842154881
  0
VERTEX
  8
Oletusarvo
 10
66.2830312749793
 20
888.975169655559
 42
-0.1320338871738
  0
VERTEX
  8
Oletusarvo
 10
65.0
 20
900.6
 42
0.3682351504013
  0
VERTEX
  8
Oletusarvo
 10
45.0
 20
912.6
 42
0.0
  0
VERTEX
  8
Oletusarvo
 10
45.0
 20
912.6
 42
0.0
  0
VERTEX
  8
Oletusarvo
 10
36.0
 20
911.6
 42
-0.5344384724471
  0
VERTEX
  8
Oletusarvo
 10
28.0
 20
921.6
 42
-0.2513322416933
  0
VERTEX
  8
Oletusarvo
 10
60.5999999999999
 20
949.2
 42
-0.0094106782327
  0
VERTEX
  8
Oletusarvo
 10
77.0056228290755
 20
949.293053966061
 42
0.0
  0
VERTEX
  8
Oletusarvo
 10
93.7559707281107
 20
950.128659748344
 42
-0.1876027540925
  0
VERTEX
  8
Oletusarvo
 10
141.0
 20
931.2
 42
-0.5258586389535
  0
SEQEND
  0
CIRCLE
  8
Oletusarvo
 10
-84.228869564685
 20
767.379089090381
 30
0.0
 40
5.0
  0
CIRCLE
  8
Oletusarvo
 10
-30.855771320594
 20
828.307837030233
 30
0.0
 40
3.0
  0
POLYLINE
  8
Oletusarvo
 66
     1
 10
0.0
 20
0.0
 30
0.0
 70
     1
  0
VERTEX
  8
Oletusarvo
 10
-53.058082906892
 20
819.797789029361
 42
0.0024156881762
  0
VERTEX
  8
Oletusarvo
 10
-53.486980136805
 20
819.642910658679
 42
0.0037773568146
  0
VERTEX
  8
Oletusarvo
 10
-53.862153941768
 20
819.50708804359
 42
0.0043114491307
  0
VERTEX
  8
Oletusarvo
 10
-54.190263687136
 20
819.387798050773
 42
0.0044655575738
  0
VERTEX
  8
Oletusarvo
 10
-54.477176710342
 20
819.282936069106
 42
0.0064482706396
  0
VERTEX
  8
Oletusarvo
 10
-56.477086511333
 20
818.526364965133
 42
0.0
  0
VERTEX
  8
Oletusarvo
 10
-56.901533726601
 20
818.357423367152
 42
0.0
  0
VERTEX
  8
Oletusarvo
 10
-57.641766784819
 20
818.055321365778
 42
0.0
  0
VERTEX
  8
Oletusarvo
 10
-58.195093212138
 20
817.824241820119
 42
0.0019751779504
  0
VERTEX
  8
Oletusarvo
 10
-59.848640307701
 20
817.11546650948
 42
0.0054813371423
  0
VERTEX
  8
Oletusarvo
 10
-60.268181921938
 20
816.933119914453
 42
0.0043336549232
  0
VERTEX
  8
Oletusarvo
 10
-60.635097681521
 20
816.773194263664
 42
0.0
  0
VERTEX
  8
Oletusarvo
 10
-63.201046019574
 20
815.648208111048
 42
0.0
  0
VERTEX
  8
Oletusarvo
 10
-64.187899676445
 20
815.215884447239
 42
-0.0026452067818
  0
VERTEX
  8
Oletusarvo
 10
-64.558378447819
 20
815.054640215732
 42
-0.0037019648663
  0
VERTEX
  8
Oletusarvo
 10
-64.882826516805
 20
814.914197578782
 42
-0.0040910534395
  0
VERTEX
  8
Oletusarvo
 10
-65.166976274712
 20
814.791917340926
 42
-0.0041748494424
  0
VERTEX
  8
Oletusarvo
 10
-65.41583420604
 20
814.685462193821
 42
-0.005914277746
  0
VERTEX
  8
Oletusarvo
 10
-65.851969934194
 20
814.500548457662
 42
-0.0051767764809
  0
VERTEX
  8
Oletusarvo
 10
-66.179615020013
 20
814.363206697243
 42
-0.0060759546342
  0
VERTEX
  8
Oletusarvo
 10
-66.672083563898
 20
814.159685414195
 42
-0.0048988774054
  0
VERTEX
  8
Oletusarvo
 10
-67.165913197463
 20
813.959569599852
 42
-0.0056562184847
  0
VERTEX
  8
Oletusarvo
 10
-69.171758650905
 20
813.185951086585
 42
0.0
  0
VERTEX
  8
Oletusarvo
 10
-70.179921979507
 20
812.813023101983
 42
0.0
  0
VERTEX
  8
Oletusarvo
 10
-71.189647405837
 20
812.444026516472
 42
0.3846091075129
  0
VERTEX
  8
Oletusarvo
 10
-86.603923412556
 20
784.799683790409
 42
-0.3946449415016
  0
VERTEX
  8
Oletusarvo
 10
-88.499042079837
 20
781.535968731644
 42
0.1276687771813
  0
VERTEX
  8
Oletusarvo
 10
-94.845395520905
 20
777.671853106893
 42
-0.4831884793575
  0
VERTEX
  8
Oletusarvo
 10
-99.153658202169
 20
778.101228841037
 42
0.0
  0
VERTEX
  8
Oletusarvo
 10
-112.139658827875
 20
798.305789857071
 42
-0.1492191200104
  0
VERTEX
  8
Oletusarvo
 10
-112.577734896903
 20
799.858506872607
 42
0.0
  0
VERTEX
  8
Oletusarvo
 10
-111.966543562383
 20
828.602868701078
 42
-0.6001742900404
  0
VERTEX
  8
Oletusarvo
 10
-107.61513000316
 20
830.80471133323
 42
0.1848173593949
  0
VERTEX
  8
Oletusarvo
 10
-86.941048950864
 20
825.588603757068
 42
-0.0014502891263
  0
VERTEX
  8
Oletusarvo
 10
-86.184824650913
 20
825.669947933526
 42
-0.0022677581541
  0
VERTEX
  8
Oletusarvo
 10
-85.52306972846
 20
825.740802206417
 42
-0.0025882718094
  0
VERTEX
  8
Oletusarvo
 10
-84.943988014036
 20
825.802325370052
 42
-0.00268065082
  0
VERTEX
  8
Oletusarvo
 10
-84.437226437506
 20
825.855644405225
 42
-0.0026416581237
  0
VERTEX
  8
Oletusarvo
 10
-83.993764387736
 20
825.901801804482
 42
-0.0036019494066
  0
VERTEX
  8
Oletusarvo
 10
-83.217579465048
 20
825.981203099378
 42
-0.0030112713127
  0
VERTEX
  8
Oletusarvo
 10
-82.635314537596
 20
826.039381006109
 42
-0.0032438676745
  0
VERTEX
  8
Oletusarvo
 10
-81.76167303422
 20
826.123992654752
 42
-0.0016437149294
  0
VERTEX
  8
Oletusarvo
 10
-80.887686964299
 20
826.204856448718
 42
0.0
  0
VERTEX
  8
Oletusarvo
 10
-80.129509641044
 20
826.271578603084
 42
0.0
  0
VERTEX
  8
Oletusarvo
 10
-78.802082169414
 20
826.381434312342
 42
0.0
  0
VERTEX
  8
Oletusarvo
 10
-77.806127335966
 20
826.458973495703
 42
-0.0012087736316
  0
VERTEX
  8
Oletusarvo
 10
-74.816925001746
 20
826.674803016006
 42
-0.0032887750271
  0
VERTEX
  8
Oletusarvo
 10
-74.057267264747
 20
826.727327092403
 42
-0.0025994035965
  0
VERTEX
  8
Oletusarvo
 10
-73.392549646763
 20
826.772868647246
 42
0.0
  0
VERTEX
  8
Oletusarvo
 10
-68.739146485232
 20
827.08562137871
 42
0.0
  0
VERTEX
  8
Oletusarvo
 10
-66.948813575349
 20
827.206278565467
 42
0.001588686493
  0
VERTEX
  8
Oletusarvo
 10
-66.277493665911
 20
827.252494406123
 42
0.0022225246489
  0
VERTEX
  8
Oletusarvo
 10
-65.69013942033
 20
827.293636434944
 42
0.0039380325059
  0
VERTEX
  8
Oletusarvo
 10
-61.581086242526
 20
827.612417982439
 42
0.0
  0
VERTEX
  8
Oletusarvo
 10
-60.688159148443
 20
827.691710712537
 42
0.0
  0
VERTEX
  8
Oletusarvo
 10
-59.907123997448
 20
827.764147915524
 42
0.0
  0
VERTEX
  8
Oletusarvo
 10
-58.540873247518
 20
827.896665476797
 42
0.0
  0
VERTEX
  8
Oletusarvo
 10
-57.516565450508
 20
827.999893341616
 42
0.0
  0
VERTEX
  8
Oletusarvo
 10
-55.980478755653
 20
828.158992443128
 42
0.0
  0
VERTEX
  8
Oletusarvo
 10
-54.444643615891
 20
828.3208051223
 42
-0.3541185725307
  0
VERTEX
  8
Oletusarvo
 10
-51.2621648032
 20
826.315286737694
 42
0.0
  0
VERTEX
  8
Oletusarvo
 10
-50.684701302616
 20
824.617274062762
 42
-0.4142135623731
  0
SEQEND
  0
POLYLINE
  8
Oletusarvo
 66
     1
 10
0.0
 20
0.0
 30
0.0
 70
     0
  0
VERTEX
  8
Oletusarvo
 10
-75.4179301476
 20
783.584593274441
 42
-0.2590192699228
  0
VERTEX
  8
Oletusarvo
 10
-75.358165716825
 20
796.692093344231
 42
-0.1593216800126
  0
VERTEX
  8
Oletusarvo
 10
-69.181115457987
 20
802.370364309728
 42
-0.0248933072485
  0
VERTEX
  8
Oletusarvo
 10
-67.932351053511
 20
802.865642117849
 42
0.0
  0
VERTEX
  8
Oletusarvo
 10
-33.459603925527
 20
814.550836788596
 42
0.0
  0
VERTEX
  8
Oletusarvo
 10
-27.550630908888
 20
816.158304903904
 42
0.1924044889452
  0
VERTEX
  8
Oletusarvo
 10
-20.087879907942
 20
821.781919580927
 42
0.5773502691896
  0
VERTEX
  8
Oletusarvo
 10
-30.588106732821
 20
840.896063263434
 42
0.0640558406198
  0
VERTEX
  8
Oletusarvo
 10
-33.782785952616
 20
840.553965780729
 42
0.0
  0
VERTEX
  8
Oletusarvo
 10
-36.768914730264
 20
839.840236837291
 42
0.0
  0
VERTEX
  8
Oletusarvo
 10
-87.912587111224
 20
833.758119722162
 42
-0.3031547099051
  0
VERTEX
  8
Oletusarvo
 10
-109.436070118044
 20
844.882479201133
 42
0.0
  0
VERTEX
  8
Oletusarvo
 10
-115.399064459966
 20
855.902073859875
 42
0.0
  0
VERTEX
  8
Oletusarvo
 10
-126.196623844933
 20
856.131663337232
 42
0.0
  0
VERTEX
  8
Oletusarvo
 10
-127.395591115573
 20
799.744408771294
 42
0.0
  0
VERTEX
  8
Oletusarvo
 10
-124.996133474469
 20
799.693388887437
 42
-0.2610237291187
  0
VERTEX
  8
Oletusarvo
 10
-122.266049332394
 20
797.884963908005
 42
0.0
  0
VERTEX
  8
Oletusarvo
 10
-97.288932505102
 20
758.985027712191
 42
0.0
  0
VERTEX
  8
Oletusarvo
 10
-95.385244782791
 20
756.948814087433
 42
0.4969940050421
  0
VERTEX
  8
Oletusarvo
 10
-71.167648635453
 20
759.463291437448
 42
0.2679489273881
  0
VERTEX
  8
Oletusarvo
 10
-70.842969967724
 20
774.732526152355
 42
0.0
  0
VERTEX
  8
Oletusarvo
 10
-75.4179301476
 20
783.584593274441
 42
-0.4624752306971
  0
VERTEX
  8
Oletusarvo
 10
-67.932334221221
 20
802.865647842119
 42
0.0
  0
SEQEND
  0
CIRCLE
  8
Oletusarvo
 10
-84.228869564685
 20
767.379089090381
 30
0.0
 40
6.0
  0
POLYLINE
  8
Oletusarvo
 66
     1
 10
0.0
 20
0.0
 30
0.0
 70
     1
  0
VERTEX
  8
Oletusarvo
 10
316.116308094145
 20
793.162029287327
 42
0.0
  0
VERTEX
  8
Oletusarvo
 10
316.116613866111
 20
793.163847825036
 42
0.0
  0
VERTEX
  8
Oletusarvo
 10
316.11631198979
 20
793.162028640882
 42
0.0
  0
VERTEX
  8
Oletusarvo
 10
346.827040596514
 20
788.065875096797
 42
-0.4274551490676
  0
VERTEX
  8
Oletusarvo
 10
355.562416066471
 20
775.255056368847
 42
0.0
  0
VERTEX
  8
Oletusarvo
 10
350.773869976115
 20
752.726708700862
 42
0.0
  0
VERTEX
  8
Oletusarvo
 10
351.651527928029
 20
752.219992646068
 42
-0.4142134637133
  0
VERTEX
  8
Oletusarvo
 10
355.165373421217
 20
739.106151570219
 42
0.0
  0
VERTEX
  8
Oletusarvo
 10
344.599803462158
 20
720.806047590204
 42
-0.0660161266162
  0
VERTEX
  8
Oletusarvo
 10
340.796333135525
 20
705.821608952489
 42
0.0
  0
VERTEX
  8
Oletusarvo
 10
331.210315877122
 20
664.300021109528
 42
0.0
  0
VERTEX
  8
Oletusarvo
 10
331.2
 20
634.6
 42
0.0
  0
VERTEX
  8
Oletusarvo
 10
199.2
 20
634.6
 42
0.0
  0
VERTEX
  8
Oletusarvo
 10
199.2
 20
667.0
 42
0.0
  0
VERTEX
  8
Oletusarvo
 10
199.2
 20
718.6
 42
-0.2863440654878
  0
VERTEX
  8
Oletusarvo
 10
208.8
 20
731.8
 42
0.5616834408278
  0
VERTEX
  8
Oletusarvo
 10
215.87779595255
 20
769.900402230335
 42
-0.0256750229647
  0
VERTEX
  8
Oletusarvo
 10
214.340081409551
 20
771.028002449352
 42
-0.2962627107592
  0
VERTEX
  8
Oletusarvo
 10
208.15224698777
 20
790.299848449116
 42
-0.1121298166098
  0
VERTEX
  8
Oletusarvo
 10
212.015865103765
 20
797.566257291108
 42
-0.0839913198073
  0
VERTEX
  8
Oletusarvo
 10
216.791577410523
 20
801.517373228142
 42
-0.2335589875587
  0
VERTEX
  8
Oletusarvo
 10
233.216746050659
 20
802.581681204504
 42
-0.0222906650067
  0
VERTEX
  8
Oletusarvo
 10
315.846733698229
 20
793.206762596352
 42
0.0
  0
SEQEND
  0
POLYLINE
  8
Oletusarvo
 66
     1
 10
0.0
 20
0.0
 30
0.0
 70
     1
  0
VERTEX
  8
Oletusarvo
 10
356.0
 20
910.0
 42
-0.4544340214312
  0
VERTEX
  8
Oletusarvo
 10
346.0
 20
901.0
 42
0.0
  0
VERTEX
  8
Oletusarvo
 10
299.292730891081
 20
907.649705240646
 42
0.1389589247646
  0
VERTEX
  8
Oletusarvo
 10
286.4
 20
906.2
 42
0.0
  0
VERTEX
  8
Oletusarvo
 10
266.0
 20
894.0
 42
-0.0374143731196
  0
VERTEX
  8
Oletusarvo
 10
262.0
 20
892.0
 42
-0.9175761276051
  0
VERTEX
  8
Oletusarvo
 10
245.0
 20
925.0
 42
-0.1464493716353
  0
VERTEX
  8
Oletusarvo
 10
289.244029271889
 20
939.528659748344
 42
0.0
  0
VERTEX
  8
Oletusarvo
 10
318.969701576081
 20
938.569335710851
 42
0.0
  0
VERTEX
  8
Oletusarvo
 10
350.37584943958
 20
936.372032873947
 42
-0.2443762966745
  0
VERTEX
  8
Oletusarvo
 10
355.0
 20
931.0
 42
0.0
  0
SEQEND
  0
CIRCLE
  8
Oletusarvo
 10
473.0
 20
908.0
 30
0.0
 40
4.0
  0
CIRCLE
  8
Oletusarvo
 10
380.4
 20
907.6
 30
0.0
 40
4.0
  0
CIRCLE
  8
Oletusarvo
 10
426.0
 20
926.8
 30
0.0
 40
4.0
  0
POLYLINE
  8
Oletusarvo
 66
     1
 10
0.0
 20
0.0
 30
0.0
 70
     1
  0
VERTEX
  8
Oletusarvo
 10
372.0
 20
909.0
 42
0.4544340214312
  0
VERTEX
  8
Oletusarvo
 10
382.0
 20
900.0
 42
0.0
  0
VERTEX
  8
Oletusarvo
 10
428.707269108919
 20
906.649705240646
 42
-0.1389589247646
  0
VERTEX
  8
Oletusarvo
 10
441.6
 20
905.2
 42
0.0
  0
VERTEX
  8
Oletusarvo
 10
462.0
 20
893.0
 42
0.0374143731196
  0
VERTEX
  8
Oletusarvo
 10
466.0
 20
891.0
 42
0.9175761276051
  0
VERTEX
  8
Oletusarvo
 10
483.0
 20
924.0
 42
0.1464493716353
  0
VERTEX
  8
Oletusarvo
 10
438.755970728111
 20
938.528659748344
 42
0.0
  0
VERTEX
  8
Oletusarvo
 10
409.030298423919
 20
937.569335710851
 42
0.0
  0
VERTEX
  8
Oletusarvo
 10
377.62415056042
 20
935.372032873947
 42
0.2443762966745
  0
VERTEX
  8
Oletusarvo
 10
373.0
 20
930.0
 42
0.0
  0
SEQEND
  0
POLYLINE
  8
Oletusarvo
 66
     1
 10
0.0
 20
0.0
 30
0.0
 70
     0
  0
VERTEX
  8
Oletusarvo
 10
-186.8
 20
443.6
 42
0.0
  0
VERTEX
  8
Oletusarvo
 10
-318.8
 20
443.6
 42
0.0
  0
SEQEND
  0
POLYLINE
  8
Oletusarvo
 66
     1
 10
0.0
 20
0.0
 30
0.0
 70
     1
  0
VERTEX
  8
Oletusarvo
 10
-214.4
 20
393.2
 42
0.0
  0
VERTEX
  8
Oletusarvo
 10
-94.4
 20
393.2
 42
0.0
  0
VERTEX
  8
Oletusarvo
 10
-94.4
 20
404.36
 42
0.0
  0
VERTEX
  8
Oletusarvo
 10
-214.4
 20
404.36
 42
0.0
  0
SEQEND
  0
POLYLINE
  8
Oletusarvo
 66
     1
 10
0.0
 20
0.0
 30
0.0
 70
     1
  0
VERTEX
  8
Oletusarvo
 10
-214.4
 20
483.2
 42
0.0
  0
VERTEX
  8
Oletusarvo
 10
-94.4
 20
483.2
 42
0.0
  0
VERTEX
  8
Oletusarvo
 10
-94.4
 20
494.36
 42
0.0
  0
VERTEX
  8
Oletusarvo
 10
-214.4
 20
494.36
 42
0.0
  0
SEQEND
  0
CIRCLE
  8
Oletusarvo
 10
-186.8
 20
443.6
 30
0.0
 40
8.4
  0
POLYLINE
  8
Oletusarvo
 66
     1
 10
0.0
 20
0.0
 30
0.0
 70
     0
  0
VERTEX
  8
Oletusarvo
 10
-279.949100366683
 20
388.944304039948
 42
-0.017408959491
  0
VERTEX
  8
Oletusarvo
 10
-278.0
 20
386.0
 42
0.0
  0
SEQEND
  0
POLYLINE
  8
Oletusarvo
 66
     1
 10
0.0
 20
0.0
 30
0.0
 70
     1
  0
VERTEX
  8
Oletusarvo
 10
-312.2
 20
475.4
 42
0.1316524975874
  0
VERTEX
  8
Oletusarvo
 10
-314.0
 20
474.917691453624
 42
0.5773502691896
  0
VERTEX
  8
Oletusarvo
 10
-314.0
 20
468.682308546376
 42
0.1316524975874
  0
VERTEX
  8
Oletusarvo
 10
-312.2
 20
468.2
 42
0.0
  0
VERTEX
  8
Oletusarvo
 10
-305.0
 20
468.2
 42
0.4142135623731
  0
VERTEX
  8
Oletusarvo
 10
-301.4
 20
471.8
 42
0.4142135623731
  0
VERTEX
  8
Oletusarvo
 10
-305.0
 20
475.4
 42
0.0
  0
SEQEND
  0
POLYLINE
  8
Oletusarvo
 66
     1
 10
0.0
 20
0.0
 30
0.0
 70
     1
  0
VERTEX
  8
Oletusarvo
 10
-255.8
 20
475.4
 42
0.1316524975874
  0
VERTEX
  8
Oletusarvo
 10
-257.6
 20
474.917691453624
 42
0.5773502691896
  0
VERTEX
  8
Oletusarvo
 10
-257.6
 20
468.682308546376
 42
0.1316524975874
  0
VERTEX
  8
Oletusarvo
 10
-255.8
 20
468.2
 42
0.0
  0
VERTEX
  8
Oletusarvo
 10
-248.6
 20
468.2
 42
0.4142135623731
  0
VERTEX
  8
Oletusarvo
 10
-245.0
 20
471.8
 42
0.4142135623731
  0
VERTEX
  8
Oletusarvo
 10
-248.6
 20
475.4
 42
0.0
  0
SEQEND
  0
POLYLINE
  8
Oletusarvo
 66
     1
 10
0.0
 20
0.0
 30
0.0
 70
     1
  0
VERTEX
  8
Oletusarvo
 10
-312.2
 20
411.8
 42
-0.1316524975874
  0
VERTEX
  8
Oletusarvo
 10
-314.0
 20
412.282308546376
 42
-0.5773502691896
  0
VERTEX
  8
Oletusarvo
 10
-314.0
 20
418.517691453624
 42
-0.1316524975874
  0
VERTEX
  8
Oletusarvo
 10
-312.2
 20
419.0
 42
0.0
  0
VERTEX
  8
Oletusarvo
 10
-305.0
 20
419.0
 42
-0.4142135623731
  0
VERTEX
  8
Oletusarvo
 10
-301.4
 20
415.4
 42
-0.4142135623731
  0
VERTEX
  8
Oletusarvo
 10
-305.0
 20
411.8
 42
0.0
  0
SEQEND
  0
POLYLINE
  8
Oletusarvo
 66
     1
 10
0.0
 20
0.0
 30
0.0
 70
     1
  0
VERTEX
  8
Oletusarvo
 10
-255.8
 20
411.8
 42
-0.1316524975874
  0
VERTEX
  8
Oletusarvo
 10
-257.6
 20
412.282308546376
 42
-0.5773502691896
  0
VERTEX
  8
Oletusarvo
 10
-257.6
 20
418.517691453624
 42
-0.1316524975874
  0
VERTEX
  8
Oletusarvo
 10
-255.8
 20
419.0
 42
0.0
  0
VERTEX
  8
Oletusarvo
 10
-248.6
 20
419.0
 42
-0.4142135623731
  0
VERTEX
  8
Oletusarvo
 10
-245.0
 20
415.4
 42
-0.4142135623731
  0
VERTEX
  8
Oletusarvo
 10
-248.6
 20
411.8
 42
0.0
  0
SEQEND
  0
POLYLINE
  8
Oletusarvo
 66
     1
 10
0.0
 20
0.0
 30
0.0
 70
     1
  0
VERTEX
  8
Oletusarvo
 10
-283.999999932565
 20
448.4
 42
0.1316525011605
  0
VERTEX
  8
Oletusarvo
 10
-286.4
 20
447.756921938166
 42
0.5773502691896
  0
VERTEX
  8
Oletusarvo
 10
-286.4
 20
439.443078061834
 42
0.1316524975874
  0
VERTEX
  8
Oletusarvo
 10
-284.0
 20
438.8
 42
0.0
  0
VERTEX
  8
Oletusarvo
 10
-276.8
 20
438.8
 42
0.4142135623731
  0
VERTEX
  8
Oletusarvo
 10
-272.0
 20
443.6
 42
0.4142135623731
  0
VERTEX
  8
Oletusarvo
 10
-276.8
 20
448.4
 42
0.0
  0
SEQEND
  0
CIRCLE
  8
Oletusarvo
 10
-186.8
 20
443.6
 30
0.0
 40
39.0
  0
CIRCLE
  8
Oletusarvo
 10
-202.4
 20
488.72
 30
0.0
 40
2.4
  0
CIRCLE
  8
Oletusarvo
 10
-154.4
 20
488.72
 30
0.0
 40
2.4
  0
CIRCLE
  8
Oletusarvo
 10
-106.4
 20
488.72
 30
0.0
 40
2.4
  0
CIRCLE
  8
Oletusarvo
 10
-202.4
 20
398.72
 30
0.0
 40
2.4
  0
CIRCLE
  8
Oletusarvo
 10
-154.4
 20
398.72
 30
0.0
 40
2.4
  0
CIRCLE
  8
Oletusarvo
 10
-106.4
 20
398.72
 30
0.0
 40
2.4
  0
CIRCLE
  8
Oletusarvo
 10
-226.4
 20
473.6
 30
0.0
 40
2.4
  0
CIRCLE
  8
Oletusarvo
 10
-147.2
 20
473.6
 30
0.0
 40
2.4
  0
CIRCLE
  8
Oletusarvo
 10
-147.2
 20
413.6
 30
0.0
 40
2.4
  0
CIRCLE
  8
Oletusarvo
 10
-226.4
 20
413.6
 30
0.0
 40
2.4
  0
POLYLINE
  8
Oletusarvo
 66
     1
 10
0.0
 20
0.0
 30
0.0
 70
     1
  0
VERTEX
  8
Oletusarvo
 10
-87.002523458336
 20
484.885150791974
 42
0.4532289685324
  0
VERTEX
  8
Oletusarvo
 10
-240.8
 20
537.130743608719
 42
0.1298662723944
  0
VERTEX
  8
Oletusarvo
 10
-279.949100366683
 20
498.255695960052
 42
-0.19542640969
  0
VERTEX
  8
Oletusarvo
 10
-312.2
 20
477.8
 42
0.4142135623731
  0
VERTEX
  8
Oletusarvo
 10
-318.2
 20
471.8
 42
0.0
  0
VERTEX
  8
Oletusarvo
 10
-318.2
 20
415.4
 42
0.4142135623731
  0
VERTEX
  8
Oletusarvo
 10
-312.2
 20
409.4
 42
-0.19542640969
  0
VERTEX
  8
Oletusarvo
 10
-279.949100366683
 20
388.944304039948
 42
0.1298662723944
  0
VERTEX
  8
Oletusarvo
 10
-240.8
 20
350.069256391281
 42
0.4585732829088
  0
VERTEX
  8
Oletusarvo
 10
-86.287500034225
 20
404.087503867384
 42
0.0
  0
SEQEND
  0
CIRCLE
  8
Oletusarvo
 10
-64.39999952
 20
565.549998913994
 30
0.0
 40
9.0
  0
CIRCLE
  8
Oletusarvo
 10
-64.39999952
 20
310.400000047994
 30
0.0
 40
2.3404130403177
  0
CIRCLE
  8
Oletusarvo
 10
-64.39999952
 20
565.549998913994
 30
0.0
 40
2.5026371309499
  0
CIRCLE
  8
Oletusarvo
 10
-64.39999952
 20
310.400000047994
 30
0.0
 40
9.0
  0
POLYLINE
  8
Oletusarvo
 66
     1
 10
0.0
 20
0.0
 30
0.0
 70
     0
  0
VERTEX
  8
Oletusarvo
 10
-56.839999735678
 20
378.8
 42
0.0
  0
VERTEX
  8
Oletusarvo
 10
-56.8399995536
 20
340.925825454182
 42
0.0523397528877
  0
VERTEX
  8
Oletusarvo
 10
-55.733015048046
 20
332.0
 42
0.0
  0
SEQEND
  0
POLYLINE
  8
Oletusarvo
 66
     1
 10
0.0
 20
0.0
 30
0.0
 70
     0
  0
VERTEX
  8
Oletusarvo
 10
-55.733015048046
 20
332.0
 42
0.069629755787
  0
VERTEX
  8
Oletusarvo
 10
-51.448543164468
 20
320.854908318507
 42
-0.1714351930626
  0
VERTEX
  8
Oletusarvo
 10
-47.755320830577
 20
310.400000047994
 42
-0.5773502691896
  0
VERTEX
  8
Oletusarvo
 10
-72.722338864711
 20
295.985285465125
 42
-0.4686409059266
  0
VERTEX
  8
Oletusarvo
 10
-77.068244143219
 20
321.196337706681
 42
0.0597977521573
  0
VERTEX
  8
Oletusarvo
 10
-73.162338648974
 20
332.0
 42
0.0
  0
SEQEND
  0
POLYLINE
  8
Oletusarvo
 66
     1
 10
0.0
 20
0.0
 30
0.0
 70
     0
  0
VERTEX
  8
Oletusarvo
 10
-73.162338648974
 20
332.0
 42
0.0468157874362
  0
VERTEX
  8
Oletusarvo
 10
-71.95999887458
 20
340.925821512183
 42
0.0
  0
VERTEX
  8
Oletusarvo
 10
-71.95999887458
 20
378.8
 42
0.0
  0
SEQEND
  0
POLYLINE
  8
Oletusarvo
 66
     1
 10
0.0
 20
0.0
 30
0.0
 70
     0
  0
VERTEX
  8
Oletusarvo
 10
-71.95999887458
 20
378.8
 42
0.0
  0
VERTEX
  8
Oletusarvo
 10
-71.95999887458
 20
535.024176419484
 42
0.0
  0
SEQEND
  0
POLYLINE
  8
Oletusarvo
 66
     1
 10
0.0
 20
0.0
 30
0.0
 70
     0
  0
VERTEX
  8
Oletusarvo
 10
-71.95999887458
 20
535.249046778014
 42
0.1437022296611
  0
VERTEX
  8
Oletusarvo
 10
-77.956850994872
 20
555.458845923364
 42
-0.4486966407411
  0
VERTEX
  8
Oletusarvo
 10
-72.850141391473
 20
580.18607396655
 42
-0.5773502691896
  0
VERTEX
  8
Oletusarvo
 10
-47.499715777054
 20
565.549998913994
 42
-0.1830975120369
  0
VERTEX
  8
Oletusarvo
 10
-51.743049118664
 20
554.350838359284
 42
0.1296468166274
  0
VERTEX
  8
Oletusarvo
 10
-56.840000488418
 20
535.377447646009
 42
0.0
  0
SEQEND
  0
POLYLINE
  8
Oletusarvo
 66
     1
 10
0.0
 20
0.0
 30
0.0
 70
     0
  0
VERTEX
  8
Oletusarvo
 10
-56.84000048672
 20
535.024176419485
 42
0.0
  0
VERTEX
  8
Oletusarvo
 10
-56.839999735678
 20
378.8
 42
0.0
  0
SEQEND
  0
POLYLINE
  8
Oletusarvo
 66
     1
 10
0.0
 20
0.0
 30
0.0
 70
     1
  0
VERTEX
  8
Oletusarvo
 10
-283.99999973026
 20
462.8
 42
0.1316525011605
  0
VERTEX
  8
Oletusarvo
 10
-293.6
 20
460.227687752661
 42
0.5773502691896
  0
VERTEX
  8
Oletusarvo
 10
-293.6
 20
426.972312247339
 42
0.1316524975874
  0
VERTEX
  8
Oletusarvo
 10
-284.0
 20
424.4
 42
0.0
  0
VERTEX
  8
Oletusarvo
 10
-276.8
 20
424.4
 42
0.4142135623731
  0
VERTEX
  8
Oletusarvo
 10
-257.6
 20
443.6
 42
0.4142135623731
  0
VERTEX
  8
Oletusarvo
 10
-276.8
 20
462.8
 42
0.0
  0
SEQEND
  0
CIRCLE
  8
Oletusarvo
 10
226.081245296202
 20
785.427196464704
 30
0.0
 40
3.5
  0
POLYLINE
  8
Oletusarvo
 66
     1
 10
0.0
 20
0.0
 30
0.0
 70
     1
  0
VERTEX
  8
Oletusarvo
 10
109.016549679638
 20
800.984614501996
 42
0.0
  0
VERTEX
  8
Oletusarvo
 10
74.8
 20
813.4
 42
0.0
  0
VERTEX
  8
Oletusarvo
 10
68.92653432529
 20
815.132719487138
 42
-0.1924044889452
  0
VERTEX
  8
Oletusarvo
 10
61.5850181814581
 20
820.913708610774
 42
-0.5773502691896
  0
VERTEX
  8
Oletusarvo
 10
72.4892060477032
 20
839.800316010387
 42
-0.0640558406198
  0
VERTEX
  8
Oletusarvo
 10
75.675890918943
 20
839.390382434706
 42
0.0
  0
VERTEX
  8
Oletusarvo
 10
78.6461722293795
 20
838.613334805361
 42
0.0
  0
VERTEX
  8
Oletusarvo
 10
129.648991637622
 20
831.44536538416
 42
0.3031547099051
  0
VERTEX
  8
Oletusarvo
 10
151.404095509491
 20
842.109658613741
 42
0.0
  0
VERTEX
  8
Oletusarvo
 10
157.6
 20
853.0
 42
0.0
  0
VERTEX
  8
Oletusarvo
 10
168.4
 20
853.0
 42
0.0
  0
VERTEX
  8
Oletusarvo
 10
168.4
 20
796.6
 42
0.0
  0
VERTEX
  8
Oletusarvo
 10
166.0
 20
796.6
 42
0.2610237291187
  0
VERTEX
  8
Oletusarvo
 10
163.232088796678
 20
794.850020600246
 42
0.0
  0
VERTEX
  8
Oletusarvo
 10
137.433670442201
 20
756.489845790294
 42
0.0
  0
VERTEX
  8
Oletusarvo
 10
135.487126511278
 20
754.494561450981
 42
-0.4969940050421
  0
VERTEX
  8
Oletusarvo
 10
111.328456601887
 20
757.523295131651
 42
-0.2679489273881
  0
VERTEX
  8
Oletusarvo
 10
111.328449048369
 20
772.795981372655
 42
0.0
  0
VERTEX
  8
Oletusarvo
 10
116.09055513079
 20
781.548792272081
 42
0.4624752306971
  0
SEQEND
  0
CIRCLE
  8
Kerros2
 10
269.948472071971
 20
788.306148769738
 30
0.0
 40
3.0
  0
CIRCLE
  8
Kerros2
 10
302.451527928029
 20
667.003092913679
 30
0.0
 40
3.0
  0
CIRCLE
  8
Kerros2
 10
346.851527928029
 20
743.906148769738
 30
0.0
 40
3.0
  0
CIRCLE
  8
Kerros2
 10
225.548472071971
 20
711.403092913679
 30
0.0
 40
3.0
  0
CIRCLE
  8
Kerros2
 10
297.6
 20
747.400000047994
 30
0.0
 40
6.5
  0
CIRCLE
  8
Kerros2
 10
297.6
 20
747.400000047994
 30
0.0
 40
18.05
  0
CIRCLE
  8
Kerros2
 10
266.901228573503
 20
307.009138239653
 30
0.0
 40
5.4287795300424
  0
CIRCLE
  8
Kerros2
 10
266.901228573503
 20
307.009138239653
 30
0.0
 40
5.4292729601548
  0
CIRCLE
  8
Kerros2
 10
219.764080876321
 20
276.979463262558
 30
0.0
 40
1.1148874914986
  0
LINE
  8
Kerros2
 10
238.280388970466
 20
322.741492501891
 30
0.0
 11
238.280694742432
 21
322.7433110396
 31
0.0
  0
CIRCLE
  8
Kerros2
 10
148.245326172522
 20
315.006659679268
 30
0.0
 40
7.2
  0
POLYLINE
  8
Kerros2
 66
     1
 10
0.0
 20
0.0
 30
0.0
 70
     0
  0
VERTEX
  8
Kerros2
 10
272.937950852436
 20
282.306171915426
 42
0.0
  0
VERTEX
  8
Kerros2
 10
277.726496420942
 20
304.834517128296
 42
0.0
  0
SEQEND
  0
POLYLINE
  8
Kerros2
 66
     1
 10
0.0
 20
0.0
 30
0.0
 70
     1
  0
VERTEX
  8
Kerros2
 10
277.726496420942
 20
304.834517128296
 42
0.0
  0
SEQEND
  0
POLYLINE
  8
Kerros2
 66
     1
 10
0.0
 20
0.0
 30
0.0
 70
     0
  0
VERTEX
  8
Kerros2
 10
277.726496942792
 20
304.834519583411
 42
0.4274551490676
  0
VERTEX
  8
Kerros2
 10
268.991126020384
 20
317.645337556739
 42
0.0
  0
SEQEND
  0
POLYLINE
  8
Kerros2
 66
     1
 10
0.0
 20
0.0
 30
0.0
 70
     1
  0
VERTEX
  8
Kerros2
 10
268.991126020384
 20
317.645337556739
 42
0.0
  0
VERTEX
  8
Kerros2
 10
268.991121472834
 20
317.645338311361
 42
0.0
  0
SEQEND
  0
POLYLINE
  8
Kerros2
 66
     1
 10
0.0
 20
0.0
 30
0.0
 70
     0
  0
VERTEX
  8
Kerros2
 10
268.991121472834
 20
317.645338311361
 42
0.0
  0
VERTEX
  8
Kerros2
 10
238.280392866111
 20
322.741491855446
 42
0.0
  0
SEQEND
  0
POLYLINE
  8
Kerros2
 66
     1
 10
0.0
 20
0.0
 30
0.0
 70
     0
  0
VERTEX
  8
Kerros2
 10
238.01081457455
 20
322.786225810916
 42
0.0222906650067
  0
VERTEX
  8
Kerros2
 10
155.380826926979
 20
332.161144419068
 42
0.2335589875587
  0
VERTEX
  8
Kerros2
 10
138.955658286843
 20
331.096836442706
 42
0.0839913198073
  0
VERTEX
  8
Kerros2
 10
134.179945980086
 20
327.145720505672
 42
0.1121298166098
  0
VERTEX
  8
Kerros2
 10
130.316327864091
 20
319.87931166368
 42
0.2962627107592
  0
VERTEX
  8
Kerros2
 10
136.504162285871
 20
300.607465663916
 42
0.0256750229647
  0
VERTEX
  8
Kerros2
 10
138.04187682887
 20
299.479865444899
 42
-0.5616834408278
  0
VERTEX
  8
Kerros2
 10
130.964080876321
 20
261.379463214564
 42
0.2863440654878
  0
VERTEX
  8
Kerros2
 10
121.364080876321
 20
248.179463214564
 42
0.0
  0
VERTEX
  8
Kerros2
 10
121.364080876321
 20
196.579463214564
 42
0.0
  0
VERTEX
  8
Kerros2
 10
121.364080876321
 20
164.179463214564
 42
0.0
  0
VERTEX
  8
Kerros2
 10
253.364080876321
 20
164.179463214564
 42
0.0
  0
VERTEX
  8
Kerros2
 10
253.374396753442
 20
193.879484324092
 42
0.0
  0
VERTEX
  8
Kerros2
 10
262.960414011846
 20
235.401072167053
 42
0.0
  0
SEQEND
  0
CIRCLE
  8
Kerros2
 10
192.112552948292
 20
317.885611984302
 30
0.0
 40
4.2
  0
CIRCLE
  8
Kerros2
 10
224.61560880435
 20
196.582556128243
 30
0.0
 40
4.2
  0
CIRCLE
  8
Kerros2
 10
269.01560880435
 20
273.485611984302
 30
0.0
 40
4.2
  0
CIRCLE
  8
Kerros2
 10
147.712552948292
 20
240.982556128243
 30
0.0
 40
4.2
  0
CIRCLE
  8
Kerros2
 10
219.764080876321
 20
276.979463262558
 30
0.0
 40
7.2
  0
CIRCLE
  8
Kerros2
 10
219.764080876321
 20
276.979463262558
 30
0.0
 40
21.6
  0
POLYLINE
  8
Kerros2
 66
     1
 10
0.0
 20
0.0
 30
0.0
 70
     0
  0
VERTEX
  8
Kerros2
 10
262.960414011846
 20
235.401072167053
 42
0.0660161266162
  0
VERTEX
  8
Kerros2
 10
266.763884338479
 20
250.385510804768
 42
0.0
  0
VERTEX
  8
Kerros2
 10
277.329452680681
 20
268.685611984302
 42
0.0
  0
SEQEND
  0
POLYLINE
  8
Kerros2
 66
     1
 10
0.0
 20
0.0
 30
0.0
 70
     1
  0
VERTEX
  8
Kerros2
 10
277.329452680681
 20
268.685611984302
 42
0.0
  0
SEQEND
  0
POLYLINE
  8
Kerros2
 66
     1
 10
0.0
 20
0.0
 30
0.0
 70
     0
  0
VERTEX
  8
Kerros2
 10
277.329454297538
 20
268.685614784783
 42
0.4142134637133
  0
VERTEX
  8
Kerros2
 10
273.81560880435
 20
281.799455860632
 42
0.0
  0
VERTEX
  8
Kerros2
 10
272.937950852436
 20
282.306171915427
 42
0.0
  0
SEQEND
  0
POLYLINE
  8
Kerros2
 66
     1
 10
0.0
 20
0.0
 30
0.0
 70
     1
  0
VERTEX
  8
Kerros2
 10
255.515507624816
 20
292.365024202834
 42
0.2062842492518
  0
VERTEX
  8
Kerros2
 10
215.212654127825
 20
315.633887518432
 42
0.0
  0
VERTEX
  8
Kerros2
 10
196.912552948291
 20
326.199455860633
 42
0.4142135623731
  0
VERTEX
  8
Kerros2
 10
183.798709071961
 20
322.685611984302
 42
0.0
  0
VERTEX
  8
Kerros2
 10
173.23314072976
 20
304.385510804769
 42
0.2062842492518
  0
VERTEX
  8
Kerros2
 10
149.964277414162
 20
264.082657307777
 42
0.0
  0
VERTEX
  8
Kerros2
 10
139.398709071961
 20
245.782556128244
 42
0.4142135623731
  0
VERTEX
  8
Kerros2
 10
142.912552948292
 20
232.668712251913
 42
0.0
  0
VERTEX
  8
Kerros2
 10
161.212654127825
 20
222.103143909712
 42
0.2062842492518
  0
VERTEX
  8
Kerros2
 10
201.515507624816
 20
198.834280594114
 42
0.0
  0
VERTEX
  8
Kerros2
 10
219.81560880435
 20
188.268712251913
 42
0.4142135623731
  0
VERTEX
  8
Kerros2
 10
232.92945268068
 20
191.782556128244
 42
0.0
  0
VERTEX
  8
Kerros2
 10
243.495021022881
 20
210.082657307777
 42
0.1020676108895
  0
VERTEX
  8
Kerros2
 10
259.286374618845
 20
227.834084056273
 42
0.1020676108895
  0
VERTEX
  8
Kerros2
 10
266.763884338479
 20
250.385510804769
 42
0.0
  0
VERTEX
  8
Kerros2
 10
277.32945268068
 20
268.685611984302
 42
0.4142135623731
  0
VERTEX
  8
Kerros2
 10
273.81560880435
 20
281.799455860633
 42
0.0
  0
SEQEND
  0
POLYLINE
  8
Kerros2
 66
     1
 10
0.0
 20
0.0
 30
0.0
 70
     1
  0
VERTEX
  8
Kerros2
 10
-1201.60562282908
 20
816.093053966062
 42
-0.0040482039755
  0
SEQEND
  0
POLYLINE
  8
Kerros2
 66
     1
 10
0.0
 20
0.0
 30
0.0
 70
     1
  0
VERTEX
  8
Kerros2
 10
-1232.64578247842
 20
813.523891587627
 42
0.0
  0
SEQEND
  0
POLYLINE
  8
Kerros2
 66
     1
 10
0.0
 20
0.0
 30
0.0
 70
     1
  0
VERTEX
  8
Kerros2
 10
-850.528227412008
 20
811.228053219935
 42
0.0096140880357
  0
SEQEND
  0
POLYLINE
  8
Kerros2
 66
     1
 10
0.0
 20
0.0
 30
0.0
 70
     1
  0
VERTEX
  8
Kerros2
 10
-917.0
 20
824.0
 42
0.0130194579348
  0
SEQEND
  0
CIRCLE
  8
Kerros2
 10
193.00000048
 20
939.549998913994
 30
0.0
 40
4.0
  0
CIRCLE
  8
Kerros2
 10
577.74999877
 20
939.549998913994
 30
0.0
 40
3.0
  0
CIRCLE
  8
Kerros2
 10
260.0
 20
962.0
 30
0.0
 40
4.0
  0
CIRCLE
  8
Kerros2
 10
352.6
 20
961.6
 30
0.0
 40
4.0
  0
CIRCLE
  8
Kerros2
 10
307.0
 20
980.8
 30
0.0
 40
4.0
  0
POLYLINE
  8
Kerros2
 66
     1
 10
0.0
 20
0.0
 30
0.0
 70
     1
  0
VERTEX
  8
Kerros2
 10
488.0
 20
962.0
 42
0.0101329300641
  0
VERTEX
  8
Kerros2
 10
440.0
 20
970.0
 42
0.6655170847759
  0
VERTEX
  8
Kerros2
 10
438.278509202769
 20
955.539604209012
 42
-0.0093474362667
  0
VERTEX
  8
Kerros2
 10
487.400707985036
 20
951.048090769432
 42
0.5502867347833
  0
SEQEND
  0
POLYLINE
  8
Kerros2
 66
     1
 10
0.0
 20
0.0
 30
0.0
 70
     1
  0
VERTEX
  8
Kerros2
 10
550.085348047762
 20
942.607394619647
 42
0.4694972023681
  0
VERTEX
  8
Kerros2
 10
551.0
 20
948.0
 42
0.0096477311901
  0
VERTEX
  8
Kerros2
 10
506.0
 20
958.0
 42
0.6900633457973
  0
VERTEX
  8
Kerros2
 10
504.842054424846
 20
949.006380671649
 42
-0.0086587768826
  0
SEQEND
  0
CIRCLE
  8
Kerros2
 10
576.312405923695
 20
981.022226568661
 30
0.0
 40
4.0
  0
CIRCLE
  8
Kerros2
 10
192.226342551664
 20
1003.61552441408
 30
0.0
 40
3.0
  0
POLYLINE
  8
Kerros2
 66
     1
 10
0.0
 20
0.0
 30
0.0
 70
     1
  0
VERTEX
  8
Kerros2
 10
283.139775772825
 20
1020.75648377807
 42
-0.0101329300641
  0
VERTEX
  8
Kerros2
 10
331.526721860837
 20
1025.9240217098
 42
-0.6655170847759
  0
VERTEX
  8
Kerros2
 10
332.396098328304
 20
1011.3874897453
 42
0.0093474362667
  0
VERTEX
  8
Kerros2
 10
283.094915379164
 20
1009.788281817
 42
-0.5502867347833
  0
SEQEND
  0
POLYLINE
  8
Kerros2
 66
     1
 10
0.0
 20
0.0
 30
0.0
 70
     1
  0
VERTEX
  8
Kerros2
 10
220.022790868253
 20
1005.04311996869
 42
-0.4694972023681
  0
VERTEX
  8
Kerros2
 10
219.42638195548
 20
1010.48012993656
 42
-0.0096477311901
  0
VERTEX
  8
Kerros2
 10
264.935948967869
 20
1017.8203826805
 42
-0.6900633457973
  0
VERTEX
  8
Kerros2
 10
265.563772849455
 20
1008.77428607743
 42
0.0086587768826
  0
SEQEND
  0
POLYLINE
  8
Kerros2
 66
     1
 10
0.0
 20
0.0
 30
0.0
 70
     1
  0
VERTEX
  8
Kerros2
 10
564.153846153846
 20
1019.23076923077
 42
0.0
  0
VERTEX
  8
Kerros2
 10
586.153846153846
 20
1019.23076923077
 42
0.0
  0
VERTEX
  8
Kerros2
 10
586.153846153846
 20
1069.23076923077
 42
0.0
  0
VERTEX
  8
Kerros2
 10
564.153846153846
 20
1069.23076923077
 42
0.0
  0
SEQEND
  0
POLYLINE
  8
Kerros2
 66
     1
 10
0.0
 20
0.0
 30
0.0
 70
     1
  0
VERTEX
  8
Kerros2
 10
570.153846153846
 20
1066.23076923077
 42
0.1316524975874
  0
VERTEX
  8
Kerros2
 10
569.153846153846
 20
1065.96282003834
 42
0.3769705238792
  0
VERTEX
  8
Kerros2
 10
568.307692307692
 20
1063.46153846154
 42
0.0
  0
VERTEX
  8
Kerros2
 10
573.30769219979
 20
1051.4615387205
 42
0.1645634847358
  0
VERTEX
  8
Kerros2
 10
574.153846153846
 20
1050.4987184232
 42
0.4524638742388
  0
VERTEX
  8
Kerros2
 10
577.0
 20
1051.46153846154
 42
0.0
  0
VERTEX
  8
Kerros2
 10
582.0
 20
1063.46153846154
 42
0.0990195135928
  0
VERTEX
  8
Kerros2
 10
582.153846153846
 20
1064.23076923077
 42
0.4142135623731
  0
VERTEX
  8
Kerros2
 10
580.153846153846
 20
1066.23076923077
 42
0.0
  0
SEQEND
  0
POLYLINE
  8
Kerros2
 66
     1
 10
0.0
 20
0.0
 30
0.0
 70
     1
  0
VERTEX
  8
Kerros2
 10
570.153846153846
 20
1022.23076923077
 42
-0.1316524975874
  0
VERTEX
  8
Kerros2
 10
569.153846153846
 20
1022.4987184232
 42
-0.3769705238792
  0
VERTEX
  8
Kerros2
 10
568.307692307692
 20
1025.0
 42
0.0
  0
VERTEX
  8
Kerros2
 10
573.30769219979
 20
1036.99999974103
 42
-0.1645634847358
  0
VERTEX
  8
Kerros2
 10
574.153846153846
 20
1037.96282003834
 42
-0.4524638742388
  0
VERTEX
  8
Kerros2
 10
577.0
 20
1037.0
 42
0.0
  0
VERTEX
  8
Kerros2
 10
582.0
 20
1025.0
 42
-0.0990195135928
  0
VERTEX
  8
Kerros2
 10
582.153846153846
 20
1024.23076923077
 42
-0.4142135623731
  0
VERTEX
  8
Kerros2
 10
580.153846153846
 20
1022.23076923077
 42
0.0
  0
SEQEND
  0
POLYLINE
  8
Kerros2
 66
     1
 10
0.0
 20
0.0
 30
0.0
 70
     1
  0
VERTEX
  8
Kerros2
 10
583.153846153846
 20
1049.23076923077
 42
0.0
  0
VERTEX
  8
Kerros2
 10
583.153846153846
 20
1039.23076923077
 42
-0.5773502691896
  0
VERTEX
  8
Kerros2
 10
580.153846153846
 20
1037.4987184232
 42
-0.1682335185555
  0
VERTEX
  8
Kerros2
 10
579.296892772076
 20
1038.48798787806
 42
0.0
  0
VERTEX
  8
Kerros2
 10
577.296892772073
 20
1043.48798787806
 42
-0.1925824035673
  0
VERTEX
  8
Kerros2
 10
577.296892772073
 20
1044.97355058348
 42
0.0
  0
VERTEX
  8
Kerros2
 10
579.296892772076
 20
1049.97355058348
 42
-0.1682335185555
  0
VERTEX
  8
Kerros2
 10
580.153846153846
 20
1050.96282003834
 42
-0.5773502691896
  0
SEQEND
  0
POLYLINE
  8
Kerros2
 66
     1
 10
0.0
 20
0.0
 30
0.0
 70
     1
  0
VERTEX
  8
Kerros2
 10
567.153846153846
 20
1049.23076923077
 42
0.0
  0
VERTEX
  8
Kerros2
 10
567.153846153846
 20
1039.23076923077
 42
0.5773502691896
  0
VERTEX
  8
Kerros2
 10
570.153846153846
 20
1037.4987184232
 42
0.1682335185555
  0
VERTEX
  8
Kerros2
 10
571.010799535617
 20
1038.48798787806
 42
0.0
  0
VERTEX
  8
Kerros2
 10
573.01079953562
 20
1043.48798787806
 42
0.1925824035673
  0
VERTEX
  8
Kerros2
 10
573.01079953562
 20
1044.97355058348
 42
0.0
  0
VERTEX
  8
Kerros2
 10
571.010799535617
 20
1049.97355058348
 42
0.1682335185555
  0
VERTEX
  8
Kerros2
 10
570.153846153846
 20
1050.96282003834
 42
0.5773502691896
  0
SEQEND
  0
POLYLINE
  8
Kerros2
 66
     1
 10
0.0
 20
0.0
 30
0.0
 70
     1
  0
VERTEX
  8
Kerros2
 10
-1062.38728671728
 20
909.779006328071
 42
0.0
  0
SEQEND
  0
POLYLINE
  8
Kerros2
 66
     1
 10
0.0
 20
0.0
 30
0.0
 70
     1
  0
VERTEX
  8
Kerros2
 10
-1051.71885557176
 20
892.0710890939
 42
0.0
  0
SEQEND
  0
POLYLINE
  8
Kerros2
 66
     1
 10
0.0
 20
0.0
 30
0.0
 70
     1
  0
VERTEX
  8
Kerros2
 10
162.0
 20
799.0
 42
0.0
  0
VERTEX
  8
Kerros2
 10
166.0
 20
799.0
 42
0.0
  0
VERTEX
  8
Kerros2
 10
166.0
 20
850.0
 42
0.0
  0
VERTEX
  8
Kerros2
 10
162.0
 20
850.0
 42
0.0
  0
SEQEND
  0
CIRCLE
  8
Kerros2
 10
111.764081356321
 20
532.129462128558
 30
0.0
 40
4.0
  0
CIRCLE
  8
Kerros2
 10
178.764080876321
 20
554.579463214564
 30
0.0
 40
4.0
  0
CIRCLE
  8
Kerros2
 10
225.764080876321
 20
573.379463214564
 30
0.0
 40
4.0
  0
CIRCLE
  8
Kerros2
 10
271.364080876321
 20
554.179463214564
 30
0.0
 40
4.0
  0
CIRCLE
  8
Kerros2
 10
219.764080876321
 20
532.129462128558
 30
0.0
 40
7.0
  0
CIRCLE
  8
Kerros2
 10
219.764080876321
 20
532.129462128558
 30
0.0
 40
11.0
  0
CIRCLE
  8
Kerros2
 10
244.964080876321
 20
574.179463214564
 30
0.0
 40
2.1
  0
CIRCLE
  8
Kerros2
 10
187.364080876321
 20
547.779463214564
 30
0.0
 40
2.1
  0
CIRCLE
  8
Kerros2
 10
261.764080876321
 20
552.579463214564
 30
0.0
 40
2.1
  0
CIRCLE
  8
Kerros2
 10
178.964080876321
 20
565.779463214564
 30
0.0
 40
2.1
  0
POLYLINE
  8
Kerros2
 66
     1
 10
0.0
 20
0.0
 30
0.0
 70
     1
  0
VERTEX
  8
Kerros2
 10
174.546427330069
 20
532.272517180623
 42
0.0
  0
VERTEX
  8
Kerros2
 10
177.569878818422
 20
532.272517180624
 42
0.0
  0
VERTEX
  8
Kerros2
 10
185.358458047245
 20
532.272517180625
 42
-0.2547865748168
  0
VERTEX
  8
Kerros2
 10
198.626805466172
 20
524.712609928778
 42
0.1836949132569
  0
VERTEX
  8
Kerros2
 10
208.628320613119
 20
512.441759571785
 42
0.4581842154881
  0
VERTEX
  8
Kerros2
 10
240.481049601341
 20
523.554632870123
 42
0.1320338871738
  0
VERTEX
  8
Kerros2
 10
241.764080876321
 20
535.179463214564
 42
-0.3682351504013
  0
VERTEX
  8
Kerros2
 10
261.764080876321
 20
547.179463214564
 42
0.0
  0
VERTEX
  8
Kerros2
 10
261.764080876321
 20
547.179463214564
 42
0.0
  0
VERTEX
  8
Kerros2
 10
270.764080876321
 20
546.179463214564
 42
0.5344384724471
  0
VERTEX
  8
Kerros2
 10
278.764080876321
 20
556.179463214564
 42
0.2513322416933
  0
VERTEX
  8
Kerros2
 10
246.164080876321
 20
583.779463214564
 42
0.0094106782327
  0
VERTEX
  8
Kerros2
 10
229.758458047245
 20
583.872517180625
 42
0.0
  0
VERTEX
  8
Kerros2
 10
213.00811014821
 20
584.708122962908
 42
0.1876027540925
  0
VERTEX
  8
Kerros2
 10
165.764080876321
 20
565.779463214564
 42
0.5258586389535
  0
SEQEND
  0
CIRCLE
  8
Kerros2
 10
496.514079646321
 20
532.129462128558
 30
0.0
 40
5.0
  0
CIRCLE
  8
Kerros2
 10
558.563679263265
 20
584.195258281775
 30
0.0
 40
3.0
  0
POLYLINE
  8
Kerros2
 66
     1
 10
0.0
 20
0.0
 30
0.0
 70
     1
  0
VERTEX
  8
Kerros2
 10
549.583571321456
 20
562.178873062905
 42
-0.0024156881762
  0
VERTEX
  8
Kerros2
 10
549.41961033111
 20
561.753365204956
 42
-0.0037773568146
  0
VERTEX
  8
Kerros2
 10
549.275842857957
 20
561.3811635387
 42
-0.0043114491307
  0
VERTEX
  8
Kerros2
 10
549.149604772177
 20
561.055663841173
 42
-0.0044655575738
  0
VERTEX
  8
Kerros2
 10
549.038667208721
 20
560.771044841282
 42
-0.0064482706396
  0
VERTEX
  8
Kerros2
 10
548.239752424455
 20
558.78767038976
 42
0.0
  0
VERTEX
  8
Kerros2
 10
548.061825984538
 20
558.366910500923
 42
0.0
  0
VERTEX
  8
Kerros2
 10
547.744056167769
 20
557.633266893124
 42
0.0
  0
VERTEX
  8
Kerros2
 10
547.501266071272
 20
557.084977862927
 42
-0.0019751779504
  0
VERTEX
  8
Kerros2
 10
546.757499356395
 20
555.4468717882
 42
-0.0054813371423
  0
VERTEX
  8
Kerros2
 10
546.566275233395
 20
555.031301359057
 42
-0.0043336549232
  0
VERTEX
  8
Kerros2
 10
546.398585723298
 20
554.667868261206
 42
0.0
  0
VERTEX
  8
Kerros2
 10
545.219306137372
 20
552.126415059718
 42
0.0
  0
VERTEX
  8
Kerros2
 10
544.766101355075
 20
551.148974874503
 42
0.0026452067818
  0
VERTEX
  8
Kerros2
 10
544.597017818716
 20
550.782007600805
 42
0.0037019648663
  0
VERTEX
  8
Kerros2
 10
544.449709709899
 20
550.46061842112
 42
0.0040910534395
  0
VERTEX
  8
Kerros2
 10
544.321416568762
 20
550.179132344331
 42
0.0041748494424
  0
VERTEX
  8
Kerros2
 10
544.209695185884
 20
549.932593704484
 42
0.005914277746
  0
VERTEX
  8
Kerros2
 10
544.01555173948
 20
549.500487484427
 42
0.0051767764809
  0
VERTEX
  8
Kerros2
 10
543.871275843354
 20
549.175836091063
 42
0.0060759546342
  0
VERTEX
  8
Kerros2
 10
543.657331515999
 20
548.687805350062
 42
0.0048988774054
  0
VERTEX
  8
Kerros2
 10
543.446762953341
 20
548.198341432538
 42
0.0056562184847
  0
VERTEX
  8
Kerros2
 10
542.630678430412
 20
546.209395068606
 42
0.0
  0
VERTEX
  8
Kerros2
 10
542.236402897843
 20
545.209387377008
 42
0.0
  0
VERTEX
  8
Kerros2
 10
541.846024668416
 20
544.207734365888
 42
-0.3846091075129
  0
VERTEX
  8
Kerros2
 10
513.880248018855
 20
529.384613036215
 42
0.3946449415016
  0
VERTEX
  8
Kerros2
 10
510.576983531172
 20
527.55930361798
 42
-0.1276687771813
  0
VERTEX
  8
Kerros2
 10
506.57882854059
 20
521.296528815092
 42
0.4831884793575
  0
VERTEX
  8
Kerros2
 10
506.916520967495
 20
516.980111935705
 42
0.0
  0
VERTEX
  8
Kerros2
 10
526.840455997237
 20
503.56753160856
 42
0.1492191200104
  0
VERTEX
  8
Kerros2
 10
528.383509379419
 20
503.096546436473
 42
0.0
  0
VERTEX
  8
Kerros2
 10
557.134368353951
 20
503.096543818038
 42
0.6001742900404
  0
VERTEX
  8
Kerros2
 10
559.428216996714
 20
507.400166634253
 42
-0.1848173593949
  0
VERTEX
  8
Kerros2
 10
554.652783677421
 20
528.180461199442
 42
0.0014502891263
  0
VERTEX
  8
Kerros2
 10
554.750185503136
 20
528.934785367971
 42
0.0022677581541
  0
VERTEX
  8
Kerros2
 10
554.835091538877
 20
529.594884504822
 42
0.0025882718094
  0
VERTEX
  8
Kerros2
 10
554.90891108342
 20
530.172527479754
 42
0.00268065082
  0
VERTEX
  8
Kerros2
 10
554.972990951395
 20
530.678041065604
 42
0.0026416581237
  0
VERTEX
  8
Kerros2
 10
555.028565162485
 20
531.1204216734
 42
0.0036019494066
  0
VERTEX
  8
Kerros2
 10
555.124448874301
 20
531.894743256238
 42
0.0030112713127
  0
VERTEX
  8
Kerros2
 10
555.194991587559
 20
532.47563983927
 42
0.0032438676745
  0
VERTEX
  8
Kerros2
 10
555.298156235433
 20
533.347285216092
 42
0.0016437149294
  0
VERTEX
  8
Kerros2
 10
555.397581200475
 20
534.219354754556
 42
0.0
  0
VERTEX
  8
Kerros2
 10
555.480405826351
 20
534.975942344152
 42
0.0
  0
VERTEX
  8
Kerros2
 10
555.618455541529
 20
536.300734495938
 42
0.0
  0
VERTEX
  8
Kerros2
 10
555.717149494
 20
537.294815910596
 42
0.0012087736316
  0
VERTEX
  8
Kerros2
 10
555.996475555493
 20
540.278754570842
 42
0.0032887750271
  0
VERTEX
  8
Kerros2
 10
556.065136782979
 20
541.037124066421
 42
0.0025994035965
  0
VERTEX
  8
Kerros2
 10
556.124798802739
 20
541.700723334258
 42
0.0
  0
VERTEX
  8
Kerros2
 10
556.536404227792
 20
546.34642631969
 42
0.0
  0
VERTEX
  8
Kerros2
 10
556.695093555228
 20
548.133789680142
 42
-0.001588686493
  0
VERTEX
  8
Kerros2
 10
556.755570061816
 20
548.803975413269
 42
-0.0022225246489
  0
VERTEX
  8
Kerros2
 10
556.809188937157
 20
549.390322317877
 42
-0.0039380325059
  0
VERTEX
  8
Kerros2
 10
557.215249868771
 20
553.491670171067
 42
0.0
  0
VERTEX
  8
Kerros2
 10
557.313506778667
 20
554.382709851469
 42
0.0
  0
VERTEX
  8
Kerros2
 10
557.402531079876
 20
555.162028611196
 42
0.0
  0
VERTEX
  8
Kerros2
 10
557.564062842191
 20
556.525153515778
 42
0.0
  0
VERTEX
  8
Kerros2
 10
557.689042406296
 20
557.547035389404
 42
0.0
  0
VERTEX
  8
Kerros2
 10
557.880760122788
 20
559.07939278094
 42
0.0
  0
VERTEX
  8
Kerros2
 10
558.075185456089
 20
560.611440988224
 42
0.3541185725307
  0
VERTEX
  8
Kerros2
 10
556.137774325707
 20
563.835834496481
 42
0.0
  0
VERTEX
  8
Kerros2
 10
554.452421256196
 20
564.44926433748
 42
0.4142135623731
  0
SEQEND
  0
POLYLINE
  8
Kerros2
 66
     1
 10
0.0
 20
0.0
 30
0.0
 70
     0
  0
VERTEX
  8
Kerros2
 10
512.903227124701
 20
540.593909198688
 42
0.2590192699228
  0
VERTEX
  8
Kerros2
 10
526.009035613261
 20
540.375017152385
 42
0.1593216800126
  0
VERTEX
  8
Kerros2
 10
531.817336881262
 20
546.429961201502
 42
0.0248933072485
  0
VERTEX
  8
Kerros2
 10
532.339049354615
 20
547.66791464984
 42
0.0
  0
VERTEX
  8
Kerros2
 10
544.75443485262
 20
581.884464329478
 42
0.0
  0
VERTEX
  8
Kerros2
 10
546.487154339757
 20
587.757930004188
 42
-0.1924044889452
  0
VERTEX
  8
Kerros2
 10
552.268143463394
 20
595.09944614802
 42
-0.5773502691896
  0
VERTEX
  8
Kerros2
 10
571.154750863006
 20
584.195258281775
 42
-0.0640558406198
  0
VERTEX
  8
Kerros2
 10
570.744817287326
 20
581.008573410535
 42
0.0
  0
VERTEX
  8
Kerros2
 10
569.967769657981
 20
578.038292100098
 42
0.0
  0
VERTEX
  8
Kerros2
 10
562.79980023678
 20
527.035472691856
 42
0.3031547099051
  0
VERTEX
  8
Kerros2
 10
573.464093466361
 20
505.280368819987
 42
0.0
  0
VERTEX
  8
Kerros2
 10
584.354434852619
 20
499.084464329478
 42
0.0
  0
VERTEX
  8
Kerros2
 10
584.354434852619
 20
488.284464329478
 42
0.0
  0
VERTEX
  8
Kerros2
 10
527.954434852619
 20
488.284464329478
 42
0.0
  0
VERTEX
  8
Kerros2
 10
527.954434852619
 20
490.684464329478
 42
0.2610237291187
  0
VERTEX
  8
Kerros2
 10
526.204455452865
 20
493.4523755328
 42
0.0
  0
VERTEX
  8
Kerros2
 10
487.844280642914
 20
519.250793887277
 42
0.0
  0
VERTEX
  8
Kerros2
 10
485.8489963036
 20
521.1973378182
 42
-0.4969940050421
  0
VERTEX
  8
Kerros2
 10
488.877729984271
 20
545.356007727591
 42
-0.2679489273881
  0
VERTEX
  8
Kerros2
 10
504.150416225275
 20
545.356015281109
 42
0.0
  0
VERTEX
  8
Kerros2
 10
512.903227124701
 20
540.593909198688
 42
0.4624752306971
  0
VERTEX
  8
Kerros2
 10
532.339055435417
 20
547.667931356639
 42
0.0
  0
SEQEND
  0
CIRCLE
  8
Kerros2
 10
496.514079646321
 20
532.129462128558
 30
0.0
 40
6.0
  0
POLYLINE
  8
Kerros2
 66
     1
 10
0.0
 20
0.0
 30
0.0
 70
     1
  0
VERTEX
  8
Kerros2
 10
530.354434852619
 20
490.684464329478
 42
0.0
  0
VERTEX
  8
Kerros2
 10
581.354434852619
 20
490.684464329478
 42
0.0
  0
VERTEX
  8
Kerros2
 10
581.354434852619
 20
494.684464329478
 42
0.0
  0
VERTEX
  8
Kerros2
 10
530.354434852619
 20
494.684464329478
 42
0.0
  0
SEQEND
  0
POLYLINE
  8
Kerros2
 66
     1
 10
0.0
 20
0.0
 30
0.0
 70
     1
  0
VERTEX
  8
Kerros2
 10
141.922521116186
 20
1049.94678498471
 42
0.0
  0
VERTEX
  8
Kerros2
 10
129.891062689326
 20
1048.81303295744
 42
0.0229510942812
  0
VERTEX
  8
Kerros2
 10
103.419327885256
 20
1045.77093029261
 42
-0.0815707129148
  0
VERTEX
  8
Kerros2
 10
-65.470399490092
 20
1038.86219906676
 42
0.0
  0
VERTEX
  8
Kerros2
 10
-102.822430765744
 20
1049.77552573038
 42
0.3565753705729
  0
VERTEX
  8
Kerros2
 10
-137.776495163406
 20
1034.96509243966
 42
0.5077150954925
  0
VERTEX
  8
Kerros2
 10
-116.505550095233
 20
991.445906256609
 42
0.0
  0
VERTEX
  8
Kerros2
 10
-93.501952347621
 20
987.341406716525
 42
0.0640362868778
  0
VERTEX
  8
Kerros2
 10
61.0639038703057
 20
994.679472601048
 42
0.0184013747431
  0
VERTEX
  8
Kerros2
 10
145.894589993221
 20
1011.75457821273
 42
0.5527189526929
  0
VERTEX
  8
Kerros2
 10
159.968409908849
 20
1041.06634599252
 42
0.2828316687159
  0
SEQEND
  0
POLYLINE
  8
Kerros2
 66
     1
 10
0.0
 20
0.0
 30
0.0
 70
     1
  0
VERTEX
  8
Kerros2
 10
66.4581945969376
 20
1021.7850117326
 42
0.3801042607829
  0
VERTEX
  8
Kerros2
 10
61.0805921510087
 20
1026.291900899
 42
-0.0247220307758
  0
VERTEX
  8
Kerros2
 10
14.4163271103487
 20
1022.77510351027
 42
0.0386233234258
  0
VERTEX
  8
Kerros2
 10
13.3976725465031
 20
1022.6616489906
 42
0.0428321898617
  0
VERTEX
  8
Kerros2
 10
12.4121322384472
 20
1022.37976482851
 42
0.0426396589592
  0
VERTEX
  8
Kerros2
 10
11.4882848519781
 20
1021.93508092343
 42
0.0421217423868
  0
VERTEX
  8
Kerros2
 10
10.6514561887461
 20
1021.34238616434
 42
0.0235294547106
  0
VERTEX
  8
Kerros2
 10
10.2742002626742
 20
1020.99508301931
 42
0.0230663280356
  0
VERTEX
  8
Kerros2
 10
9.9274611729811
 20
1020.61714865645
 42
0.0412936035588
  0
VERTEX
  8
Kerros2
 10
9.3346237010171
 20
1019.78114214687
 42
0.0426988846534
  0
VERTEX
  8
Kerros2
 10
8.8922213689757
 20
1018.85813402463
 42
0.042340155304
  0
VERTEX
  8
Kerros2
 10
8.6097124366258
 20
1017.87426624596
 42
0.058168743143
  0
VERTEX
  8
Kerros2
 10
8.4993989900199
 20
1016.46365967828
 42
0.0
  0
VERTEX
  8
Kerros2
 10
8.499751224017
 20
1016.46371355236
 42
0.0001889575105
  0
VERTEX
  8
Kerros2
 10
8.6384616098983
 20
1012.87346075394
 42
0.0003272980053
  0
VERTEX
  8
Kerros2
 10
8.7771838916233
 20
1009.28320790171
 42
0.0000471474628
  0
VERTEX
  8
Kerros2
 10
8.7814992199437
 20
1009.17153164327
 42
0.0
  0
VERTEX
  8
Kerros2
 10
8.7811469860853
 20
1009.17147776954
 42
0.0
  0
VERTEX
  8
Kerros2
 10
8.723769387447
 20
1009.16925256523
 42
0.0529636994133
  0
VERTEX
  8
Kerros2
 10
8.9053491944594
 20
1007.9061515442
 42
0.0402129877516
  0
VERTEX
  8
Kerros2
 10
9.242158405578
 20
1006.92878919702
 42
0.043020795646
  0
VERTEX
  8
Kerros2
 10
9.7372225909914
 20
1006.02132694529
 42
0.0404573202268
  0
VERTEX
  8
Kerros2
 10
10.378754896708
 20
1005.21038227782
 42
0.0229338258445
  0
VERTEX
  8
Kerros2
 10
10.7479219361421
 20
1004.84791434258
 42
0.0243827899315
  0
VERTEX
  8
Kerros2
 10
11.1463933278826
 20
1004.51775601173
 42
0.0197980434519
  0
VERTEX
  8
Kerros2
 10
11.5715946754881
 20
1004.22296071999
 42
0.0177960145108
  0
VERTEX
  8
Kerros2
 10
12.0201758212811
 20
1003.96490204964
 42
0.0430937665701
  0
VERTEX
  8
Kerros2
 10
12.9737425716921
 20
1003.56545760207
 42
0.0390710413788
  0
VERTEX
  8
Kerros2
 10
13.9810297611741
 20
1003.33290221164
 42
0.0474722941812
  0
VERTEX
  8
Kerros2
 10
15.0127571118328
 20
1003.2714272369
 42
0.0569211457848
  0
VERTEX
  8
Kerros2
 10
62.0789964697042
 20
1009.87779346015
 42
0.151023800123
  0
VERTEX
  8
Kerros2
 10
65.5622491824665
 20
1012.28424234738
 42
0.0349479787743
  0
VERTEX
  8
Kerros2
 10
66.0267947239463
 20
1013.05842156651
 42
0.0441116532122
  0
VERTEX
  8
Kerros2
 10
66.4128417287486
 20
1014.01610088433
 42
0.0413933868328
  0
VERTEX
  8
Kerros2
 10
66.6316877108229
 20
1015.02536269154
 42
0.0211057070963
  0
VERTEX
  8
Kerros2
 10
66.677330987703
 20
1015.54041172334
 42
0.0191970141268
  0
VERTEX
  8
Kerros2
 10
66.6839135205062
 20
1015.79882417905
 42
0.0144223750075
  0
VERTEX
  8
Kerros2
 10
66.6830859003524
 20
1015.92814434324
 42
0.0153938358761
  0
VERTEX
  8
Kerros2
 10
66.67948605119
 20
1016.05738292602
 42
-0.0000611967364
  0
VERTEX
  8
Kerros2
 10
66.5688242426736
 20
1018.92119670777
 42
0.0000801980707
  0
VERTEX
  8
Kerros2
 10
66.5135255009191
 20
1020.35310484145
 42
0.0000674086633
  0
SEQEND
  0
CIRCLE
  8
Kerros2
 10
143.723803076757
 20
1030.83146695705
 30
0.0
 40
4.0
  0
CIRCLE
  8
Kerros2
 10
34.2359186436793
 20
673.979463262558
 30
0.0
 40
2.3404130403177
  0
CIRCLE
  8
Kerros2
 10
379.462852302818
 20
777.829675025089
 30
0.0
 40
5.4292729601548
  0
CIRCLE
  8
Kerros2
 10
426.6
 20
747.800000047994
 30
0.0
 40
18.05
  0
CIRCLE
  8
Kerros2
 10
454.251527928029
 20
788.706148769738
 30
0.0
 40
3.0
  0
CIRCLE
  8
Kerros2
 10
421.748472071971
 20
667.403092913679
 30
0.0
 40
3.0
  0
CIRCLE
  8
Kerros2
 10
377.348472071971
 20
744.306148769738
 30
0.0
 40
3.0
  0
CIRCLE
  8
Kerros2
 10
498.651527928029
 20
711.803092913679
 30
0.0
 40
3.0
  0
CIRCLE
  8
Kerros2
 10
426.6
 20
747.800000047994
 30
0.0
 40
6.5
  0
CIRCLE
  8
Kerros2
 10
-73.764080876321
 20
673.979463262558
 30
0.0
 40
11.0
  0
POLYLINE
  8
Kerros2
 66
     1
 10
0.0
 20
0.0
 30
0.0
 70
     1
  0
VERTEX
  8
Kerros2
 10
-68.823048483814
 20
641.371383683786
 42
0.0
  0
VERTEX
  8
Kerros2
 10
36.7528553113498
 20
657.36907404945
 42
0.3708224270799
  0
VERTEX
  8
Kerros2
 10
51.0359186436792
 20
673.979463262558
 42
0.3708224270799
  0
VERTEX
  8
Kerros2
 10
36.7528553113495
 20
690.589852475666
 42
0.0
  0
VERTEX
  8
Kerros2
 10
-68.823048483814
 20
706.58754284133
 42
0.1701085381257
  0
VERTEX
  8
Kerros2
 10
-90.254234415019
 20
702.541247016195
 42
0.5773502691896
  0
VERTEX
  8
Kerros2
 10
-90.254234415019
 20
645.417679508921
 42
0.1701085494919
  0
SEQEND
  0
POLYLINE
  8
Kerros2
 66
     1
 10
0.0
 20
0.0
 30
0.0
 70
     1
  0
VERTEX
  8
Kerros2
 10
408.083691905855
 20
793.562029287327
 42
0.0
  0
VERTEX
  8
Kerros2
 10
408.083386133889
 20
793.563847825036
 42
0.0
  0
VERTEX
  8
Kerros2
 10
408.083688010209
 20
793.562028640882
 42
0.0
  0
VERTEX
  8
Kerros2
 10
377.372959403486
 20
788.465875096797
 42
0.4274551490676
  0
VERTEX
  8
Kerros2
 10
368.637583933529
 20
775.655056368847
 42
0.0
  0
VERTEX
  8
Kerros2
 10
373.426130023885
 20
753.126708700862
 42
0.0
  0
VERTEX
  8
Kerros2
 10
372.548472071971
 20
752.619992646068
 42
0.4142134637133
  0
VERTEX
  8
Kerros2
 10
369.034626578783
 20
739.506151570219
 42
0.0
  0
VERTEX
  8
Kerros2
 10
379.600196537841
 20
721.206047590204
 42
0.0660161266162
  0
VERTEX
  8
Kerros2
 10
383.403666864475
 20
706.221608952489
 42
0.0
  0
VERTEX
  8
Kerros2
 10
392.989684122879
 20
664.700021109528
 42
0.0
  0
VERTEX
  8
Kerros2
 10
393.0
 20
635.0
 42
0.0
  0
VERTEX
  8
Kerros2
 10
525.0
 20
635.0
 42
0.0
  0
VERTEX
  8
Kerros2
 10
525.0
 20
667.4
 42
0.0
  0
VERTEX
  8
Kerros2
 10
525.0
 20
719.0
 42
0.2863440654878
  0
VERTEX
  8
Kerros2
 10
525.0
 20
719.0
 42
-0.5616834408278
  0
VERTEX
  8
Kerros2
 10
525.0
 20
719.0
 42
0.0256750229647
  0
VERTEX
  8
Kerros2
 10
525.0
 20
719.0
 42
0.2962627107592
  0
VERTEX
  8
Kerros2
 10
525.0
 20
719.0
 42
0.1121298166098
  0
VERTEX
  8
Kerros2
 10
525.0
 20
719.0
 42
0.0839913198073
  0
VERTEX
  8
Kerros2
 10
468.364080876321
 20
797.820536785436
 42
0.2335589875587
  0
VERTEX
  8
Kerros2
 10
462.364080876321
 20
800.820536785436
 42
0.0222906650067
  0
VERTEX
  8
Kerros2
 10
408.353266301771
 20
793.606762596352
 42
0.0
  0
SEQEND
  0
POLYLINE
  8
Kerros2
 66
     1
 10
0.0
 20
0.0
 30
0.0
 70
     1
  0
VERTEX
  8
Kerros2
 10
141.922521116186
 20
1060.05321501529
 42
0.0
  0
VERTEX
  8
Kerros2
 10
129.891062689326
 20
1061.18696704256
 42
-0.0229510942812
  0
VERTEX
  8
Kerros2
 10
103.419327885257
 20
1064.22906970739
 42
0.0815707129148
  0
VERTEX
  8
Kerros2
 10
-65.470399490091
 20
1071.13780093324
 42
0.0
  0
VERTEX
  8
Kerros2
 10
-102.822430765744
 20
1060.22447426962
 42
-0.3565753705729
  0
VERTEX
  8
Kerros2
 10
-137.776495163406
 20
1075.03490756034
 42
-0.5077150954925
  0
VERTEX
  8
Kerros2
 10
-116.505550095233
 20
1118.55409374339
 42
0.0
  0
VERTEX
  8
Kerros2
 10
-93.501952347621
 20
1122.65859328348
 42
-0.0640362868778
  0
VERTEX
  8
Kerros2
 10
61.0639038703059
 20
1115.32052739895
 42
-0.0184013747431
  0
VERTEX
  8
Kerros2
 10
145.894589993222
 20
1098.24542178728
 42
-0.5527189526929
  0
VERTEX
  8
Kerros2
 10
159.968409908849
 20
1068.93365400748
 42
-0.2828316687159
  0
SEQEND
  0
POLYLINE
  8
Kerros2
 66
     1
 10
0.0
 20
0.0
 30
0.0
 70
     1
  0
VERTEX
  8
Kerros2
 10
66.4581945969378
 20
1088.2149882674
 42
-0.3801042607829
  0
VERTEX
  8
Kerros2
 10
61.0805921510089
 20
1083.708099101
 42
0.0247220307758
  0
VERTEX
  8
Kerros2
 10
14.4163271103489
 20
1087.22489648973
 42
-0.0386233234258
  0
VERTEX
  8
Kerros2
 10
13.3976725465034
 20
1087.3383510094
 42
-0.0428321898617
  0
VERTEX
  8
Kerros2
 10
12.4121322384474
 20
1087.62023517149
 42
-0.0426396589592
  0
VERTEX
  8
Kerros2
 10
11.4882848519783
 20
1088.06491907657
 42
-0.0421217423868
  0
VERTEX
  8
Kerros2
 10
10.6514561887464
 20
1088.65761383566
 42
-0.0235294547106
  0
VERTEX
  8
Kerros2
 10
10.2742002626744
 20
1089.00491698069
 42
-0.0230663280356
  0
VERTEX
  8
Kerros2
 10
9.9274611729813
 20
1089.38285134355
 42
-0.0412936035588
  0
VERTEX
  8
Kerros2
 10
9.3346237010173
 20
1090.21885785313
 42
-0.0426988846534
  0
VERTEX
  8
Kerros2
 10
8.8922213689759
 20
1091.14186597537
 42
-0.042340155304
  0
VERTEX
  8
Kerros2
 10
8.6097124366261
 20
1092.12573375405
 42
-0.058168743143
  0
VERTEX
  8
Kerros2
 10
8.4993989900202
 20
1093.53634032172
 42
0.0
  0
VERTEX
  8
Kerros2
 10
8.4997512240172
 20
1093.53628644764
 42
-0.0001889575105
  0
VERTEX
  8
Kerros2
 10
8.6384616098985
 20
1097.12653924606
 42
-0.0003272980053
  0
VERTEX
  8
Kerros2
 10
8.7771838916235
 20
1100.71679209829
 42
-0.0000471474628
  0
VERTEX
  8
Kerros2
 10
8.781499219944
 20
1100.82846835673
 42
0.0
  0
VERTEX
  8
Kerros2
 10
8.7811469860856
 20
1100.82852223046
 42
0.0
  0
VERTEX
  8
Kerros2
 10
8.7237693874472
 20
1100.83074743477
 42
-0.0529636994133
  0
VERTEX
  8
Kerros2
 10
8.9053491944596
 20
1102.0938484558
 42
-0.0402129877516
  0
VERTEX
  8
Kerros2
 10
9.2421584055783
 20
1103.07121080298
 42
-0.043020795646
  0
VERTEX
  8
Kerros2
 10
9.7372225909917
 20
1103.97867305471
 42
-0.0404573202268
  0
VERTEX
  8
Kerros2
 10
10.3787548967082
 20
1104.78961772218
 42
-0.0229338258445
  0
VERTEX
  8
Kerros2
 10
10.7479219361423
 20
1105.15208565742
 42
-0.0243827899315
  0
VERTEX
  8
Kerros2
 10
11.1463933278828
 20
1105.48224398827
 42
-0.0197980434519
  0
VERTEX
  8
Kerros2
 10
11.5715946754883
 20
1105.77703928001
 42
-0.0177960145108
  0
VERTEX
  8
Kerros2
 10
12.0201758212813
 20
1106.03509795036
 42
-0.0430937665701
  0
VERTEX
  8
Kerros2
 10
12.9737425716924
 20
1106.43454239793
 42
-0.0390710413788
  0
VERTEX
  8
Kerros2
 10
13.9810297611743
 20
1106.66709778836
 42
-0.0474722941812
  0
VERTEX
  8
Kerros2
 10
15.012757111833
 20
1106.7285727631
 42
-0.0569211457848
  0
VERTEX
  8
Kerros2
 10
62.0789964697044
 20
1100.12220653985
 42
-0.151023800123
  0
VERTEX
  8
Kerros2
 10
65.5622491824668
 20
1097.71575765262
 42
-0.0349479787743
  0
VERTEX
  8
Kerros2
 10
66.0267947239465
 20
1096.94157843349
 42
-0.0441116532122
  0
VERTEX
  8
Kerros2
 10
66.4128417287488
 20
1095.98389911567
 42
-0.0413933868328
  0
VERTEX
  8
Kerros2
 10
66.6316877108231
 20
1094.97463730846
 42
-0.0211057070963
  0
VERTEX
  8
Kerros2
 10
66.6773309877033
 20
1094.45958827666
 42
-0.0191970141268
  0
VERTEX
  8
Kerros2
 10
66.6839135205064
 20
1094.20117582095
 42
-0.0144223750075
  0
VERTEX
  8
Kerros2
 10
66.6830859003526
 20
1094.07185565676
 42
-0.0153938358761
  0
VERTEX
  8
Kerros2
 10
66.6794860511902
 20
1093.94261707398
 42
0.0000611967364
  0
VERTEX
  8
Kerros2
 10
66.5688242426738
 20
1091.07880329223
 42
-0.0000801980707
  0
VERTEX
  8
Kerros2
 10
66.5135255009193
 20
1089.64689515855
 42
-0.0000674086633
  0
SEQEND
  0
CIRCLE
  8
Kerros2
 10
143.723803076757
 20
1079.16853304295
 30
0.0
 40
4.0
  0
POLYLINE
  8
Kerros2
 66
     1
 10
0.0
 20
0.0
 30
0.0
 70
     1
  0
VERTEX
  8
Kerros2
 10
224.01281310432
 20
689.188733679661
 42
0.2686105048863
  0
VERTEX
  8
Kerros2
 10
218.0
 20
689.196152422707
 42
0.2679491924311
  0
VERTEX
  8
Kerros2
 10
215.0
 20
684.0
 42
0.0
  0
VERTEX
  8
Kerros2
 10
215.0
 20
666.0
 42
0.4142135623731
  0
VERTEX
  8
Kerros2
 10
221.0
 20
660.0
 42
0.0
  0
VERTEX
  8
Kerros2
 10
252.0
 20
660.0
 42
0.4142135623731
  0
VERTEX
  8
Kerros2
 10
258.0
 20
666.0
 42
0.2672880985707
  0
VERTEX
  8
Kerros2
 10
255.01281310432
 20
671.188733679661
 42
0.0
  0
SEQEND
  0
POLYLINE
  8
Kerros2
 66
     1
 10
0.0
 20
0.0
 30
0.0
 70
     1
  0
VERTEX
  8
Kerros2
 10
499.98718689568
 20
689.188733679661
 42
-0.2686105048863
  0
VERTEX
  8
Kerros2
 10
506.0
 20
689.196152422707
 42
-0.2679491924311
  0
VERTEX
  8
Kerros2
 10
509.0
 20
684.0
 42
0.0
  0
VERTEX
  8
Kerros2
 10
509.0
 20
666.0
 42
-0.4142135623731
  0
VERTEX
  8
Kerros2
 10
503.0
 20
660.0
 42
0.0
  0
VERTEX
  8
Kerros2
 10
472.0
 20
660.0
 42
-0.4142135623731
  0
VERTEX
  8
Kerros2
 10
466.0
 20
666.0
 42
-0.2672880985707
  0
VERTEX
  8
Kerros2
 10
468.98718689568
 20
671.188733679661
 42
0.0
  0
SEQEND
  0
CIRCLE
  8
Kerros2
 10
193.00000048
 20
939.549998913994
 30
0.0
 40
4.0
  0
CIRCLE
  8
Kerros2
 10
577.74999877
 20
939.549998913994
 30
0.0
 40
3.0
  0
POLYLINE
  8
Kerros2
 66
     1
 10
0.0
 20
0.0
 30
0.0
 70
     1
  0
VERTEX
  8
Kerros2
 10
565.471279739325
 20
930.090450353638
 42
0.0325926885566
  0
VERTEX
  8
Kerros2
 10
394.0
 20
948.0
 42
0.0
  0
VERTEX
  8
Kerros2
 10
305.8
 20
960.4
 42
0.1381747203792
  0
VERTEX
  8
Kerros2
 10
291.4
 20
959.2
 42
0.0
  0
VERTEX
  8
Kerros2
 10
258.805797942107
 20
940.093053966063
 42
0.0
  0
VERTEX
  8
Kerros2
 10
223.394377170924
 20
940.093053966062
 42
0.222542531294
  0
VERTEX
  8
Kerros2
 10
209.208530586986
 20
931.721617742198
 42
-0.0388892010996
  0
VERTEX
  8
Kerros2
 10
207.800769307995
 20
929.306110877693
 42
-0.3904476448835
  0
VERTEX
  8
Kerros2
 10
184.00000048
 20
923.961541645874
 42
-0.5773502691896
  0
VERTEX
  8
Kerros2
 10
184.00000048
 20
955.138456182114
 42
-0.1111513762125
  0
VERTEX
  8
Kerros2
 10
191.33353485595
 20
957.47397039806
 42
0.0
  0
VERTEX
  8
Kerros2
 10
191.546988823545
 20
957.491257429667
 42
0.0
  0
VERTEX
  8
Kerros2
 10
213.858810186276
 20
959.29822857879
 42
0.1428810626951
  0
VERTEX
  8
Kerros2
 10
238.994377170924
 20
968.893053966062
 42
-0.1876027540925
  0
VERTEX
  8
Kerros2
 10
294.244029271889
 20
992.528659748344
 42
-0.0606218830371
  0
VERTEX
  8
Kerros2
 10
570.694050631742
 20
953.350853810348
 42
-0.1607999748586
  0
VERTEX
  8
Kerros2
 10
580.297723792314
 20
954.839181273122
 42
-0.3666378841052
  0
VERTEX
  8
Kerros2
 10
593.24999877
 20
939.549998913994
 42
-0.5773502691896
  0
VERTEX
  8
Kerros2
 10
569.99999877
 20
926.126605155335
 42
-0.0701016303013
  0
VERTEX
  8
Kerros2
 10
566.592742072796
 20
928.790555480772
 42
0.0
  0
SEQEND
  0
CIRCLE
  8
Kerros2
 10
510.746332856724
 20
1007.36786277313
 30
0.0
 40
4.0
  0
CIRCLE
  8
Kerros2
 10
418.282637091939
 20
1012.40621225657
 30
0.0
 40
4.0
  0
CIRCLE
  8
Kerros2
 10
464.931411330187
 20
1028.89535602054
 30
0.0
 40
4.0
  0
CIRCLE
  8
Kerros2
 10
111.764081356321
 20
532.129462128558
 30
0.0
 40
4.0
  0
CIRCLE
  8
Kerros2
 10
496.514079646321
 20
532.129462128558
 30
0.0
 40
3.0
  0
CIRCLE
  8
Kerros2
 10
178.764080876321
 20
554.579463214564
 30
0.0
 40
4.0
  0
CIRCLE
  8
Kerros2
 10
271.364080876321
 20
554.179463214564
 30
0.0
 40
4.0
  0
CIRCLE
  8
Kerros2
 10
225.764080876321
 20
573.379463214564
 30
0.0
 40
4.0
  0
POLYLINE
  8
Kerros2
 66
     1
 10
0.0
 20
0.0
 30
0.0
 70
     1
  0
VERTEX
  8
Kerros2
 10
406.764080876321
 20
554.579463214564
 42
0.0101329300641
  0
VERTEX
  8
Kerros2
 10
358.764080876321
 20
562.579463214564
 42
0.6655170847759
  0
VERTEX
  8
Kerros2
 10
357.04259007909
 20
548.119067423576
 42
-0.0093474362667
  0
VERTEX
  8
Kerros2
 10
406.164788861357
 20
543.627553983996
 42
0.5502867347833
  0
SEQEND
  0
POLYLINE
  8
Kerros2
 66
     1
 10
0.0
 20
0.0
 30
0.0
 70
     1
  0
VERTEX
  8
Kerros2
 10
468.849428924082
 20
535.186857834211
 42
0.4694972023681
  0
VERTEX
  8
Kerros2
 10
469.764080876321
 20
540.579463214564
 42
0.0096477311901
  0
VERTEX
  8
Kerros2
 10
424.764080876321
 20
550.579463214564
 42
0.6900633457973
  0
VERTEX
  8
Kerros2
 10
423.606135301167
 20
541.585843886213
 42
-0.0086587768826
  0
SEQEND
  0
CIRCLE
  8
Kerros2
 10
111.764081356321
 20
532.129462128558
 30
0.0
 40
4.0
  0
CIRCLE
  8
Kerros2
 10
496.514079646321
 20
532.129462128558
 30
0.0
 40
3.0
  0
POLYLINE
  8
Kerros2
 66
     1
 10
0.0
 20
0.0
 30
0.0
 70
     1
  0
VERTEX
  8
Kerros2
 10
484.235360615646
 20
522.669913568202
 42
0.0325926885566
  0
VERTEX
  8
Kerros2
 10
312.764080876321
 20
540.579463214564
 42
0.0
  0
VERTEX
  8
Kerros2
 10
224.564080876321
 20
552.979463214564
 42
0.1381747203792
  0
VERTEX
  8
Kerros2
 10
210.164080876321
 20
551.779463214564
 42
0.0
  0
VERTEX
  8
Kerros2
 10
177.569878818428
 20
532.672517180627
 42
0.0
  0
VERTEX
  8
Kerros2
 10
142.158458047245
 20
532.672517180626
 42
0.222542531294
  0
VERTEX
  8
Kerros2
 10
127.972611463306
 20
524.301080956762
 42
-0.0388892010996
  0
VERTEX
  8
Kerros2
 10
126.564850184316
 20
521.885574092257
 42
-0.3904476448835
  0
VERTEX
  8
Kerros2
 10
102.764081356321
 20
516.541004860438
 42
-0.5773502691896
  0
VERTEX
  8
Kerros2
 10
102.764081356321
 20
547.717919396678
 42
-0.1111513762125
  0
VERTEX
  8
Kerros2
 10
110.097615732271
 20
550.053433612624
 42
0.0
  0
VERTEX
  8
Kerros2
 10
110.311069699866
 20
550.070720644231
 42
0.0
  0
VERTEX
  8
Kerros2
 10
132.622891062597
 20
551.877691793354
 42
0.1428810626951
  0
VERTEX
  8
Kerros2
 10
157.758458047245
 20
561.472517180626
 42
-0.1876027540925
  0
VERTEX
  8
Kerros2
 10
213.00811014821
 20
585.108122962908
 42
-0.0606218830371
  0
VERTEX
  8
Kerros2
 10
489.458131508062
 20
545.930317024912
 42
-0.1607999748586
  0
VERTEX
  8
Kerros2
 10
499.061804668635
 20
547.418644487686
 42
-0.3666378841052
  0
VERTEX
  8
Kerros2
 10
512.014079646321
 20
532.129462128558
 42
-0.5773502691896
  0
VERTEX
  8
Kerros2
 10
488.764079646321
 20
518.706068369899
 42
-0.0701016303013
  0
VERTEX
  8
Kerros2
 10
485.356822949117
 20
521.370018695336
 42
0.0
  0
SEQEND
  0
CIRCLE
  8
Kerros2
 10
-111.0
 20
1112.04107347488
 30
0.0
 40
2.5
  0
CIRCLE
  8
Kerros2
 10
-111.0
 20
1066.04107347488
 30
0.0
 40
2.5
  0
CIRCLE
  8
Kerros2
 10
-134.0
 20
1089.04107347488
 30
0.0
 40
2.5
  0
CIRCLE
  8
Kerros2
 10
-88.0
 20
1089.04107347488
 30
0.0
 40
2.5
  0
CIRCLE
  8
Kerros2
 10
-111.235919123679
 20
1089.02053673744
 30
0.0
 40
11.0
  0
CIRCLE
  8
Kerros2
 10
-111.235919123679
 20
1020.97946326256
 30
0.0
 40
11.0
  0
CIRCLE
  8
Kerros2
 10
-111.0
 20
1044.0
 30
0.0
 40
2.5
  0
CIRCLE
  8
Kerros2
 10
-111.0
 20
998.0
 30
0.0
 40
2.5
  0
CIRCLE
  8
Kerros2
 10
-134.0
 20
1021.0
 30
0.0
 40
2.5
  0
CIRCLE
  8
Kerros2
 10
-88.0
 20
1021.0
 30
0.0
 40
2.5
  0
CIRCLE
  8
Kerros2
 10
-111.235919123679
 20
1020.97946326256
 30
0.0
 40
11.0
  0
CIRCLE
  8
Kerros2
 10
-153.844975263998
 20
1032.74255256035
 30
0.0
 40
2.5
  0
CIRCLE
  8
Kerros2
 10
-198.238973768321
 20
1044.79132414911
 30
0.0
 40
2.5
  0
CIRCLE
  8
Kerros2
 10
-170.01758872178
 20
1060.96393760689
 30
0.0
 40
2.5
  0
CIRCLE
  8
Kerros2
 10
-182.066360310539
 20
1016.56993910257
 30
0.0
 40
2.5
  0
CIRCLE
  8
Kerros2
 10
-176.0
 20
1039.0
 30
0.0
 40
11.0
  0
POLYLINE
  8
Kerros2
 66
     1
 10
0.0
 20
0.0
 30
0.0
 70
     1
  0
VERTEX
  8
Kerros2
 10
-205.433350649404
 20
1014.62245805551
 42
0.0034596880172
  0
VERTEX
  8
Kerros2
 10
-205.391577234005
 20
1014.22524974982
 42
0.8463284229535
  0
VERTEX
  8
Kerros2
 10
-148.547456436769
 20
1011.1311694216
 42
0.0171333410027
  0
VERTEX
  8
Kerros2
 10
-148.181406153357
 20
1013.07437055337
 42
0.0
  0
VERTEX
  8
Kerros2
 10
-146.117276837331
 20
1036.34993275872
 42
0.5077150954925
  0
VERTEX
  8
Kerros2
 10
-182.545579613774
 20
1068.2772161846
 42
0.3565753705729
  0
VERTEX
  8
Kerros2
 10
-205.99444681775
 20
1038.42279977722
 42
0.0
  0
VERTEX
  8
Kerros2
 10
-205.391577234005
 20
1014.22524974982
 42
0.0
  0
SEQEND
  0
CIRCLE
  8
Kerros2
 10
-166.276196923243
 20
1099.16853304295
 30
0.0
 40
4.0
  0
POLYLINE
  8
Kerros2
 66
     1
 10
0.0
 20
0.0
 30
0.0
 70
     1
  0
VERTEX
  8
Kerros2
 10
-175.868355147196
 20
1121.00326281594
 42
0.818869159413
  0
VERTEX
  8
Kerros2
 10
-183.11910884439
 20
1081.40927914036
 42
0.0025984758998
  0
VERTEX
  8
Kerros2
 10
-180.108937310674
 20
1081.18696704256
 42
0.0
  0
VERTEX
  8
Kerros2
 10
-168.077478883814
 20
1080.05321501529
 42
0.2828316312325
  0
VERTEX
  8
Kerros2
 10
-150.031590091151
 20
1088.93365400748
 42
0.5527189526929
  0
VERTEX
  8
Kerros2
 10
-164.105410006778
 20
1118.24542178728
 42
0.0025684107195
  0
SEQEND
  0
POLYLINE
  8
Kerros2
 66
     1
 10
0.0
 20
0.0
 30
0.0
 70
     1
  0
VERTEX
  8
Kerros2
 10
202.732529713946
 20
992.219471092373
 42
0.0277115972526
  0
VERTEX
  8
Kerros2
 10
203.928389277191
 20
993.451268296012
 42
-0.0325926885566
  0
VERTEX
  8
Kerros2
 10
376.155458543954
 20
1001.26077249018
 42
0.0
  0
VERTEX
  8
Kerros2
 10
464.931411330187
 20
1008.46009238143
 42
-0.1381747203792
  0
VERTEX
  8
Kerros2
 10
479.236095877565
 20
1006.41656601752
 42
0.0
  0
VERTEX
  8
Kerros2
 10
510.652054001617
 20
985.428593993469
 42
0.0
  0
VERTEX
  8
Kerros2
 10
546.002367875206
 20
983.349163765609
 42
-0.222542531294
  0
VERTEX
  8
Kerros2
 10
559.67214732004
 20
974.159151922155
 42
0.0388892010996
  0
VERTEX
  8
Kerros2
 10
560.935635881284
 20
971.665146732364
 42
0.3904476448835
  0
VERTEX
  8
Kerros2
 10
584.381489552381
 20
964.932170963
 42
0.5773502691896
  0
VERTEX
  8
Kerros2
 10
586.212261012158
 20
996.055285779196
 42
0.1111513762125
  0
VERTEX
  8
Kerros2
 10
579.028527696906
 20
998.817409735767
 42
0.0
  0
VERTEX
  8
Kerros2
 10
578.816457200652
 20
998.847201384979
 42
0.0
  0
VERTEX
  8
Kerros2
 10
556.649246714864
 20
1001.96124964006
 42
-0.1428810626951
  0
VERTEX
  8
Kerros2
 10
532.120481885878
 20
1013.01552925549
 42
0.1876027540925
  0
VERTEX
  8
Kerros2
 10
478.354100628234
 20
1039.8547200859
 42
0.0606218830371
  0
VERTEX
  8
Kerros2
 10
200.080528860712
 20
1016.97822464355
 42
0.1607999748586
  0
VERTEX
  8
Kerros2
 10
190.580825654104
 20
1019.02793091468
 42
0.3666378841052
  0
VERTEX
  8
Kerros2
 10
176.753089767452
 20
1004.52571575432
 42
0.5773502691896
  0
VERTEX
  8
Kerros2
 10
199.174720120811
 20
989.760198753645
 42
0.0701016303013
  0
SEQEND
  0
CIRCLE
  8
Kerros2
 10
-315.462852302818
 20
310.829675025089
 30
0.0
 40
5.4292729601548
  0
CIRCLE
  8
Kerros2
 10
-434.118754703798
 20
318.827196464704
 30
0.0
 40
6.0
  0
POLYLINE
  8
Kerros2
 66
     1
 10
0.0
 20
0.0
 30
0.0
 70
     1
  0
VERTEX
  8
Kerros2
 10
-344.083691905855
 20
326.562029287327
 42
0.0
  0
VERTEX
  8
Kerros2
 10
-344.083386133889
 20
326.563847825036
 42
0.0
  0
VERTEX
  8
Kerros2
 10
-344.08368801021
 20
326.562028640882
 42
0.0
  0
VERTEX
  8
Kerros2
 10
-313.372959403486
 20
321.465875096797
 42
-0.4274551490676
  0
VERTEX
  8
Kerros2
 10
-304.637583933529
 20
308.655056368847
 42
0.0
  0
VERTEX
  8
Kerros2
 10
-309.426130023885
 20
286.126708700862
 42
0.0
  0
VERTEX
  8
Kerros2
 10
-308.548472071971
 20
285.619992646068
 42
-0.4142134637133
  0
VERTEX
  8
Kerros2
 10
-305.034626578783
 20
272.506151570219
 42
0.0
  0
VERTEX
  8
Kerros2
 10
-315.600196537842
 20
254.206047590204
 42
-0.0660161266162
  0
VERTEX
  8
Kerros2
 10
-319.403666864475
 20
239.221608952489
 42
0.0
  0
VERTEX
  8
Kerros2
 10
-328.989684122878
 20
197.700021109528
 42
0.0
  0
VERTEX
  8
Kerros2
 10
-329.0
 20
168.0
 42
0.0
  0
VERTEX
  8
Kerros2
 10
-461.0
 20
168.0
 42
0.0
  0
VERTEX
  8
Kerros2
 10
-461.0
 20
200.4
 42
0.0
  0
VERTEX
  8
Kerros2
 10
-461.0
 20
252.0
 42
-0.2863440654878
  0
VERTEX
  8
Kerros2
 10
-451.4
 20
265.2
 42
0.5616834408278
  0
VERTEX
  8
Kerros2
 10
-444.32220404745
 20
303.300402230335
 42
-0.0256750229647
  0
VERTEX
  8
Kerros2
 10
-445.859918590449
 20
304.428002449352
 42
-0.2962627107592
  0
VERTEX
  8
Kerros2
 10
-452.04775301223
 20
323.699848449116
 42
-0.1121298166098
  0
VERTEX
  8
Kerros2
 10
-448.184134896235
 20
330.966257291108
 42
-0.0839913198073
  0
VERTEX
  8
Kerros2
 10
-443.408422589477
 20
334.917373228142
 42
-0.2335589875587
  0
VERTEX
  8
Kerros2
 10
-426.983253949341
 20
335.981681204504
 42
-0.0222906650067
  0
VERTEX
  8
Kerros2
 10
-344.353266301771
 20
326.606762596352
 42
0.0
  0
SEQEND
  0
CIRCLE
  8
Kerros2
 10
-434.118754703798
 20
318.827196464704
 30
0.0
 40
3.5
  0
CIRCLE
  8
Kerros2
 10
-390.251527928029
 20
321.706148769738
 30
0.0
 40
3.0
  0
CIRCLE
  8
Kerros2
 10
-357.748472071971
 20
200.403092913679
 30
0.0
 40
3.0
  0
CIRCLE
  8
Kerros2
 10
-313.348472071971
 20
277.306148769738
 30
0.0
 40
3.0
  0
CIRCLE
  8
Kerros2
 10
-434.651527928029
 20
244.803092913679
 30
0.0
 40
3.0
  0
CIRCLE
  8
Kerros2
 10
-362.6
 20
280.800000047994
 30
0.0
 40
6.5
  0
CIRCLE
  8
Kerros2
 10
-362.6
 20
280.800000047994
 30
0.0
 40
18.05
  0
POLYLINE
  8
Kerros2
 66
     1
 10
0.0
 20
0.0
 30
0.0
 70
     1
  0
VERTEX
  8
Kerros2
 10
-436.18718689568
 20
222.588733679661
 42
0.2686105048863
  0
VERTEX
  8
Kerros2
 10
-442.2
 20
222.596152422707
 42
0.2679491924311
  0
VERTEX
  8
Kerros2
 10
-445.2
 20
217.4
 42
0.0
  0
VERTEX
  8
Kerros2
 10
-445.2
 20
199.4
 42
0.4142135623731
  0
VERTEX
  8
Kerros2
 10
-439.2
 20
193.4
 42
0.0
  0
VERTEX
  8
Kerros2
 10
-408.2
 20
193.4
 42
0.4142135623731
  0
VERTEX
  8
Kerros2
 10
-402.2
 20
199.4
 42
0.2672880985707
  0
VERTEX
  8
Kerros2
 10
-405.18718689568
 20
204.588733679661
 42
0.0
  0
SEQEND
  0
CIRCLE
  8
Kerros2
 10
-315.462852302818
 20
310.829675025089
 30
0.0
 40
5.4292729601548
  0
CIRCLE
  8
Kerros2
 10
-434.118754703798
 20
318.827196464704
 30
0.0
 40
6.0
  0
POLYLINE
  8
Kerros2
 66
     1
 10
0.0
 20
0.0
 30
0.0
 70
     1
  0
VERTEX
  8
Kerros2
 10
-344.083691905855
 20
326.562029287327
 42
0.0
  0
VERTEX
  8
Kerros2
 10
-344.083386133889
 20
326.563847825036
 42
0.0
  0
VERTEX
  8
Kerros2
 10
-344.08368801021
 20
326.562028640882
 42
0.0
  0
VERTEX
  8
Kerros2
 10
-313.372959403486
 20
321.465875096797
 42
-0.4274551490676
  0
VERTEX
  8
Kerros2
 10
-304.637583933529
 20
308.655056368847
 42
0.0
  0
VERTEX
  8
Kerros2
 10
-309.426130023885
 20
286.126708700862
 42
0.0
  0
VERTEX
  8
Kerros2
 10
-308.548472071971
 20
285.619992646068
 42
-0.4142134637133
  0
VERTEX
  8
Kerros2
 10
-305.034626578783
 20
272.506151570219
 42
0.0
  0
VERTEX
  8
Kerros2
 10
-315.600196537842
 20
254.206047590204
 42
-0.0660161266162
  0
VERTEX
  8
Kerros2
 10
-319.403666864475
 20
239.221608952489
 42
0.0
  0
VERTEX
  8
Kerros2
 10
-328.989684122878
 20
197.700021109528
 42
0.0
  0
VERTEX
  8
Kerros2
 10
-329.0
 20
168.0
 42
0.0
  0
VERTEX
  8
Kerros2
 10
-461.0
 20
168.0
 42
0.0
  0
VERTEX
  8
Kerros2
 10
-461.0
 20
200.4
 42
0.0
  0
VERTEX
  8
Kerros2
 10
-461.0
 20
252.0
 42
-0.2863440654878
  0
VERTEX
  8
Kerros2
 10
-451.4
 20
265.2
 42
0.5616834408278
  0
VERTEX
  8
Kerros2
 10
-444.32220404745
 20
303.300402230335
 42
-0.0256750229647
  0
VERTEX
  8
Kerros2
 10
-445.859918590449
 20
304.428002449352
 42
-0.2962627107592
  0
VERTEX
  8
Kerros2
 10
-452.04775301223
 20
323.699848449116
 42
-0.1121298166098
  0
VERTEX
  8
Kerros2
 10
-448.184134896235
 20
330.966257291108
 42
-0.0839913198073
  0
VERTEX
  8
Kerros2
 10
-443.408422589477
 20
334.917373228142
 42
-0.2335589875587
  0
VERTEX
  8
Kerros2
 10
-426.983253949341
 20
335.981681204504
 42
-0.0222906650067
  0
VERTEX
  8
Kerros2
 10
-344.353266301771
 20
326.606762596352
 42
0.0
  0
SEQEND
  0
CIRCLE
  8
Kerros2
 10
-434.118754703798
 20
318.827196464704
 30
0.0
 40
3.5
  0
CIRCLE
  8
Kerros2
 10
-390.251527928029
 20
321.706148769738
 30
0.0
 40
3.0
  0
CIRCLE
  8
Kerros2
 10
-357.748472071971
 20
200.403092913679
 30
0.0
 40
3.0
  0
CIRCLE
  8
Kerros2
 10
-313.348472071971
 20
277.306148769738
 30
0.0
 40
3.0
  0
CIRCLE
  8
Kerros2
 10
-434.651527928029
 20
244.803092913679
 30
0.0
 40
3.0
  0
CIRCLE
  8
Kerros2
 10
-362.6
 20
280.800000047994
 30
0.0
 40
6.5
  0
CIRCLE
  8
Kerros2
 10
-362.6
 20
280.800000047994
 30
0.0
 40
18.05
  0
POLYLINE
  8
Kerros2
 66
     1
 10
0.0
 20
0.0
 30
0.0
 70
     1
  0
VERTEX
  8
Kerros2
 10
-436.18718689568
 20
222.588733679661
 42
0.2686105048863
  0
VERTEX
  8
Kerros2
 10
-442.2
 20
222.596152422707
 42
0.2679491924311
  0
VERTEX
  8
Kerros2
 10
-445.2
 20
217.4
 42
0.0
  0
VERTEX
  8
Kerros2
 10
-445.2
 20
199.4
 42
0.4142135623731
  0
VERTEX
  8
Kerros2
 10
-439.2
 20
193.4
 42
0.0
  0
VERTEX
  8
Kerros2
 10
-408.2
 20
193.4
 42
0.4142135623731
  0
VERTEX
  8
Kerros2
 10
-402.2
 20
199.4
 42
0.2672880985707
  0
VERTEX
  8
Kerros2
 10
-405.18718689568
 20
204.588733679661
 42
0.0
  0
SEQEND
  0
POLYLINE
  8
Kerros2
 66
     1
 10
0.0
 20
0.0
 30
0.0
 70
     1
  0
VERTEX
  8
Kerros2
 10
75.6192910256875
 20
5.6556357711206
 42
0.0
  0
VERTEX
  8
Kerros2
 10
75.6192910256875
 20
-5.6556357711222
 42
0.0
  0
VERTEX
  8
Kerros2
 10
47.3577636477821
 20
-7.421507800844
 42
-0.5569582465795
  0
VERTEX
  8
Kerros2
 10
41.3768990700507
 20
3.7178320512913
 42
-0.2514791785971
  0
VERTEX
  8
Kerros2
 10
47.3577636478059
 20
7.421507800844
 42
0.0
  0
SEQEND
  0
CIRCLE
  8
Kerros2
 10
-73.764080876321
 20
673.979463262558
 30
0.0
 40
27.5
  0
CIRCLE
  8
Kerros2
 10
339.0
 20
242.0
 30
0.0
 40
44.5
  0
CIRCLE
  8
Kerros2
 10
339.0
 20
242.0
 30
0.0
 40
37.0
  0
CIRCLE
  8
Kerros2
 10
339.0
 20
242.0
 30
0.0
 40
24.0
  0
CIRCLE
  8
Kerros2
 10
302.0
 20
279.0
 30
0.0
 40
3.5
  0
CIRCLE
  8
Kerros2
 10
376.0
 20
205.0
 30
0.0
 40
3.5
  0
CIRCLE
  8
Kerros2
 10
376.0
 20
279.0
 30
0.0
 40
3.5
  0
CIRCLE
  8
Kerros2
 10
302.0
 20
205.0
 30
0.0
 40
3.5
  0
CIRCLE
  8
Kerros2
 10
339.0
 20
242.0
 30
0.0
 40
19.1
  0
CIRCLE
  8
Kerros2
 10
315.4
 20
265.6
 30
0.0
 40
2.5
  0
CIRCLE
  8
Kerros2
 10
362.6
 20
218.4
 30
0.0
 40
2.5
  0
CIRCLE
  8
Kerros2
 10
362.6
 20
265.6
 30
0.0
 40
2.5
  0
CIRCLE
  8
Kerros2
 10
315.4
 20
218.4
 30
0.0
 40
2.5
  0
POLYLINE
  8
Kerros2
 66
     1
 10
0.0
 20
0.0
 30
0.0
 70
     1
  0
VERTEX
  8
Kerros2
 10
358.390719429665
 20
287.0
 42
0.2062842492518
  0
VERTEX
  8
Kerros2
 10
319.609280570335
 20
287.0
 42
0.0
  0
VERTEX
  8
Kerros2
 10
302.0
 20
287.0
 42
0.4142135623731
  0
VERTEX
  8
Kerros2
 10
294.0
 20
279.0
 42
0.0
  0
VERTEX
  8
Kerros2
 10
294.0
 20
261.390719429665
 42
0.2062842492518
  0
VERTEX
  8
Kerros2
 10
294.0
 20
222.609280570335
 42
0.0
  0
VERTEX
  8
Kerros2
 10
294.0
 20
205.0
 42
0.4142135623731
  0
VERTEX
  8
Kerros2
 10
302.0
 20
197.0
 42
0.0
  0
VERTEX
  8
Kerros2
 10
319.609280570335
 20
197.0
 42
0.2062842492518
  0
VERTEX
  8
Kerros2
 10
358.390719429665
 20
197.0
 42
0.0
  0
VERTEX
  8
Kerros2
 10
376.0
 20
197.0
 42
0.4142135623731
  0
VERTEX
  8
Kerros2
 10
384.0
 20
205.0
 42
0.0
  0
VERTEX
  8
Kerros2
 10
384.0
 20
222.609280570335
 42
0.1020676108895
  0
VERTEX
  8
Kerros2
 10
388.0
 20
242.0
 42
0.1020676108895
  0
VERTEX
  8
Kerros2
 10
384.0
 20
261.390719429665
 42
0.0
  0
VERTEX
  8
Kerros2
 10
384.0
 20
279.0
 42
0.4142135623731
  0
VERTEX
  8
Kerros2
 10
376.0
 20
287.0
 42
0.0
  0
SEQEND
  0
POLYLINE
  8
Kerros2
 66
     1
 10
0.0
 20
0.0
 30
0.0
 70
     1
  0
VERTEX
  8
Kerros2
 10
-46.0
 20
-39.0
 42
0.0
  0
VERTEX
  8
Kerros2
 10
86.0
 20
-39.0
 42
0.0
  0
VERTEX
  8
Kerros2
 10
86.0
 20
-30.0
 42
0.0
  0
VERTEX
  8
Kerros2
 10
-46.0
 20
-30.0
 42
0.0
  0
SEQEND
  0
POLYLINE
  8
Kerros2
 66
     1
 10
0.0
 20
0.0
 30
0.0
 70
     1
  0
VERTEX
  8
Kerros2
 10
-46.0
 20
30.0
 42
0.0
  0
VERTEX
  8
Kerros2
 10
86.0
 20
30.0
 42
0.0
  0
VERTEX
  8
Kerros2
 10
86.0
 20
39.0
 42
0.0
  0
VERTEX
  8
Kerros2
 10
-46.0
 20
39.0
 42
0.0
  0
SEQEND
  0
CIRCLE
  8
Kerros2
 10
0.0
 20
0.0
 30
0.0
 40
21.7
  0
POLYLINE
  8
Kerros2
 66
     1
 10
0.0
 20
0.0
 30
0.0
 70
     1
  0
VERTEX
  8
Kerros2
 10
-141.6
 20
21.1
 42
0.0
  0
VERTEX
  8
Kerros2
 10
-133.6
 20
21.1
 42
0.4142135623731
  0
VERTEX
  8
Kerros2
 10
-131.1
 20
23.6
 42
0.4142135623731
  0
VERTEX
  8
Kerros2
 10
-133.6
 20
26.1
 42
0.0
  0
VERTEX
  8
Kerros2
 10
-141.6
 20
26.1
 42
0.1316524975874
  0
VERTEX
  8
Kerros2
 10
-142.85
 20
25.7650635094611
 42
0.5773502691896
  0
VERTEX
  8
Kerros2
 10
-142.85
 20
21.4349364905389
 42
0.1316524975874
  0
SEQEND
  0
POLYLINE
  8
Kerros2
 66
     1
 10
0.0
 20
0.0
 30
0.0
 70
     1
  0
VERTEX
  8
Kerros2
 10
-133.6
 20
-21.1
 42
0.0
  0
VERTEX
  8
Kerros2
 10
-141.6
 20
-21.1
 42
0.1316524975874
  0
VERTEX
  8
Kerros2
 10
-142.85
 20
-21.4349364905389
 42
0.5773502691896
  0
VERTEX
  8
Kerros2
 10
-142.85
 20
-25.7650635094611
 42
0.1316525356976
  0
VERTEX
  8
Kerros2
 10
-141.6
 20
-26.1
 42
0.0
  0
VERTEX
  8
Kerros2
 10
-133.599999625391
 20
-26.1
 42
0.4142135184849
  0
VERTEX
  8
Kerros2
 10
-131.1
 20
-23.6
 42
0.4142135623731
  0
SEQEND
  0
POLYLINE
  8
Kerros2
 66
     1
 10
0.0
 20
0.0
 30
0.0
 70
     1
  0
VERTEX
  8
Kerros2
 10
-110.0
 20
19.1
 42
0.0
  0
VERTEX
  8
Kerros2
 10
-118.0
 20
19.1
 42
0.1316525020772
  0
VERTEX
  8
Kerros2
 10
-127.55
 20
16.5410852122828
 42
0.5773502691896
  0
VERTEX
  8
Kerros2
 10
-127.55
 20
-16.5410852122828
 42
0.1316525046864
  0
VERTEX
  8
Kerros2
 10
-118.0
 20
-19.1
 42
0.0
  0
VERTEX
  8
Kerros2
 10
-109.999999369204
 20
-19.1
 42
0.4142135527
  0
VERTEX
  8
Kerros2
 10
-90.9
 20
0.0
 42
0.4142135572026
  0
SEQEND
  0
POLYLINE
  8
Kerros2
 66
     1
 10
0.0
 20
0.0
 30
0.0
 70
     1
  0
VERTEX
  8
Kerros2
 10
-86.4
 20
26.1
 42
0.0
  0
VERTEX
  8
Kerros2
 10
-94.4
 20
26.1
 42
0.1316524975874
  0
VERTEX
  8
Kerros2
 10
-95.65
 20
25.7650635094611
 42
0.5773502691896
  0
VERTEX
  8
Kerros2
 10
-95.65
 20
21.4349364905389
 42
0.1316524975874
  0
VERTEX
  8
Kerros2
 10
-94.4
 20
21.1
 42
0.0
  0
VERTEX
  8
Kerros2
 10
-86.4
 20
21.1
 42
0.4142135623731
  0
VERTEX
  8
Kerros2
 10
-83.9
 20
23.6
 42
0.4142135623731
  0
SEQEND
  0
POLYLINE
  8
Kerros2
 66
     1
 10
0.0
 20
0.0
 30
0.0
 70
     1
  0
VERTEX
  8
Kerros2
 10
-86.4
 20
-21.1
 42
0.0
  0
VERTEX
  8
Kerros2
 10
-94.4
 20
-21.1
 42
0.1316524975874
  0
VERTEX
  8
Kerros2
 10
-95.65
 20
-21.4349364905389
 42
0.5773502691896
  0
VERTEX
  8
Kerros2
 10
-95.65
 20
-25.7650635094611
 42
0.1316524975874
  0
VERTEX
  8
Kerros2
 10
-94.4
 20
-26.1
 42
0.0
  0
VERTEX
  8
Kerros2
 10
-86.3999999999999
 20
-26.1
 42
0.4142135623731
  0
VERTEX
  8
Kerros2
 10
-83.9
 20
-23.6
 42
0.4142135623731
  0
SEQEND
  0
POLYLINE
  8
Kerros2
 66
     1
 10
0.0
 20
0.0
 30
0.0
 70
     1
  0
VERTEX
  8
Kerros2
 10
-134.097248883262
 20
34.0882192744095
 42
0.0
  0
VERTEX
  8
Kerros2
 10
-137.564506580875
 20
34.0999400101714
 42
0.1325123237712
  0
VERTEX
  8
Kerros2
 10
-142.85
 20
32.6932667397366
 42
0.2679491924311
  0
VERTEX
  8
Kerros2
 10
-148.1
 20
23.6
 42
0.0
  0
VERTEX
  8
Kerros2
 10
-148.1
 20
-23.6
 42
0.2679491924311
  0
VERTEX
  8
Kerros2
 10
-142.85
 20
-32.6932667397366
 42
0.1325123509939
  0
VERTEX
  8
Kerros2
 10
-137.564505948769
 20
-34.0999400080347
 42
0.0
  0
VERTEX
  8
Kerros2
 10
-134.097249105892
 20
-34.0882192751621
 42
0.0
  0
VERTEX
  8
Kerros2
 10
-133.564505948769
 20
-34.0999400080347
 42
0.0
  0
VERTEX
  8
Kerros2
 10
-107.999954291967
 20
-34.0135214660705
 42
0.0
  0
VERTEX
  8
Kerros2
 10
-104.0
 20
-34.0
 42
-0.2145831876214
  0
VERTEX
  8
Kerros2
 10
-85.2172386208555
 20
-44.2495451031553
 42
0.1430296015732
  0
VERTEX
  8
Kerros2
 10
-48.0104155366313
 20
-83.1564790019394
 42
0.126358239659
  0
VERTEX
  8
Kerros2
 10
-2.0
 20
-96.0
 42
0.3277352905839
  0
VERTEX
  8
Kerros2
 10
91.0
 20
-30.6431068920891
 42
0.0
  0
VERTEX
  8
Kerros2
 10
91.0
 20
30.6431068920891
 42
0.3277352905839
  0
VERTEX
  8
Kerros2
 10
-2.0
 20
96.0
 42
0.126358239659
  0
VERTEX
  8
Kerros2
 10
-48.0104155366312
 20
83.1564790019395
 42
0.1430296015732
  0
VERTEX
  8
Kerros2
 10
-85.2172386208554
 20
44.2495451031553
 42
-0.2145831876214
  0
VERTEX
  8
Kerros2
 10
-104.0
 20
34.0
 42
0.0
  0
VERTEX
  8
Kerros2
 10
-107.837947683092
 20
34.0129738180963
 42
0.0
  0
VERTEX
  8
Kerros2
 10
-133.564506580875
 20
34.0999400101714
 42
0.0
  0
SEQEND
  0
CIRCLE
  8
Kerros2
 10
76.0
 20
-34.5
 30
0.0
 40
2.0
  0
CIRCLE
  8
Kerros2
 10
-36.0
 20
-34.5
 30
0.0
 40
2.0
  0
CIRCLE
  8
Kerros2
 10
20.0
 20
-34.5
 30
0.0
 40
2.0
  0
CIRCLE
  8
Kerros2
 10
76.0
 20
34.5
 30
0.0
 40
2.0
  0
CIRCLE
  8
Kerros2
 10
-36.0
 20
34.5
 30
0.0
 40
2.0
  0
CIRCLE
  8
Kerros2
 10
20.0
 20
34.5
 30
0.0
 40
2.0
  0
CIRCLE
  8
Kerros2
 10
0.0
 20
0.0
 30
0.0
 40
6.0
  0
CIRCLE
  8
Kerros2
 10
0.0
 20
0.0
 30
0.0
 40
31.1
  0
POLYLINE
  8
Kerros2
 66
     1
 10
0.0
 20
0.0
 30
0.0
 70
     1
  0
VERTEX
  8
Kerros2
 10
79.0692806383984
 20
6.6701609344555
 42
0.0
  0
VERTEX
  8
Kerros2
 10
78.6283203876674
 20
7.7170009686896
 42
0.0
  0
VERTEX
  8
Kerros2
 10
76.6006081323081
 20
7.8489365949074
 42
0.0
  0
VERTEX
  8
Kerros2
 10
76.0277122553593
 20
6.8680643737822
 42
0.0
  0
VERTEX
  8
Kerros2
 10
74.0
 20
7.0
 42
0.0
  0
VERTEX
  8
Kerros2
 10
73.559039749269
 20
8.0468400342341
 42
0.0
  0
VERTEX
  8
Kerros2
 10
71.5313274939097
 20
8.1787756604519
 42
0.0
  0
VERTEX
  8
Kerros2
 10
70.958431616961
 20
7.1979034393267
 42
0.0
  0
VERTEX
  8
Kerros2
 10
68.9307193616016
 20
7.3298390655445
 42
0.0
  0
VERTEX
  8
Kerros2
 10
68.4897591108706
 20
8.3766790997786
 42
0.0
  0
VERTEX
  8
Kerros2
 10
66.4620468555113
 20
8.5086147259964
 42
0.0
  0
VERTEX
  8
Kerros2
 10
65.8891509785626
 20
7.5277425048712
 42
0.0
  0
VERTEX
  8
Kerros2
 10
63.8614387232032
 20
7.659678131089
 42
0.0
  0
VERTEX
  8
Kerros2
 10
63.4204784724723
 20
8.7065181653231
 42
0.0
  0
VERTEX
  8
Kerros2
 10
61.3927662171129
 20
8.8384537915409
 42
0.0
  0
VERTEX
  8
Kerros2
 10
60.8198703401642
 20
7.8575815704157
 42
0.0
  0
VERTEX
  8
Kerros2
 10
58.7921580848048
 20
7.9895171966335
 42
0.0
  0
VERTEX
  8
Kerros2
 10
58.3511978340739
 20
9.0363572308676
 42
0.0
  0
VERTEX
  8
Kerros2
 10
56.3234855787145
 20
9.1682928570854
 42
0.0
  0
VERTEX
  8
Kerros2
 10
55.7505897017658
 20
8.1874206359601
 42
0.0
  0
VERTEX
  8
Kerros2
 10
53.7228774464064
 20
8.3193562621779
 42
0.0
  0
VERTEX
  8
Kerros2
 10
53.2819171956755
 20
9.3661962964121
 42
0.0
  0
VERTEX
  8
Kerros2
 10
51.2542049403161
 20
9.4981319226299
 42
0.0
  0
VERTEX
  8
Kerros2
 10
51.0782552623733
 20
9.1968831995124
 42
0.0
  0
VERTEX
  8
Kerros2
 10
50.6813090633674
 20
8.5172597015046
 42
0.0
  0
VERTEX
  8
Kerros2
 10
48.653596808008
 20
8.6491953277224
 42
0.0
  0
VERTEX
  8
Kerros2
 10
48.2126365572771
 20
9.6960353619565
 42
0.1372332775106
  0
VERTEX
  8
Kerros2
 10
43.1508166655146
 20
8.3990319105449
 42
0.5773502691896
  0
VERTEX
  8
Kerros2
 10
43.1508166655146
 20
-8.3990319105449
 42
0.1372332775106
  0
VERTEX
  8
Kerros2
 10
48.2126365572771
 20
-9.6960353619565
 42
0.0
  0
VERTEX
  8
Kerros2
 10
48.653596808008
 20
-8.6491953277224
 42
0.0
  0
VERTEX
  8
Kerros2
 10
50.6813090633674
 20
-8.5172597015046
 42
0.0
  0
VERTEX
  8
Kerros2
 10
51.0782552623733
 20
-9.1968831995124
 42
0.0
  0
VERTEX
  8
Kerros2
 10
51.2542049403161
 20
-9.4981319226299
 42
0.0
  0
VERTEX
  8
Kerros2
 10
53.2819171956755
 20
-9.3661962964121
 42
0.0
  0
VERTEX
  8
Kerros2
 10
53.7228774464064
 20
-8.3193562621779
 42
0.0
  0
VERTEX
  8
Kerros2
 10
55.7505897017658
 20
-8.1874206359601
 42
0.0
  0
VERTEX
  8
Kerros2
 10
56.3234855787145
 20
-9.1682928570854
 42
0.0
  0
VERTEX
  8
Kerros2
 10
58.3511978340739
 20
-9.0363572308676
 42
0.0
  0
VERTEX
  8
Kerros2
 10
58.7921580848048
 20
-7.9895171966335
 42
0.0
  0
VERTEX
  8
Kerros2
 10
60.8198703401642
 20
-7.8575815704157
 42
0.0
  0
VERTEX
  8
Kerros2
 10
61.3927662171129
 20
-8.8384537915409
 42
0.0
  0
VERTEX
  8
Kerros2
 10
63.4204784724723
 20
-8.7065181653231
 42
0.0
  0
VERTEX
  8
Kerros2
 10
63.8614387232032
 20
-7.659678131089
 42
0.0
  0
VERTEX
  8
Kerros2
 10
65.8891509785626
 20
-7.5277425048712
 42
0.0
  0
VERTEX
  8
Kerros2
 10
66.4620468555113
 20
-8.5086147259964
 42
0.0
  0
VERTEX
  8
Kerros2
 10
68.4897591108706
 20
-8.3766790997786
 42
0.0
  0
VERTEX
  8
Kerros2
 10
68.9307193616016
 20
-7.3298390655445
 42
0.0
  0
VERTEX
  8
Kerros2
 10
70.958431616961
 20
-7.1979034393267
 42
0.0
  0
VERTEX
  8
Kerros2
 10
71.5313274939097
 20
-8.1787756604519
 42
0.0
  0
VERTEX
  8
Kerros2
 10
73.559039749269
 20
-8.0468400342341
 42
0.0
  0
VERTEX
  8
Kerros2
 10
74.0
 20
-7.0
 42
0.0
  0
VERTEX
  8
Kerros2
 10
76.0277122553593
 20
-6.8680643737822
 42
0.0
  0
VERTEX
  8
Kerros2
 10
76.6006081323081
 20
-7.8489365949074
 42
0.0
  0
VERTEX
  8
Kerros2
 10
78.6283203876674
 20
-7.7170009686896
 42
0.0
  0
VERTEX
  8
Kerros2
 10
79.0692806383983
 20
-6.6701609344555
 42
0.0
  0
VERTEX
  8
Kerros2
 10
81.0582089675937
 20
-7.0863196797971
 42
0.0
  0
VERTEX
  8
Kerros2
 10
81.0198380289775
 20
-7.1022048121904
 42
0.0
  0
VERTEX
  8
Kerros2
 10
80.8566108207228
 20
-8.2263386469651
 42
0.0
  0
VERTEX
  8
Kerros2
 10
82.5246431897587
 20
-9.3868092479925
 42
0.0
  0
VERTEX
  8
Kerros2
 10
83.5218865825313
 20
-8.8429107137314
 42
0.0
  0
VERTEX
  8
Kerros2
 10
84.4236773864539
 20
-9.8814319077733
 42
-0.5391434765815
  0
VERTEX
  8
Kerros2
 10
-42.5
 20
-73.6121593216773
 42
-0.5773502691896
  0
VERTEX
  8
Kerros2
 10
-42.5
 20
73.6121593216773
 42
-0.5391434765815
  0
VERTEX
  8
Kerros2
 10
84.4236773864539
 20
9.8814319077733
 42
0.0
  0
VERTEX
  8
Kerros2
 10
83.5218865825313
 20
8.8429107137314
 42
0.0
  0
VERTEX
  8
Kerros2
 10
82.5246431897587
 20
9.3868092479925
 42
0.0
  0
VERTEX
  8
Kerros2
 10
80.8566108207228
 20
8.2263386469651
 42
0.0
  0
VERTEX
  8
Kerros2
 10
81.0198380289775
 20
7.1022048121904
 42
0.0
  0
VERTEX
  8
Kerros2
 10
81.0582089675937
 20
7.0863196797971
 42
0.0
  0
SEQEND
  0
ENDSEC
  0
EOF
